<?xml version="1.0" encoding="utf-8"?>
<!-- Generator: Adobe Illustrator 23.0.2, SVG Export Plug-In . SVG Version: 6.00 Build 0)  -->
<svg version="1.1" id="Layer_1" xmlns="http://www.w3.org/2000/svg" xmlns:xlink="http://www.w3.org/1999/xlink" x="0px" y="0px"
	 viewBox="0 0 25.8 25.7" style="enable-background:new 0 0 25.8 25.7;" xml:space="preserve">
<path d="M0.4,8.5h5.3v17.2H0.4V8.5z M3.1,0c1.7,0,3.1,1.4,3.1,3.1c0,1.7-1.4,3.1-3.1,3.1C1.4,6.2,0,4.8,0,3.1C0,1.4,1.4,0,3.1,0"/>
<path d="M9.1,8.5h5.1v2.3h0.1c0.7-1.4,2.5-2.8,5.1-2.8c5.4,0,6.4,3.6,6.4,8.2v9.4h-5.3v-8.4c0-2,0-4.6-2.8-4.6
	c-2.8,0-3.2,2.2-3.2,4.4v8.5H9.1V8.5z"/>
</svg>
