<?xml version="1.0" encoding="utf-8"?>
<!-- Generator: Adobe Illustrator 23.0.2, SVG Export Plug-In . SVG Version: 6.00 Build 0)  -->
<svg version="1.1" id="Calque_1" focusable="false" xmlns="http://www.w3.org/2000/svg" xmlns:xlink="http://www.w3.org/1999/xlink"
	 x="0px" y="0px" viewBox="0 0 512 512" style="enable-background:new 0 0 512 512;" xml:space="preserve">
<path d="M347.4,160c-15-89.3-50.3-152-91.4-152s-76.4,62.7-91.4,152H347.4z M156.9,256c0,22.2,1.2,43.5,3.4,64h191.3
	c2.2-20.5,3.4-41.8,3.4-64s-1.2-43.5-3.4-64H160.3C158.2,212.5,156.9,233.8,156.9,256z M492.2,160C462.6,92.1,402.9,39.6,329,18.4
	c25.2,33.8,42.5,84.7,51.6,141.6H492.2z M183,18.4C109.2,39.6,49.4,92.1,19.9,160h111.5C140.4,103.1,157.8,52.2,183,18.4L183,18.4z
	 M503.2,192H384.8c2.2,21,3.4,42.5,3.4,64s-1.2,43-3.4,64h118.3c5.7-20.5,8.9-41.8,8.9-64S508.8,212.5,503.2,192L503.2,192z
	 M123.9,256c0-21.5,1.2-43,3.4-64H8.9C3.3,212.5,0,233.8,0,256s3.3,43.5,8.9,64h118.3C125.1,299,123.9,277.5,123.9,256z M164.7,352
	c15,89.3,50.3,152,91.4,152s76.4-62.7,91.4-152H164.7z M329.2,493.6c73.7-21.2,133.6-73.7,163.1-141.6H380.8
	C371.7,408.9,354.3,459.8,329.2,493.6z M19.9,352c29.5,67.9,89.3,120.4,163.1,141.6c-25.2-33.8-42.5-84.7-51.6-141.6
	C131.4,352,19.9,352,19.9,352z"/>
</svg>
