<?xml version="1.0" standalone="no"?>
<!DOCTYPE svg PUBLIC "-//W3C//DTD SVG 20010904//EN"
 "http://www.w3.org/TR/2001/REC-SVG-20010904/DTD/svg10.dtd">
<svg version="1.0" xmlns="http://www.w3.org/2000/svg"
 width="1000.000000pt" height="1000.000000pt" viewBox="0 0 1000.000000 1000.000000"
 preserveAspectRatio="xMidYMid meet">
<metadata>
Created by potrace 1.11, written by Peter Selinger 2001-2013
</metadata>
<g transform="translate(0.000000,1000.000000) scale(0.100000,-0.100000)"
fill="#000000" stroke="none">
<path d="M2977 7875 c-1 -1 -41 -5 -89 -9 -48 -3 -107 -10 -130 -15 -24 -5
-61 -12 -83 -15 -68 -11 -219 -54 -322 -92 -468 -174 -863 -516 -1101 -954
-41 -77 -117 -246 -128 -285 -1 -5 -10 -30 -19 -55 -16 -44 -60 -210 -69 -260
-2 -14 -7 -41 -10 -60 -3 -19 -9 -48 -12 -65 -3 -16 -7 -122 -9 -235 -3 -210
10 -347 49 -510 9 -36 18 -75 21 -88 9 -37 81 -233 110 -297 158 -352 432
-669 767 -888 78 -51 316 -177 335 -177 4 0 42 -13 83 -29 136 -53 346 -100
520 -118 78 -7 323 -7 375 0 17 3 42 5 58 6 17 1 27 7 27 16 0 12 4 13 19 5
43 -22 49 -10 14 28 -37 39 -73 101 -73 127 0 51 105 -40 129 -112 12 -35 18
-42 38 -41 12 1 23 3 23 4 0 1 -6 16 -14 34 -35 84 37 95 107 16 16 -18 21
-19 70 -6 28 7 76 22 106 33 l55 20 -26 22 c-41 35 -71 102 -64 140 8 39 24
55 63 59 60 7 145 -63 159 -132 l6 -31 42 20 c30 15 41 27 42 45 4 63 61 102
129 87 36 -8 45 -6 84 21 l45 29 -39 14 c-162 56 -153 283 11 283 73 0 145
-64 159 -142 4 -21 10 -38 14 -38 15 0 100 98 114 132 10 25 30 45 61 63 26
15 66 53 91 84 42 56 43 58 25 74 -25 21 -43 90 -35 130 18 86 97 144 179 134
38 -5 45 -3 55 16 11 22 11 22 5 -1 -4 -18 3 -32 35 -63 60 -59 66 -139 16
-216 -17 -26 -84 -63 -114 -63 -17 0 -20 -10 -26 -76 -5 -48 -3 -90 4 -113 9
-30 8 -48 -5 -90 -14 -47 -18 -154 -7 -174 3 -5 13 -1 22 7 28 26 84 44 124
40 127 -12 186 -145 100 -226 -54 -49 -143 -58 -201 -20 l-25 16 6 -49 c6 -43
14 -55 51 -87 55 -47 64 -85 35 -138 -19 -33 -20 -42 -9 -74 13 -41 13 -41 45
-20 31 20 119 23 162 6 35 -15 63 -63 55 -94 -9 -35 -66 -69 -126 -75 -31 -3
-56 -9 -56 -14 0 -10 78 -161 89 -172 5 -5 31 -10 59 -11 84 -3 112 -50 47
-80 -38 -19 -42 -27 -21 -45 12 -10 20 -9 41 5 31 20 169 33 179 16 17 -28
-68 -64 -151 -64 -47 0 -49 -12 -5 -30 16 -6 22 -12 14 -15 -32 -12 162 -217
369 -388 87 -73 296 -195 449 -263 127 -56 361 -125 475 -138 28 -4 53 -8 57
-10 36 -21 477 -21 583 -1 19 4 72 14 125 24 58 10 181 44 260 72 628 219
1104 709 1304 1341 69 217 91 371 91 630 0 222 -9 303 -55 491 -101 414 -335
798 -653 1071 -135 116 -192 157 -337 240 -253 145 -539 235 -840 264 -132 13
-462 5 -479 -12 -3 -2 5 -23 17 -46 11 -23 19 -46 16 -50 -8 -13 -58 21 -80
53 -19 28 -57 39 -69 20 -3 -6 -24 -9 -46 -9 -22 0 -43 -2 -46 -6 -4 -4 10
-23 30 -44 69 -71 83 -162 24 -162 -52 0 -130 85 -141 153 -1 12 -6 21 -10 21
-69 -14 -66 -11 -55 -44 15 -43 4 -75 -30 -89 -30 -13 -63 -4 -124 36 -28 18
-28 18 -125 -31 -114 -58 -157 -86 -144 -95 5 -3 17 -21 27 -40 23 -45 16
-113 -15 -146 -46 -49 -141 -41 -196 16 -15 16 -33 29 -39 29 -6 0 -71 -57
-143 -126 l-132 -126 6 -53 c12 -101 -56 -185 -149 -185 -30 0 -37 -5 -61 -50
l-27 -50 30 -31 c103 -102 29 -279 -117 -279 -156 0 -220 202 -94 298 29 22
46 27 94 27 l58 0 11 53 c12 50 11 54 -13 80 -71 76 -66 169 12 236 18 14 38
26 46 26 13 0 14 26 9 188 -3 103 -6 192 -7 197 -1 6 -26 10 -57 10 -31 0 -69
7 -86 15 -39 20 -75 75 -75 116 0 40 46 98 88 110 15 4 30 8 35 9 4 2 16 3 26
4 19 1 19 3 5 54 -20 69 -41 132 -61 185 -14 39 -19 42 -52 42 -46 0 -102 28
-117 59 -14 28 -1 67 25 76 9 3 24 12 34 19 18 14 18 15 1 43 -10 15 -19 30
-21 32 -2 3 -13 -5 -26 -16 -51 -47 -169 -56 -209 -15 -44 44 27 96 134 97 57
0 65 2 57 16 -4 9 -19 23 -33 32 -14 10 -26 28 -28 44 -3 28 -4 28 -76 29 -90
1 -109 15 -52 38 22 9 47 16 55 16 8 0 15 4 15 8 0 10 -138 170 -197 228 -187
183 -448 350 -711 453 -67 27 -246 80 -292 87 -19 3 -38 8 -41 9 -3 2 -28 7
-55 11 -27 3 -58 8 -69 10 -60 12 -377 27 -388 19z m1630 -831 c-3 -3 -12 -4
-19 -1 -8 3 -5 6 6 6 11 1 17 -2 13 -5z m-67 -47 c0 -22 -108 -62 -165 -62
-39 0 -20 30 32 50 64 26 133 32 133 12z m152 -45 c38 -38 -106 -98 -186 -78
-51 13 -23 53 53 79 48 16 117 15 133 -1z m-422 -21 c0 -22 -117 -81 -160 -81
-44 0 -3 37 77 69 53 22 83 26 83 12z m120 -46 c0 -21 -47 -64 -79 -72 -14 -3
-30 -9 -36 -12 -20 -14 -72 -12 -84 3 -10 12 -6 19 23 43 44 34 89 51 139 52
27 1 37 -3 37 -14z m-385 -70 c-41 -33 -123 -77 -136 -73 -11 4 139 98 156 98
5 0 -3 -11 -20 -25z m526 -4 c23 -19 23 -21 9 -47 -31 -56 -175 -97 -212 -60
-61 60 135 163 203 107z m-421 -10 c0 -32 -120 -111 -166 -111 -76 0 62 118
139 120 15 0 27 -4 27 -9z m113 -70 c17 -17 -7 -56 -56 -90 -109 -75 -209 -46
-124 36 58 57 150 84 180 54z m-374 -54 c-25 -46 -159 -131 -159 -100 0 28
142 139 162 127 4 -3 3 -15 -3 -27z m859 10 c29 -14 39 -54 21 -86 -18 -34
-93 -71 -142 -71 -113 0 -142 96 -44 146 62 33 113 37 165 11z m-773 -57 c7
-11 -17 -54 -44 -80 -55 -53 -141 -79 -141 -42 0 64 157 167 185 122z m441
-25 c14 -21 14 -27 0 -54 -51 -97 -237 -135 -236 -47 2 94 188 174 236 101z
m-735 -43 c-14 -26 -108 -112 -123 -112 -6 0 19 29 57 65 37 36 70 65 72 65 2
0 -1 -8 -6 -18z m397 -34 c43 -43 -48 -157 -139 -173 -31 -6 -62 10 -67 33 -3
15 20 60 45 87 48 53 133 81 161 53z m870 -12 c94 -49 81 -153 -24 -189 -98
-34 -194 12 -194 93 0 77 138 138 218 96z m-1218 -3 c0 -22 -55 -93 -93 -121
-56 -39 -71 -41 -63 -6 10 37 45 82 86 110 33 23 70 32 70 17z m862 -73 c26
-27 30 -36 25 -67 -18 -106 -200 -167 -252 -84 -20 31 -22 56 -7 86 27 57 90
94 160 95 35 0 49 -6 74 -30z m-803 -19 c19 -12 7 -68 -22 -102 -63 -73 -138
-100 -145 -52 -6 42 38 104 103 144 33 21 44 23 64 10z m-274 -64 c-16 -35
-91 -117 -107 -117 -28 0 23 84 82 133 40 34 47 29 25 -16z m710 8 c29 -28 30
-43 11 -88 -19 -44 -63 -83 -114 -101 -53 -19 -47 -19 -82 -1 -76 39 -28 163
78 201 54 19 80 17 107 -11z m-665 -88 c0 -46 -89 -157 -126 -157 -23 0 -25
19 -6 63 37 83 132 151 132 94z m338 -10 c30 -24 1 -113 -52 -161 -83 -73
-173 -36 -135 56 37 91 134 146 187 105z m890 -31 c65 -33 85 -92 53 -154 -67
-131 -281 -109 -281 28 0 99 135 174 228 126z m-1413 -87 c-9 -44 -83 -149
-105 -149 -26 0 12 88 60 143 34 39 52 41 45 6z m1037 5 c52 -48 46 -117 -17
-180 -50 -49 -112 -66 -166 -44 -49 21 -72 85 -50 142 12 31 59 78 96 95 39
17 110 11 137 -13z m-784 -14 c6 -41 -16 -95 -57 -137 -46 -47 -75 -58 -96
-36 -21 20 -19 49 6 100 42 86 139 135 147 73z m3005 19 c66 -36 132 -189 80
-189 -44 0 -136 141 -120 184 8 19 12 20 40 5z m174 -113 c32 -46 58 -115 47
-125 -19 -19 -91 83 -101 144 -8 50 10 44 54 -19z m-2760 18 c22 -22 25 -32
20 -70 -13 -118 -151 -203 -214 -130 -14 17 -23 40 -23 62 0 116 146 209 217
138z m-640 -30 c14 -37 -52 -164 -94 -183 -62 -28 -39 97 32 172 29 31 53 35
62 11z m2762 -29 c91 -46 127 -176 63 -225 -71 -57 -199 30 -206 139 -5 80 69
125 143 86z m289 -33 c31 -20 69 -89 75 -135 6 -44 -22 -87 -56 -87 -55 0
-122 73 -134 144 -15 92 38 128 115 78z m-2738 -2 c59 -59 -28 -230 -116 -230
-24 0 -53 28 -59 58 -11 57 43 153 99 178 42 18 53 17 76 -6z m-510 -10 c-6
-11 -13 -20 -16 -20 -2 0 0 9 6 20 6 11 13 20 16 20 2 0 0 -9 -6 -20z m1827 1
c76 -41 105 -137 61 -200 -39 -58 -72 -76 -138 -76 -62 0 -96 17 -132 66 -70
97 23 233 154 223 20 -2 45 -7 55 -13z m1621 -16 c55 -39 97 -161 69 -200 -14
-19 -17 -19 -49 -4 -60 29 -112 154 -81 198 17 25 31 26 61 6z m-3423 -71
c-16 -53 -56 -126 -72 -132 -34 -11 -4 103 44 167 32 42 46 25 28 -35z m1386
26 c15 -6 36 -29 47 -49 64 -113 -57 -256 -185 -222 -78 21 -120 108 -89 181
37 90 141 131 227 90z m2195 -12 c35 -39 54 -76 60 -115 3 -21 8 -41 10 -44 2
-4 -3 -12 -11 -19 -26 -22 -67 28 -100 119 -12 36 -5 81 13 81 5 0 17 -10 28
-22z m-3346 -27 c33 -63 -46 -216 -109 -209 -56 7 -45 122 19 189 40 43 74 50
90 20z m3455 -37 c51 -108 63 -200 15 -122 -20 33 -50 119 -50 145 0 25 18 13
35 -23z m-2694 -12 c83 -74 21 -240 -96 -258 -107 -15 -169 90 -115 196 44 87
148 118 211 62z m-1110 -53 c-5 -13 -12 -33 -15 -43 -4 -10 -9 -17 -12 -14 -3
3 3 24 12 47 9 23 18 40 21 38 2 -3 -1 -15 -6 -28z m154 -17 c7 -38 -26 -132
-58 -164 -29 -28 -32 -29 -44 -13 -25 36 14 168 60 200 23 16 35 10 42 -23z
m590 -6 c51 -42 45 -143 -12 -207 -61 -68 -133 -67 -169 2 -43 84 39 225 131
225 13 0 36 -9 50 -20z m2225 -41 c54 -28 99 -109 94 -167 -6 -62 -60 -117
-111 -112 -13 1 -30 2 -38 3 -8 0 -33 17 -55 37 -58 52 -77 137 -44 193 33 57
97 75 154 46z m317 -5 c91 -55 102 -222 18 -250 -74 -24 -155 63 -155 165 0
38 5 52 29 76 34 34 64 37 108 9z m258 -26 c79 -86 61 -243 -24 -213 -65 23
-113 149 -80 212 26 49 60 49 104 1z m-939 5 c57 -27 100 -108 89 -166 -18
-98 -108 -148 -198 -109 -92 39 -130 161 -73 239 41 57 111 71 182 36z m-2603
-82 c-15 -66 -25 -88 -47 -107 -36 -29 -12 119 27 174 19 27 21 27 27 10 4
-10 1 -45 -7 -77z m3718 56 c36 -40 54 -158 29 -187 -35 -43 -105 58 -104 152
0 74 29 88 75 35z m-3266 -13 c43 -82 -22 -230 -101 -230 -34 0 -64 45 -64 97
0 118 122 217 165 133z m3377 -2 c30 -46 53 -154 38 -179 -20 -32 -69 50 -77
129 -8 70 11 93 39 50z m-2089 -37 c26 -10 87 -75 88 -94 0 -7 2 -27 3 -45 3
-42 -24 -103 -59 -130 -109 -86 -270 -9 -260 124 9 119 116 187 228 145z
m-1523 -51 c37 -90 -57 -259 -109 -196 -16 19 -20 83 -8 129 12 47 68 110 90
101 8 -3 21 -18 27 -34z m3693 -55 l6 -40 -14 35 c-7 19 -13 49 -13 65 0 29 0
29 7 5 4 -14 11 -43 14 -65z m-2592 40 c133 -69 70 -295 -83 -295 -142 0 -195
192 -76 280 54 40 101 44 159 15z m-1271 -102 c0 -50 -18 -115 -41 -143 -19
-25 -19 -25 -35 -5 -28 36 -8 160 32 200 17 16 18 16 31 -1 7 -10 13 -33 13
-51z m881 24 c39 -26 64 -94 52 -142 -4 -16 -7 -32 -8 -35 0 -3 -9 -19 -19
-36 -52 -87 -172 -87 -215 1 -20 42 -18 116 5 156 44 74 122 98 185 56z
m-1002 -94 c-1 -67 -19 -135 -37 -141 -10 -3 -17 15 -14 39 1 4 2 24 3 45 3
45 27 114 40 114 5 0 9 -26 8 -57z m636 41 c11 -3 31 -20 43 -39 52 -76 14
-212 -67 -236 -47 -14 -73 -2 -101 44 -37 60 -20 157 36 206 35 31 51 36 89
25z m2932 -27 c44 -39 61 -138 35 -192 -39 -80 -112 -71 -153 19 -58 127 29
254 118 173z m209 -3 c24 -30 28 -45 28 -104 1 -72 -18 -110 -54 -110 -60 0
-102 178 -54 231 25 28 50 23 80 -17z m139 6 c31 -61 32 -182 0 -194 -26 -9
-57 50 -62 118 -8 97 28 141 62 76z m92 -26 c14 -49 16 -141 3 -149 -6 -4 -17
9 -25 29 -15 36 -27 150 -17 161 12 12 27 -3 39 -41z m-719 9 c32 -20 66 -99
63 -147 -5 -84 -53 -132 -124 -123 -96 13 -144 149 -85 242 35 53 90 64 146
28z m-371 -14 c88 -33 128 -141 84 -228 -37 -72 -104 -96 -174 -62 -162 78
-77 354 90 290z m-2541 -27 c29 -24 42 -61 39 -113 -8 -169 -157 -189 -157
-20 0 68 22 118 63 138 30 16 30 16 55 -5z m2178 -36 c84 -64 93 -175 20 -250
-84 -87 -228 -43 -259 79 -10 41 -10 57 2 91 35 103 154 144 237 80z m-2368
-51 c27 -66 7 -182 -36 -205 -60 -32 -86 158 -29 218 28 31 48 27 65 -13z
m1466 -41 c61 -32 97 -115 78 -184 -26 -97 -123 -150 -208 -114 -53 22 -81 52
-96 105 -42 139 98 259 226 193z m-1612 -19 c19 -58 -1 -185 -30 -185 -21 0
-32 45 -28 115 5 100 36 137 58 70z m-92 -43 c5 -27 3 -132 -3 -153 -13 -40
-25 -5 -25 71 0 77 7 116 18 105 3 -3 8 -13 10 -23z m1283 1 c120 -78 69 -293
-68 -293 -87 0 -147 65 -147 159 0 127 115 198 215 134z m2766 -12 c10 -27 10
-104 0 -156 -8 -39 -35 -29 -48 17 -10 40 -6 138 7 159 11 18 30 8 41 -20z
m40 -88 c-2 -21 -4 -4 -4 37 0 41 2 58 4 38 2 -21 2 -55 0 -75z m-152 80 c16
-36 18 -49 18 -110 0 -86 -33 -135 -66 -100 -38 39 -45 152 -14 201 20 30 51
34 62 9z m-3040 -33 c37 -23 68 -87 67 -135 -3 -80 -58 -145 -122 -145 -118 0
-168 187 -74 270 41 36 82 39 129 10z m2879 -13 c17 -22 21 -43 21 -97 0 -86
-24 -125 -75 -125 -27 0 -36 6 -51 35 -33 61 -23 156 21 200 27 27 58 22 84
-13z m-240 -26 c82 -70 42 -261 -56 -261 -64 0 -100 50 -100 136 0 112 88 183
156 125z m-2944 -21 c42 -45 53 -99 34 -168 -30 -107 -125 -110 -170 -5 -38
89 9 203 84 203 14 0 36 -13 52 -30z m2648 -33 c27 -25 52 -79 52 -112 0 -72
-56 -150 -117 -161 -69 -13 -142 57 -143 137 -1 125 129 210 208 136z m-2903
-1 c40 -42 52 -134 25 -193 -32 -71 -87 -57 -115 28 -37 111 28 230 90 165z
m-171 -47 c33 -57 28 -189 -9 -203 -47 -18 -85 136 -50 204 20 38 36 38 59 -1z
m2683 12 c89 -37 105 -181 29 -257 -129 -129 -316 40 -218 198 42 66 115 90
189 59z m-2792 -85 c9 -58 2 -129 -12 -134 -28 -9 -53 131 -33 183 11 28 12
29 25 11 8 -10 17 -37 20 -60z m4029 2 c-4 -79 -14 -137 -23 -143 -20 -12 -21
118 -1 170 16 42 28 28 24 -27z m-1670 32 c69 -26 112 -116 93 -193 -17 -68
-96 -127 -170 -127 -22 0 -74 26 -97 49 -49 46 -62 124 -32 186 18 37 67 83
96 88 40 8 85 7 110 -3z m1590 -29 c23 -36 11 -152 -21 -200 -13 -20 -17 -21
-28 -10 -7 8 -15 31 -18 52 -10 81 41 201 67 158z m-4014 -41 c0 -5 -2 -10 -4
-10 -3 0 -8 5 -11 10 -3 6 -1 10 4 10 6 0 11 -4 11 -10z m3886 -25 c20 -30 22
-96 5 -147 -14 -43 -54 -83 -76 -75 -50 20 -44 169 10 223 30 30 41 30 61 -1z
m-3889 -32 c-3 -10 -5 -4 -5 12 0 17 2 24 5 18 2 -7 2 -21 0 -30z m1550 14
c89 -46 113 -179 45 -251 -62 -65 -151 -65 -216 0 -73 74 -65 190 19 247 42
29 101 30 152 4z m-402 -48 c101 -69 91 -238 -16 -271 -49 -14 -81 -5 -129 38
-30 27 -42 47 -47 78 -15 85 2 131 60 166 40 25 85 21 132 -11z m2536 21 c4 0
15 -13 24 -30 29 -56 13 -148 -34 -199 -35 -37 -64 -39 -96 -6 -20 19 -25 34
-25 75 0 28 6 65 14 83 16 40 73 90 93 83 8 -4 19 -6 24 -6z m-2887 -60 c38
-34 67 -105 60 -147 -11 -66 -29 -89 -85 -106 -52 -16 -129 65 -137 143 -11
121 79 182 162 110z m-295 -11 c73 -69 80 -202 11 -236 -54 -27 -123 57 -124
152 -2 93 57 136 113 84z m-190 -60 c41 -95 20 -190 -37 -168 -25 9 -58 74
-67 131 -6 36 8 88 27 99 22 14 57 -14 77 -62z m3128 49 c41 -45 45 -102 14
-173 -37 -84 -118 -110 -172 -56 -75 76 -1 251 107 251 19 0 38 -8 51 -22z
m-3391 -35 c19 -54 28 -139 16 -147 -19 -12 -58 138 -46 176 7 24 14 18 30
-29z m97 5 c41 -82 38 -199 -3 -173 -36 22 -69 159 -48 198 13 25 30 17 51
-25z m3905 -50 c-5 -60 -33 -138 -49 -138 -21 0 -5 131 21 181 21 39 33 21 28
-43z m-950 16 c79 -55 68 -193 -20 -252 -90 -59 -185 -15 -193 89 -4 51 34
127 77 156 39 26 104 30 136 7z m852 -44 c23 -43 -21 -183 -61 -195 -29 -9
-34 0 -32 54 1 51 24 114 50 143 21 23 30 23 43 -2z m-1239 -26 c39 -20 69
-87 62 -140 -6 -47 -51 -106 -97 -128 -114 -54 -235 50 -196 169 34 103 137
148 231 99z m-429 -67 c81 -44 92 -162 23 -232 -108 -107 -294 -18 -269 128
12 75 106 143 179 130 17 -3 47 -15 67 -26z m1502 27 c57 -22 3 -208 -66 -230
-24 -7 -58 25 -58 55 0 40 32 121 59 150 30 32 38 35 65 25z m-3637 -120 c28
-61 35 -125 15 -131 -16 -6 -59 89 -66 145 -7 62 19 55 51 -14z m127 -17 c32
-52 48 -148 27 -162 -32 -19 -100 79 -102 146 -3 64 0 71 23 67 14 -2 33 -21
52 -51z m3311 27 c32 -50 6 -146 -55 -198 -73 -61 -141 -6 -117 94 26 106 129
169 172 104z m-3146 -8 c30 -24 61 -87 66 -136 4 -41 1 -54 -15 -70 -19 -19
-22 -19 -50 -5 -68 35 -115 171 -75 215 19 21 45 19 74 -4z m591 -14 c101 -75
85 -244 -23 -244 -80 0 -148 68 -155 155 -4 46 -1 57 22 84 15 18 37 33 49 35
30 5 77 -8 107 -30z m-340 3 c47 -34 70 -74 76 -132 15 -127 -114 -140 -175
-18 -27 54 -32 88 -19 124 20 54 66 65 118 26z m3284 -22 c-6 -46 -54 -146
-71 -151 -28 -8 -10 80 30 156 25 46 49 43 41 -5z m-695 -28 c92 -47 35 -221
-82 -250 -89 -23 -137 74 -86 170 24 44 40 59 84 80 38 18 50 18 84 0z m576
-84 c-9 -49 -41 -111 -73 -139 -25 -22 -27 -22 -39 -6 -7 10 -13 23 -13 29 0
32 36 110 66 142 29 30 36 34 50 22 11 -9 14 -22 9 -48z m-897 -25 c51 -50 28
-157 -43 -205 -21 -14 -56 -26 -83 -29 -41 -3 -53 0 -79 22 -17 15 -34 40 -38
55 -10 45 12 106 50 143 64 60 142 66 193 14z m-2777 -62 c16 -35 29 -72 28
-81 0 -10 -12 7 -26 37 -62 132 -60 125 -42 114 6 -4 24 -35 40 -70z m3489 31
c19 -23 14 -69 -11 -120 -23 -46 -76 -95 -102 -95 -71 0 -28 159 56 210 39 24
41 24 57 5z m-3415 -21 c35 -37 67 -112 63 -148 l-3 -31 -36 37 c-48 49 -90
168 -59 168 6 0 22 -11 35 -26z m2285 -1 c62 -36 78 -127 34 -187 -67 -89
-216 -89 -259 0 -27 58 -15 113 37 161 47 44 136 57 188 26z m-2105 -66 c51
-60 70 -138 38 -156 -49 -27 -153 132 -123 188 14 27 44 16 85 -32z m3435 9
c0 -44 -81 -173 -101 -160 -16 10 17 98 57 151 30 39 44 42 44 9z m-3243 -16
c92 -56 123 -209 42 -210 -28 0 -95 56 -114 96 -23 47 -25 111 -5 124 23 14
42 12 77 -10z m2809 -25 c22 -33 13 -84 -22 -134 -89 -123 -219 -75 -151 55
21 41 50 71 83 89 42 22 71 19 90 -10z m294 -84 c0 -25 -56 -117 -86 -140 -37
-29 -54 -27 -54 7 0 63 97 186 127 161 7 -6 13 -19 13 -28z m-3415 -56 c32
-54 47 -95 35 -95 -15 0 -100 137 -100 162 0 18 40 -23 65 -67z m2828 33 c50
-68 -33 -184 -146 -202 -44 -8 -82 32 -81 84 3 110 168 197 227 118z m-377
-70 c26 -12 44 -48 44 -88 0 -34 -47 -93 -92 -116 -67 -35 -161 -11 -175 45
-29 110 114 212 223 159z m762 0 c24 -31 -24 -123 -88 -166 -106 -71 -107 64
-1 146 45 34 72 40 89 20z m211 -35 c-14 -36 -86 -130 -106 -137 -34 -14 6 72
65 137 34 37 55 37 41 0z m-1372 -31 c31 -17 53 -48 58 -81 16 -128 -213 -192
-275 -77 -30 58 -4 115 71 154 45 24 106 25 146 4z m908 -59 c43 -59 -94 -197
-174 -176 -46 12 -37 83 17 136 63 62 129 79 157 40z m305 -29 c0 -37 -82
-128 -132 -147 -62 -23 19 122 89 158 29 15 43 12 43 -11z m-618 -71 c54 -49
-28 -159 -132 -177 -40 -6 -90 19 -91 46 -2 37 2 51 22 77 55 70 154 96 201
54z m616 -30 c-15 -16 -44 -47 -66 -70 -21 -24 -42 -43 -46 -43 -13 0 54 88
86 114 44 34 58 33 26 -1z m-208 -20 c0 -50 -89 -134 -157 -149 -7 -1 -18 5
-24 13 -25 29 44 118 115 148 34 14 66 9 66 -12z m-765 -35 c14 -13 27 -32 29
-43 8 -58 -86 -130 -167 -127 -79 3 -116 56 -82 118 36 67 166 98 220 52z
m815 -58 c0 -16 -81 -100 -111 -116 -16 -8 -35 -14 -44 -14 -14 0 -14 3 -1 28
31 59 156 141 156 102z m-319 -16 c41 -49 -117 -169 -189 -143 -31 12 -28 42
10 84 57 65 148 96 179 59z m-332 -85 c24 -9 31 -17 31 -38 0 -74 -159 -142
-220 -93 -18 14 -20 22 -11 44 12 32 64 73 111 86 47 14 52 14 89 1z m419 -42
c-16 -31 -46 -55 -102 -82 -51 -24 -76 -24 -76 2 0 40 149 134 177 112 10 -9
10 -16 1 -32z m-756 -33 c24 -7 41 -40 33 -64 -15 -47 -146 -89 -203 -64 -127
53 31 172 170 128z m818 -4 c0 -13 -150 -113 -158 -106 -10 11 49 63 102 90
55 29 56 30 56 16z m-327 -39 c18 -2 4 -41 -23 -64 -61 -52 -171 -74 -178 -36
-7 37 114 110 171 103 12 -1 25 -3 30 -3z m95 -91 c-23 -37 -178 -99 -178 -72
0 27 81 78 145 92 39 9 47 4 33 -20z m-393 -6 c15 -15 15 -18 -2 -36 -26 -29
-61 -45 -120 -56 -73 -13 -118 14 -85 52 44 50 172 74 207 40z m133 -81 c-7
-42 -198 -98 -198 -59 0 27 103 75 163 75 31 1 38 -2 35 -16z m71 -27 c-10 -9
-131 -54 -122 -45 5 5 32 18 59 29 46 18 73 25 63 16z m-220 -80 c-5 -6 -164
-46 -180 -46 -21 0 23 27 62 38 33 10 126 16 118 8z"/>
</g>
</svg>
