<?xml version="1.0" encoding="utf-8"?>
<!-- Generator: Adobe Illustrator 22.1.0, SVG Export Plug-In . SVG Version: 6.00 Build 0)  -->
<svg version="1.1" id="Calque_1" xmlns="http://www.w3.org/2000/svg" xmlns:xlink="http://www.w3.org/1999/xlink" x="0px" y="0px"
	 viewBox="0 0 683.4 241.6" style="enable-background:new 0 0 683.4 241.6;" xml:space="preserve">
<style type="text/css">
	.st0{fill:#FFFFFF;}
	.st1{fill:#0F57B1;}
	.st2{fill:#FF3200;}
</style>
<g>
	<g>
		<g>
			<path class="st0" d="M0,136.4h9v35.3h21.5v7.7H0V136.4z"/>
			<path class="st0" d="M86.2,144H63.5v9.1h20.9v7.5H63.5v11.1h23.8v7.7H54.7v-43h31.5V144z"/>
			<path class="st0" d="M124.5,136.4h10.2l15.2,43h-9.7l-2.8-8.8h-15.8l-2.9,8.8h-9.4L124.5,136.4z M123.9,163.1h11l-5.4-16.9
				L123.9,163.1z"/>
			<path class="st0" d="M202.2,149.8c-0.7-2.9-2.3-5-5-6.2c-1.5-0.6-3.1-1-4.9-1c-3.5,0-6.3,1.3-8.5,3.9c-2.2,2.6-3.3,6.5-3.3,11.8
				c0,5.3,1.2,9,3.6,11.2c2.4,2.2,5.2,3.3,8.2,3.3c3,0,5.5-0.9,7.4-2.6c1.9-1.7,3.1-4,3.6-6.8h-9.9v-7.2h17.9v23.1h-6l-0.9-5.4
				c-1.7,2-3.3,3.5-4.7,4.3c-2.4,1.5-5.3,2.2-8.8,2.2c-5.7,0-10.4-2-14-5.9c-3.8-4-5.7-9.4-5.7-16.3c0-7,1.9-12.5,5.7-16.7
				c3.8-4.2,8.9-6.3,15.2-6.3c5.5,0,9.9,1.4,13.2,4.2c3.3,2.8,5.2,6.2,5.7,10.4H202.2z"/>
			<path class="st0" d="M237.6,136.4h9v35.3h21.5v7.7h-30.5V136.4z"/>
			<path class="st0" d="M323.8,144h-22.8v9.1H322v7.5h-20.9v11.1h23.8v7.7h-32.6v-43h31.5V144z"/>
			<path class="st0" d="M388.4,140.9c3.5-3.5,7.9-5.3,13.2-5.3c7.2,0,12.4,2.4,15.7,7.1c1.8,2.7,2.8,5.3,2.9,8h-9
				c-0.6-2.1-1.3-3.6-2.2-4.7c-1.6-1.9-4-2.8-7.1-2.8c-3.2,0-5.7,1.3-7.6,4c-1.8,2.6-2.8,6.4-2.8,11.2c0,4.8,1,8.4,2.9,10.8
				c2,2.4,4.4,3.6,7.4,3.6c3.1,0,5.4-1,7-3.1c0.9-1.1,1.6-2.8,2.2-5h8.9c-0.8,4.7-2.7,8.5-5.9,11.4c-3.2,2.9-7.2,4.4-12.2,4.4
				c-6.1,0-10.9-2-14.4-6c-3.5-4-5.3-9.5-5.3-16.4C382.5,150.7,384.5,144.9,388.4,140.9z"/>
			<path class="st0" d="M445.4,136.4h9.1v26.4c0,3,0.3,5.1,1,6.5c1.1,2.4,3.4,3.6,7.1,3.6c3.6,0,6-1.2,7.1-3.6c0.7-1.4,1-3.5,1-6.5
				v-26.4h9.1v26.4c0,4.6-0.7,8.1-2.1,10.7c-2.6,4.7-7.7,7-15.1,7c-7.4,0-12.5-2.3-15.1-7c-1.4-2.5-2.1-6.1-2.1-10.7V136.4z"/>
			<path class="st0" d="M535.3,160.8c-2.5,2.1-6.1,3.2-10.8,3.2h-9v15.5h-8.9v-43h18.5c4.3,0,7.6,1.1,10.2,3.3
				c2.5,2.2,3.8,5.6,3.8,10.3C539.1,155.1,537.9,158.7,535.3,160.8z M528.5,145.3c-1.1-1-2.7-1.4-4.8-1.4h-8.1v12.7h8.1
				c2.1,0,3.6-0.5,4.8-1.5c1.1-1,1.7-2.7,1.7-4.9C530.2,147.8,529.6,146.2,528.5,145.3z"/>
		</g>
		<g>
			<path class="st0" d="M3.6,206.9h15.1c3,0,5.4,0.8,7.2,2.5c1.8,1.7,2.7,4.1,2.7,7.1c0,2.6-0.8,4.9-2.5,6.9c-1.6,2-4.1,2.9-7.5,2.9
				H8.2v14.2H3.6V206.9z M21.3,211.5c-1-0.5-2.4-0.7-4.1-0.7h-9v11.7h9c2,0,3.7-0.4,5-1.3c1.3-0.9,1.9-2.4,1.9-4.6
				C24.1,214.1,23.2,212.4,21.3,211.5z"/>
			<path class="st0" d="M34.5,206.9h4.6v29.7H56v4H34.5V206.9z"/>
			<path class="st0" d="M70.5,206.9h5.2l12.2,33.7h-5l-3.5-10.1H66.1l-3.7,10.1h-4.7L70.5,206.9z M78.1,226.8l-5.2-14.9l-5.4,14.9
				H78.1z"/>
			<path class="st0" d="M85.9,206.9h5.3l9.7,16.2l9.7-16.2h5.4L103.2,227v13.6h-4.6V227L85.9,206.9z"/>
			<path class="st0" d="M133.1,206.9h4.6v33.7h-4.6V206.9z"/>
			<path class="st0" d="M169.7,206.9v4h-11.4v29.7h-4.6v-29.7h-11.4v-4H169.7z"/>
			<path class="st0" d="M213.8,211.7c2.2,3,3.3,6.8,3.3,11.4c0,5-1.3,9.2-3.8,12.5c-3,3.9-7.3,5.9-12.8,5.9c-5.2,0-9.3-1.7-12.2-5.1
				c-2.6-3.3-4-7.5-4-12.5c0-4.6,1.1-8.5,3.4-11.7c2.9-4.2,7.2-6.2,12.9-6.2C206.6,206,211,207.9,213.8,211.7z M209.8,233.2
				c1.8-2.9,2.7-6.2,2.7-10c0-4-1-7.2-3.1-9.6c-2.1-2.4-4.9-3.6-8.5-3.6c-3.5,0-6.3,1.2-8.5,3.6c-2.2,2.4-3.3,5.9-3.3,10.6
				c0,3.7,0.9,6.9,2.8,9.4c1.9,2.6,4.9,3.8,9.2,3.8C205.1,237.5,208,236.1,209.8,233.2z"/>
			<path class="st0" d="M222.6,206.9h5.4l16.8,27.2v-27.2h4.4v33.7H244L227,213.4v27.2h-4.4V206.9z"/>
			<path class="st0" d="M293.3,206.9v4h-11.4v29.7h-4.6v-29.7H266v-4H293.3z"/>
			<path class="st0" d="M297.6,206.9h4.6v13.9h17.3v-13.9h4.6v33.7h-4.6v-15.8h-17.3v15.8h-4.6V206.9z"/>
			<path class="st0" d="M331.8,206.9h24.5v4.1h-20v10.2h18.5v3.9h-18.5v11.4h20.3v4h-24.8V206.9z"/>
			<path class="st0" d="M398.2,207.9c3.3,1.8,5.3,4.8,6.1,9.2h-4.5c-0.5-2.5-1.7-4.3-3.3-5.4c-1.7-1.1-3.8-1.7-6.4-1.7
				c-3.1,0-5.6,1.2-7.7,3.5c-2.1,2.3-3.1,5.8-3.1,10.5c0,4,0.9,7.3,2.6,9.8c1.7,2.5,4.5,3.8,8.4,3.8c3,0,5.5-0.9,7.4-2.6
				c2-1.8,3-4.6,3-8.6H390v-3.8h14.8v18h-2.9l-1.1-4.3c-1.5,1.7-2.9,2.9-4,3.5c-2,1.1-4.5,1.7-7.5,1.7c-3.9,0-7.3-1.3-10.1-3.9
				c-3.1-3.2-4.6-7.7-4.6-13.4c0-5.6,1.5-10.1,4.5-13.5c2.9-3.2,6.6-4.8,11.1-4.8C393.2,206,395.9,206.6,398.2,207.9z"/>
			<path class="st0" d="M412.9,206.9h15.3c2.5,0,4.6,0.4,6.2,1.1c3.1,1.4,4.7,4.1,4.7,8c0,2-0.4,3.7-1.2,5c-0.8,1.3-2,2.3-3.5,3.1
				c1.3,0.5,2.3,1.2,3,2.1c0.7,0.9,1,2.3,1.1,4.2l0.2,4.5c0,1.3,0.2,2.2,0.3,2.9c0.3,1.1,0.8,1.8,1.5,2.1v0.8h-5.6
				c-0.2-0.3-0.3-0.7-0.4-1.1c-0.1-0.5-0.2-1.3-0.2-2.7l-0.3-5.6c-0.1-2.2-0.9-3.7-2.4-4.4c-0.8-0.4-2.2-0.6-4-0.6h-10.1v14.5h-4.6
				V206.9z M427.7,222.3c2.1,0,3.7-0.4,4.9-1.3c1.2-0.9,1.8-2.4,1.8-4.6c0-2.4-0.8-4-2.5-4.9c-0.9-0.5-2.1-0.7-3.6-0.7h-10.8v11.5
				H427.7z"/>
			<path class="st0" d="M446.7,206.9h24.5v4.1h-20v10.2h18.5v3.9h-18.5v11.4h20.3v4h-24.8V206.9z"/>
			<path class="st0" d="M478,206.9h24.5v4.1h-20v10.2H501v3.9h-18.5v11.4h20.3v4H478V206.9z"/>
			<path class="st0" d="M508.9,206.9h5.4l16.8,27.2v-27.2h4.4v33.7h-5.1l-17.1-27.2v27.2h-4.4V206.9z"/>
		</g>
	</g>
	<g>
		<circle class="st1" cx="636.5" cy="82.9" r="47"/>
		<circle class="st2" cx="549.7" cy="47" r="47"/>
		<g id="source_1_">
			<path class="st0" d="M632.3,76.4c0.3-1,0.5-2,0.8-3c-0.1,0.3-0.3,0.7-0.4,1.2C632.5,75.2,632.4,75.9,632.3,76.4z"/>
			<path class="st0" d="M630.5,81.4c0.1-0.1,0.1-0.2,0.2-0.4c0.4-1,0.8-2,1.1-3c-0.2,0.2-0.5,0.8-0.8,1.6
				C630.7,80.3,630.5,81.1,630.5,81.4z"/>
			<path class="st0" d="M628.3,85.9c0.6-1,1.1-2,1.6-3.1c-0.2,0.2-0.7,0.9-1,1.6C628.5,85,628.3,85.6,628.3,85.9z"/>
			<path class="st0" d="M625.9,89.5c0.4-0.6,0.9-1.2,1.3-1.8c-0.3,0.3-0.6,0.8-0.9,1.2C626.1,89.1,626,89.3,625.9,89.5z"/>
			<path class="st0" d="M633.9,63.2C633.9,63.2,633.9,63.2,633.9,63.2c0-1.1-0.1-2.3-0.3-3.5c0,0.2-0.1,0.5-0.1,0.9
				C633.6,61.5,633.7,62.7,633.9,63.2z"/>
			<path class="st0" d="M633.3,65.4c-0.1,1.1-0.1,2.3,0.2,2.7c0.1,0.3,0.3,0,0.4-0.5c0.1-0.9,0.1-1.9,0.1-2.8c0-0.2-0.1-0.3-0.1-0.4
				C633.7,63.9,633.4,64.4,633.3,65.4z"/>
			<path class="st0" d="M632.4,70.7c-0.3,1.1-0.3,2.3,0,2.6c0.2,0.3,0.6-0.4,0.8-1.4c0.2-1,0.2-2.2,0-2.5
				C633,69,632.6,69.6,632.4,70.7z"/>
			<path class="st0" d="M630.9,76.2c-0.4,1.1-0.5,2.2-0.2,2.4c0.3,0.2,0.7-0.6,1.1-1.6c0.3-1.1,0.4-2.1,0.2-2.4
				C631.7,74.3,631.2,75,630.9,76.2z"/>
			<path class="st0" d="M630.2,79.8c-0.3-0.1-0.9,0.6-1.4,1.8c-0.5,1.1-0.6,2.1-0.3,2.1c0.3,0.1,0.9-0.7,1.4-1.8
				C630.3,80.9,630.5,80,630.2,79.8z"/>
			<path class="st0" d="M627.8,84.9c-0.3,0-1.1,0.8-1.7,1.8c-0.6,1-0.8,1.8-0.4,1.8c0.4,0,1.1-0.8,1.6-1.8
				C628,85.8,628.2,85,627.8,84.9z"/>
			<path class="st0" d="M625.1,89.6c-0.4,0.1-1.2,0.9-1.9,1.8c-0.6,0.9-0.8,1.5-0.4,1.4c0.4-0.1,1.2-0.9,1.8-1.7
				C625.2,90.2,625.4,89.6,625.1,89.6z"/>
			<path class="st0" d="M620,95.4c-0.6,0.6-0.8,1-0.5,1c1-0.8,1.9-1.7,2.8-2.6c0-0.1,0-0.2-0.2-0.1C621.6,93.9,620.7,94.7,620,95.4z
				"/>
			<path class="st0" d="M632.6,54.1c-0.2-0.9-0.5-1.8-0.8-2.7c0,0,0,0.1,0,0.1C631.9,52.3,632.2,53.5,632.6,54.1z"/>
			<path class="st0" d="M632.2,55.8c0,1,0.3,2.2,0.7,2.8c0.3,0.5,0.5,0.2,0.5-0.7c0-0.1,0-0.3,0-0.4c-0.1-0.4-0.2-0.9-0.3-1.3
				c-0.1-0.4-0.2-0.7-0.3-0.9C632.4,54.6,632.2,54.8,632.2,55.8z"/>
			<path class="st0" d="M632.1,60.7c-0.1,1.1,0.1,2.4,0.5,2.9c0.3,0.5,0.7,0,0.7-1c0.1-1-0.1-2.3-0.5-2.8
				C632.5,59.2,632.2,59.6,632.1,60.7z"/>
			<path class="st0" d="M631.4,66.1c-0.2,1.2-0.1,2.5,0.3,2.9c0.4,0.4,0.8-0.2,1-1.3c0.2-1.1,0.1-2.4-0.3-2.8
				C632.1,64.4,631.6,65,631.4,66.1z"/>
			<path class="st0" d="M631.5,73.2c0.3-1.2,0.3-2.4-0.1-2.7c-0.4-0.4-1,0.3-1.3,1.5c-0.4,1.2-0.3,2.5,0.1,2.8
				C630.6,75.1,631.2,74.4,631.5,73.2z"/>
			<path class="st0" d="M629.6,78.7c0.4-1.2,0.5-2.3,0.1-2.6c-0.4-0.3-1.2,0.5-1.7,1.7c-0.5,1.2-0.5,2.4,0,2.6
				C628.5,80.7,629.2,79.9,629.6,78.7z"/>
			<path class="st0" d="M627.3,84.1c0.6-1.1,0.6-2.1,0.2-2.3c-0.5-0.2-1.4,0.7-2,1.9c-0.6,1.2-0.6,2.2-0.1,2.3
				C625.9,86.1,626.7,85.2,627.3,84.1z"/>
			<path class="st0" d="M624.4,89.1c0.6-1,0.7-1.8,0.2-1.9c-0.5,0-1.5,0.8-2.2,1.9c-0.7,1.1-0.7,1.9-0.2,1.9
				C622.8,90.9,623.8,90.1,624.4,89.1z"/>
			<path class="st0" d="M621.5,92.1c-0.6,0.1-1.7,0.8-2.4,1.8c-0.7,0.9-0.8,1.5-0.1,1.4c0.6-0.1,1.6-0.9,2.3-1.7
				C621.9,92.7,622.1,92,621.5,92.1z"/>
			<path class="st0" d="M618.2,96.2c-0.6,0.1-1.7,0.9-2.5,1.6c-0.7,0.7-0.7,1.2-0.1,1c0.6-0.2,1.6-0.8,2.3-1.5
				C618.7,96.6,618.8,96.1,618.2,96.2z"/>
			<path class="st0" d="M614.8,99.6c-0.6,0.2-1.8,0.8-2.5,1.4c-0.5,0.4-0.6,0.6-0.4,0.7c1.1-0.6,2.2-1.3,3.3-2
				C615.3,99.5,615.1,99.5,614.8,99.6z"/>
			<path class="st0" d="M629.5,46.8c0.2,0.8,0.7,1.9,1.1,2.6c0.3,0.4,0.4,0.5,0.5,0.4c-0.5-1.2-1-2.4-1.6-3.6
				C629.5,46.3,629.4,46.4,629.5,46.8z"/>
			<path class="st0" d="M630.1,50.8c0.1,0.9,0.5,2.2,1,2.9c0.5,0.6,0.8,0.4,0.7-0.5c-0.1-0.9-0.5-2.1-1-2.7
				C630.4,49.7,630,49.9,630.1,50.8z"/>
			<path class="st0" d="M631.9,57.8c0-1-0.3-2.3-0.8-3c-0.5-0.7-0.9-0.4-1,0.7c0,1.1,0.3,2.5,0.9,3.1
				C631.5,59.2,631.9,58.8,631.9,57.8z"/>
			<path class="st0" d="M631.5,63c0.1-1.1-0.1-2.5-0.6-3.1c-0.5-0.6-1.1-0.1-1.3,1.1c-0.2,1.2,0.1,2.7,0.7,3.2
				C630.8,64.7,631.4,64.2,631.5,63z"/>
			<path class="st0" d="M630,65.6c-0.6-0.5-1.3,0.1-1.6,1.4c-0.3,1.3-0.1,2.8,0.5,3.2c0.6,0.4,1.3-0.3,1.5-1.5
				C630.8,67.5,630.6,66.1,630,65.6z"/>
			<path class="st0" d="M628.5,71.8c-0.6-0.4-1.5,0.3-1.9,1.7c-0.5,1.4-0.3,2.7,0.3,3.1c0.6,0.3,1.5-0.5,1.9-1.7
				C629.2,73.5,629.1,72.2,628.5,71.8z"/>
			<path class="st0" d="M626.3,78c-0.7-0.3-1.7,0.5-2.3,1.8c-0.6,1.3-0.5,2.6,0.2,2.8c0.7,0.2,1.6-0.6,2.2-1.9
				C627,79.5,626.9,78.3,626.3,78z"/>
			<path class="st0" d="M623.5,84.1c-0.7-0.2-1.8,0.7-2.5,1.9c-0.7,1.2-0.6,2.3,0.1,2.4c0.7,0.1,1.8-0.7,2.4-1.9
				C624.2,85.3,624.2,84.2,623.5,84.1z"/>
			<path class="st0" d="M620.4,89.6c-0.8-0.1-2,0.8-2.7,1.8c-0.7,1.1-0.7,1.9,0.1,1.9c0.7,0,1.9-0.8,2.6-1.8
				C621.1,90.6,621.1,89.7,620.4,89.6z"/>
			<path class="st0" d="M616.9,94.5c-0.8,0-2,0.8-2.8,1.7c-0.7,0.9-0.7,1.5,0.2,1.4c0.8-0.1,1.9-0.8,2.7-1.6
				C617.7,95.2,617.7,94.5,616.9,94.5z"/>
			<path class="st0" d="M613.5,99.6c0.7-0.7,0.7-1.1-0.1-1.1c-0.8,0.1-2.1,0.7-2.8,1.4c-0.7,0.7-0.6,1.1,0.2,1
				C611.6,100.8,612.8,100.2,613.5,99.6z"/>
			<path class="st0" d="M610,101.6c-0.8,0.1-2,0.7-2.7,1.2c-0.7,0.5-0.5,0.8,0.3,0.6c0.8-0.1,1.9-0.6,2.6-1.1
				C610.9,101.8,610.8,101.5,610,101.6z"/>
			<path class="st0" d="M606.6,103.9c-0.6,0.1-1.4,0.4-1.9,0.6C605.3,104.4,606,104.2,606.6,103.9z"/>
			<path class="st0" d="M626.7,42.1c0.2,0.7,0.8,1.8,1.4,2.5c0.6,0.7,0.9,0.7,0.7,0l0,0c-0.5-0.9-1.1-1.8-1.7-2.7
				C626.7,41.6,626.5,41.6,626.7,42.1z"/>
			<path class="st0" d="M627.3,45.6c0.1,0.8,0.7,2.1,1.3,2.9c0.6,0.7,1,0.6,0.9-0.3c-0.1-0.8-0.7-2-1.3-2.7
				C627.6,44.8,627.2,44.8,627.3,45.6z"/>
			<path class="st0" d="M629.8,52.5c0-1-0.5-2.3-1.1-3c-0.7-0.7-1.2-0.5-1.2,0.5c0,1,0.5,2.5,1.2,3.2
				C629.3,53.8,629.8,53.6,629.8,52.5z"/>
			<path class="st0" d="M628.6,54.4c-0.7-0.7-1.4-0.3-1.5,0.8c-0.2,1.2,0.3,2.7,1.1,3.4c0.7,0.6,1.4,0.2,1.5-1
				C629.7,56.6,629.2,55.1,628.6,54.4z"/>
			<path class="st0" d="M627.8,60.1c-0.8-0.6-1.6-0.1-1.9,1.2c-0.3,1.4,0.1,2.9,0.9,3.5c0.8,0.6,1.6-0.1,1.8-1.4
				C628.9,62.3,628.6,60.8,627.8,60.1z"/>
			<path class="st0" d="M627.1,69.9c0.4-1.3,0.1-2.9-0.7-3.4c-0.8-0.6-1.8,0.1-2.3,1.5c-0.4,1.4-0.1,3,0.7,3.5
				C625.7,72,626.7,71.2,627.1,69.9z"/>
			<path class="st0" d="M624.9,76.4c0.5-1.4,0.3-2.8-0.5-3.2c-0.9-0.5-2,0.3-2.6,1.8c-0.6,1.4-0.3,2.9,0.6,3.3
				C623.2,78.6,624.3,77.7,624.9,76.4z"/>
			<path class="st0" d="M621.7,79.8c-0.9-0.3-2.2,0.5-2.9,1.9c-0.7,1.4-0.4,2.7,0.5,3c0.9,0.2,2.1-0.6,2.8-1.9
				C622.7,81.5,622.5,80.1,621.7,79.8z"/>
			<path class="st0" d="M618.8,88.7c0.7-1.2,0.6-2.3-0.3-2.5c-1-0.2-2.3,0.6-3.1,1.9c-0.7,1.2-0.5,2.4,0.5,2.5
				C616.8,90.7,618.1,89.8,618.8,88.7z"/>
			<path class="st0" d="M611.8,93.6c-0.7,1-0.5,1.9,0.5,2c0.9,0.1,2.3-0.7,3-1.7c0.7-1,0.6-1.9-0.3-2.1
				C614,91.7,612.6,92.5,611.8,93.6z"/>
			<path class="st0" d="M608.8,99.6c0.9,0,2.3-0.6,3-1.4c0.7-0.8,0.6-1.5-0.3-1.6c-1,0-2.4,0.6-3.1,1.5
				C607.6,99,607.8,99.6,608.8,99.6z"/>
			<path class="st0" d="M605.5,102.7c0.9,0,2.2-0.6,2.9-1.1c0.7-0.6,0.5-1.1-0.4-1.1c-1,0-2.4,0.6-3,1.2
				C604.2,102.3,604.5,102.7,605.5,102.7z"/>
			<path class="st0" d="M604.7,103.3c-1,0.1-2.3,0.5-2.9,0.9c-0.6,0.4-0.3,0.7,0.6,0.6c0.9-0.1,2.1-0.4,2.7-0.9
				C605.8,103.5,605.6,103.2,604.7,103.3z"/>
			<path class="st0" d="M599.1,105.8C599,105.8,599,105.8,599.1,105.8c1.1-0.1,2.2-0.4,3.3-0.6c-0.1,0-0.3,0-0.6,0
				C600.8,105.3,599.6,105.5,599.1,105.8z"/>
			<path class="st0" d="M623.3,37.7c0.2,0.5,0.9,1.6,1.6,2.3c0.7,0.7,1.1,0.8,0.9,0.2c0-0.1-0.1-0.2-0.2-0.4
				c-0.5-0.7-1.1-1.4-1.7-2.1C623.4,37.3,623.2,37.3,623.3,37.7z"/>
			<path class="st0" d="M623.8,40.6c0.1,0.7,0.8,1.9,1.6,2.7c0.8,0.7,1.3,0.7,1.2-0.1c-0.1-0.7-0.8-1.8-1.5-2.6
				C624.3,40,623.7,39.9,623.8,40.6z"/>
			<path class="st0" d="M625.4,44.3c-0.8-0.7-1.5-0.6-1.5,0.2c0,0.9,0.7,2.3,1.5,3.1c0.8,0.7,1.5,0.5,1.4-0.4
				C626.9,46.3,626.2,45,625.4,44.3z"/>
			<path class="st0" d="M623.6,49.4c-0.1,1.1,0.5,2.7,1.4,3.4c0.9,0.7,1.7,0.4,1.8-0.8c0.1-1.1-0.5-2.5-1.3-3.3
				C624.5,48,623.7,48.3,623.6,49.4z"/>
			<path class="st0" d="M622.6,55.3c-0.3,1.3,0.3,3,1.3,3.7c0.9,0.7,1.9,0.1,2.1-1.2c0.2-1.3-0.3-2.8-1.2-3.5
				C623.8,53.5,622.8,54,622.6,55.3z"/>
			<path class="st0" d="M623.5,60.6c-1-0.7-2.2-0.1-2.6,1.4c-0.4,1.5,0.1,3.2,1.1,3.8c1,0.6,2.1-0.1,2.5-1.5
				C624.9,62.9,624.4,61.2,623.5,60.6z"/>
			<path class="st0" d="M621.5,67.5c-1.1-0.6-2.4,0.2-2.9,1.7c-0.6,1.5-0.1,3.2,1,3.7c1.1,0.5,2.3-0.3,2.8-1.8
				C622.9,69.7,622.5,68,621.5,67.5z"/>
			<path class="st0" d="M615.6,76.5c-0.7,1.5-0.3,3.1,0.9,3.5c1.1,0.4,2.5-0.4,3.1-1.9c0.6-1.4,0.3-3-0.8-3.5
				C617.7,74.1,616.3,75,615.6,76.5z"/>
			<path class="st0" d="M612.3,83.5c-0.7,1.4-0.3,2.8,0.8,3.1c1.1,0.3,2.6-0.5,3.3-1.9c0.7-1.3,0.4-2.7-0.7-3.1
				C614.5,81.3,613,82.1,612.3,83.5z"/>
			<path class="st0" d="M612.9,90.8c0.8-1.2,0.5-2.4-0.7-2.6c-1.2-0.3-2.8,0.5-3.5,1.8c-0.7,1.2-0.4,2.4,0.8,2.6
				C610.6,92.7,612.1,92,612.9,90.8z"/>
			<path class="st0" d="M609.3,95.9c0.8-1,0.5-1.9-0.7-2.1c-1.2-0.2-2.7,0.5-3.5,1.5c-0.7,1-0.3,1.9,0.8,2.1
				C607.1,97.5,608.6,96.9,609.3,95.9z"/>
			<path class="st0" d="M605.8,100c0.7-0.8,0.4-1.5-0.7-1.6c-1.2-0.1-2.7,0.4-3.4,1.2c-0.7,0.8-0.3,1.4,0.9,1.5
				C603.7,101.3,605.1,100.7,605.8,100z"/>
			<path class="st0" d="M599.6,103.9c1,0,2.4-0.3,3-0.9c0.7-0.5,0.3-1-0.7-1.1c-1.1-0.1-2.5,0.3-3.2,0.9
				C598.1,103.4,598.5,103.8,599.6,103.9z"/>
			<path class="st0" d="M598.9,104.4c-1.1,0-2.4,0.2-2.9,0.6c-0.5,0.4-0.1,0.6,0.9,0.7c1,0,2.2-0.2,2.8-0.6
				C600.3,104.8,599.9,104.5,598.9,104.4z"/>
			<path class="st0" d="M596.4,106c-1,0-2.1,0.1-2.6,0.3c1.2,0,2.3-0.1,3.5-0.2C597,106,596.8,106,596.4,106z"/>
			<path class="st0" d="M621.2,35.7c0.8,0.7,1.3,0.8,1.2,0.4c0,0,0-0.1,0-0.1c-0.8-0.8-1.7-1.6-2.6-2.4c-0.2-0.1-0.4-0.1-0.3,0.1
				C619.6,34.1,620.4,35,621.2,35.7z"/>
			<path class="st0" d="M619.9,36c0,0.6,0.8,1.7,1.7,2.4c0.9,0.7,1.5,0.8,1.4,0.1c-0.1-0.6-0.9-1.6-1.7-2.3
				C620.5,35.6,619.8,35.5,619.9,36z"/>
			<path class="st0" d="M621.6,39.2c-0.9-0.7-1.7-0.7-1.8,0c0,0.8,0.7,2.1,1.7,2.8c1,0.7,1.7,0.6,1.7-0.2
				C623.3,41.1,622.6,39.9,621.6,39.2z"/>
			<path class="st0" d="M621.5,43.2c-1-0.8-2-0.6-2.1,0.4c-0.2,1,0.6,2.5,1.7,3.3c1,0.7,2,0.5,2.1-0.6
				C623.3,45.3,622.5,43.9,621.5,43.2z"/>
			<path class="st0" d="M620.9,48.2c-1.1-0.8-2.2-0.4-2.5,0.8c-0.3,1.3,0.4,2.9,1.6,3.7c1.1,0.7,2.2,0.3,2.4-1
				C622.7,50.5,622,48.9,620.9,48.2z"/>
			<path class="st0" d="M619.6,54.2c-1.2-0.7-2.5-0.2-2.9,1.2c-0.4,1.5,0.2,3.2,1.5,3.9c1.2,0.7,2.5,0.1,2.8-1.3
				C621.4,56.6,620.8,54.9,619.6,54.2z"/>
			<path class="st0" d="M617.7,61.1c-1.3-0.7-2.7,0-3.3,1.5c-0.5,1.6,0.1,3.4,1.4,4.1c1.3,0.6,2.7-0.1,3.2-1.6
				C619.5,63.5,618.9,61.8,617.7,61.1z"/>
			<path class="st0" d="M615.1,68.5c-1.3-0.6-2.9,0.2-3.6,1.8c-0.7,1.6-0.1,3.4,1.3,4c1.3,0.5,2.9-0.3,3.5-1.8
				C616.9,70.9,616.4,69.1,615.1,68.5z"/>
			<path class="st0" d="M612,76.1c-1.4-0.5-3.1,0.3-3.8,1.9c-0.7,1.6-0.2,3.2,1.2,3.7c1.3,0.5,3-0.4,3.7-1.9
				C613.8,78.2,613.3,76.6,612,76.1z"/>
			<path class="st0" d="M609.6,86.6c0.8-1.4,0.3-2.8-1-3.3c-1.4-0.5-3.1,0.3-3.9,1.8c-0.7,1.4-0.2,2.8,1.2,3.2
				C607.2,88.7,608.9,87.9,609.6,86.6z"/>
			<path class="st0" d="M601.2,91.4c-0.7,1.2-0.2,2.4,1.2,2.7c1.3,0.3,2.9-0.4,3.7-1.5c0.8-1.2,0.3-2.4-1-2.7
				C603.7,89.4,602,90.1,601.2,91.4z"/>
			<path class="st0" d="M597.9,96.5c-0.6,0.9-0.1,1.9,1.2,2.1c1.2,0.2,2.8-0.3,3.5-1.2c0.7-0.9,0.3-1.9-1-2.2
				C600.2,95,598.6,95.6,597.9,96.5z"/>
			<path class="st0" d="M599.4,101.3c0.6-0.7,0.2-1.4-1-1.7c-1.3-0.2-2.8,0.2-3.4,0.9c-0.6,0.7,0,1.4,1.2,1.6
				C597.3,102.3,598.8,101.9,599.4,101.3z"/>
			<path class="st0" d="M596.6,104c0.6-0.5,0.1-1-1.1-1.2c-1.2-0.2-2.6,0.1-3.1,0.6c-0.5,0.5,0.1,1,1.2,1.1
				C594.7,104.6,596,104.4,596.6,104z"/>
			<path class="st0" d="M593,104.9c-1.1-0.1-2.4,0-2.8,0.3c-0.4,0.3,0.2,0.6,1.2,0.7c1,0.1,2.2,0,2.7-0.3
				C594.6,105.4,594.1,105.1,593,104.9z"/>
			<path class="st0" d="M589.1,106.1c0.8,0.1,1.7,0.1,2.5,0.2c-0.2,0-0.4-0.1-0.6-0.1C590.3,106.1,589.6,106.1,589.1,106.1z"/>
			<path class="st0" d="M618.6,32.6c-1-0.8-2-1.6-3.1-2.3c0,0,0,0,0,0c0.1,0.3,0.8,1,1.8,1.6C617.9,32.4,618.4,32.6,618.6,32.6z"/>
			<path class="st0" d="M615.6,32c0,0.5,0.8,1.4,1.8,2c1,0.6,1.7,0.8,1.7,0.3c-0.1-0.5-0.9-1.3-1.8-1.9
				C616.4,31.7,615.6,31.6,615.6,32z"/>
			<path class="st0" d="M615.4,34.6c-0.1,0.7,0.7,1.8,1.8,2.5c1.1,0.7,2,0.7,2,0c0-0.7-0.8-1.7-1.8-2.4
				C616.4,34,615.5,33.9,615.4,34.6z"/>
			<path class="st0" d="M614.8,38.2c-0.2,0.9,0.6,2.2,1.8,3c1.2,0.7,2.2,0.6,2.3-0.4c0.1-0.9-0.7-2.1-1.8-2.8
				C616,37.2,615,37.3,614.8,38.2z"/>
			<path class="st0" d="M613.7,42.9c-0.3,1.1,0.5,2.7,1.8,3.5c1.3,0.7,2.5,0.4,2.7-0.8c0.2-1.1-0.6-2.6-1.8-3.3
				C615.2,41.6,613.9,41.8,613.7,42.9z"/>
			<path class="st0" d="M615.1,47.8c-1.3-0.8-2.7-0.3-3.2,1c-0.4,1.4,0.3,3.1,1.7,3.9c1.4,0.7,2.8,0.2,3.1-1.2
				C617.1,50.3,616.4,48.6,615.1,47.8z"/>
			<path class="st0" d="M609.6,55.8c-0.6,1.6,0.2,3.4,1.7,4.2c1.4,0.7,3,0,3.5-1.5c0.5-1.5-0.2-3.3-1.6-4
				C611.7,53.7,610.1,54.3,609.6,55.8z"/>
			<path class="st0" d="M606.7,63.5c-0.6,1.7,0.1,3.6,1.6,4.2c1.5,0.7,3.2-0.1,3.8-1.7c0.6-1.6-0.1-3.5-1.5-4.2
				C609.1,61.1,607.4,61.9,606.7,63.5z"/>
			<path class="st0" d="M608.9,73.8c0.7-1.6,0.1-3.4-1.4-4.1c-1.5-0.7-3.3,0.1-4.1,1.8c-0.7,1.7,0,3.5,1.5,4.1
				C606.5,76.2,608.2,75.4,608.9,73.8z"/>
			<path class="st0" d="M600,79.2c-0.7,1.5-0.1,3.2,1.5,3.8c1.5,0.5,3.3-0.3,4-1.8c0.7-1.5,0.1-3.2-1.4-3.8
				C602.6,76.9,600.7,77.7,600,79.2z"/>
			<path class="st0" d="M596.6,86.3c-0.7,1.4,0,2.8,1.5,3.3c1.5,0.5,3.2-0.2,3.9-1.5c0.7-1.3,0.1-2.9-1.3-3.4
				C599.1,84.2,597.3,84.9,596.6,86.3z"/>
			<path class="st0" d="M593.4,92.4c-0.6,1.1,0,2.3,1.5,2.7c1.4,0.4,3.1-0.2,3.7-1.2c0.7-1.1,0.1-2.4-1.3-2.8
				C595.7,90.6,594,91.2,593.4,92.4z"/>
			<path class="st0" d="M595.5,98.5c0.6-0.9,0-1.9-1.4-2.2c-1.4-0.4-3,0-3.6,0.9c-0.5,0.9,0.1,1.8,1.5,2.2
				C593.3,99.7,594.9,99.3,595.5,98.5z"/>
			<path class="st0" d="M592.7,101.9c0.5-0.6-0.1-1.4-1.4-1.7c-1.3-0.3-2.8-0.1-3.2,0.6c-0.4,0.6,0.2,1.4,1.5,1.6
				C590.8,102.8,592.2,102.5,592.7,101.9z"/>
			<path class="st0" d="M590.5,104.3c0.4-0.4-0.2-1-1.4-1.2c-1.2-0.3-2.5-0.2-2.9,0.3c-0.3,0.4,0.3,0.9,1.5,1.2
				C588.8,104.7,590,104.6,590.5,104.3z"/>
			<path class="st0" d="M587.2,104.9c-1.1-0.3-2.3-0.3-2.6,0c-0.3,0.2,0.4,0.6,1.4,0.8c1,0.2,2.1,0.2,2.5,0
				C588.9,105.5,588.3,105.1,587.2,104.9z"/>
			<path class="st0" d="M611.3,28.7c-0.1,0.3,0.7,1,1.8,1.6c1,0.6,1.9,0.7,1.8,0.4c0-0.3-0.8-1-1.8-1.5
				C612.2,28.6,611.4,28.4,611.3,28.7z"/>
			<path class="st0" d="M610.8,30.6c-0.1,0.5,0.7,1.4,1.8,2c1.1,0.6,2.1,0.7,2.2,0.1c0.1-0.5-0.8-1.4-1.8-2
				C611.9,30.2,611,30.1,610.8,30.6z"/>
			<path class="st0" d="M610,33.4c-0.2,0.7,0.6,1.9,1.9,2.5c1.3,0.7,2.4,0.6,2.5-0.2c0.1-0.7-0.7-1.8-1.9-2.4
				C611.3,32.7,610.2,32.7,610,33.4z"/>
			<path class="st0" d="M608.6,37.4c-0.3,1,0.5,2.4,1.9,3.1c1.4,0.7,2.7,0.4,2.9-0.6c0.2-1-0.6-2.3-1.9-2.9
				C610.3,36.3,608.9,36.5,608.6,37.4z"/>
			<path class="st0" d="M611.9,45.2c0.4-1.2-0.5-2.7-1.8-3.4c-1.4-0.7-2.9-0.3-3.3,0.9c-0.5,1.2,0.4,2.8,1.8,3.6
				C610,46.9,611.5,46.5,611.9,45.2z"/>
			<path class="st0" d="M604.3,49c-0.6,1.5,0.2,3.3,1.8,4c1.5,0.7,3.2,0.1,3.7-1.4c0.5-1.4-0.3-3.2-1.8-3.9
				C606.5,47.1,604.9,47.6,604.3,49z"/>
			<path class="st0" d="M605.4,54.9c-1.6-0.7-3.4,0-4,1.6c-0.7,1.6,0.1,3.6,1.7,4.3c1.6,0.7,3.4,0,4-1.6
				C607.8,57.5,607,55.6,605.4,54.9z"/>
			<path class="st0" d="M598.1,64.4c-0.7,1.7,0.1,3.7,1.7,4.4c1.6,0.7,3.5-0.1,4.2-1.8c0.7-1.7-0.1-3.6-1.7-4.3
				C600.7,61.9,598.8,62.7,598.1,64.4z"/>
			<path class="st0" d="M594.7,72.5c-0.7,1.7,0,3.5,1.7,4.2c1.6,0.7,3.5-0.1,4.2-1.8c0.7-1.6,0-3.5-1.6-4.2
				C597.4,70,595.4,70.8,594.7,72.5z"/>
			<path class="st0" d="M591.4,80.2c-0.7,1.5,0.1,3.2,1.7,3.8c1.6,0.6,3.4-0.1,4.1-1.6c0.7-1.5,0-3.3-1.6-3.9
				C593.9,77.9,592,78.6,591.4,80.2z"/>
			<path class="st0" d="M588.3,87c-0.6,1.3,0.2,2.8,1.7,3.3c1.5,0.5,3.3,0,3.9-1.3c0.7-1.3,0-2.8-1.6-3.4
				C590.7,85.1,588.9,85.7,588.3,87z"/>
			<path class="st0" d="M590.9,94.6c0.6-1-0.1-2.3-1.6-2.9c-1.5-0.5-3.2-0.1-3.7,1c-0.5,1,0.3,2.3,1.7,2.8
				C588.7,96,590.3,95.6,590.9,94.6z"/>
			<path class="st0" d="M583.4,97.2c-0.4,0.8,0.4,1.8,1.7,2.2c1.3,0.4,2.8,0.2,3.2-0.5c0.5-0.8-0.2-1.8-1.6-2.3
				C585.3,96.1,583.8,96.4,583.4,97.2z"/>
			<path class="st0" d="M586.3,101.9c0.4-0.5-0.3-1.3-1.6-1.8c-1.3-0.4-2.6-0.3-2.9,0.3c-0.3,0.5,0.5,1.3,1.7,1.7
				C584.6,102.5,585.9,102.4,586.3,101.9z"/>
			<path class="st0" d="M583,102.6c-1.2-0.4-2.3-0.4-2.6,0c-0.2,0.3,0.5,0.9,1.6,1.3c1.1,0.4,2.2,0.4,2.5,0.1
				C584.9,103.6,584.2,103,583,102.6z"/>
			<path class="st0" d="M579.6,103.9c0,0,0,0.1,0,0.1c1.2,0.4,2.4,0.8,3.7,1.1c0,0,0,0,0.1,0c0.2-0.2-0.4-0.6-1.5-0.9
				C580.8,103.8,579.8,103.7,579.6,103.9z"/>
			<path class="st0" d="M610.7,27.7c0,0,0-0.1-0.1-0.1c-0.5-0.2-1-0.5-1.6-0.7c-0.6-0.3-1.2-0.5-1.9-0.7c-0.1,0-0.1,0-0.1,0.1
				c-0.1,0.2,0.6,0.7,1.7,1.2C609.8,27.8,610.7,28,610.7,27.7z"/>
			<path class="st0" d="M606.3,27.4c-0.2,0.4,0.6,1.1,1.7,1.5c1.2,0.5,2.2,0.6,2.3,0.2c0.1-0.4-0.7-1-1.7-1.5
				C607.5,27.2,606.5,27.1,606.3,27.4z"/>
			<path class="st0" d="M605.2,29.6c-0.3,0.6,0.5,1.5,1.8,2c1.3,0.5,2.5,0.5,2.7-0.1c0.2-0.6-0.6-1.4-1.8-1.9
				C606.6,29,605.4,29,605.2,29.6z"/>
			<path class="st0" d="M603.6,32.8c-0.4,0.8,0.4,2,1.8,2.6c1.4,0.6,2.8,0.4,3.1-0.5c0.3-0.8-0.5-1.9-1.8-2.5
				C605.3,31.9,603.9,32,603.6,32.8z"/>
			<path class="st0" d="M601.5,37.2c-0.5,1.1,0.3,2.5,1.8,3.1c1.5,0.6,3,0.2,3.5-0.9c0.4-1.1-0.4-2.4-1.8-3
				C603.5,35.8,602,36.2,601.5,37.2z"/>
			<path class="st0" d="M598.9,42.9c-0.6,1.3,0.2,3,1.8,3.6c1.6,0.7,3.3,0.1,3.8-1.2c0.5-1.3-0.3-2.9-1.8-3.5
				C601.2,41.1,599.5,41.6,598.9,42.9z"/>
			<path class="st0" d="M595.9,49.7c-0.7,1.5,0.1,3.4,1.8,4.1c1.6,0.7,3.5,0,4.1-1.6c0.6-1.5-0.2-3.3-1.8-4
				C598.4,47.5,596.5,48.2,595.9,49.7z"/>
			<path class="st0" d="M598.6,59.9c0.7-1.7-0.1-3.6-1.8-4.3c-1.7-0.7-3.6,0.1-4.3,1.7c-0.7,1.7,0.1,3.6,1.7,4.3
				C596,62.4,597.9,61.6,598.6,59.9z"/>
			<path class="st0" d="M589.2,65.4c-0.7,1.7,0.1,3.7,1.8,4.4c1.7,0.7,3.6-0.1,4.3-1.8c0.7-1.7-0.1-3.7-1.7-4.4
				C591.8,62.9,589.9,63.7,589.2,65.4z"/>
			<path class="st0" d="M591.8,76c0.7-1.6-0.1-3.5-1.8-4.2c-1.7-0.7-3.6,0-4.2,1.7c-0.7,1.6,0.1,3.5,1.8,4.2
				C589.3,78.3,591.1,77.6,591.8,76z"/>
			<path class="st0" d="M582.9,80.9c-0.6,1.4,0.2,3.1,1.8,3.8c1.6,0.7,3.3,0.1,4-1.3c0.6-1.5-0.1-3.2-1.8-3.9
				C585.3,78.7,583.5,79.4,582.9,80.9z"/>
			<path class="st0" d="M580.3,87.3c-0.5,1.2,0.4,2.7,1.8,3.3c1.5,0.6,3.1,0.2,3.6-1c0.6-1.2-0.2-2.8-1.8-3.4
				C582.5,85.6,580.8,86.1,580.3,87.3z"/>
			<path class="st0" d="M578.4,92.6c-0.3,0.9,0.5,2.2,1.8,2.8c1.4,0.6,2.8,0.3,3.2-0.6c0.5-1-0.3-2.3-1.8-2.9
				C580.2,91.3,578.7,91.6,578.4,92.6z"/>
			<path class="st0" d="M581.6,98.6c0.4-0.7-0.4-1.7-1.8-2.3c-1.3-0.6-2.6-0.4-2.9,0.3c-0.2,0.7,0.6,1.7,1.8,2.2
				C580,99.4,581.3,99.3,581.6,98.6z"/>
			<path class="st0" d="M580.2,101.3c0.3-0.5-0.5-1.3-1.8-1.8c-1.2-0.5-2.3-0.5-2.5,0c-0.1,0.5,0.6,1.3,1.8,1.7
				C578.9,101.8,580,101.8,580.2,101.3z"/>
			<path class="st0" d="M579.2,103.1c0.2-0.3-0.6-0.9-1.7-1.4c-1.1-0.5-2.1-0.6-2.2-0.3c-0.1,0.3,0.7,0.9,1.7,1.3
				C578.1,103.2,579.1,103.3,579.2,103.1z"/>
			<path class="st0" d="M603.6,26.2c1.1,0.4,2.2,0.4,2.4,0.2c0.2-0.2-0.5-0.7-1.6-1.1c-1-0.3-2.1-0.4-2.3-0.2
				C601.8,25.4,602.5,25.9,603.6,26.2z"/>
			<path class="st0" d="M600.7,26.7c-0.4,0.4,0.4,1.1,1.6,1.5c1.2,0.4,2.5,0.4,2.7-0.1c0.2-0.4-0.5-1.1-1.7-1.4
				C602.2,26.3,601,26.3,600.7,26.7z"/>
			<path class="st0" d="M598.8,29.1c-0.4,0.6,0.3,1.5,1.6,2c1.3,0.5,2.7,0.3,3.1-0.4c0.3-0.6-0.4-1.5-1.7-1.9
				C600.6,28.4,599.2,28.5,598.8,29.1z"/>
			<path class="st0" d="M596.5,32.7c-0.5,0.9,0.2,2,1.6,2.5c1.5,0.5,3,0.2,3.5-0.8c0.4-0.9-0.3-2-1.7-2.4
				C598.5,31.5,597,31.8,596.5,32.7z"/>
			<path class="st0" d="M593.8,37.5c-0.6,1.2,0.1,2.6,1.6,3.1c1.5,0.6,3.3,0,3.8-1.2c0.5-1.1-0.2-2.5-1.7-3
				C596,35.9,594.4,36.4,593.8,37.5z"/>
			<path class="st0" d="M590.6,43.5c-0.7,1.4,0,3,1.6,3.6c1.6,0.6,3.4-0.1,4.1-1.5c0.6-1.4-0.1-3-1.7-3.6
				C593.1,41.5,591.3,42.2,590.6,43.5z"/>
			<path class="st0" d="M593.1,52.9c0.7-1.6-0.1-3.4-1.7-4c-1.6-0.6-3.5,0.1-4.2,1.7c-0.7,1.6,0,3.4,1.6,4.1
				C590.5,55.3,592.4,54.5,593.1,52.9z"/>
			<path class="st0" d="M583.8,58.3c-0.7,1.7,0,3.6,1.6,4.3c1.6,0.7,3.6-0.1,4.3-1.8c0.7-1.7,0-3.6-1.7-4.3
				C586.4,55.9,584.5,56.7,583.8,58.3z"/>
			<path class="st0" d="M580.5,66.3c-0.7,1.7,0.1,3.6,1.7,4.3c1.6,0.7,3.5,0,4.2-1.7c0.7-1.7-0.1-3.6-1.7-4.4
				C583,63.9,581.1,64.7,580.5,66.3z"/>
			<path class="st0" d="M583.2,76.7c0.6-1.6-0.2-3.5-1.8-4.2c-1.6-0.7-3.3,0-3.9,1.5c-0.6,1.5,0.2,3.4,1.8,4.1
				C580.8,78.9,582.6,78.3,583.2,76.7z"/>
			<path class="st0" d="M580.5,83.7c0.5-1.4-0.3-3.1-1.8-3.8c-1.5-0.7-3.1-0.2-3.6,1.2c-0.4,1.3,0.4,3,1.8,3.7
				C578.4,85.5,580,85,580.5,83.7z"/>
			<path class="st0" d="M578.3,89.6c0.4-1.1-0.4-2.6-1.9-3.4c-1.4-0.7-2.8-0.3-3.2,0.8c-0.3,1.1,0.5,2.5,1.9,3.2
				C576.5,91,577.9,90.7,578.3,89.6z"/>
			<path class="st0" d="M572,91.9c-0.2,0.9,0.6,2.1,1.9,2.7c1.2,0.7,2.5,0.5,2.8-0.3c0.3-0.9-0.5-2.1-1.9-2.8
				C573.5,90.8,572.2,91,572,91.9z"/>
			<path class="st0" d="M575.5,97.8c0.2-0.6-0.6-1.7-1.9-2.3c-1.2-0.6-2.3-0.6-2.4,0.1c-0.1,0.6,0.7,1.6,1.8,2.2
				C574.3,98.4,575.4,98.4,575.5,97.8z"/>
			<path class="st0" d="M574.9,100.2c0.1-0.4-0.7-1.2-1.8-1.8c-1.1-0.6-2-0.7-2-0.2c0,0.4,0.8,1.2,1.8,1.8
				C573.8,100.5,574.8,100.6,574.9,100.2z"/>
			<path class="st0" d="M571.1,99.9C571.1,99.9,571.1,99.9,571.1,99.9c1.1,0.7,2.2,1.4,3.4,2c0,0,0.1,0,0.1-0.1
				c0-0.3-0.7-0.9-1.7-1.4C571.8,99.8,571,99.6,571.1,99.9z"/>
			<path class="st0" d="M601.9,24.5c-1.2-0.3-2.4-0.5-3.7-0.6c0.2,0.1,0.7,0.3,1.3,0.5C600.5,24.6,601.6,24.7,601.9,24.5z"/>
			<path class="st0" d="M597.9,25.7c1.2,0.3,2.4,0.2,2.7-0.1c0.3-0.3-0.3-0.7-1.4-1c-1.1-0.2-2.2-0.2-2.6,0.1
				C596.2,25,596.8,25.4,597.9,25.7z"/>
			<path class="st0" d="M594.5,26.5c-0.5,0.5,0.1,1.1,1.4,1.4c1.3,0.3,2.6,0.1,3-0.4c0.4-0.5-0.3-1.1-1.5-1.4
				C596.3,25.9,595,26,594.5,26.5z"/>
			<path class="st0" d="M592,29.3c-0.6,0.7,0,1.6,1.4,1.9c1.4,0.3,2.9,0,3.4-0.7c0.5-0.7-0.2-1.6-1.5-1.9
				C594,28.3,592.6,28.6,592,29.3z"/>
			<path class="st0" d="M589.1,33.3c-0.7,1-0.1,2.1,1.3,2.5c1.4,0.4,3.1-0.1,3.7-1.1c0.6-1-0.1-2.1-1.5-2.4
				C591.4,31.9,589.8,32.3,589.1,33.3z"/>
			<path class="st0" d="M591.2,40c0.7-1.2,0-2.6-1.5-3c-1.4-0.4-3.1,0.2-3.8,1.4c-0.7,1.2-0.1,2.6,1.3,3.1
				C588.7,41.9,590.5,41.3,591.2,40z"/>
			<path class="st0" d="M587.8,46.6c0.7-1.5,0-3-1.5-3.5c-1.5-0.5-3.3,0.3-4,1.6c-0.7,1.4-0.1,3,1.4,3.6
				C585.3,48.8,587.1,48,587.8,46.6z"/>
			<path class="st0" d="M580.3,55.8c1.5,0.6,3.4-0.2,4.1-1.8c0.7-1.6,0-3.4-1.5-3.9c-1.5-0.6-3.3,0.3-4,1.8
				C578.1,53.4,578.8,55.2,580.3,55.8z"/>
			<path class="st0" d="M577,63.7c1.5,0.7,3.3-0.1,4-1.8c0.7-1.7,0-3.6-1.5-4.2c-1.5-0.6-3.2,0.2-3.9,1.8
				C574.9,61.1,575.5,63,577,63.7z"/>
			<path class="st0" d="M574.1,71.4c1.5,0.7,3.1,0,3.7-1.6c0.6-1.6-0.1-3.5-1.6-4.2c-1.5-0.7-3.1,0.1-3.7,1.7
				C572,68.8,572.7,70.6,574.1,71.4z"/>
			<path class="st0" d="M571.9,78.4c1.4,0.8,2.9,0.2,3.4-1.2c0.5-1.5-0.3-3.3-1.7-4c-1.4-0.7-2.9-0.1-3.3,1.4
				C569.8,76,570.5,77.7,571.9,78.4z"/>
			<path class="st0" d="M570.2,84.6c1.3,0.8,2.6,0.4,3-0.8c0.4-1.3-0.4-2.9-1.8-3.7c-1.3-0.7-2.6-0.3-2.9,1
				C568.2,82.2,568.9,83.8,570.2,84.6z"/>
			<path class="st0" d="M571.7,89.2c0.3-1-0.6-2.5-1.8-3.2c-1.2-0.7-2.4-0.5-2.5,0.6c-0.2,1,0.6,2.4,1.8,3.1
				C570.3,90.3,571.5,90.1,571.7,89.2z"/>
			<path class="st0" d="M570.8,93.4c0.1-0.8-0.7-2-1.8-2.8c-1.1-0.7-2.1-0.6-2.2,0.2c-0.1,0.8,0.7,2,1.8,2.6
				C569.7,94.2,570.7,94.1,570.8,93.4z"/>
			<path class="st0" d="M570.4,96.5c0-0.6-0.8-1.6-1.8-2.3c-1-0.7-1.8-0.7-1.8-0.1c0,0.6,0.8,1.5,1.8,2.2
				C569.5,97,570.3,97.1,570.4,96.5z"/>
			<path class="st0" d="M570.3,98.7c0-0.4-0.8-1.2-1.8-1.8c-0.9-0.6-1.6-0.8-1.5-0.4c0.1,0.4,0.9,1.2,1.7,1.8
				C569.7,98.8,570.4,99,570.3,98.7z"/>
			<path class="st0" d="M596.7,24c0.1-0.1,0.1-0.2,0-0.2c-1.3-0.1-2.6-0.2-3.8-0.2c-0.2,0.2,0.2,0.4,1.2,0.5
				C595.2,24.3,596.3,24.2,596.7,24z"/>
			<path class="st0" d="M590.8,24.8c-0.5,0.4,0,0.8,1.1,0.9c1.1,0.2,2.5,0,2.9-0.4c0.4-0.4-0.1-0.8-1.2-0.9
				C592.5,24.3,591.3,24.5,590.8,24.8z"/>
			<path class="st0" d="M588.2,26.9c-0.6,0.6-0.1,1.2,1.1,1.4c1.2,0.2,2.7-0.1,3.2-0.7c0.5-0.6,0-1.1-1.2-1.3
				C590.1,26.1,588.8,26.4,588.2,26.9z"/>
			<path class="st0" d="M585.2,30.1c-0.7,0.8-0.2,1.6,1,1.9c1.3,0.2,2.9-0.2,3.5-1.1c0.6-0.8,0.1-1.6-1.2-1.8
				C587.3,28.9,585.8,29.4,585.2,30.1z"/>
			<path class="st0" d="M581.8,34.4c-0.7,1-0.3,2.1,1,2.4c1.3,0.3,3-0.3,3.7-1.4c0.7-1,0.1-2.1-1.2-2.4
				C584.1,32.8,582.6,33.4,581.8,34.4z"/>
			<path class="st0" d="M583.2,41.1c0.7-1.3,0.2-2.6-1.2-2.9c-1.3-0.3-3,0.4-3.7,1.6c-0.8,1.3-0.3,2.6,1,3
				C580.7,43.2,582.4,42.4,583.2,41.1z"/>
			<path class="st0" d="M575.8,49.6c1.4,0.5,3.1-0.3,3.8-1.8c0.7-1.5,0.2-3-1.2-3.4c-1.3-0.4-3,0.4-3.7,1.8
				C574,47.6,574.5,49.1,575.8,49.6z"/>
			<path class="st0" d="M576.2,55.2c0.7-1.6,0.1-3.3-1.2-3.8c-1.3-0.5-2.9,0.3-3.6,1.9c-0.7,1.5-0.2,3.2,1.1,3.8
				C573.8,57.6,575.5,56.8,576.2,55.2z"/>
			<path class="st0" d="M568.4,60.6c-0.6,1.5,0,3.3,1.2,3.9c1.3,0.7,2.8-0.1,3.4-1.7c0.6-1.6,0-3.4-1.3-4
				C570.5,58.3,569,59.1,568.4,60.6z"/>
			<path class="st0" d="M567.3,71.8c1.2,0.7,2.6,0.1,3.1-1.4c0.5-1.5-0.1-3.3-1.4-4c-1.2-0.7-2.6,0-3,1.5
				C565.5,69.4,566.1,71.1,567.3,71.8z"/>
			<path class="st0" d="M565.7,78.4c1.1,0.8,2.4,0.3,2.7-1c0.4-1.4-0.3-3.1-1.5-3.8c-1.2-0.7-2.4-0.2-2.7,1.2
				C563.9,76,564.6,77.6,565.7,78.4z"/>
			<path class="st0" d="M564.7,84c1.1,0.8,2.1,0.5,2.3-0.6c0.2-1.2-0.5-2.7-1.6-3.5c-1.1-0.7-2.1-0.4-2.3,0.8
				C562.9,81.7,563.6,83.2,564.7,84z"/>
			<path class="st0" d="M566.2,88.3c0.1-0.9-0.7-2.3-1.7-3.1c-1-0.7-1.9-0.6-1.9,0.4c0,0.9,0.7,2.2,1.7,3
				C565.3,89.3,566.1,89.2,566.2,88.3z"/>
			<path class="st0" d="M566,92.1c0-0.7-0.8-1.9-1.7-2.6c-0.9-0.7-1.6-0.7-1.6,0c0.1,0.7,0.8,1.8,1.7,2.5
				C565.3,92.7,566,92.8,566,92.1z"/>
			<path class="st0" d="M566.2,95c-0.1-0.5-0.9-1.5-1.7-2.2c-0.9-0.7-1.4-0.8-1.3-0.3c0.1,0.5,0.9,1.5,1.7,2.1
				C565.7,95.3,566.3,95.4,566.2,95z"/>
			<path class="st0" d="M588.5,24.5c1,0,2.3-0.2,2.7-0.4c0.3-0.2,0.2-0.3-0.1-0.4c-1.2,0.1-2.4,0.2-3.6,0.3
				C587.2,24.3,587.5,24.5,588.5,24.5z"/>
			<path class="st0" d="M585.8,26.4c1.1,0,2.4-0.3,3-0.7c0.5-0.4,0.1-0.8-0.9-0.8c-1,0-2.3,0.3-2.9,0.7
				C584.4,26,584.7,26.4,585.8,26.4z"/>
			<path class="st0" d="M581.9,28c-0.7,0.6-0.4,1.2,0.7,1.3c1.1,0.1,2.6-0.4,3.2-1.1c0.6-0.6,0.2-1.2-0.9-1.3
				C584,27,582.6,27.4,581.9,28z"/>
			<path class="st0" d="M578.6,31.5c-0.7,0.9-0.4,1.7,0.7,1.8c1.2,0.2,2.7-0.5,3.4-1.4c0.7-0.9,0.3-1.7-0.8-1.8
				C580.8,30.1,579.3,30.7,578.6,31.5z"/>
			<path class="st0" d="M575,36.1c-0.8,1.1-0.5,2.1,0.7,2.4c1.2,0.2,2.8-0.5,3.5-1.6c0.7-1.1,0.4-2.1-0.8-2.3
				C577.3,34.3,575.8,35,575,36.1z"/>
			<path class="st0" d="M575.6,42.7c0.7-1.3,0.4-2.6-0.8-2.8c-1.1-0.2-2.6,0.6-3.4,1.8c-0.7,1.3-0.4,2.5,0.7,2.9
				C573.3,44.8,574.9,44,575.6,42.7z"/>
			<path class="st0" d="M568.8,51.2c1.1,0.4,2.7-0.4,3.4-1.9c0.7-1.5,0.3-2.9-0.8-3.3c-1.1-0.3-2.6,0.5-3.2,1.9
				C567.4,49.4,567.7,50.8,568.8,51.2z"/>
			<path class="st0" d="M565.9,58.4c1.1,0.5,2.5-0.3,3.1-1.8c0.6-1.5,0.2-3.2-0.9-3.6c-1.1-0.4-2.4,0.4-3,1.8
				C564.4,56.3,564.8,57.9,565.9,58.4z"/>
			<path class="st0" d="M562.5,61.8c-0.5,1.4,0,3.1,1,3.7c1,0.6,2.3-0.1,2.8-1.6c0.5-1.5,0-3.2-1.1-3.8
				C564.2,59.6,563,60.3,562.5,61.8z"/>
			<path class="st0" d="M560.7,68.5c-0.3,1.3,0.2,3,1.1,3.6c1,0.7,2.1,0.2,2.4-1.2c0.4-1.4-0.2-3.1-1.2-3.8
				C562,66.5,561,67.2,560.7,68.5z"/>
			<path class="st0" d="M559.5,74.7c-0.2,1.2,0.4,2.7,1.3,3.4c0.9,0.7,1.8,0.4,2-0.8c0.2-1.3-0.4-2.9-1.3-3.6
				C560.6,73,559.7,73.5,559.5,74.7z"/>
			<path class="st0" d="M560.5,83.2c0.8,0.8,1.6,0.6,1.7-0.4c0.1-1.1-0.6-2.5-1.5-3.3c-0.9-0.7-1.6-0.4-1.6,0.6
				C559,81,559.6,82.4,560.5,83.2z"/>
			<path class="st0" d="M560.6,87.3c0.8,0.7,1.4,0.7,1.4-0.1c0-0.8-0.7-2.2-1.5-2.9c-0.8-0.7-1.4-0.6-1.3,0.2
				C559.2,85.3,559.9,86.5,560.6,87.3z"/>
			<path class="st0" d="M562.3,90.6c-0.1-0.6-0.8-1.8-1.6-2.5c-0.7-0.7-1.2-0.7-1-0.1c0.2,0.6,0.8,1.7,1.5,2.4
				C561.9,91.1,562.4,91.2,562.3,90.6z"/>
			<path class="st0" d="M561.1,90.8c0.6,0.7,1.1,1.4,1.7,2.1c-0.3-0.5-0.9-1.2-1.4-1.8C561.3,90.9,561.2,90.8,561.1,90.8z"/>
			<path class="st0" d="M583,25.4c0.9-0.1,2.2-0.4,2.8-0.7c0.3-0.2,0.4-0.3,0.2-0.4c-1.3,0.2-2.5,0.5-3.8,0.9
				C582,25.4,582.3,25.5,583,25.4z"/>
			<path class="st0" d="M579.9,27.7c1,0,2.3-0.5,3-1c0.6-0.5,0.4-0.9-0.6-0.8c-0.9,0.1-2.1,0.5-2.8,1
				C578.8,27.4,578.9,27.7,579.9,27.7z"/>
			<path class="st0" d="M579.1,28.4c-0.9,0-2.2,0.6-2.9,1.3c-0.7,0.7-0.6,1.3,0.4,1.3c1,0,2.4-0.6,3.1-1.3
				C580.3,28.9,580,28.4,579.1,28.4z"/>
			<path class="st0" d="M572.6,33.4c-0.8,0.9-0.6,1.7,0.3,1.8c1,0.1,2.4-0.6,3.2-1.6c0.7-0.9,0.5-1.7-0.5-1.7
				C574.7,31.9,573.4,32.6,572.6,33.4z"/>
			<path class="st0" d="M569.1,38.1c-0.7,1.1-0.6,2.1,0.3,2.3c1,0.2,2.4-0.6,3.1-1.8c0.7-1.1,0.5-2.1-0.4-2.2
				C571.1,36.3,569.8,37.1,569.1,38.1z"/>
			<path class="st0" d="M566,46.4c0.9,0.3,2.3-0.6,3-1.9c0.7-1.3,0.5-2.5-0.5-2.7c-0.9-0.2-2.2,0.7-2.9,1.9
				C565,44.9,565.2,46.1,566,46.4z"/>
			<path class="st0" d="M563,52.9c0.9,0.4,2.1-0.4,2.8-1.9c0.6-1.4,0.4-2.8-0.5-3.1c-0.9-0.3-2.1,0.6-2.7,1.9
				C562,51.2,562.2,52.5,563,52.9z"/>
			<path class="st0" d="M560.6,59.6c0.8,0.5,1.9-0.3,2.4-1.7c0.5-1.5,0.2-3-0.6-3.4c-0.8-0.4-1.9,0.4-2.4,1.8
				C559.6,57.7,559.8,59.2,560.6,59.6z"/>
			<path class="st0" d="M558.8,66.2c0.8,0.6,1.7,0,2.1-1.4c0.4-1.4,0-3-0.8-3.5c-0.8-0.5-1.7,0.2-2,1.5
				C557.7,64.1,558.1,65.6,558.8,66.2z"/>
			<path class="st0" d="M557.7,72.3c0.7,0.7,1.5,0.2,1.7-1.1c0.2-1.3-0.2-2.9-1-3.5c-0.7-0.6-1.5,0-1.7,1.2
				C556.6,70.1,557,71.6,557.7,72.3z"/>
			<path class="st0" d="M557.3,77.6c0.7,0.7,1.3,0.4,1.4-0.7c0.1-1.1-0.4-2.6-1.1-3.3c-0.7-0.7-1.3-0.3-1.3,0.8
				C556.2,75.5,556.6,76.9,557.3,77.6z"/>
			<path class="st0" d="M556.2,79.3c0.1,0.9,0.6,2.2,1.2,2.9c0.6,0.7,1.1,0.6,1.1-0.3c0-1-0.6-2.3-1.3-3
				C556.6,78.1,556.2,78.3,556.2,79.3z"/>
			<path class="st0" d="M558.9,85.9c-0.1-0.8-0.7-2-1.4-2.7c-0.6-0.7-1-0.6-0.8,0.1c0.1,0.7,0.7,1.9,1.3,2.6
				C558.6,86.6,559,86.6,558.9,85.9z"/>
			<path class="st0" d="M558.2,86.6C558.2,86.6,558.2,86.6,558.2,86.6c0.4,0.6,0.8,1.3,1.2,1.9C559.2,88,558.7,87.2,558.2,86.6z"/>
			<path class="st0" d="M580.4,25.9c0.2-0.1,0.3-0.2,0.3-0.3c-1.2,0.4-2.4,0.8-3.5,1.3c0.1,0,0.3,0,0.5,0
				C578.5,26.7,579.7,26.3,580.4,25.9z"/>
			<path class="st0" d="M574.4,29.5c0.8-0.1,2.1-0.7,2.8-1.3c0.7-0.6,0.6-0.9-0.2-0.8c-0.8,0.1-1.9,0.7-2.6,1.2
				C573.6,29.2,573.7,29.6,574.4,29.5z"/>
			<path class="st0" d="M570.9,31.8c-0.7,0.7-0.7,1.3,0,1.3c0.8-0.1,2.1-0.8,2.8-1.5c0.7-0.8,0.6-1.3-0.2-1.2
				C572.8,30.4,571.6,31,570.9,31.8z"/>
			<path class="st0" d="M570.2,35.7c0.7-1,0.7-1.7-0.1-1.7c-0.8,0-1.9,0.8-2.6,1.7c-0.7,0.9-0.7,1.7,0,1.7
				C568.3,37.4,569.5,36.6,570.2,35.7z"/>
			<path class="st0" d="M566.8,40.7c0.7-1.1,0.6-2.1-0.1-2.1c-0.7,0-1.8,0.8-2.5,1.8c-0.7,1.1-0.7,2,0,2.2
				C564.9,42.7,566.1,41.9,566.8,40.7z"/>
			<path class="st0" d="M561.1,45.9c-0.6,1.2-0.6,2.3,0.1,2.6c0.7,0.2,1.8-0.6,2.4-1.9c0.6-1.3,0.6-2.4-0.2-2.6
				C562.7,43.9,561.7,44.7,561.1,45.9z"/>
			<path class="st0" d="M558.4,51.7c-0.5,1.3-0.4,2.5,0.2,2.9c0.6,0.4,1.6-0.4,2.1-1.8c0.5-1.3,0.4-2.6-0.3-2.9
				C559.8,49.7,558.9,50.5,558.4,51.7z"/>
			<path class="st0" d="M556.3,57.8c-0.4,1.3-0.2,2.6,0.3,3.1c0.6,0.5,1.4-0.2,1.8-1.6c0.4-1.3,0.2-2.8-0.4-3.1
				C557.5,55.8,556.7,56.5,556.3,57.8z"/>
			<path class="st0" d="M554.9,63.7c-0.2,1.2,0,2.6,0.5,3.1c0.5,0.6,1.2,0,1.5-1.2c0.3-1.3,0-2.7-0.6-3.2
				C555.8,61.8,555.2,62.5,554.9,63.7z"/>
			<path class="st0" d="M554.2,69.2c-0.1,1.1,0.2,2.4,0.7,3c0.5,0.6,1,0.2,1.1-0.9c0.1-1.2-0.2-2.6-0.8-3.2
				C554.7,67.6,554.3,68.1,554.2,69.2z"/>
			<path class="st0" d="M555.8,76.5c0-1-0.4-2.4-0.9-3c-0.5-0.6-0.8-0.3-0.8,0.7c0,1,0.4,2.2,0.9,2.9
				C555.4,77.7,555.8,77.5,555.8,76.5z"/>
			<path class="st0" d="M556.1,80.9c-0.1-0.8-0.6-2.1-1.1-2.8c-0.4-0.6-0.7-0.5-0.6,0.2c0.3,1,0.7,1.9,1.1,2.9
				C555.9,81.8,556.2,81.7,556.1,80.9z"/>
			<path class="st0" d="M569.7,31.7c0.6-0.2,1.8-0.8,2.5-1.5c0.6-0.6,0.7-0.9,0.2-0.8c-1,0.6-2.1,1.3-3,2
				C569.2,31.6,569.3,31.8,569.7,31.7z"/>
			<path class="st0" d="M566.3,35.4c0.6-0.1,1.7-0.9,2.4-1.7c0.7-0.8,0.8-1.3,0.1-1.2c-0.6,0.1-1.6,0.9-2.3,1.6
				C565.9,34.9,565.7,35.4,566.3,35.4z"/>
			<path class="st0" d="M565.3,38c0.7-1,0.8-1.7,0.2-1.6c-0.6,0.1-1.5,0.9-2.2,1.8c-0.7,0.9-0.8,1.7-0.3,1.7
				C563.6,39.8,564.6,39,565.3,38z"/>
			<path class="st0" d="M560,44.9c0.5,0.1,1.5-0.7,2.1-1.9c0.6-1.1,0.7-2,0.1-2c-0.5,0-1.4,0.8-2,1.8
				C559.7,43.9,559.6,44.8,560,44.9z"/>
			<path class="st0" d="M557.5,50.4c0.5,0.2,1.3-0.6,1.8-1.8c0.5-1.2,0.6-2.3,0.1-2.4c-0.5-0.1-1.3,0.7-1.8,1.8
				C557.1,49.1,557,50.2,557.5,50.4z"/>
			<path class="st0" d="M555.4,56.2c0.4,0.3,1.1-0.4,1.5-1.6c0.4-1.3,0.4-2.5,0-2.7c-0.4-0.2-1.1,0.5-1.5,1.7
				C555,54.7,555,55.9,555.4,56.2z"/>
			<path class="st0" d="M555.2,60.4c0.3-1.2,0.2-2.5-0.2-2.9c-0.4-0.3-0.9,0.3-1.2,1.5c-0.3,1.1-0.2,2.4,0.2,2.8
				C554.4,62.3,554.9,61.7,555.2,60.4z"/>
			<path class="st0" d="M554.2,66.1c0.2-1.2,0-2.5-0.4-2.9c-0.3-0.4-0.7,0.1-0.9,1.2c-0.1,1.1,0,2.3,0.4,2.8
				C553.6,67.7,554,67.3,554.2,66.1z"/>
			<path class="st0" d="M553.7,71.4c0-1-0.2-2.4-0.6-2.9c-0.3-0.5-0.6-0.1-0.6,0.9c0,1,0.2,2.2,0.5,2.8
				C553.4,72.7,553.7,72.4,553.7,71.4z"/>
			<path class="st0" d="M553.1,73.2c-0.1-0.1-0.1-0.2-0.2-0.2c0.2,1.2,0.5,2.5,0.9,3.7c0-0.1,0-0.4,0-0.7
				C553.8,75.1,553.5,73.8,553.1,73.2z"/>
			<path class="st0" d="M562.6,37.9c0.4-0.1,1.3-0.9,2-1.7c0.6-0.7,0.8-1.2,0.5-1.2c-1,0.9-1.9,1.9-2.7,2.9
				C562.4,37.9,562.4,37.9,562.6,37.9z"/>
			<path class="st0" d="M561.4,40.5c0.6-1,0.8-1.7,0.4-1.6c-0.2,0-0.5,0.3-0.9,0.7c-0.4,0.5-0.7,1-1.1,1.5c-0.4,0.7-0.5,1.2-0.2,1.2
				C560,42.2,560.8,41.4,561.4,40.5z"/>
			<path class="st0" d="M558.6,45.4c0.5-1.1,0.7-1.9,0.4-1.9c-0.3,0-1,0.8-1.5,1.8c-0.5,1-0.7,1.9-0.4,1.9
				C557.3,47.2,558,46.4,558.6,45.4z"/>
			<path class="st0" d="M556.2,50.6c0.4-1.1,0.6-2.1,0.3-2.3c-0.3-0.1-0.8,0.7-1.3,1.7c-0.4,1-0.5,2-0.3,2.2
				C555.2,52.5,555.8,51.8,556.2,50.6z"/>
			<path class="st0" d="M554.3,56.1c0.3-1.1,0.4-2.3,0.1-2.5c-0.2-0.2-0.7,0.5-1,1.6c-0.3,1.1-0.4,2.1-0.1,2.4
				C553.6,57.9,554,57.2,554.3,56.1z"/>
			<path class="st0" d="M553.1,61.5c0.2-1.1,0.2-2.3,0-2.6c-0.1-0.2-0.3-0.1-0.4,0.3c-0.2,1.1-0.3,2.2-0.3,3.4c0,0.1,0,0.2,0.1,0.3
				C552.6,63.2,552.9,62.6,553.1,61.5z"/>
			<path class="st0" d="M552.5,66.6c0.1-1,0-2.2-0.2-2.7c0,0,0,0,0,0c0,1.2,0,2.5,0.1,3.7C552.4,67.5,552.5,67.1,552.5,66.6z"/>
			<path class="st0" d="M556.2,47.3c-0.1,0.2-0.2,0.5-0.3,0.7c0.1-0.1,0.1-0.3,0.2-0.4C556.1,47.5,556.2,47.4,556.2,47.3z"/>
		</g>
	</g>
</g>
</svg>
