<?xml version="1.0" encoding="utf-8"?>
<!-- Generator: Adobe Illustrator 23.0.2, SVG Export Plug-In . SVG Version: 6.00 Build 0)  -->
<svg version="1.1" id="Calque_1" xmlns="http://www.w3.org/2000/svg" xmlns:xlink="http://www.w3.org/1999/xlink" x="0px" y="0px"
	 viewBox="0 0 710 542.1" style="enable-background:new 0 0 710 542.1;" xml:space="preserve">
<style type="text/css">
	.st0{opacity:0.2;}
	.st1{fill:#FFFFFF;}
</style>
<g class="st0">
	<path class="st1" d="M95,210.5c1.3-4.8,2-9.3,2.1-12.1c-1.9,6.6-3.4,13.3-4.8,20C93.2,216.7,94.1,214,95,210.5z"/>
	<path class="st1" d="M105.5,177.6c2-5.4,3.2-10.1,3.1-12.1c-0.3,0.8-0.7,1.6-1,2.4c-2.7,6.6-5.2,13.3-7.3,20.1
		C101.5,186.8,103.5,182.8,105.5,177.6z"/>
	<path class="st1" d="M123.2,136c-3.8,6.6-7.3,13.5-10.6,20.5c1.6-1.5,4.3-5.7,6.8-10.8C121.5,141.4,122.9,137.8,123.2,136z"/>
	<path class="st1" d="M138.4,112.1c-2.8,3.9-5.5,7.9-8.1,12c1.8-2.1,3.9-5,5.8-8.1C137,114.6,137.8,113.3,138.4,112.1z"/>
	<path class="st1" d="M87.5,284.9c0-0.1-0.1-0.2-0.1-0.3c0.4,7.8,1.1,15.5,2.1,23.2c0.3-1.1,0.5-3,0.4-5.6
		C89.9,295.8,88.8,287.9,87.5,284.9z"/>
	<path class="st1" d="M91.6,270.1c0.8-7.1,0.2-14.9-1.2-17.4c-1-1.7-2.1-0.3-2.9,3.2c-0.4,6.2-0.5,12.3-0.5,18.5
		c0.2,1.2,0.5,2.2,0.8,2.9C89.2,280.2,90.8,277.1,91.6,270.1z"/>
	<path class="st1" d="M97.1,235.5c1.6-7.5,1.6-15,0-16.9c-1.5-1.7-3.8,2.6-5.3,9.5c-1.4,6.9-1.5,14.2-0.2,16.4
		C93.1,246.9,95.6,242.9,97.1,235.5z"/>
	<path class="st1" d="M99.4,210.1c1.7,1.7,5-3,7.3-10.5c2.5-7.5,3-14.6,1.1-15.7c-1.7-1-4.9,3.8-7.1,10.8
		C98.5,201.7,97.9,208.6,99.4,210.1z"/>
	<path class="st1" d="M111,175.5c2,1,6-4.3,9.2-11.6c3.2-7.3,4.1-13.5,1.9-13.9c-1.9-0.4-6,4.9-9,11.6
		C110.2,168.4,109.3,174.6,111,175.5z"/>
	<path class="st1" d="M126,142c2.3,0.2,7.2-5.2,11-12c3.8-6.8,4.8-12,2.3-11.7c-2.3,0.3-7.1,5.6-10.6,11.9
		C125.2,136.6,124,141.9,126,142z"/>
	<path class="st1" d="M143.9,111.1c2.6-0.5,8.1-5.8,12.4-11.9c4.2-6,5.3-10,2.4-9.1c-2.6,0.8-7.9,6-11.9,11.5
		C142.9,107.3,141.5,111.6,143.9,111.1z"/>
	<path class="st1" d="M163.7,83.9c2.9-1,8.9-6.1,13.4-11.2c3.7-4.2,5-6.9,3.4-6.9c-6.3,5.5-12.4,11.3-18.2,17.4
		C162.2,84,162.6,84.2,163.7,83.9z"/>
	<path class="st1" d="M96.9,344.3c1.6,5.9,3.5,11.8,5.5,17.6c0-0.3-0.1-0.5-0.1-0.8C101.3,355.8,98.9,348.4,96.9,344.3z"/>
	<path class="st1" d="M99.2,333.3c-0.3-6.4-2.4-14.7-4.6-18.5c-2.1-3.6-3.4-1.4-3,4.7c0.1,0.9,0.2,1.9,0.3,2.8
		c0.6,2.9,1.1,5.8,1.8,8.8c0.7,2.3,1.4,4.4,2.2,5.9C98,341.1,99.5,339.5,99.2,333.3z"/>
	<path class="st1" d="M94.6,307.2c2.2,3.7,4.4,1,4.9-6c0.5-7.2-1.1-15.9-3.4-19.2c-2.2-3.1-4.3,0-4.6,6.9
		C91.1,295.6,92.5,303.7,94.6,307.2z"/>
	<path class="st1" d="M97,273.5c2.4,3.2,5.4-0.4,6.7-8.1c1.4-7.9,0.4-16.5-2.2-19.2c-2.4-2.5-5.3,1.5-6.5,8.9
		C94,262.3,94.8,270.5,97,273.5z"/>
	<path class="st1" d="M102.8,219.1c-2,7.6-1.7,15.6,0.7,18c2.6,2.6,6.5-1.9,8.7-10c2.3-8.2,1.8-16.5-1-18.5
		C108.7,206.7,104.9,211.5,102.8,219.1z"/>
	<path class="st1" d="M114.6,182.6c-2.9,7.6-3,15.1-0.3,16.7c2.9,1.8,7.7-3.3,10.8-11.5c3.1-8.1,3.1-15.7-0.1-17
		C122.2,169.8,117.5,175.1,114.6,182.6z"/>
	<path class="st1" d="M141.6,149.7c3.8-7.7,4.1-14.4,0.6-14.8c-3.2-0.4-8.7,5-12.2,12.2c-3.6,7.2-4,13.9-1.1,14.8
		C132.2,163,137.8,157.5,141.6,149.7z"/>
	<path class="st1" d="M146.9,126.6c3.5,0.3,9.9-5.3,14.3-12.3c4.3-7,4.7-12.4,0.9-12.2c-3.5,0.2-9.6,5.6-13.7,12.1
		C144.3,120.7,143.6,126.3,146.9,126.6z"/>
	<path class="st1" d="M167.2,94.7c3.8-0.4,10.8-5.7,15.4-11.7c4.6-5.9,4.9-10.1,0.9-9.3c-3.8,0.7-10.3,5.8-14.7,11.4
		C164.3,90.7,163.6,95.1,167.2,94.7z"/>
	<path class="st1" d="M188.8,67.5c4.1-0.9,11.3-5.7,16-10.6c4.6-4.8,4.8-7.7,0.6-6.5c-4,1.1-10.8,5.6-15.2,10.2
		C185.7,65.1,185,68.3,188.8,67.5z"/>
	<path class="st1" d="M210.8,45.4c4.2-1.2,11.6-5.4,16.2-9.2c3.1-2.5,4-4.1,2.9-4.4c-7.4,4-14.7,8.3-21.7,13
		C207.8,45.8,208.6,46,210.8,45.4z"/>
	<path class="st1" d="M116.7,395.5c0.8,0.2,1-1,0.4-3.6c-1.1-4.9-4.5-12.7-7.6-17.2c-1.7-2.6-2.9-3.3-3.3-2.5
		C109.4,380.2,112.8,387.9,116.7,395.5z"/>
	<path class="st1" d="M113.3,366.1c-0.5-6.1-3.6-14.6-6.8-19c-3.1-4.1-5-2.5-4.4,3.4c0.6,5.7,3.5,13.7,6.4,18
		C111.6,372.9,113.8,371.9,113.3,366.1z"/>
	<path class="st1" d="M100.8,320.3c-0.1,6.7,2.3,15.3,5.5,19.4c3.2,4.3,6.1,2.3,6.4-4.6c0.2-7.1-2.4-16.3-5.8-20.3
		C103.5,310.9,100.8,313.5,100.8,320.3z"/>
	<path class="st1" d="M115.7,299.1c1.1-8-1-17.5-4.6-21.1c-3.5-3.3-7,0.2-8,7.9c-0.9,7.5,1,16.5,4.3,20.2
		C110.9,310,114.6,307,115.7,299.1z"/>
	<path class="st1" d="M112.8,268.6c3.7,3.4,8.4-0.7,10.4-9.2c2-8.7,0.5-18.1-3.5-21c-3.7-2.7-8.2,1.7-10.1,9.9
		C107.9,256.3,109.3,265.4,112.8,268.6z"/>
	<path class="st1" d="M122.5,228.4c4,2.7,9.7-2.2,12.6-11c3-8.9,1.9-17.9-2.4-20c-4-2-9.5,3.1-12.2,11.5
		C117.9,217,118.8,225.8,122.5,228.4z"/>
	<path class="st1" d="M136.6,187.3c4.4,2,10.9-3.5,14.7-12.2c3.8-8.7,3-16.8-1.6-18.2c-4.3-1.3-10.6,4.3-14.1,12.3
		C132,177.4,132.5,185.5,136.6,187.3z"/>
	<path class="st1" d="M154.3,147.5c4.7,1.2,12-4.5,16.4-12.6c4.3-8,3.8-15-1.1-15.6c-4.6-0.6-11.6,5-15.7,12.5
		C149.8,139.3,150,146.4,154.3,147.5z"/>
	<path class="st1" d="M174.8,97.8c-4.6,6.7-4.5,12.5,0.1,12.9c5,0.5,12.9-5,17.6-12.2c4.6-7,4.2-12.6-0.9-12.6
		C186.8,86,179.2,91.3,174.8,97.8z"/>
	<path class="st1" d="M214.3,58c-5,0.5-12.7,5.2-17.3,10.7c-4.7,5.6-4.7,10.1,0.2,9.9c5.2-0.2,13.4-5.2,18.2-11.1
		C220.1,61.7,219.5,57.5,214.3,58z"/>
	<path class="st1" d="M219.3,45.1c-4.7,4.4-4.6,7.6,0.5,7c5.3-0.6,13.5-4.9,18.3-9.6c4.6-4.5,3.9-7.4-1.4-6.6
		C231.5,36.8,223.9,40.8,219.3,45.1z"/>
	<path class="st1" d="M241.9,31.5c5.3-0.9,13.3-4.4,17.8-7.8c4.3-3.2,3.3-5-1.9-4c-5.1,1-12.6,4.3-16.9,7.4
		C236.5,30.4,236.8,32.4,241.9,31.5z"/>
	<path class="st1" d="M276.9,12c-4.2,1.3-8.4,2.7-12.5,4.3C268.3,15.3,273.2,13.6,276.9,12z"/>
	<path class="st1" d="M122.4,406.1L122.4,406.1c3.4,6.1,7.1,12,11,17.8c2.4,2.3,3.7,2,2.8-1.3c-1.1-4.3-5.3-11.7-9.3-16.4
		C123,401.7,121,401.7,122.4,406.1z"/>
	<path class="st1" d="M117.3,382.9c0.8,5.3,4.5,13.1,8.4,17.7c4,4.7,6.9,4.4,6.3-0.9c-0.6-5.5-4.6-13.9-8.9-18.7
		C119.1,376.5,116.5,377.4,117.3,382.9z"/>
	<path class="st1" d="M115.1,354.4c0.1,6.4,3.5,15.1,7.7,19.7c4.3,4.7,7.9,3.4,8-3.1c0.1-6.8-3.6-16.1-8.1-20.7
		C118.3,345.9,115,347.8,115.1,354.4z"/>
	<path class="st1" d="M123.1,341.9c4.6,4.5,9.2,2.1,10.1-5.6c1-7.9-2.3-18-7.2-22.2c-4.6-4.1-9-1.1-9.7,6.6
		C115.7,328.1,118.7,337.6,123.1,341.9z"/>
	<path class="st1" d="M127.5,304.5c5,4.2,10.5,0.6,12.3-8.1c1.9-8.9-0.9-19.2-6.1-23c-5-3.6-10.3,0.5-11.9,9
		C120.3,290.7,122.8,300.5,127.5,304.5z"/>
	<path class="st1" d="M136.3,263c5.3,3.6,11.9-0.9,14.7-10.2c2.8-9.4,0.6-19.7-5-22.8c-5.3-2.9-11.6,1.9-14.2,10.9
		C129.3,249.6,131.3,259.5,136.3,263z"/>
	<path class="st1" d="M149.6,219.1c5.7,3,13.2-2.3,16.9-11.8c3.7-9.5,1.8-19.2-4.1-21.6c-5.6-2.2-12.9,3.2-16.3,12.2
		C142.7,206.9,144.3,216.4,149.6,219.1z"/>
	<path class="st1" d="M164.2,155.9c-4.1,8.6-2.9,17.2,2.7,19.3c6,2.2,14.4-3.4,18.7-12.6c4.3-9.1,2.7-17.7-3.5-19.3
		C176.4,141.8,168.3,147.4,164.2,155.9z"/>
	<path class="st1" d="M185.1,116.9c-4.6,7.8-3.6,15.2,2.3,16.6c6.3,1.5,15.2-4.2,20-12.4c4.7-8.1,3.3-15.5-3.1-16.4
		C198.2,103.8,189.7,109.2,185.1,116.9z"/>
	<path class="st1" d="M227.4,71.5c-6.2-0.3-14.9,4.6-19.6,11.1c-4.8,6.7-3.9,12.7,2.2,13.4c6.4,0.7,15.7-4.4,20.6-11.5
		C235.3,77.7,233.8,71.8,227.4,71.5z"/>
	<path class="st1" d="M230.7,54.2c-4.8,5.4-3.9,10,2.3,10.2c6.5,0.2,15.7-4.2,20.5-9.9c4.7-5.5,3.1-9.8-3.3-9.7
		C244,44.8,235.3,49,230.7,54.2z"/>
	<path class="st1" d="M271.8,24.4c-6.1,0.3-14.4,3.8-18.9,7.6c-4.6,4.1-3.5,7.2,2.6,7.1c6.4-0.2,15.4-3.8,19.9-8.1
		C279.8,27,278.1,24,271.8,24.4z"/>
	<path class="st1" d="M276.8,20.4c6.2-0.4,14.7-3.2,18.8-6.1c3.9-2.8,2-4.6-4-4.1c-5.9,0.5-13.8,3-17.8,5.7
		C269.5,18.8,270.8,20.8,276.8,20.4z"/>
	<path class="st1" d="M313.6,3.5c0.2-0.1,0.3-0.2,0.5-0.2c-7.4,1.2-14.7,2.7-22,4.5c0.9,0.1,2.3,0.1,4.1-0.1
		C302.1,7.2,310,5.3,313.6,3.5z"/>
	<path class="st1" d="M141.9,435.1c0.2,0.7,0.7,1.6,1.2,2.5c3.6,4.7,7.4,9.3,11.3,13.8c3.2,2.6,5,2.8,4.2,0.1
		c-1-3.5-5.8-10.3-10.6-14.9C143.3,431.9,140.6,431.4,141.9,435.1z"/>
	<path class="st1" d="M136.9,415.1c0.8,4.7,5.3,12.1,10,16.7c4.9,4.7,8.6,5,8,0.4c-0.5-4.8-5.3-12.7-10.5-17.5
		C139.4,409.9,136.1,410.2,136.9,415.1z"/>
	<path class="st1" d="M134.4,389.3c0.2,5.9,4.5,14.4,9.7,19.1c5.3,4.9,9.8,4.2,9.9-1.7c0.1-6.2-4.5-15.2-10.1-20.1
		C138.3,381.8,134.2,383.1,134.4,389.3z"/>
	<path class="st1" d="M135.1,357.4c-0.6,7.1,3.5,16.7,9,21.4c5.7,4.9,11.1,3.1,12-4.2c0.9-7.5-3.4-17.6-9.5-22.4
		C140.8,347.6,135.7,350,135.1,357.4z"/>
	<path class="st1" d="M139.8,319.8c-1.4,8.3,2.2,18.6,8.2,23.1c6.2,4.7,12.7,1.7,14.4-6.8c1.8-8.8-2.1-19.6-8.6-24.1
		C147.5,307.7,141.3,311.3,139.8,319.8z"/>
	<path class="st1" d="M149,277.4c-2.4,9.1,0.8,19.9,7.2,24.1c6.6,4.4,14.2,0.3,16.8-9.2c2.7-9.7-0.7-20.9-7.7-24.9
		C158.7,263.6,151.4,268.1,149,277.4z"/>
	<path class="st1" d="M162.6,232.2c-3.3,9.6-0.5,20.3,6.2,23.9c7,3.9,15.6-1.1,19.2-11.2c3.6-10.1,0.5-21.1-6.8-24.5
		C174.3,217.3,165.9,222.5,162.6,232.2z"/>
	<path class="st1" d="M180.3,186.3c-4,9.5-1.7,19.6,5.3,22.7c7.4,3.2,16.9-2.3,21.1-12.3c4.2-10,1.5-20.2-6.1-22.9
		C193.5,171.2,184.4,176.8,180.3,186.3z"/>
	<path class="st1" d="M222.7,129.9c-7.4-1.9-17,3.7-21.6,12.4c-4.6,8.9-2.5,18,4.8,20.4c7.6,2.5,17.7-3.1,22.4-12.5
		C233,141,230.4,131.9,222.7,129.9z"/>
	<path class="st1" d="M223.8,102.7c-4.9,7.8-2.9,15.5,4.5,17.3c7.7,1.8,18.1-3.5,23-11.7c4.8-8.1,2.3-15.7-5.4-17
		C238.4,90,228.6,95.1,223.8,102.7z"/>
	<path class="st1" d="M268.8,59.1c-7.3-0.8-17,3.5-21.8,9.8c-4.9,6.5-2.9,12.7,4.5,13.9c7.7,1.2,18-3.4,22.8-10.2
		C278.9,66,276.4,60,268.8,59.1z"/>
	<path class="st1" d="M269.5,42c-4.7,5-2.6,9.7,4.7,10.4c7.6,0.8,17.4-3,21.9-8.3c4.3-5.1,1.7-9.5-5.7-10
		C283.3,33.7,274,37.1,269.5,42z"/>
	<path class="st1" d="M290.5,21.8c-4.3,3.6-2.1,6.9,4.9,7.3c7.3,0.4,16.6-2.4,20.6-6.1c3.8-3.6,1.1-6.7-5.9-6.9
		C303.3,15.8,294.6,18.4,290.5,21.8z"/>
	<path class="st1" d="M327.5,4.3C321,4.2,313,5.8,309.4,8.1c-3.8,2.3-1.5,4.4,5.2,4.6c6.9,0.2,15.5-1.7,18.9-4.1
		C336.8,6.3,334.1,4.4,327.5,4.3z"/>
	<path class="st1" d="M348.3,0c-7.6,0.2-15.2,0.8-22.7,1.6c1.2,0.3,3,0.5,5.6,0.6C337.7,2.3,345.3,1.3,348.3,0z"/>
	<path class="st1" d="M164.6,462c0.1,0.2,0.2,0.4,0.3,0.6c5.4,5.5,11,10.7,16.9,15.7c1.5,0.6,2.3,0.4,1.9-0.9
		c-0.8-2.7-5.9-8.5-11.4-12.9C166.9,460.2,163.5,459.1,164.6,462z"/>
	<path class="st1" d="M181.1,462.3c-0.3-3.9-5.5-10.9-11.6-15.6c-5.9-4.6-10-4.9-9.3-0.8c0.7,3.9,5.7,10.5,11.2,14.9
		C177.1,465.2,181.4,465.9,181.1,462.3z"/>
	<path class="st1" d="M158.1,423.7c0.2,5.2,5.1,13,11.2,17.7c6.1,4.7,11.4,4.6,11.6-0.4c0.2-5.3-4.9-13.7-11.5-18.5
		C162.9,417.6,157.9,418.3,158.1,423.7z"/>
	<path class="st1" d="M158.9,395c-0.5,6.5,4.3,15.6,10.8,20.4c6.7,4.9,12.9,3.7,13.8-2.8c0.9-6.8-4.1-16.5-11.2-21.4
		C165.4,386.4,159.4,388.2,158.9,395z"/>
	<path class="st1" d="M163.4,359.6c-1.3,7.9,3.3,18.2,10.3,23c7.2,5,14.6,2.6,16.3-5.4c1.8-8.3-3-19.1-10.7-24
		C171.9,348.5,164.8,351.4,163.4,359.6z"/>
	<path class="st1" d="M172.1,318.1c-2.3,9.1,2,20.2,9.6,24.9c7.8,4.8,16.3,1.3,18.9-8c2.7-9.6-1.8-21.2-10-25.8
		C182.6,304.8,174.4,308.8,172.1,318.1z"/>
	<path class="st1" d="M185.2,272c-3.2,9.9,0.7,21.4,8.7,25.8c8.3,4.5,17.8-0.1,21.3-10.3c3.5-10.4-0.6-22.3-9.2-26.5
		C197.7,257,188.4,261.9,185.2,272z"/>
	<path class="st1" d="M202.4,223.4c-4,10.2-0.4,21.6,7.9,25.5c8.7,4.1,19.1-1.2,23.3-11.8c4.2-10.6,0.3-22.2-8.6-25.9
		C216.5,207.7,206.4,213.2,202.4,223.4z"/>
	<path class="st1" d="M246.8,162.9c-8.7-2.9-19.4,2.6-23.9,12.4c-4.5,9.9-1.3,20.6,7.3,24c8.9,3.5,20-2,24.7-12.4
		C259.5,176.6,255.8,165.9,246.8,162.9z"/>
	<path class="st1" d="M245.3,130.3c-4.9,9-1.8,18.5,6.9,21.3c9,2.9,20.4-2.5,25.2-11.8c4.7-9.2,1.2-18.6-7.8-21.1
		C261,116.3,250.1,121.5,245.3,130.3z"/>
	<path class="st1" d="M292.4,80.8c-8.5-1.8-19.2,2.6-23.9,10.1c-4.9,7.7-1.9,15.7,6.8,17.9c9,2.3,20.1-2.4,24.9-10.5
		C304.7,90.6,301.1,82.7,292.4,80.8z"/>
	<path class="st1" d="M290.9,58.4c-4.6,6.1-1.6,12.6,6.8,14.3c8.7,1.8,19.4-2,23.8-8.5c4.2-6.2,0.6-12.4-7.8-13.8
		C305.5,48.9,295.3,52.5,290.9,58.4z"/>
	<path class="st1" d="M332.9,27.5c-7.8-1.1-17.3,1.5-21.3,5.8c-4.2,4.6-1.2,9.4,7,10.8c8.3,1.4,18.3-1.4,22.2-6.2
		C344.5,33.3,340.9,28.7,332.9,27.5z"/>
	<path class="st1" d="M330.1,15.5c-3.7,3.1-0.6,6.5,7.1,7.6c7.9,1.1,17-0.7,20.3-4c3.1-3.1-0.5-6.4-7.9-7.3
		C342.2,10.9,333.6,12.5,330.1,15.5z"/>
	<path class="st1" d="M363.5,2.1C356.8,1.4,349,2.2,346,3.9c-3.1,1.9,0,4.1,7.2,5c7.3,0.9,15.5,0,18.2-2C374,5,370.4,2.9,363.5,2.1z
		"/>
	<path class="st1" d="M379,0.9c-5.5-0.5-11-0.8-16.5-0.9c1.1,0.2,2.5,0.4,4,0.6C371,1.1,375.7,1.2,379,0.9z"/>
	<path class="st1" d="M189.6,484.8c6.6,5.2,13.4,10.1,20.5,14.7c0,0,0,0,0-0.1c-0.4-1.9-5.6-6.5-11.6-10.5
		C194.1,486,190.6,484.4,189.6,484.8z"/>
	<path class="st1" d="M186.3,473.5c0.4,3,5.7,8.6,11.7,12.6c6.1,4,11.1,5,11.1,2.3c0-3-5.4-8.9-12-13.2
		C190.7,471,185.8,470.3,186.3,473.5z"/>
	<path class="st1" d="M210.3,471.5c0.5-4.4-5-11.6-12.2-16.2c-7.1-4.5-12.9-4.4-12.9,0.2c0,4.3,5.3,11.2,12,15.5
		C203.9,475.3,209.8,475.6,210.3,471.5z"/>
	<path class="st1" d="M186.8,430.9c-0.6,5.7,4.7,14,12,18.5c7.4,4.6,14.3,3.9,15.5-1.7c1.2-5.9-4.3-14.6-12.2-19.4
		C194.2,423.7,187.4,424.9,186.8,430.9z"/>
	<path class="st1" d="M221.5,416.5c1.9-7.5-3.5-17.7-12-22.6c-8.4-4.8-16.3-2.5-17.8,5.1c-1.4,7.2,3.9,16.9,11.8,21.6
		C211.5,425.5,219.6,423.7,221.5,416.5z"/>
	<path class="st1" d="M200.5,360.1c-2.2,8.7,2.8,19.6,11.4,24.4c8.7,4.9,18,1.9,20.6-6.9c2.8-9-2.4-20.4-11.6-25.3
		C212,347.5,202.9,351.1,200.5,360.1z"/>
	<path class="st1" d="M213.6,314.8c-3.1,9.9,1.7,21.7,10.8,26.4c9.3,4.8,19.6,0.7,23.1-9.3c3.5-10.3-1.4-22.4-11.1-27.1
		C226.9,300.2,216.7,304.7,213.6,314.8z"/>
	<path class="st1" d="M230.5,265.3c-3.9,10.5,0.6,22.7,10.2,27.2c9.7,4.6,21-0.4,25.2-11.2c4.2-10.9-0.6-23.4-10.6-27.7
		C245.5,249.3,234.4,254.6,230.5,265.3z"/>
	<path class="st1" d="M250.6,214.2c-4.5,10.6-0.2,22.6,9.6,26.7c10,4.3,21.9-1.1,26.5-12.1c4.5-10.9,0-23-10.2-26.9
		C266.7,198.1,255.1,203.6,250.6,214.2z"/>
	<path class="st1" d="M299.1,153.1c-9.8-3.4-21.6,1.9-26.3,11.7c-4.8,10-0.7,21.2,9.2,24.9c10.2,3.8,22.3-1.5,27-11.9
		C313.6,167.6,309.2,156.5,299.1,153.1z"/>
	<path class="st1" d="M321.3,109.6c-9.6-2.9-21.1,1.7-25.7,10.3c-4.8,8.9-0.8,18.7,9,22c10,3.3,22-1.5,26.5-10.7
		C335.5,122.3,331.1,112.6,321.3,109.6z"/>
	<path class="st1" d="M341.9,73.5c-9.2-2.5-20.1,1.2-24.5,8.2c-4.5,7.3-0.5,15.6,9,18.4c9.7,2.9,21.1-1.1,25.3-8.7
		C355.7,84,351.3,76,341.9,73.5z"/>
	<path class="st1" d="M337.6,51.2c-4.1,5.7-0.1,12.2,9,14.7c9.3,2.4,19.8-0.4,23.4-6.4c3.4-5.7-1-12-9.8-14.2
		C351.5,43.2,341.5,45.9,337.6,51.2z"/>
	<path class="st1" d="M375.7,24.9c-8.1-1.8-17.2-0.2-20.5,3.6c-3.5,4,0.5,9,9,11.1c8.7,2.1,18.2,0.3,21.2-4
		C388.3,31.6,383.9,26.8,375.7,24.9z"/>
	<path class="st1" d="M388.5,11.5c-7.4-1.6-15.6-0.9-18.3,1.6c-2.9,2.7,1.1,6.2,9,8c8,1.8,16.5,1,18.9-1.9
		C400.3,16.6,396,13.1,388.5,11.5z"/>
	<path class="st1" d="M391.1,9.1c7.3,1.6,14.9,1.6,16.7,0c1.7-1.5-2.5-3.8-9.4-5.3c-6.8-1.4-14-1.5-16.2-0.1
		C379.9,5.2,383.9,7.6,391.1,9.1z"/>
	<path class="st1" d="M213.8,497.2c0.1,2.1,5.3,6.6,11.6,10c6.4,3.4,11.9,4.5,12.2,2.7c0.4-2.1-4.9-6.7-11.7-10.3
		C219.1,495.9,213.7,494.9,213.8,497.2z"/>
	<path class="st1" d="M240.7,497.5c0.9-3.4-4.6-9.3-12.1-13.2c-7.5-3.9-13.9-4.2-14.2-0.6c-0.3,3.3,5.1,9,12.1,12.7
		C233.4,500.1,239.8,500.5,240.7,497.5z"/>
	<path class="st1" d="M246.2,478.7c1.5-4.9-4-12.2-12.4-16.5c-8.3-4.2-15.7-3.5-16.6,1.5c-0.9,4.7,4.6,11.8,12.3,15.8
		C237.3,483.6,244.8,483.2,246.2,478.7z"/>
	<path class="st1" d="M254.8,452.4c2.2-6.5-3.4-15.4-12.4-20c-9-4.5-17.6-2.6-19.2,4.1c-1.6,6.3,4,14.9,12.4,19.2
		C244.1,460,252.7,458.5,254.8,452.4z"/>
	<path class="st1" d="M232.7,401.4c-2.3,8,3.1,18,12.3,22.5c9.2,4.6,19,1.9,21.8-5.9c2.9-8.2-2.6-18.7-12.3-23.3
		C245,390.1,235.2,393.1,232.7,401.4z"/>
	<path class="st1" d="M246.1,359c-3.1,9.4,2.2,20.8,12,25.4c9.9,4.7,20.8,1,24.3-8.4c3.7-9.7-1.7-21.4-12-26.2
		C260.2,345.1,249.4,349.3,246.1,359z"/>
	<path class="st1" d="M263.2,310.5c-3.9,10.5,1.3,22.8,11.6,27.5c10.4,4.7,22.2,0,26.3-10.5c4.2-10.7-1-23.3-11.7-28
		C278.8,294.8,267.1,299.8,263.2,310.5z"/>
	<path class="st1" d="M283.2,258.4c-4.4,11,0.6,23.6,11.2,28.2c10.7,4.7,23.1-0.6,27.7-11.8c4.5-11.2-0.6-23.9-11.5-28.4
		C299.9,242,287.6,247.4,283.2,258.4z"/>
	<path class="st1" d="M305,206c-4.7,10.8,0.2,23.1,10.9,27.5c10.9,4.4,23.4-0.9,28.1-11.9c4.6-10.9-0.5-23.2-11.3-27.4
		C322,190,309.6,195.3,305,206z"/>
	<path class="st1" d="M327.2,156.6c-4.6,9.9,0.2,21.3,10.8,25.4c10.8,4.1,23.1-0.8,27.5-11c4.3-9.9-0.8-21.1-11.3-25
		C343.9,142.1,331.8,146.9,327.2,156.6z"/>
	<path class="st1" d="M348.5,112.8c-4.3,8.5,0.5,18.6,10.8,22.3c10.4,3.8,22.2-0.3,26.1-9.1c3.8-8.5-1.3-18.2-11.3-21.8
		C364.1,100.8,352.7,104.6,348.5,112.8z"/>
	<path class="st1" d="M391.2,70.4c-9.3-3.2-19.9-0.4-23.5,6.2c-3.8,6.9,1,15.3,10.8,18.7c9.9,3.5,20.7,0.4,24.1-6.7
		C405.8,81.7,400.7,73.6,391.2,70.4z"/>
	<path class="st1" d="M405.4,44.8c-8.6-2.8-18.1-1.1-21.2,3.7c-3.2,5.2,1.6,11.9,10.7,14.9c9.3,3.1,19,1.2,21.7-4.3
		C419.2,54,414.2,47.6,405.4,44.8z"/>
	<path class="st1" d="M397.8,28.2c-2.6,3.6,2.1,8.7,10.6,11.5c8.6,2.8,17.2,1.9,19.2-1.9c1.9-3.6-3.1-8.5-11.1-11.1
		C408.6,24.2,400.2,24.9,397.8,28.2z"/>
	<path class="st1" d="M424.9,15.2c-7.2-2.3-14.6-2.4-16.5-0.4c-2,2.3,2.6,6,10.4,8.5c7.8,2.5,15.4,2.5,16.8,0.1
		C437,21.2,432.2,17.5,424.9,15.2z"/>
	<path class="st1" d="M426.6,13.3c7.1,2.2,13.6,3,14.6,1.7c0.2-0.2,0.1-0.5-0.1-0.9c-8-2.7-16.1-5.1-24.2-7
		c-0.2,0.1-0.3,0.1-0.4,0.2C415,8.4,419.5,11.1,426.6,13.3z"/>
	<path class="st1" d="M241.5,516.1c0,0.3,0.1,0.6,0.4,1c3.4,1.6,6.9,3.2,10.4,4.6c4.1,1.7,8.2,3.3,12.3,4.8c0.4-0.1,0.7-0.2,0.8-0.4
		c0.8-1.3-4.1-4.6-11-7.5C247.7,515.7,241.8,514.5,241.5,516.1z"/>
	<path class="st1" d="M259.1,507.7c-7.6-3.2-14.4-3.7-15.2-1c-0.7,2.4,4.5,6.8,11.6,9.8c7,2.9,13.8,3.5,15,1.3
		C271.8,515.3,266.7,510.8,259.1,507.7z"/>
	<path class="st1" d="M277.8,503.6c1.9-3.8-3.3-9.7-11.7-13.1c-8.4-3.5-16.2-3.1-17.5,1c-1.2,3.7,4.1,9.4,11.9,12.7
		C268.3,507.4,276.1,507.1,277.8,503.6z"/>
	<path class="st1" d="M288.1,482.5c2.6-5.4-2.8-12.8-11.9-16.6c-9.1-3.8-18.1-2.3-20.1,3.3c-1.8,5.3,3.6,12.4,12.2,16
		C276.8,488.7,285.7,487.5,288.1,482.5z"/>
	<path class="st1" d="M266.9,439.1c-2.6,7,2.9,15.7,12.2,19.6c9.3,3.9,19.3,1.6,22.4-5.2c3.2-7.1-2.1-16.2-11.9-20.3
		C279.8,429.1,269.6,431.7,266.9,439.1z"/>
	<path class="st1" d="M318.1,416.2c3.8-8.8-1.5-19.4-11.9-23.8c-10.4-4.3-21.6-0.5-25,8.4c-3.3,8.6,2.2,18.9,12.1,23.1
		C303.4,428.1,314.4,424.7,318.1,416.2z"/>
	<path class="st1" d="M298.8,355.4c-3.9,10,1.4,21.7,12,26.1c10.5,4.4,22.5-0.1,26.7-10c4.3-10.1-0.9-22.1-11.8-26.6
		C314.9,340.4,302.9,345.1,298.8,355.4z"/>
	<path class="st1" d="M358.8,321c4.6-11-0.6-23.7-11.7-28.3c-11.1-4.6-23.6,0.7-28.1,11.7c-4.4,10.9,0.9,23.5,11.8,28
		C341.8,337.1,354.3,331.9,358.8,321z"/>
	<path class="st1" d="M380.8,267.7c4.5-11.2-0.7-24-11.7-28.6c-11-4.6-23.7,0.7-28.3,11.9c-4.6,11.2,0.6,24,11.7,28.6
		C363.6,284.3,376.2,278.9,380.8,267.7z"/>
	<path class="st1" d="M362.6,198.6c-4.5,10.7,0.7,23.2,11.7,27.7c11,4.6,23.4-0.5,27.7-11.3c4.2-10.6-1.1-22.9-11.9-27.3
		C379.4,183.2,367.1,188.1,362.6,198.6z"/>
	<path class="st1" d="M421.2,166.2c3.6-9.4-1.8-20.6-12-24.9c-10.3-4.3-21.9-0.3-25.9,9c-4.1,9.6,1.1,21,11.8,25.5
		C405.7,180.3,417.4,175.9,421.2,166.2z"/>
	<path class="st1" d="M437.3,123.7c2.9-7.9-2.5-17.6-12.2-21.6c-9.7-4-20.3-1.1-23.7,6.6c-3.6,8,1.7,18.1,11.9,22.3
		C423.5,135.3,434.2,132,437.3,123.7z"/>
	<path class="st1" d="M416.6,75.1c-2.9,6.3,2.4,14.7,11.9,18.7c9.5,4,19.1,1.8,21.5-4.8c2.2-6.2-3.3-14.2-12.2-18
		C428.9,67.3,419.4,69.1,416.6,75.1z"/>
	<path class="st1" d="M428.6,49.6c-2.3,4.7,3,11.4,11.8,15.1c8.8,3.7,17.3,2.7,18.9-2.2c1.5-4.6-3.9-11.1-12.1-14.5
		C439.1,44.5,430.7,45.3,428.6,49.6z"/>
	<path class="st1" d="M437.5,31.7c-1.6,3.2,3.6,8.4,11.6,11.7c8,3.3,15.4,3.3,16.4-0.1c0.9-3.1-4.3-8.2-11.8-11.3
		C446.3,29,439,28.8,437.5,31.7z"/>
	<path class="st1" d="M455,29.2c7.3,3,13.6,3.8,14.2,1.7c0.5-1.9-4.6-5.8-11.4-8.6c-6.7-2.8-13.1-3.7-14-2
		C442.6,22.2,447.7,26.1,455,29.2z"/>
	<path class="st1" d="M288.2,525.4c-7.4-2.3-14.4-2.8-15.6-1c-1.1,1.6,3.6,4.6,10.5,6.8c6.8,2.1,13.7,2.6,15.2,1.2
		C300.1,530.8,295.6,527.7,288.2,525.4z"/>
	<path class="st1" d="M290.1,522.9c7.5,2.4,15.3,2.1,17.5-0.4c2.3-2.8-2.4-7.1-10.5-9.7c-8.1-2.6-16.1-2.3-17.9,0.7
		C277.6,516.3,282.5,520.5,290.1,522.9z"/>
	<path class="st1" d="M299.7,508.7c8.3,2.7,17.1,1.6,19.8-2.4c2.9-4.3-1.9-10-10.7-12.9c-8.9-2.9-18-1.6-20.3,2.9
		C286.3,500.5,291.4,506.1,299.7,508.7z"/>
	<path class="st1" d="M334.3,482.7c3.5-5.9-1.3-13.3-10.7-16.5c-9.6-3.2-19.8-0.8-22.8,5.3c-2.8,5.8,2.3,13,11.3,16
		C321.1,490.5,331,488.3,334.3,482.7z"/>
	<path class="st1" d="M327.7,458.4c9.6,3.3,20.6,0.1,24.4-7.2c4.1-7.6-0.7-16.7-10.8-20.3c-10.1-3.6-21.4-0.1-25,7.8
		C312.9,446.2,317.9,455,327.7,458.4z"/>
	<path class="st1" d="M372.3,411.5c4.5-9.2-0.3-19.8-10.8-23.7c-10.6-4-22.6,0.6-26.8,10c-4,9.2,1,19.6,11.3,23.3
		C356.2,424.7,368,420.4,372.3,411.5z"/>
	<path class="st1" d="M394.2,365c4.7-10.4-0.1-22.2-10.8-26.5c-10.8-4.3-23.3,0.9-27.9,11.5c-4.4,10.4,0.6,22.1,11.3,26.2
		C377.3,380.2,389.6,375.2,394.2,365z"/>
	<path class="st1" d="M416.4,313.9c4.6-11-0.3-23.5-11-28c-10.8-4.5-23.4,0.8-28,12c-4.6,11.1,0.5,23.7,11.4,28
		C399.5,330.2,411.8,324.9,416.4,313.9z"/>
	<path class="st1" d="M437.6,261.3c4.2-10.9-0.9-23.4-11.4-28.1c-10.6-4.7-22.8,0.4-27.2,11.3c-4.4,11.1,0.8,23.8,11.5,28.4
		C421.3,277.5,433.4,272.2,437.6,261.3z"/>
	<path class="st1" d="M456.4,210.4c3.6-10.1-1.7-22-11.7-26.7c-10.2-4.7-21.6-0.4-25.5,9.7c-4,10.3,1.3,22.6,11.8,27.3
		C441.4,225.4,452.8,220.7,456.4,210.4z"/>
	<path class="st1" d="M471.9,164.3c2.8-8.8-2.6-19.7-12.1-24.3c-9.6-4.6-20-1.4-23.2,7.4c-3.4,9.1,2.1,20.3,12.1,25.1
		C458.7,177.1,469.1,173.4,471.9,164.3z"/>
	<path class="st1" d="M483.7,124.9c2-7.3-3.5-16.7-12.4-21.1c-8.9-4.5-18.2-2.4-20.7,4.7c-2.6,7.5,2.9,17.3,12.3,21.9
		C472.3,135,481.6,132.5,483.7,124.9z"/>
	<path class="st1" d="M461.1,77.7c-1.9,5.8,3.7,14.1,12.4,18.5c8.6,4.4,16.7,3,18-2.9c1.2-5.6-4.3-13.6-12.4-17.7
		C471,71.3,462.9,72.3,461.1,77.7z"/>
	<path class="st1" d="M468.3,54.7c-1.2,4.2,4.3,10.9,12.3,15c7.9,4.1,14.9,3.8,15.5-0.6c0.6-4.1-4.9-10.6-12.3-14.4
		C476.5,50.9,469.5,50.9,468.3,54.7z"/>
	<path class="st1" d="M484.6,50.8c7.2,3.8,13.2,4.4,13.3,1.4c0.1-2.8-5.2-8-11.9-11.5c-6.7-3.6-12.7-4.4-13.3-1.8
		C471.9,41.6,477.4,46.9,484.6,50.8z"/>
	<path class="st1" d="M497.4,41C497.4,41,497.4,41,497.4,41c-7.2-4.6-14.6-8.8-22.3-12.6c-0.3,0.1-0.5,0.2-0.5,0.5
		c-0.2,1.7,5,5.8,11.5,9.2C492.7,41.6,497.7,42.9,497.4,41z"/>
	<path class="st1" d="M315,537.4c-6.6-1.4-13.2-1.8-15.2-0.9c8,1.7,16,3,24.1,3.9C322.7,539.4,319.5,538.3,315,537.4z"/>
	<path class="st1" d="M317.4,535.7c7.1,1.5,14.7,1.2,17.1-0.6c2.6-1.9-1.3-4.8-8.9-6.5c-7.7-1.6-15.6-1.3-17.7,0.8
		C306,531.4,310.2,534.2,317.4,535.7z"/>
	<path class="st1" d="M347.9,523.2c3.2-3.2-0.8-7.4-9-9.3c-8.3-1.9-17.3-0.7-20,2.8c-2.5,3.2,1.9,7.2,9.7,9
		C336.3,527.3,344.9,526.3,347.9,523.2z"/>
	<path class="st1" d="M342.5,509.3c8.3,1.9,17.9-0.1,21.5-4.6c3.8-4.8-0.2-10.4-9-12.6c-8.9-2.2-18.9,0-22.2,5.1
		C329.7,501.9,334.1,507.3,342.5,509.3z"/>
	<path class="st1" d="M382.8,478.6c4.3-6.4,0.3-13.7-9-16.3c-9.5-2.6-20.4,0.7-24.3,7.4c-3.7,6.4,0.7,13.5,9.8,15.8
		C368.3,487.8,378.7,484.7,382.8,478.6z"/>
	<path class="st1" d="M378.8,453.9c9.4,2.6,20.6-1.5,25.1-9.2c4.6-8,0.7-17-9-20c-9.9-3.1-21.5,1.3-25.9,9.7
		C364.8,442.4,369.2,451.2,378.8,453.9z"/>
	<path class="st1" d="M400.2,414.4c9.7,3.1,21.4-1.8,26.1-11c4.8-9.4,0.8-19.9-9.1-23.3c-10.1-3.6-22.1,1.6-26.8,11.3
		C385.9,400.9,390.3,411.2,400.2,414.4z"/>
	<path class="st1" d="M449,356.2c4.7-10.3,0.5-21.9-9.3-25.8c-10.1-4-22.2,1.4-26.9,12.1c-4.6,10.6-0.1,22.1,10,25.8
		C432.6,371.9,444.3,366.5,449,356.2z"/>
	<path class="st1" d="M470.4,305.7c4.3-10.7-0.1-22.8-9.8-27.1c-9.9-4.4-21.6,0.9-26,11.8c-4.4,11,0.2,23.3,10.3,27.4
		C454.7,321.9,466.1,316.4,470.4,305.7z"/>
	<path class="st1" d="M489.2,255c3.6-10.3-1.1-22.4-10.4-27c-9.6-4.7-20.4-0.1-24.3,10.5c-3.9,10.7,0.9,23.1,10.8,27.6
		C474.9,270.4,485.6,265.4,489.2,255z"/>
	<path class="st1" d="M504.5,207c2.7-9.4-2.2-20.8-11-25.6c-9-4.9-18.9-1.2-22,8.3c-3.2,9.8,1.9,21.7,11.3,26.4
		C492,220.8,501.7,216.7,504.5,207z"/>
	<path class="st1" d="M515.7,164.3c1.8-8.1-3.3-18.4-11.6-23.2c-8.4-4.9-17.2-2.4-19.4,5.7c-2.4,8.4,2.9,19.3,11.8,24.2
		C505.1,175.8,513.7,172.7,515.7,164.3z"/>
	<path class="st1" d="M494,111.2c-1.6,6.8,3.9,16.3,12.1,21.2c8.1,4.8,15.5,2.9,16.6-4c1-6.6-4.3-15.6-11.9-20.3
		C503,103.4,495.5,104.7,494,111.2z"/>
	<path class="st1" d="M499.7,83.3c-0.9,5.2,4.6,13.3,12.2,18c7.5,4.6,13.8,3.9,14.1-1.4c0.4-5.1-5-12.8-12-17.2
		C506.9,78.1,500.5,78.4,499.7,83.3z"/>
	<path class="st1" d="M502.2,62.7c-0.3,3.7,5.2,10.4,12.1,14.8c6.8,4.4,12.2,4.7,11.9,0.7c-0.2-3.7-5.5-10-11.9-14.2
		C508,59.8,502.5,59.2,502.2,62.7z"/>
	<path class="st1" d="M524.2,62.9c-0.6-2.5-5.8-7.6-11.6-11.5c-5.8-3.9-10.5-5.2-10.3-2.9c0.2,2.5,5.5,7.8,11.8,11.9
		C520.4,64.5,524.9,65.6,524.2,62.9z"/>
	<path class="st1" d="M350.6,538.7c-7-0.8-14.7-0.3-17.1,1c-0.8,0.5-0.9,1-0.2,1.5c8.4,0.7,16.8,0.9,25.1,0.8
		C360,540.8,356.9,539.4,350.6,538.7z"/>
	<path class="st1" d="M353.9,536.6c7,0.8,15.1-0.4,18.3-2.6c3.4-2.4,0.2-5.1-7.1-6c-7.5-1-16.2,0.3-19.1,2.9
		C343.2,533.2,346.8,535.8,353.9,536.6z"/>
	<path class="st1" d="M389.3,519.9c3.9-3.7,0.8-7.7-7-8.9c-8.1-1.2-17.6,1-21.1,5c-3.4,3.7,0.2,7.5,7.9,8.5
		C376.6,525.5,385.6,523.4,389.3,519.9z"/>
	<path class="st1" d="M386.9,505.8c8,1.3,17.8-1.8,22-6.8c4.4-5.3,1.4-10.7-6.9-12.2c-8.5-1.5-18.8,1.7-22.9,7.2
		C375.1,499.3,378.7,504.5,386.9,505.8z"/>
	<path class="st1" d="M430.4,470.8c4.7-6.8,1.8-13.9-6.8-15.9c-8.8-2-19.8,2.3-24.3,9.4c-4.3,6.9-0.8,13.8,7.8,15.4
		C415.4,481.3,425.8,477.3,430.4,470.8z"/>
	<path class="st1" d="M429.1,446c8.6,2.1,19.4-2.8,24.2-10.8c4.9-8.3,1.9-17-6.8-19.4c-9-2.6-20.3,2.5-25.1,11.1
		C416.7,435.4,420.3,443.9,429.1,446z"/>
	<path class="st1" d="M476.3,393.2c4.8-9.4,1.6-19.5-7.1-22.5c-9-3.1-20.3,2.3-25,12.2c-4.7,9.7-1.1,19.8,7.9,22.4
		C460.8,407.8,471.6,402.4,476.3,393.2z"/>
	<path class="st1" d="M498.1,346.5c4.3-10.1,1-21.2-7.5-24.8c-8.8-3.7-19.7,1.7-24.2,12.3c-4.5,10.5-0.7,21.6,8.3,24.9
		C483.3,362.1,493.8,356.6,498.1,346.5z"/>
	<path class="st1" d="M517.3,297.9c3.6-10.1,0-21.7-8.3-25.8c-8.5-4.3-18.6,0.7-22.5,11.2c-3.9,10.6,0.1,22.4,8.8,26.3
		C503.8,313.4,513.6,308.1,517.3,297.9z"/>
	<path class="st1" d="M532.8,250.1c2.8-9.6-1.3-21-9.1-25.5c-8.1-4.7-17.2-0.5-20.3,9.4c-3.2,10.1,1.1,22,9.5,26.3
		C521.1,264.5,529.9,259.9,532.8,250.1z"/>
	<path class="st1" d="M544,205.7c1.9-8.6-2.6-19.4-9.9-24.1c-7.6-4.9-15.5-1.9-17.7,6.9c-2.3,9.1,2.3,20.3,10.3,25.1
		C534.3,218.1,542.1,214.6,544,205.7z"/>
	<path class="st1" d="M525,149c-1.4,7.7,3.5,18,10.9,22.9c7.2,4.8,13.8,2.4,14.8-5.3c1-7.3-3.7-17.1-10.5-21.9
		C533.2,139.8,526.4,141.7,525,149z"/>
	<path class="st1" d="M553.6,134.2c0.2-5.9-4.7-14.5-11-19.3c-6.5-4.8-12.2-4.1-12.8,1.7c-0.6,6.2,4.5,15.3,11.4,20.2
		C547.8,141.7,553.3,140.4,553.6,134.2z"/>
	<path class="st1" d="M531.1,91.5c0.1,4.7,5.2,12.5,11.6,17.3c6.2,4.7,10.8,4.5,10.4-0.3c-0.4-4.6-5.4-11.9-11.2-16.5
		C535.8,87.3,531,87.1,531.1,91.5z"/>
	<path class="st1" d="M549.7,88.9c-0.9-3.4-5.8-9.5-11.1-13.8c-5.4-4.3-9.4-5.4-8.9-2.3c0.5,3.4,5.7,9.9,11.5,14.4
		C546.9,91.8,550.6,92.5,549.7,88.9z"/>
	<path class="st1" d="M387.5,536.1c-6.7-0.1-14.8,1.3-18,3c-1.8,1-1.5,1.9,0.4,2.5c7.9-0.5,15.7-1.3,23.4-2.5
		C396,537.5,393.6,536.2,387.5,536.1z"/>
	<path class="st1" d="M391.6,533.5c6.6,0.1,14.9-1.9,18.8-4.7c4-2.9,1.8-5.4-5.1-5.7c-7.1-0.3-16,2-19.7,5
		C382.1,531,384.8,533.3,391.6,533.5z"/>
	<path class="st1" d="M430.2,512.4c4.5-4.2,2.4-8.1-4.8-8.6c-7.4-0.5-17,2.7-21.2,7.1c-4,4.2-1.4,7.9,5.8,8.2
		C416.9,519.3,425.9,516.4,430.2,512.4z"/>
	<path class="st1" d="M452,489.3c4.8-5.6,2.8-11-4.5-11.9c-7.6-0.9-17.7,3.2-22.4,9.2c-4.5,5.7-1.9,10.8,5.6,11.5
		C437.9,498.6,447.4,494.7,452,489.3z"/>
	<path class="st1" d="M453,469.8c7.4,1,17.2-3.7,22-10.6c4.9-7.1,3-14-4.4-15.4c-7.7-1.5-18.1,3.5-23,11
		C442.8,462.1,445.3,468.8,453,469.8z"/>
	<path class="st1" d="M498.1,422.8c4.8-8.3,2.8-16.7-4.6-18.7c-7.7-2.1-17.9,3.4-22.8,12.2c-4.8,8.6-2.3,16.9,5.5,18.5
		C483.6,436.3,493.4,430.9,498.1,422.8z"/>
	<path class="st1" d="M520.1,381c4.4-9.2,2.2-18.8-4.9-21.5c-7.5-2.8-17.4,2.8-21.9,12.5c-4.5,9.6-1.9,19.2,5.7,21.5
		C506.3,395.7,515.7,390.1,520.1,381z"/>
	<path class="st1" d="M539.6,335.9c3.8-9.6,1.2-20-5.7-23.4c-7.2-3.5-16.3,1.8-20.3,11.9c-4,10.1-1.1,20.7,6.3,23.7
		C527.1,351,535.9,345.5,539.6,335.9z"/>
	<path class="st1" d="M555.6,290c2.9-9.4-0.1-20.2-6.6-24.1c-6.8-4.1-15,0.5-18.1,10.4c-3.2,10,0,21.1,7.1,24.8
		C544.8,304.6,552.7,299.6,555.6,290z"/>
	<path class="st1" d="M567.3,245.8c1.9-8.8-1.5-19.4-7.6-23.7c-6.4-4.6-13.5-0.9-15.7,8.2c-2.3,9.3,1.3,20.4,8.1,24.6
		C558.5,258.9,565.3,254.8,567.3,245.8z"/>
	<path class="st1" d="M574.4,205.4c1-7.8-2.8-17.8-8.5-22.4c-6-4.8-11.9-2.4-13.3,5.6c-1.4,8.3,2.7,18.8,9,23.5
		C567.7,216.5,573.4,213.5,574.4,205.4z"/>
	<path class="st1" d="M577.3,170.2c0.2-6.6-3.9-15.7-9.3-20.4c-5.5-4.9-10.5-3.6-11,3c-0.5,6.9,3.9,16.6,9.8,21.5
		C572.4,179,577.1,177.1,577.3,170.2z"/>
	<path class="st1" d="M557.7,123.7c0.2,5.5,4.8,14.1,10.3,19c5.3,4.7,9.1,3.9,8.5-1.6c-0.5-5.4-4.9-13.4-9.8-18.1
		C561.5,118.2,557.4,118.5,557.7,123.7z"/>
	<path class="st1" d="M572.8,117.9c-1-4.1-5.5-11.1-10.1-15.6c-4.7-4.6-8.1-5.2-7.3-1.3c0.8,4.2,5.5,11.6,10.6,16.4
		C570.8,122.1,573.8,122.2,572.8,117.9z"/>
	<path class="st1" d="M563.5,100.1c-3.7-4.6-7.6-9.2-11.6-13.5c2,3.3,5.7,8,9.4,11.6C562.1,98.9,562.8,99.6,563.5,100.1z"/>
	<path class="st1" d="M423.6,529.7c-6.1,0.5-14.3,2.7-18,5c-2,1.2-2.3,2-1.2,2.5c8.3-1.6,16.5-3.6,24.6-6
		C429.8,530,427.9,529.4,423.6,529.7z"/>
	<path class="st1" d="M446.7,520c4.4-3.3,3.2-5.8-2.9-5.5c-6.3,0.3-15,3.4-19.3,6.9c-4.1,3.3-2.3,5.6,3.8,5.1
		C434.3,526.1,442.4,523.2,446.7,520z"/>
	<path class="st1" d="M449,509.8c6.1-0.3,14.6-4,19.2-8.4c4.7-4.6,3.7-8.4-2.5-8.4c-6.4,0-15.5,4-20.2,8.9
		C441,506.6,442.7,510.1,449,509.8z"/>
	<path class="st1" d="M471.3,486.8c6.2,0.1,14.9-4.5,19.6-10.3c4.9-5.9,3.9-11.1-2.2-11.6c-6.4-0.4-15.7,4.4-20.6,10.7
		C463.3,481.8,464.8,486.7,471.3,486.8z"/>
	<path class="st1" d="M494.3,457.2c6.1,0.5,14.8-4.7,19.5-11.7c4.8-7.1,3.9-13.8-2.1-14.8c-6.3-1-15.5,4.3-20.4,12
		C486.5,450.2,487.9,456.6,494.3,457.2z"/>
	<path class="st1" d="M535.8,409c4.4-8.2,3.4-16.2-2.4-17.8c-6.1-1.8-14.9,3.9-19.5,12.6c-4.5,8.6-3.1,16.5,3.2,17.7
		C523.1,422.7,531.4,417.1,535.8,409z"/>
	<path class="st1" d="M552.7,348.3c-5.9-2.5-13.9,3-18,12.4c-4,9.3-2.4,18.4,3.7,20.4c5.7,1.8,13.5-3.8,17.3-12.5
		C559.5,359.7,558.2,350.7,552.7,348.3z"/>
	<path class="st1" d="M568.3,304.1c-5.5-3.2-12.6,1.8-15.9,11.2c-3.3,9.5-1.3,19.5,4.4,22.2c5.5,2.6,12.3-2.7,15.4-11.7
		C575.3,316.9,573.5,307.2,568.3,304.1z"/>
	<path class="st1" d="M579.7,261.1c-5.1-3.9-11.3,0.3-13.6,9.4c-2.4,9.3,0,19.6,5.5,23c5.1,3.3,11-1.3,13.2-10.1
		C586.8,274.7,584.6,264.8,579.7,261.1z"/>
	<path class="st1" d="M586.5,221.2c-4.8-4.3-9.9-1.2-11.3,7c-1.5,8.5,1.5,18.8,6.5,22.8c4.8,3.8,9.7,0.2,10.9-8
		C593.8,235.1,591.1,225.3,586.5,221.2z"/>
	<path class="st1" d="M596.3,206.6c0.3-7-2.9-16.2-7.2-20.6c-4.5-4.6-8.6-2.7-9.2,4.5c-0.6,7.5,2.9,17.2,7.6,21.6
		C592,216.3,595.9,213.8,596.3,206.6z"/>
	<path class="st1" d="M595.9,175c-0.4-5.9-4-14.3-8-18.8c-4.2-4.7-7.5-3.8-7.2,2.1c0.2,6.2,4,15.2,8.4,19.9
		C593.4,182.7,596.4,181.2,595.9,175z"/>
	<path class="st1" d="M587.1,149.8c4,4.6,6.3,4,5.2-1c-1-4.8-4.8-12.2-8.6-16.8c-3.9-4.7-6.5-4.7-5.7,0
		C578.9,137.1,583,145.1,587.1,149.8z"/>
	<path class="st1" d="M582.5,127.1c-2.6-4.3-5.4-8.5-8.2-12.6C576.1,118.4,579.4,123.4,582.5,127.1
		C582.4,127.1,582.4,127.1,582.5,127.1z"/>
	<path class="st1" d="M440.5,526.5c-1.1,0.7-1.8,1.3-2.2,1.8c7.8-2.6,15.4-5.5,22.8-8.8c-0.7-0.1-1.7-0.1-3.3,0.2
		C452.6,520.7,444.8,523.8,440.5,526.5z"/>
	<path class="st1" d="M479.4,502.4c-5.3,0.8-13.5,4.7-18.1,8.6c-4.4,3.8-3.6,6,1.7,5c5.1-0.9,12.7-4.5,17.1-8.2
		C484.7,504.1,484.4,501.6,479.4,502.4z"/>
	<path class="st1" d="M502.2,487.4c4.8-4.9,4.7-8.7-0.3-8.3c-5.2,0.4-13.5,5.1-18.3,10.3c-4.7,5.1-4.1,8.5,1.2,7.8
		C489.8,496.5,497.6,492.2,502.2,487.4z"/>
	<path class="st1" d="M524.6,461.3c4.7-6.1,4.7-11.2-0.1-11.2c-5.1-0.1-13.2,5.2-18,11.7c-4.7,6.3-4.3,11.2,1,10.8
		C512.3,472.3,520,467.3,524.6,461.3z"/>
	<path class="st1" d="M546.1,415.8c-4.8-0.8-12.5,4.8-17.1,12.4c-4.5,7.5-4.1,13.7,0.9,13.9c4.7,0.2,12-5.2,16.4-12.2
		C550.7,422.9,550.6,416.5,546.1,415.8z"/>
	<path class="st1" d="M549.8,390c-4.1,8.3-3.6,15.9,1.2,16.8c4.4,0.9,11.2-4.7,15.1-12.5c3.9-7.8,3.6-15.4-0.6-16.8
		C561,376,554,381.6,549.8,390z"/>
	<path class="st1" d="M581.7,336.9c-4.2-2.3-10.4,3-13.8,11.8c-3.4,8.8-2.6,17.4,1.9,19.1c4.1,1.6,10.1-3.8,13.3-12
		C586.3,347.5,585.6,339.1,581.7,336.9z"/>
	<path class="st1" d="M593.9,296c-3.9-3-9.1,1.6-11.7,10.3c-2.5,8.8-1.3,18.1,2.8,20.6c3.9,2.3,8.9-2.6,11.2-10.8
		C598.6,307.8,597.5,298.9,593.9,296z"/>
	<path class="st1" d="M592.3,265.1c-1.6,8.4,0.1,17.9,4,21.2c3.6,3,7.6-1.1,9.1-9.1c1.4-7.8-0.2-16.9-3.6-20.4
		C598.1,253.2,593.9,256.9,592.3,265.1z"/>
	<path class="st1" d="M610,240.8c0.5-7.2-1.6-16-4.8-19.9c-3.4-4.1-6.7-1.5-7.4,6c-0.7,7.7,1.6,17.1,5.1,20.8
		C606.3,251.3,609.4,248.2,610,240.8z"/>
	<path class="st1" d="M599.2,193c0.1,6.7,3,15.6,6.2,19.8c3.2,4,5.5,1.9,5.2-4.6c-0.2-6.3-2.9-14.6-5.9-18.8
		C601.6,185.1,599.1,186.6,599.2,193z"/>
	<path class="st1" d="M597,164.3c0.8,5.5,4.1,13.8,7.2,18.2c2.8,3.9,4.4,3.2,3.9-1.3c-2.2-6.4-4.6-12.7-7.3-18.8
		C597.9,158.5,596.2,159.1,597,164.3z"/>
	<path class="st1" d="M510.3,487.9c-4.2,1.1-11.4,5.5-16.1,9.8c-4,3.7-4.5,5.9-1.6,5.4c6.8-4.1,13.4-8.6,19.8-13.3
		C513.5,488,512.9,487.2,510.3,487.9z"/>
	<path class="st1" d="M532.2,463.6c-4,0.7-11.1,5.7-15.8,11.2c-4.6,5.3-4.9,8.7-0.7,7.7c3.9-1,10.6-5.7,15-10.7
		C535.2,466.6,536,462.9,532.2,463.6z"/>
	<path class="st1" d="M553.4,434.3c-3.7,0.1-10.4,5.5-15,12.1c-4.5,6.4-4.9,11.1-0.9,10.5c3.7-0.5,10-5.8,14.3-11.7
		C556.1,439.1,556.9,434.2,553.4,434.3z"/>
	<path class="st1" d="M572.8,400.8c-3.4-0.6-9.5,5-13.6,12.4c-4.1,7.3-4.5,13.3-0.8,13.3c3.4,0,9.2-5.4,13.1-12.2
		C575.3,407.3,575.9,401.3,572.8,400.8z"/>
	<path class="st1" d="M577.1,392.1c3,0.7,8.2-4.7,11.5-12.1c3.3-7.4,3.6-14.5,0.8-15.7c-3.1-1.4-8.4,4-11.9,12
		C574,384.3,573.8,391.3,577.1,392.1z"/>
	<path class="st1" d="M602.5,343.9c2.5-7.6,2.4-15.4-0.1-17.3c-2.8-2.2-7.2,2.7-9.9,10.9c-2.7,8.2-2.6,16.2,0.4,17.7
		C595.7,356.6,600,351.6,602.5,343.9z"/>
	<path class="st1" d="M611.3,289.2c-2.5-2.8-6,1.3-7.8,9.3c-1.8,8.1-1.2,16.6,1.5,18.9c2.5,2.1,5.9-2.3,7.6-9.9
		C614.2,300.1,613.6,291.9,611.3,289.2z"/>
	<path class="st1" d="M616,253.9c-2.3-3.4-4.9-0.2-5.9,7.2c-1,7.6,0.2,16.3,2.7,19.3c2.3,2.8,4.8-0.8,5.6-8
		C619.3,265.3,618.2,257.1,616,253.9z"/>
	<path class="st1" d="M612.6,226.8c-0.1,6.9,1.6,15.4,3.9,18.9c2.1,3.3,3.9,0.6,3.9-6c0-6.4-1.6-14.4-3.7-18
		C614.6,218,612.7,220.1,612.6,226.8z"/>
	<path class="st1" d="M616.4,214.5c0.4,0.7,0.7,1.2,1.1,1.5c-1.6-8.1-3.7-16.1-6-24.1c-0.2,0.9-0.3,2.4-0.1,4.6
		C612,202.5,614.3,210.6,616.4,214.5z"/>
	<path class="st1" d="M556.7,446.8c-2.7,0.8-8.6,6-13,11.5c-3.6,4.5-4.9,7.7-3.5,7.9c6.2-6,12.1-12.4,17.8-19
		C557.9,446.8,557.5,446.6,556.7,446.8z"/>
	<path class="st1" d="M575.8,417.9c-2.4,0.2-7.7,5.6-11.8,12c-4,6.4-5.1,10.9-2.5,10.3c1.4-0.3,3.5-2.1,5.8-4.6
		c2.4-3.2,4.8-6.5,7.1-9.8C577,421.1,577.7,417.7,575.8,417.9z"/>
	<path class="st1" d="M582.3,397.6c-3.5,7-4.5,12.7-2.2,12.7c2.1,0,6.6-5.3,9.9-11.8c3.3-6.5,4.4-12.3,2.5-12.7
		C590.4,385.2,585.9,390.5,582.3,397.6z"/>
	<path class="st1" d="M597.7,362.8c-2.9,7.5-3.6,14.1-1.6,14.8c1.8,0.6,5.5-4.5,8.1-11.4c2.6-6.9,3.4-13.4,1.8-14.6
		C604.3,350.3,600.6,355.3,597.7,362.8z"/>
	<path class="st1" d="M609.5,326.8c-2.1,7.5-2.4,14.8-0.7,16.3c1.6,1.3,4.4-3.3,6.3-10.3c1.9-6.9,2.2-14.1,0.8-15.9
		C614.4,314.9,611.6,319.4,609.5,326.8z"/>
	<path class="st1" d="M617.3,291.3c-1.2,7.3-1,15.1,0.4,17.2c0.8,1.1,1.7,0.4,2.7-1.7c1-7.4,1.7-14.7,2.1-22.1
		c-0.1-0.7-0.3-1.2-0.5-1.7C620.6,280.5,618.5,284.1,617.3,291.3z"/>
	<path class="st1" d="M622.8,275.2C622.8,275.2,622.8,275.2,622.8,275.2c0.2-8,0-16.1-0.6-24.1c-0.5,1.2-0.9,3.5-1.1,6.6
		C620.7,264.5,621.5,272.4,622.8,275.2z"/>
	<path class="st1" d="M597.7,384.7c0.7-1.6,1.4-3.1,2.1-4.7c-0.4,0.9-0.9,1.9-1.4,2.9C598.2,383.6,598,384.2,597.7,384.7z"/>
</g>
<g>
	<g>
		<path class="st1" d="M169.4,333.7c-0.3,1.2-0.8,2.1-1.5,2.8c-0.7,0.7-1.6,1.3-2.8,1.6c-1.2,0.4-2.6,0.6-4.3,0.8
			c-1.7,0.2-3.8,0.3-6.3,0.3c-2.6,0-4.8-0.1-6.6-0.3c-1.8-0.2-3.3-0.4-4.5-0.8c-1.2-0.4-2.1-0.9-2.6-1.6c-0.6-0.7-1-1.7-1.4-2.8
			l-34-122.7h-0.3L73.8,333.7c-0.3,1.2-0.7,2.1-1.3,2.8c-0.6,0.7-1.4,1.3-2.5,1.6c-1.1,0.4-2.5,0.6-4.2,0.8
			c-1.7,0.2-3.9,0.3-6.6,0.3c-2.8,0-5.1-0.1-6.9-0.3c-1.8-0.2-3.3-0.4-4.5-0.8c-1.2-0.4-2.1-0.9-2.7-1.6c-0.6-0.7-1.1-1.7-1.3-2.8
			l-42.9-150c-0.5-1.9-0.8-3.4-0.8-4.5c0-1.1,0.3-1.9,1-2.5c0.7-0.6,1.9-1,3.5-1.1c1.6-0.2,3.7-0.3,6.4-0.3c2.6,0,4.6,0.1,6.2,0.2
			c1.5,0.1,2.7,0.4,3.5,0.7c0.8,0.3,1.3,0.8,1.6,1.4c0.3,0.6,0.5,1.3,0.7,2.3l36.5,136.1h0.1l34.7-135.8c0.3-0.9,0.6-1.7,0.9-2.3
			c0.4-0.6,1-1.1,1.8-1.4c0.8-0.3,2-0.6,3.6-0.8c1.5-0.2,3.6-0.3,6.1-0.3c2.3,0,4.2,0.1,5.6,0.3c1.4,0.2,2.5,0.4,3.3,0.8
			c0.8,0.3,1.4,0.8,1.8,1.4c0.4,0.6,0.7,1.4,0.9,2.3l37.3,135.8h0.3l35.8-136c0.3-0.8,0.5-1.6,0.8-2.2c0.3-0.6,0.8-1.1,1.6-1.4
			c0.8-0.3,1.9-0.6,3.4-0.8c1.5-0.2,3.4-0.3,5.8-0.3c2.5,0,4.5,0.1,6,0.3c1.5,0.2,2.5,0.6,3.2,1.2c0.7,0.6,1,1.4,0.9,2.5
			c0,1.1-0.3,2.6-0.7,4.5L169.4,333.7z"/>
		<path class="st1" d="M301.5,274c0,3.3-0.8,5.6-2.5,7c-1.6,1.4-3.5,2.1-5.6,2.1H219c0,6.3,0.6,11.9,1.9,16.9
			c1.3,5,3.4,9.3,6.3,12.9c2.9,3.6,6.8,6.4,11.5,8.3c4.7,1.9,10.5,2.9,17.3,2.9c5.4,0,10.2-0.4,14.4-1.3s7.8-1.9,10.9-2.9
			c3.1-1.1,5.6-2.1,7.6-3c2-0.9,3.5-1.3,4.5-1.3c0.6,0,1.1,0.1,1.6,0.4c0.5,0.3,0.8,0.7,1.1,1.3c0.3,0.6,0.4,1.4,0.6,2.4
			c0.1,1,0.2,2.3,0.2,3.8c0,1.1,0,2-0.1,2.8c-0.1,0.8-0.2,1.5-0.3,2.1c-0.1,0.6-0.3,1.2-0.6,1.7c-0.3,0.5-0.7,1-1.1,1.4
			c-0.5,0.5-1.8,1.2-4.1,2.3c-2.3,1-5.2,2.1-8.8,3.1c-3.6,1-7.8,1.9-12.5,2.7c-4.7,0.8-9.8,1.2-15.1,1.2c-9.3,0-17.4-1.3-24.4-3.9
			c-7-2.6-12.9-6.4-17.6-11.6c-4.8-5.1-8.4-11.5-10.8-19.2c-2.4-7.7-3.6-16.7-3.6-26.9c0-9.7,1.3-18.4,3.8-26.2
			c2.5-7.7,6.1-14.3,10.9-19.7c4.7-5.4,10.4-9.5,17.1-12.4c6.7-2.9,14.2-4.3,22.5-4.3c8.9,0,16.4,1.4,22.7,4.3
			c6.2,2.8,11.4,6.7,15.4,11.5c4,4.8,7,10.5,8.9,16.9c1.9,6.5,2.8,13.4,2.8,20.8V274z M280.7,267.8c0.3-10.9-2.2-19.4-7.3-25.6
			c-5.1-6.2-12.7-9.3-22.7-9.3c-5.1,0-9.6,1-13.5,2.9c-3.9,1.9-7.1,4.5-9.7,7.7c-2.6,3.2-4.6,6.9-6.1,11.1
			c-1.4,4.2-2.2,8.6-2.4,13.2H280.7z"/>
		<path class="st1" d="M411.3,277.4c0,9.8-1.1,18.6-3.2,26.4c-2.1,7.8-5.3,14.5-9.4,20c-4.1,5.5-9.2,9.8-15.3,12.7
			c-6,2.9-12.9,4.4-20.7,4.4c-3.6,0-6.9-0.4-10-1.1c-3.1-0.7-6-1.9-9-3.5c-2.9-1.6-5.9-3.6-8.8-6c-2.9-2.4-6-5.4-9.3-8.8v13.8
			c0,0.7-0.2,1.3-0.5,1.8c-0.3,0.5-0.9,0.9-1.6,1.2c-0.8,0.3-1.7,0.5-2.8,0.7c-1.1,0.2-2.6,0.3-4.3,0.3c-1.7,0-3.1-0.1-4.3-0.3
			c-1.2-0.2-2.1-0.4-2.9-0.7c-0.8-0.3-1.3-0.7-1.5-1.2c-0.3-0.5-0.4-1.1-0.4-1.8V167.6c0-0.7,0.1-1.3,0.4-1.8
			c0.3-0.5,0.8-0.9,1.6-1.3c0.8-0.3,1.9-0.6,3.2-0.8c1.3-0.2,3-0.3,5-0.3c2.1,0,3.8,0.1,5.1,0.3c1.3,0.2,2.4,0.4,3.1,0.8
			c0.8,0.3,1.3,0.8,1.6,1.3c0.3,0.5,0.5,1.1,0.5,1.8v67.7c3.3-3.4,6.6-6.3,9.7-8.7c3.1-2.3,6.2-4.2,9.2-5.7c3-1.5,6-2.5,9-3.2
			c3-0.7,6.2-1,9.5-1c8.2,0,15.2,1.6,21,4.9c5.8,3.3,10.5,7.6,14.2,13.1c3.6,5.5,6.3,11.9,8,19.3
			C410.4,261.4,411.3,269.2,411.3,277.4z M389.8,279.8c0-5.8-0.4-11.4-1.3-16.8c-0.9-5.4-2.4-10.3-4.6-14.4
			c-2.2-4.2-5.1-7.6-8.7-10.1c-3.6-2.6-8.1-3.8-13.5-3.8c-2.7,0-5.3,0.4-8,1.1c-2.6,0.8-5.3,2-8,3.8c-2.7,1.8-5.5,4-8.4,6.8
			c-2.9,2.8-6,6.2-9.3,10.4v45.1c5.7,6.9,11.2,12.2,16.4,15.9c5.2,3.6,10.7,5.5,16.3,5.5c5.2,0,9.7-1.3,13.4-3.8
			c3.7-2.5,6.7-5.8,9-10c2.3-4.1,4-8.8,5.1-13.9C389.3,290.2,389.8,285,389.8,279.8z"/>
	</g>
	<g>
		<path class="st1" d="M502.7,366.6c0,1.7-0.1,3.1-0.3,4.2c-0.2,1.1-0.4,2.1-0.8,2.9c-0.4,0.8-0.8,1.4-1.4,1.8
			c-0.5,0.4-1.2,0.6-2,0.6h-72.1c-1.9,0-3.8-0.7-5.5-2c-1.7-1.3-2.6-3.6-2.6-6.9v-151c0-0.7,0.2-1.3,0.5-1.8
			c0.3-0.5,0.9-0.9,1.8-1.2c0.8-0.3,2-0.5,3.4-0.8c1.4-0.2,3.2-0.3,5.2-0.3c2.1,0,3.8,0.1,5.2,0.3c1.4,0.2,2.5,0.5,3.3,0.8
			c0.8,0.3,1.4,0.7,1.8,1.2c0.3,0.5,0.5,1.1,0.5,1.8v141.1h58.5c0.8,0,1.4,0.2,2,0.6c0.5,0.4,1,0.9,1.4,1.6c0.4,0.7,0.7,1.7,0.8,2.8
			C502.6,363.5,502.7,364.9,502.7,366.6z"/>
		<path class="st1" d="M608.2,311.3c0,3.3-0.8,5.6-2.5,7c-1.6,1.4-3.5,2.1-5.6,2.1h-74.7c0,6.3,0.6,12,1.9,17c1.3,5,3.4,9.4,6.3,13
			c3,3.6,6.8,6.4,11.5,8.3c4.7,1.9,10.5,2.9,17.4,2.9c5.4,0,10.2-0.4,14.4-1.3c4.2-0.9,7.9-1.9,11-3c3.1-1.1,5.6-2.1,7.6-3
			c2-0.9,3.5-1.3,4.5-1.3c0.6,0,1.1,0.1,1.6,0.4c0.5,0.3,0.8,0.7,1.1,1.3c0.3,0.6,0.4,1.4,0.6,2.5c0.1,1.1,0.2,2.3,0.2,3.8
			c0,1.1,0,2-0.1,2.8c-0.1,0.8-0.2,1.5-0.3,2.1c-0.1,0.6-0.3,1.2-0.6,1.7c-0.3,0.5-0.7,1-1.1,1.5c-0.5,0.5-1.8,1.2-4.1,2.3
			c-2.3,1.1-5.2,2.1-8.8,3.1c-3.6,1-7.8,1.9-12.5,2.7c-4.7,0.8-9.8,1.2-15.2,1.2c-9.3,0-17.5-1.3-24.5-3.9
			c-7-2.6-12.9-6.5-17.7-11.6c-4.8-5.1-8.4-11.6-10.8-19.3c-2.4-7.7-3.7-16.7-3.7-27c0-9.7,1.3-18.5,3.8-26.3
			c2.5-7.8,6.2-14.4,10.9-19.8c4.7-5.4,10.5-9.6,17.2-12.5c6.7-2.9,14.2-4.3,22.6-4.3c8.9,0,16.5,1.4,22.8,4.3
			c6.3,2.9,11.4,6.7,15.4,11.5c4,4.8,7,10.5,8.9,17c1.9,6.5,2.8,13.5,2.8,20.9V311.3z M587.3,305.1c0.3-10.9-2.2-19.5-7.3-25.7
			c-5.1-6.2-12.7-9.3-22.8-9.3c-5.2,0-9.7,1-13.6,2.9c-3.9,1.9-7.1,4.5-9.8,7.7c-2.6,3.2-4.7,6.9-6.1,11.2
			c-1.4,4.2-2.2,8.7-2.4,13.3H587.3z"/>
		<path class="st1" d="M709,370.5c0.7,1.2,1,2.2,1,3c0,0.8-0.4,1.5-1.2,2c-0.8,0.5-2,0.9-3.7,1.1c-1.6,0.2-3.8,0.3-6.4,0.3
			c-2.5,0-4.5-0.1-6-0.2c-1.5-0.1-2.6-0.3-3.5-0.6c-0.9-0.3-1.6-0.7-2-1.1c-0.5-0.5-0.9-1-1.2-1.6l-27.2-45l-27.1,45
			c-0.3,0.6-0.7,1.1-1.2,1.6c-0.5,0.5-1.1,0.8-2,1.1c-0.9,0.3-2,0.5-3.5,0.6c-1.4,0.1-3.3,0.2-5.7,0.2c-2.4,0-4.4-0.1-6-0.3
			c-1.6-0.2-2.7-0.6-3.4-1.1c-0.7-0.5-1.1-1.2-1-2c0-0.8,0.4-1.8,1.2-3l35.3-55.3L612,261.8c-0.7-1.2-1-2.2-1.1-3
			c0-0.8,0.3-1.5,1.1-2c0.8-0.5,2-0.9,3.7-1.1c1.6-0.2,3.8-0.3,6.5-0.3c2.4,0,4.4,0.1,5.9,0.2c1.5,0.1,2.6,0.3,3.5,0.6
			c0.8,0.3,1.5,0.6,1.9,1c0.4,0.4,0.8,0.9,1.1,1.5l25.8,42.2l26.2-42.2c0.3-0.5,0.7-1,1.1-1.4c0.4-0.4,1-0.8,1.7-1.1
			c0.7-0.3,1.7-0.5,3-0.6c1.3-0.1,3.1-0.2,5.4-0.2c2.4,0,4.4,0.1,6,0.3c1.6,0.2,2.7,0.5,3.5,0.9c0.8,0.5,1.1,1.1,1,2
			c-0.1,0.8-0.5,1.9-1.3,3.2l-33.2,52.7L709,370.5z"/>
	</g>
</g>
</svg>
