<?xml version="1.0" encoding="utf-8"?>
<!-- Generator: Adobe Illustrator 23.0.2, SVG Export Plug-In . SVG Version: 6.00 Build 0)  -->
<svg version="1.1" id="Calque_5" xmlns="http://www.w3.org/2000/svg" xmlns:xlink="http://www.w3.org/1999/xlink" x="0px" y="0px"
	 viewBox="0 0 356.4 356.4" style="enable-background:new 0 0 356.4 356.4;" xml:space="preserve">
<style type="text/css">
	.st0{fill:#FF3200;}
</style>
<path class="st0" d="M347.9,221.3c0.4-0.7,0.8-1.5,1.4-2.3c1.2-1.8,2.4-3.5,3.5-4.7c0.2-1,0.4-2,0.6-3c-2.1,3.4-4.6,6.2-5.9,6.3
	c-1.5,0.2-0.8-2.9,1.4-6.9c1.9-3.3,4.2-6.1,5.7-6.8c0.8-5.7,1.4-11.4,1.7-17.2c0,0-0.1,0-0.1,0c-1.8-0.7-1.8-5.2,0.1-10
	c0.1-0.2,0.2-0.4,0.2-0.6c0-2.3-0.1-4.5-0.2-6.8c-1.5,1.7-3.2,2.4-4.5,1.7c-2.5-1.3-3.1-6.6-1.3-11.8c1-3.1,2.6-5.3,4.3-6.3
	c-0.5-3.3-1-6.5-1.7-9.8c-0.1,0.8-0.3,1.5-0.5,2.3c-1.6,5.3-5.3,8.1-8.4,6.3c-3.3-1.9-4.6-7.9-2.9-13.5c1.7-5.5,5.6-8.1,8.7-6
	c0.2,0.2,0.5,0.4,0.7,0.6c-2.7-10.2-6.2-20.1-10.6-29.5c0,0-0.1-0.1-0.1-0.1c-2.9-2-4.9-6.3-5.2-10.5c-2.4-4.5-5.1-8.8-7.9-13
	c-0.6-0.2-1.2-0.5-1.8-0.9c-3.4-2.2-5.8-6.4-6.3-10.4c-4.3-5.5-8.9-10.8-13.8-15.7c-0.3-0.3-0.6-0.6-0.9-0.9
	c-4.2-4.2-8.6-8.1-13.2-11.9c2.7,3,4,6.9,3,10.2c-1.5,4.9-7.3,6.6-12.9,3.8c-5.7-2.8-8.9-9-7.1-13.8c1.7-4.6,7.5-6.1,12.9-3.4
	c0.2,0.1,0.3,0.2,0.5,0.3c-4.3-3.3-8.7-6.5-13.3-9.4c0,0,0,0.1,0,0.1c-1.6,4.3-7.6,5.8-13.4,3.4c-5.8-2.5-8.9-7.9-6.9-12
	c0.3-0.7,0.8-1.4,1.4-1.9c-3.8-1.8-7.6-3.5-11.6-5c-0.9-0.1-1.9-0.4-2.8-0.7c-1.1-0.4-2.1-0.9-3-1.5c-3.8-1.3-7.6-2.5-11.5-3.6
	c0,0.9-0.2,1.9-0.8,2.8c-2.3,3.9-8.8,5.9-14.4,4.3c-5.5-1.6-7.8-5.9-5.2-9.6c0.4-0.6,0.9-1.1,1.5-1.6c-8.9-1.4-18-2.2-27.2-2.3
	c-3,3-8.3,4.9-12.4,4.3c-2.8-0.4-4.3-1.8-4.2-3.7c-2.1,0.2-4.3,0.4-6.4,0.6c0.1,1.1-0.5,2.5-1.7,4c-2.9,3.7-8.4,6.5-12.2,6.2
	c-3.6-0.3-4.1-3.3-1.2-6.8c0.3-0.4,0.7-0.8,1.1-1.1c-6.5,1.3-12.9,3-19.2,5c-2.3,1.9-4.7,3.3-6.3,3.6c-1,0.2-1.4-0.2-1.4-0.9
	c-1.2,0.5-2.4,0.9-3.6,1.4c-0.4,0.7-1,1.6-1.8,2.6c-2.6,3.2-6.1,6.3-7.7,6.7c-0.4,0.1-0.7,0-0.7-0.2c2.3-2.7,4.7-5.3,7.2-7.8
	C45.1,40.7,0,104.2,0,178.2c0,98.4,79.8,178.2,178.2,178.2c86,0,157.8-61,174.5-142.1C351.2,216.7,349.6,219,347.9,221.3z
	 M349.4,177c2.4,1.1,2.6,5.9,0.5,10.6c-2.1,4.8-5.9,8-8.4,7.2c-2.7-0.8-3.1-5.6-0.8-10.7C342.9,179,346.8,175.8,349.4,177z
	 M94.8,196.9c-3.1-2.8-5.5-8.2-5.4-12.1c0.1-4,2.9-5.1,6.2-2.4c3.4,2.9,6,8.6,5.6,12.7C100.9,199.1,98,199.8,94.8,196.9z
	 M100.7,212.4c0.1,3.1-2.3,3.2-5.3,0.4c-2.9-2.8-5.5-7.5-5.7-10.7c-0.3-3.3,2-3.7,5.1-0.9C97.9,204,100.6,209.1,100.7,212.4z
	 M69,119.7c1.4,1.8,2.1,6.9,1.5,11.4c-0.6,4.4-2.2,6.3-3.5,4.2c-1.3-1.9-1.9-6.8-1.4-10.9C66.1,120.1,67.6,118,69,119.7z
	 M69.3,103.7c1-4.4,3.1-7,4.5-5.8c1.6,1.4,1.9,6.4,0.8,11.1c-1.1,4.7-3.2,7.1-4.7,5.4C68.5,112.9,68.3,108.1,69.3,103.7z M70.4,143
	c0.4-4.3,2.2-6.2,4.2-4c2.1,2.3,3.4,7.8,2.9,12.3c-0.5,4.4-2.4,5.9-4.4,3.5C71.3,152.5,70.1,147.2,70.4,143z M75.4,133.6
	c-2-2-2.9-7.4-2-12c0.9-4.7,3.3-7.1,5.4-5.3c2.2,1.9,3.2,7.5,2.2,12.5C80,133.7,77.5,135.8,75.4,133.6z M95.3,105.9
	c-3-1.8-4-7.6-2.2-12.8c1.8-5.3,5.9-8.4,9.1-6.8c3.4,1.6,4.5,7.5,2.5,13.1C102.8,104.9,98.6,107.8,95.3,105.9z M96.5,125.8
	c-1.4,5.3-5.1,7.8-8.1,5.5c-2.9-2.2-4.1-8.1-2.8-13.2c1.3-5.2,4.8-7.8,7.8-5.9C96.6,114.2,97.9,120.3,96.5,125.8z M102.8,114.3
	c1.8-5.6,6.4-8.5,10.4-6.4c4.2,2.2,6,8.8,4.1,14.6c-1.9,5.8-6.7,8.5-10.7,6C102.7,126.2,101,119.8,102.8,114.3z M181.4,188
	c2.3-5.7,9.2-8.2,15.5-5.6c6.3,2.7,9.3,9.4,6.8,15.1c-2.4,5.5-9.3,7.8-15.3,5.2C182.3,200.1,179.2,193.6,181.4,188z M167.6,177.6
	c-5.9-2.8-8.9-9.9-6.8-15.8c2.2-6.1,8.9-8.8,15-6c6.2,2.8,9.2,10.1,6.8,16.2C180.4,177.9,173.6,180.4,167.6,177.6z M216.1,169.2
	c-2.7,6.2-10,9-16.3,6.3c-6.3-2.7-9.4-9.9-6.9-16.2c2.6-6.3,9.9-9.3,16.4-6.5C215.8,155.5,218.8,162.9,216.1,169.2z M230.5,179.1
	c6.2,2.5,9,9.2,6.2,15c-2.7,5.7-9.9,8.4-16,6.1c-6.2-2.4-9.1-9-6.5-14.8C216.9,179.4,224.2,176.6,230.5,179.1z M202.3,211.9
	c2.4-5.2,9.3-7.5,15.4-5.2c6.1,2.3,8.8,8.2,6.2,13.2c-2.5,4.8-9.3,7-15.1,4.9C203,222.6,200,216.9,202.3,211.9z M222,232.5
	c2.5-4.5,9.2-6.8,14.9-5c5.6,1.7,7.9,6.6,5.2,10.9c-2.6,4.1-9,6.2-14.5,4.7C222.2,241.5,219.6,236.8,222,232.5z M240.1,221.9
	c-5.8-1.8-8.4-7.5-5.7-12.8c2.7-5.4,9.8-8.2,15.7-6.2c5.8,2,8.1,7.8,5.2,13C252.5,221,245.7,223.6,240.1,221.9z M253.4,196.4
	c-5.9-2.1-8.5-8.6-5.7-14.6c2.8-6.1,10-9.2,16-6.9c5.8,2.2,8.2,8.8,5.3,14.7C266.1,195.4,259.1,198.4,253.4,196.4z M266,204.3
	c2.9-5.5,9.6-8.6,14.9-6.9c5.1,1.7,6.9,7.3,4,12.6c-2.8,5.2-9.3,8.2-14.4,6.7C265.2,215.3,263.2,209.7,266,204.3z M284.3,190.8
	c-5.3-1.8-7.4-8.2-4.6-14.2c2.8-6.1,9.4-9.3,14.6-7.2c5.1,2,6.9,8.4,4.2,14.2C295.7,189.4,289.4,192.6,284.3,190.8z M282.2,160.5
	c-2.7,6.2-9.6,9.4-15.4,7.1c-6-2.4-8.6-9.5-5.9-15.9c2.7-6.4,9.8-9.6,15.7-7C282.4,147.2,284.9,154.3,282.2,160.5z M263.3,134.3
	c-2.7,6.5-9.9,9.6-16.2,6.9c-6.4-2.7-9.4-10.3-6.6-16.8c2.7-6.6,10.1-9.6,16.4-6.8C263,120.3,265.9,127.8,263.3,134.3z M243.8,148.8
	c6.3,2.6,9.1,9.9,6.3,16.3c-2.8,6.3-10.1,9.3-16.4,6.8c-6.4-2.5-9.3-9.8-6.5-16.2C230,149.2,237.4,146.1,243.8,148.8z M229.3,138.4
	c-2.8,6.6-10.3,9.6-16.7,6.9c-6.5-2.8-9.5-10.3-6.8-16.9c2.8-6.6,10.3-9.7,16.8-6.9C229,124.2,232,131.8,229.3,138.4z M207.9,110.5
	c-2.8,6.6-10.2,9.7-16.6,6.9c-6.3-2.7-9.1-10.1-6.4-16.6c2.8-6.4,10.1-9.5,16.4-6.9C207.7,96.6,210.7,104,207.9,110.5z M188.2,125.1
	c6.3,2.8,9.3,10.3,6.7,16.8c-2.6,6.4-9.9,9.4-16.1,6.6c-6.2-2.8-9.1-10.2-6.6-16.6C174.7,125.4,181.9,122.4,188.2,125.1z
	 M174.1,114.7c-2.7,6.4-9.6,9.5-15.4,6.8c-5.7-2.6-8.2-9.8-5.6-16c2.6-6.3,9.3-9.4,15.1-7C174.1,100.9,176.8,108.2,174.1,114.7z
	 M155.9,128.9c5.8,2.7,8.6,10,6.2,16.3c-2.3,6.2-8.8,8.9-14.4,6c-5.5-2.8-8.1-9.9-6-16C143.9,129.1,150.2,126.3,155.9,128.9z
	 M143.5,118.6c-2.3,6.2-8.3,9.1-13.3,6.5c-4.8-2.5-6.9-9.3-4.7-15.2c2.2-6,8-9.1,13-6.8C143.5,105.3,145.8,112.3,143.5,118.6z
	 M127.7,94.2c-2.4,5.9-7.8,9-12,6.9c-4-2-5.5-8.2-3.2-13.8c2.2-5.6,7.5-8.9,11.6-7.1C128.4,81.9,130,88.2,127.7,94.2z M116,138
	c1.7-5.8,7-8.4,11.7-5.9c4.9,2.6,7.4,9.6,5.5,15.6c-1.9,5.8-7.3,8.2-12,5.4C116.7,150.4,114.3,143.6,116,138z M137,184.8
	c5.2,2.9,8.3,9.4,6.8,14.3c-1.4,4.7-6.6,6.2-11.5,3.3c-4.8-2.9-7.8-9-6.7-13.7C126.9,183.7,131.9,181.9,137,184.8z M138.9,178.7
	c-5.2-2.9-8-9.6-6.4-15.1c1.7-5.7,7.5-8.1,12.9-5.3c5.5,2.9,8.5,9.9,6.5,15.6C150,179.5,144.1,181.6,138.9,178.7z M151.5,188.9
	c1.8-5.4,7.9-7.5,13.7-4.7c5.9,2.8,9,9.5,7,14.8c-2,5.1-8.1,7-13.7,4.2C152.9,200.5,149.8,194.1,151.5,188.9z M176.7,230.6
	c5.6,2.4,8.7,7.4,6.9,11.1c-1.7,3.5-7.3,4.5-12.6,2.3c-5.2-2.3-8.4-7-7.1-10.7C165.4,229.5,171.1,228.3,176.7,230.6z M178.7,225.8
	c-5.7-2.4-8.9-8.1-7.1-12.8c1.9-4.9,8.2-6.8,14.2-4.2c6,2.6,9.1,8.5,6.9,13.2C190.7,226.5,184.4,228.2,178.7,225.8z M192,233.9
	c2-4.2,8.4-5.9,14.2-3.9c5.8,2.1,8.6,7,6.3,11.1c-2.2,3.9-8.4,5.4-13.9,3.5C193,242.7,190.1,237.9,192,233.9z M211,251.2
	c2.2-3.5,8.4-5.1,13.8-3.7c5.4,1.5,7.7,5.4,5.2,8.7c-2.3,3.2-8.3,4.7-13.4,3.4C211.6,258.3,209,254.5,211,251.2z M228.2,264.1
	c2.3-2.8,8.2-4.4,13.1-3.6c4.8,0.8,6.6,3.7,4.1,6.4c-2.4,2.5-8,4-12.6,3.3C228.1,269.5,226,266.7,228.2,264.1z M244.2,256.8
	c-5-0.9-7-4.6-4.5-8.2c2.6-3.8,8.9-6,14.1-4.9c5,1.1,6.7,4.9,4,8.5C255.1,255.7,249.1,257.7,244.2,256.8z M257,239
	c-5.2-1.2-7.2-5.8-4.5-10.4c2.8-4.7,9.4-7.5,14.7-6c5.1,1.3,6.8,6.1,3.9,10.6C268.3,237.5,262,240.1,257,239z M267.6,243.9
	c2.9-4,8.9-6.7,13.5-5.9c4.4,0.7,5.5,4.4,2.6,8.2c-2.8,3.7-8.6,6.2-12.9,5.7C266.3,251.4,264.8,247.8,267.6,243.9z M284.5,233.1
	c-4.6-0.8-6-5.3-3.1-10c2.9-4.9,9.1-7.9,13.6-6.8c4.4,1.1,5.5,5.7,2.6,10.2C294.6,230.9,288.8,233.9,284.5,233.1z M298.3,210.4
	c-4.5-1.2-6-6.6-3.2-12c2.8-5.5,8.8-8.8,13.3-7.2c4.3,1.4,5.5,6.8,2.7,12C308.3,208.3,302.6,211.5,298.3,210.4z M308,171.1
	c2.6-5.9,8.2-9.1,12.5-7.2c4.1,1.8,5.5,7.8,3,13.4c-2.4,5.6-7.8,8.8-12.1,7.3C307,183,305.5,177,308,171.1z M307.3,215.7
	c2.9-4.9,8.2-8.1,11.9-7.2c3.5,0.8,4,5.2,1.3,9.8c-2.7,4.5-7.8,7.7-11.4,7.1C305.3,224.8,304.5,220.5,307.3,215.7z M320.3,191.3
	c2.6-5.4,7.6-8.6,11.1-7.3c3.3,1.3,4,6.3,1.5,11.4c-2.5,5-7.2,8.3-10.7,7.4C318.6,201.7,317.7,196.6,320.3,191.3z M323.2,157.2
	c-4.3-2-6-8.5-3.9-14.5c2.1-5.9,7.2-8.8,11.4-6.5c3.9,2.2,5.5,8.5,3.5,14.2C332.2,156.1,327.3,159.1,323.2,157.2z M321.1,126.8
	c-1.9,5.9-7.5,8.8-12.3,6.4c-5.1-2.5-7.4-9.6-5.3-15.7c2.1-6,7.8-8.7,12.6-6C320.8,114.2,323,121,321.1,126.8z M306.2,140.3
	c4.9,2.3,6.9,9.1,4.6,15.1c-2.4,6-8.4,9.2-13.4,7.1c-5.2-2.2-7.4-9.1-4.9-15.3C294.9,140.9,301.1,137.8,306.2,140.3z M294.4,130.5
	c-2.4,6.3-8.9,9.3-14.6,6.8c-5.9-2.6-8.6-10-6.1-16.4c2.5-6.4,9.2-9.2,14.9-6.5C294.1,117.1,296.7,124.3,294.4,130.5z M275.3,103.7
	c-2.4,6.3-9.3,9.2-15.5,6.4c-6.3-2.8-9.3-10.2-6.8-16.6c2.5-6.2,9.5-8.9,15.6-6.1C274.7,90.2,277.7,97.5,275.3,103.7z M254.5,77
	c-2.4,6-9.6,8.8-15.9,6c-6.4-2.7-9.4-9.8-6.8-15.7c2.5-5.8,9.6-8.4,15.8-5.7C253.8,64.2,256.9,71.1,254.5,77z M235.5,90.4
	c6.4,2.7,9.5,10.2,6.8,16.6c-2.7,6.5-10.1,9.5-16.6,6.8c-6.5-2.8-9.5-10.3-6.8-16.7C221.7,90.6,229.1,87.6,235.5,90.4z M221.1,79.9
	c-2.7,6.2-10.1,9.2-16.5,6.6c-6.3-2.5-9.1-9.6-6.3-15.7c2.8-6,10-8.9,16.2-6.5C220.8,66.8,223.8,73.7,221.1,79.9z M200.7,55.4
	c-2.8,5.7-9.9,8.7-15.9,6.5c-5.8-2.1-8.1-8.3-5.2-13.8c2.8-5.4,9.7-8.2,15.4-6.4C200.9,43.6,203.4,49.8,200.7,55.4z M181.5,68.8
	c5.9,2.2,8.6,9.1,5.8,15.3c-2.8,6.3-10,9.4-15.9,7c-5.8-2.4-8.2-9.2-5.4-15.3C168.8,69.8,175.7,66.6,181.5,68.8z M168.9,60.1
	c-2.9,5.8-9.5,9-14.8,7.1c-5.1-1.8-6.9-7.8-4-13.3c2.8-5.4,9.2-8.6,14.3-7C169.7,48.5,171.8,54.4,168.9,60.1z M150.9,74
	c5.3,2,7.4,8.6,4.7,14.7c-2.7,6.2-9.1,9.4-14.3,7.1c-5-2.2-6.9-8.7-4.3-14.6C139.6,75.3,145.8,72.1,150.9,74z M140,66.2
	c-2.7,5.7-8.6,9-13,7.3c-4.2-1.6-5.5-7.3-2.8-12.7c2.6-5.4,8.2-8.6,12.5-7.3C141.2,54.9,142.7,60.6,140,66.2z M127.9,47.4
	c-2.8,5.1-8,8.4-11.6,7.3c-3.4-1-4-5.7-1.3-10.5c2.6-4.7,7.6-8,11.1-7.3C129.8,37.7,130.6,42.3,127.9,47.4z M113.4,60.7
	c3.6,1.2,4.5,6.6,2.1,12c-2.4,5.5-7.2,8.7-10.7,7.2c-3.2-1.4-4-6.8-1.7-11.9C105.4,62.9,110,59.6,113.4,60.7z M106.7,55.3
	c-2.5,4.9-6.6,8.2-9.3,7.3c-2.5-0.8-2.6-5.3-0.3-9.9c2.3-4.6,6.3-7.8,9-7.3C108.8,46,109.1,50.4,106.7,55.3z M95.8,79.6
	c-2.1,5.2-5.7,8.3-8.2,6.9c-2.3-1.3-2.6-6.3-0.7-11.1c1.9-4.8,5.5-8,7.9-7C97.4,69.4,97.8,74.4,95.8,79.6z M87.1,104.5
	c-1.6,5.1-4.6,7.8-6.9,6c-2.1-1.7-2.7-7-1.3-11.8c1.4-4.9,4.4-7.7,6.7-6.3C88,93.9,88.7,99.3,87.1,104.5z M80.7,141.8
	c0.8-4.8,3.6-6.9,6.5-4.7c3,2.4,4.6,8.5,3.7,13.5c-0.9,4.9-3.9,6.7-6.7,4.1C81.5,152.3,79.9,146.5,80.7,141.8z M96.2,177.4
	c-3.4-2.8-5.6-8.7-4.9-13.3c0.7-4.7,4-6.5,7.6-3.9c3.7,2.8,6,9,5.2,13.9C103.2,178.8,99.7,180.2,96.2,177.4z M100,154.4
	c-3.6-2.6-5.6-8.9-4.4-14c1.2-5.3,5.3-7.7,9-5.3c4,2.5,6,9.1,4.6,14.6C108,155,103.8,157.1,100,154.4z M109.2,164.1
	c1.2-5.2,5.7-7.3,10.3-4.6c4.7,2.8,7.3,9.5,5.9,14.9c-1.4,5.2-6.1,6.9-10.5,4C110.6,175.5,108.1,169.2,109.2,164.1z M121.4,209.8
	c0.7-4.1,5.1-5.1,9.8-2.3c4.8,2.9,8,8.6,7,12.6c-0.9,3.8-5.4,4.6-9.9,1.7C123.8,219,120.7,213.6,121.4,209.8z M136.7,244.8
	c0.4-2.6,4.5-2.7,9.2-0.3c4.7,2.5,7.9,6.5,7.2,8.9c-0.7,2.3-4.8,2.2-9.2-0.1C139.5,251.1,136.3,247.2,136.7,244.8z M146.7,241.2
	c-4.8-2.5-8-7.2-7.2-10.5c0.8-3.5,5.6-4.3,10.7-1.6c5.1,2.6,8.4,7.6,7.2,11C156.3,243.2,151.6,243.7,146.7,241.2z M151.5,224.6
	c-5.2-2.7-8.4-8.2-7.2-12.5c1.3-4.5,6.7-5.9,12.2-3.2c5.5,2.8,8.8,8.6,7.2,13C162.2,226,156.8,227.2,151.5,224.6z M158.4,249
	c1-2.9,6-3.4,11.2-1.2c5.2,2.2,8.3,6.2,6.9,8.9c-1.3,2.6-6.2,3-11,0.9C160.6,255.5,157.4,251.7,158.4,249z M177,263.7
	c1.2-2.3,6.3-2.7,11.4-1c5,1.7,7.8,4.7,6.2,6.8c-1.4,2-6.4,2.3-11.1,0.8C178.7,268.7,175.8,265.8,177,263.7z M190.1,259.7
	c-5.1-1.7-8.1-5.6-6.6-8.6c1.6-3.2,7.4-4.3,12.8-2.4c5.4,1.9,8.2,5.8,6.3,8.9C200.8,260.5,195.2,261.4,190.1,259.7z M201.8,265.2
	c1.8-2.5,7.4-3.5,12.5-2.3c5,1.3,7.4,4.2,5.3,6.6c-2,2.3-7.4,3.2-12.1,2C202.7,270.4,200.1,267.5,201.8,265.2z M218.2,275.1
	c2-1.9,7.4-2.9,12-2.3c4.5,0.7,6.4,2.7,4.2,4.5c-2.1,1.7-7.2,2.7-11.5,2.1C218.5,278.8,216.4,276.9,218.2,275.1z M232.3,281.4
	c2.1-1.4,7.1-2.4,11.2-2.3c4,0.2,5.3,1.4,3,2.7c-2.1,1.3-6.9,2.2-10.7,2.2C232,283.9,230.4,282.7,232.3,281.4z M246.1,277.1
	c-4.1-0.2-5.7-2-3.4-4.1c2.4-2.2,7.9-3.8,12.2-3.5c4.2,0.3,5.4,2.2,2.9,4.3C255.3,275.8,250.2,277.3,246.1,277.1z M257.9,266.5
	c-4.3-0.3-5.9-3-3.3-5.9c2.7-3.1,8.5-5.2,13-4.8c4.3,0.5,5.5,3.3,2.7,6.2C267.6,264.8,262.1,266.9,257.9,266.5z M266.7,268.4
	c2.7-2.5,8-4.6,11.8-4.6c3.6-0.1,4.3,1.8,1.5,4.2c-2.6,2.3-7.6,4.2-11.2,4.4C265.1,272.6,264.1,270.8,266.7,268.4z M279.7,254.8
	c2.9-3.3,8.4-5.9,12.2-5.8c3.6,0.2,4.2,2.9,1.3,6c-2.8,3-7.9,5.5-11.6,5.5C277.9,260.5,277,258,279.7,254.8z M293.5,237.1
	c2.9-4.1,8.4-7.1,12.2-6.7c3.6,0.5,4.1,4,1.2,7.9c-2.8,3.8-8,6.7-11.6,6.5C291.4,244.6,290.6,241.1,293.5,237.1z M302.3,247.2
	c2.9-3.5,7.8-6.4,10.8-6.5c2.9-0.1,2.9,2.6,0.1,5.8c-2.8,3.2-7.3,6-10.3,6.2C299.8,253.1,299.5,250.6,302.3,247.2z M315.9,229
	c2.8-4.2,7.5-7.4,10.5-7.1c2.7,0.3,2.7,3.7,0,7.6c-2.7,3.8-7.1,6.9-10,6.9C313.4,236.4,313.2,233.1,315.9,229z M328.9,207.7
	c2.6-4.8,7-8.1,9.8-7.3c2.6,0.7,2.6,4.8,0.2,9.3c-2.5,4.4-6.6,7.7-9.3,7.3C326.6,216.5,326.4,212.4,328.9,207.7z M341.9,158.1
	c3.1,1.7,4,7.3,2,12.5c-2.1,5.3-6.4,8.4-9.7,7.1c-3.5-1.4-4.5-7.2-2.3-12.7C334,159.4,338.5,156.4,341.9,158.1z M338.4,109.5
	c3.7,2.5,5.5,8.9,4.1,14.2c-1.5,5.5-5.8,8.1-9.7,5.8c-4.1-2.4-6.1-9-4.4-14.7C330,109.3,334.5,106.9,338.4,109.5z M323.6,84.9
	c4.4,2.8,6.9,9.4,5.5,14.7c-1.4,5.5-6.3,7.8-10.9,5.2c-4.8-2.8-7.4-9.6-5.8-15.2C314,84.1,319,82,323.6,84.9z M293.8,64.3
	c1.6-5.1,7.1-6.9,12.2-4c5,2.9,7.9,9.3,6.6,14.4c-1.4,5.3-6.8,7.3-12.1,4.5C295.1,76.3,292.1,69.6,293.8,64.3z M298.4,85.8
	c5.3,2.8,8.1,9.8,6.2,15.6c-1.9,5.9-8,8.6-13.5,5.8c-5.7-2.8-8.5-10-6.4-16.1C286.8,85.3,292.9,82.9,298.4,85.8z M278.7,60.1
	c5.7,2.8,8.8,9.5,6.9,15.1c-2,5.7-8.4,8.1-14.4,5.3c-6-2.9-9.2-9.8-6.9-15.5C266.5,59.4,272.9,57.3,278.7,60.1z M258.1,36.6
	c5.9,2.5,9,8.6,7,13.7c-2,5.3-8.7,7.4-14.8,4.8c-6.1-2.6-9.2-8.9-6.9-14.1C245.7,36.1,252.2,34.1,258.1,36.6z M223.6,20.3
	c2.3-4.3,8.8-6.1,14.5-4.1c5.7,2,8.7,7.2,6.6,11.7c-2.2,4.6-8.8,6.7-14.8,4.5C223.9,30.2,221.1,24.8,223.6,20.3z M227,38.1
	c6,2.2,9,8.4,6.6,13.8c-2.5,5.6-9.6,8.2-15.9,5.8c-6.2-2.4-8.9-8.7-6.2-14.1C214.1,38.3,221,35.9,227,38.1z M207.9,18.5
	c5.6,1.6,8.2,6.8,5.7,11.6c-2.6,4.9-9.5,7.4-15.3,5.6c-5.7-1.8-8-7.1-5.2-11.8C195.7,19.3,202.3,16.9,207.9,18.5z M177.5,8.3
	c2.7-3.8,8.9-6.1,13.8-5.2c5.1,1,7.1,5.1,4.5,9.1c-2.7,4.2-9.2,6.6-14.4,5.4C176.4,16.5,174.6,12.3,177.5,8.3z M178.1,22.9
	c5.2,1.3,7.3,6.3,4.5,11.3c-2.9,5.1-9.6,8-14.9,6.4c-5.1-1.5-6.9-6.6-3.9-11.5C166.7,24.5,173,21.7,178.1,22.9z M151.2,14.9
	c2.9-4,8.6-6.8,13-6.1c4.5,0.6,6,4.6,3.1,8.9c-2.9,4.4-9,7.3-13.6,6.4C149.3,23.1,148.2,19,151.2,14.9z M150.3,29.4
	c4.6,1,6,5.9,3.1,10.9c-2.9,5.2-9,8.3-13.5,7.1c-4.3-1.2-5.5-6.2-2.6-11C140.2,31.5,146,28.4,150.3,29.4z M139.7,16
	c3.8,0.4,4.6,4.2,1.7,8.6c-2.9,4.5-8.4,7.6-12.1,7c-3.5-0.6-4.1-4.5-1.2-8.7C131,18.7,136.1,15.7,139.7,16z M121.9,13.4
	c2.7-3.5,7.3-6.4,10.2-6.5c3.1-0.2,3.3,2.7,0.5,6.4c-2.9,3.8-7.7,6.9-10.7,6.8C119.1,20,119.1,17,121.9,13.4z M118.7,24.7
	c3,0.2,3.2,3.8,0.5,8.2c-2.8,4.5-7.3,7.7-10.2,7.2c-2.7-0.4-2.7-4.2,0-8.4C111.6,27.7,115.9,24.5,118.7,24.7z M105.8,22.8
	c2.5-3.5,6.3-6.6,8.5-6.9c2.3-0.3,2.1,2.5-0.6,6.2c-2.7,3.8-6.7,7-8.9,7C102.7,29.3,103.2,26.4,105.8,22.8z M101.3,41.7
	c-2.5,4.3-6.1,7.6-8.1,7.2C91.3,48.6,91.7,45,94,41c2.3-4,5.8-7.2,7.8-7.1C104,33.9,103.7,37.4,101.3,41.7z M92.3,34.2
	c1.4-2,2.8-3.9,4.2-5.7c1.4-1.5,2.6-2.5,3.5-2.7c1.6-0.4,0.9,2.3-1.5,6c-2.4,3.8-5.6,6.9-7,7C90.4,38.9,90.8,36.9,92.3,34.2z
	 M90.6,54c2,0.5,1.8,4.6-0.3,9.3c-2.1,4.7-5.3,7.8-7.1,7c-1.6-0.8-1.4-4.9,0.6-9.3C85.7,56.7,88.8,53.5,90.6,54z M83,50.2
	c2-3.8,4.6-6.9,5.9-6.9c1.4,0,0.8,3.3-1.4,7.5c-2.1,4.2-4.8,7.3-6.1,7C80.4,57.4,81,54,83,50.2z M81.1,75.7
	c1.8,0.9,1.8,5.6,0.2,10.4c-1.6,4.8-4.3,7.7-5.9,6.4c-1.5-1.2-1.5-5.8,0-10.2C76.9,77.8,79.5,74.8,81.1,75.7z M78.4,58.2
	c-0.1,0.3-0.3,0.7-0.5,1.1c-0.3,0.6-0.6,1.2-0.8,1.7C77.5,60,77.9,59.1,78.4,58.2z M74.4,69.1c1.6-4.1,3.8-7,4.9-6.7
	c1.2,0.4,0.7,4.3-1,8.7c-1.7,4.4-3.9,7.3-5,6.6C72.3,77,72.9,73.2,74.4,69.1z M67.8,88.7c1.1-4.1,2.9-6.8,3.8-6.1
	c1,0.9,0.8,5.2-0.5,9.6c-1.2,4.4-3,7-3.9,5.8C66.5,97,66.7,92.8,67.8,88.7z M63.9,133c-0.1,1.9-0.4,3.2-0.7,3.9
	c-0.3-4.7-0.4-9.5-0.3-14.3c0,0,0,0,0,0C63.8,124.3,64.2,129,63.9,133z M63.6,118c-0.1-0.2-0.2-0.6-0.3-1c0.3-4.3,0.7-8.7,1.3-13
	c0.5-1.2,1.1-1.6,1.6-1c0.9,1.3,0.9,5.9,0.2,10.2C65.6,117.5,64.4,119.6,63.6,118z M66.6,140.1c1.3,2.1,2.3,7.1,2.2,11.2
	c-0.1,3.9-1.2,5.2-2.5,3c-1.2-2.2-2.1-6.9-2.1-10.6C64.3,139.7,65.3,138.1,66.6,140.1z M69.3,171.8c-1.3-4.7-2.5-9.4-3.4-14.2
	c0.2,0.2,0.4,0.5,0.6,0.9c1.2,2.3,2.5,7.1,2.9,10.6C69.5,170.4,69.5,171.3,69.3,171.8z M73,159.6c1.9,2.5,3.5,7.8,3.6,11.7
	c0,3.8-1.5,4.7-3.3,2.1c-1.8-2.5-3.3-7.4-3.4-11.1C69.8,158.5,71.2,157.2,73,159.6z M75.5,189.4c-1.5-3.7-2.9-7.4-4.2-11.2
	c-0.3-2.6,0.7-3.1,2.3-0.7c1.8,2.6,3.7,7.5,4.1,10.8C78.1,191.3,77.1,191.7,75.5,189.4z M78.4,163.3c0.2-4.3,2.5-5.7,5.2-3.2
	c2.8,2.6,4.7,8.4,4.4,12.8c-0.3,4.2-2.8,5.4-5.4,2.6C80,172.9,78.1,167.4,78.4,163.3z M82.4,180.1c2.6,2.8,4.8,8.1,4.9,11.8
	c0.1,3.5-1.8,4-4.3,1.2c-2.4-2.7-4.4-7.7-4.6-11.1C78.2,178.3,79.9,177.4,82.4,180.1z M80.4,197.4c-0.6-3,0.8-3.3,3.1-0.5
	c2.4,2.8,4.8,7.5,5.3,10.5c0.5,2.8-1.1,2.8-3.4,0C83.1,204.6,80.9,200.2,80.4,197.4z M86.1,210.2C86.1,210.2,86.1,210.3,86.1,210.2
	c1.8,2.2,3.7,5.2,4.8,7.5C89.2,215.3,87.6,212.8,86.1,210.2z M95.8,216c2.9,2.8,5.7,7.2,6.2,9.7c0.4,2.3-1.5,2-4.3-0.8
	c-2.7-2.7-5.3-6.8-5.9-9.2C91.2,213.2,93,213.3,95.8,216z M97.1,226.3c0.4,0.3,0.8,0.7,1.3,1.2c2.1,2.1,4.3,4.9,5.5,6.9
	C101.6,231.7,99.3,229,97.1,226.3z M109.5,221.3c3.7,2.9,6.7,7.5,6.7,10.2c0,2.6-2.9,2.4-6.3-0.3c-3.4-2.7-6.3-7.1-6.5-9.8
	C103.2,218.6,105.9,218.5,109.5,221.3z M111.7,241.1c-3.1-2.6-6-6.2-6.5-8.2c-0.5-2.1,1.7-1.7,5,1c3.4,2.7,6.4,6.6,6.7,8.6
	C117.2,244.3,114.9,243.7,111.7,241.1z M117.1,216.7c-0.4,3.4-3.8,3.8-7.6,0.9c-3.7-2.8-6.5-7.9-6.4-11.4c0.2-3.7,3.4-4.4,7.4-1.5
	C114.6,207.6,117.5,213,117.1,216.7z M111.1,200c-4-2.9-6.7-8.7-6.1-13c0.6-4.5,4.5-5.9,8.8-3c4.3,3,7.2,9.1,6.3,13.6
	C119.3,201.9,115.2,203,111.1,200z M126.9,255.2c-3.4-2.3-6.4-5.3-6.8-6.8c-0.4-1.6,2.3-0.9,5.9,1.5c3.7,2.5,6.8,5.6,6.9,7.1
	C133.1,258.3,130.3,257.6,126.9,255.2z M125.9,247.8c-3.7-2.5-6.8-6.2-6.9-8.4c-0.1-2.3,3-2.1,7,0.5c4.1,2.7,7.3,6.6,7.1,8.8
	C132.9,250.7,129.7,250.3,125.9,247.8z M134.7,236.5c-0.5,2.9-4.3,3-8.5,0.3c-4.1-2.6-7.2-7.2-7-10.2c0.2-3.2,4-3.5,8.3-0.8
	C132,228.7,135.3,233.4,134.7,236.5z M148.9,269c-4.5-2.3-8.9-4.8-13.1-7.5c0,0,0,0,0,0c-0.2-1.1,2.8-0.3,6.6,1.8
	c3.9,2.1,6.9,4.5,6.8,5.5C149.2,268.9,149.1,269,148.9,269z M150.4,262.8c-0.4,1.5-3.9,1-7.9-1.2c-3.9-2.1-7.1-5.2-7-6.8
	c0.1-1.8,3.6-1.4,7.8,0.9C147.7,258.1,150.8,261.2,150.4,262.8z M167.4,273.9c-0.6,1-4.3,0.5-8.3-1.2c-4-1.7-7-4-6.7-5.1
	c0.3-1.3,4.1-0.8,8.3,1.1C165.1,270.5,168,272.8,167.4,273.9z M161.5,266.9c-4.4-1.9-7.5-4.9-6.9-6.7c0.6-2,5-2,9.7,0
	c4.7,2,7.8,5.1,6.8,7C170.2,268.9,165.9,268.8,161.5,266.9z M183.4,281.7c-0.1,0-0.1,0.1-0.2,0.1c-4.8-1.2-9.5-2.6-14.2-4.2
	c-0.1-0.2-0.2-0.4-0.1-0.5c0.6-0.8,4.4-0.3,8.6,1.1C181.6,279.5,184.3,281.1,183.4,281.7z M178.4,277c-4.3-1.4-7.1-3.6-6.3-4.9
	c0.9-1.4,5.3-1.4,9.9,0.1c4.6,1.5,7.3,3.7,6.1,5.1C187.1,278.5,182.7,278.4,178.4,277z M203.5,284c-1.3,0.8-5.6,0.7-9.6-0.2
	c-4-0.9-6.5-2.3-5.5-3.2c1.1-1,5.5-0.9,9.9,0.1C202.6,281.7,204.9,283.2,203.5,284z M199.9,279.4c-4.4-1-7-3.1-5.6-4.6
	c1.4-1.7,6.5-2.1,11.2-1c4.7,1.1,7,3.2,5.3,4.8C209.1,280,204.3,280.4,199.9,279.4z M205.5,285.7c1.9-0.1,4.7-0.1,7.3,0.3
	c0.9,0.1,1.7,0.2,2.4,0.4C212,286.2,208.7,286,205.5,285.7z M214.6,285c-4-0.5-6.1-1.8-4.6-2.9c1.6-1.2,6.5-1.7,10.8-1.1
	c4.2,0.5,6.1,1.9,4.2,3C223.2,285.1,218.6,285.5,214.6,285z M223.6,286.4c1.8-0.7,6.3-1.3,10.1-1.2c1.5,0,2.6,0.2,3.3,0.4
	C232.5,286,228,286.3,223.6,286.4z M243.8,284.6c0.1,0,0.2-0.1,0.3-0.1c2.1-1,6.8-2.1,10.3-2.4c1.1-0.1,1.8-0.1,2.4,0
	C252.5,283.1,248.2,284,243.8,284.6z M254.7,278.2c2.4-1.7,7.5-3.3,11.1-3.5c3.5-0.2,4.3,1,1.8,2.6c-2.4,1.6-7.1,3-10.6,3.3
	C253.5,280.9,252.4,279.8,254.7,278.2z M265.7,279.7c2.2-0.9,5.1-1.9,7.4-2.4C270.7,278.1,268.2,278.9,265.7,279.7z M287,270.9
	c-2.6,1.8-7,3.7-10,4.3c-3.1,0.6-3.6-0.5-1.1-2.3c2.7-2,7.4-4,10.5-4.5C289.5,267.9,289.7,269,287,270.9z M288.8,261.8
	c2.8-2.7,7.7-5.2,10.8-5.6c3-0.3,3,1.5,0.3,4.1c-2.7,2.5-7.3,4.8-10.3,5.3C286.5,266.2,286.1,264.5,288.8,261.8z M306.5,260.6
	c-4.2,2.7-8.5,5.3-12.9,7.6c-0.7-0.2-0.1-1.1,1.7-2.6c2.7-2.2,7.1-4.6,9.6-5.3C306.2,259.9,306.7,260.1,306.5,260.6z M317.1,251.5
	c-2.7,2.7-6.7,5.3-9,5.9c-2.5,0.7-2.4-1,0.4-3.9c2.8-2.9,7.1-5.7,9.5-6.2C320.2,246.9,319.8,248.8,317.1,251.5z M321.7,238.3
	c2.8-3.6,6.9-6.6,9.2-6.8c2.1-0.2,1.6,2.4-1,5.7c-2.6,3.3-6.5,6.2-8.7,6.6C318.8,244.2,319,241.8,321.7,238.3z M322.8,248.4
	c-0.9,0-0.2-1.6,2-4c2.7-3,6.3-5.9,8-6.5c0.6-0.2,0.9-0.1,0.8,0.4C330.2,241.8,326.6,245.2,322.8,248.4z M334.5,219.9
	c2.6-4.1,6.4-7.4,8.5-7.2c1.9,0.2,1.5,3.4-1,7.3c-2.4,3.8-6.1,6.9-8.1,7.1C331.7,227.2,332,224,334.5,219.9z M342.9,227.4
	c-2.4,3.3-5.5,6.3-7.1,6.8c-1.7,0.5-1-1.9,1.5-5.4c2.5-3.5,5.8-6.7,7.4-6.9C346.1,221.6,345.3,224.1,342.9,227.4z M345.8,207.8
	c-2-0.3-1.8-4.2,0.4-8.7c2.3-4.6,5.7-7.8,7.6-7.2c1.7,0.6,1.4,4.5-0.7,8.7C350.9,204.9,347.6,208.1,345.8,207.8z"/>
</svg>
