<?xml version="1.0" encoding="utf-8"?>
<!-- Generator: Adobe Illustrator 22.1.0, SVG Export Plug-In . SVG Version: 6.00 Build 0)  -->
<svg version="1.1" id="Calque_1" xmlns="http://www.w3.org/2000/svg" xmlns:xlink="http://www.w3.org/1999/xlink" x="0px" y="0px"
	 viewBox="0 0 683.4 241.6" style="enable-background:new 0 0 683.4 241.6;" xml:space="preserve">
<style type="text/css">
	.st0{fill:#FFFFFF;}
</style>
<g>
	<g>
		<g>
			<path class="st0" d="M0,136.4h9v35.3h21.5v7.7H0V136.4z"/>
			<path class="st0" d="M86.2,144H63.5v9.1h20.9v7.5H63.5v11.1h23.8v7.7H54.7v-43h31.5V144z"/>
			<path class="st0" d="M124.5,136.4h10.2l15.2,43h-9.7l-2.8-8.8h-15.8l-2.9,8.8h-9.4L124.5,136.4z M123.9,163.1h11l-5.4-16.9
				L123.9,163.1z"/>
			<path class="st0" d="M202.2,149.8c-0.7-2.9-2.3-5-5-6.2c-1.5-0.6-3.1-1-4.9-1c-3.5,0-6.3,1.3-8.5,3.9c-2.2,2.6-3.3,6.5-3.3,11.8
				c0,5.3,1.2,9,3.6,11.2c2.4,2.2,5.2,3.3,8.2,3.3c3,0,5.5-0.9,7.4-2.6c1.9-1.7,3.1-4,3.6-6.8h-9.9v-7.2h17.9v23.1h-6l-0.9-5.4
				c-1.7,2-3.3,3.5-4.7,4.3c-2.4,1.5-5.3,2.2-8.8,2.2c-5.7,0-10.4-2-14-5.9c-3.8-4-5.7-9.4-5.7-16.3c0-7,1.9-12.5,5.7-16.7
				c3.8-4.2,8.9-6.3,15.2-6.3c5.5,0,9.9,1.4,13.2,4.2c3.3,2.8,5.2,6.2,5.7,10.4H202.2z"/>
			<path class="st0" d="M237.6,136.4h9v35.3h21.5v7.7h-30.5V136.4z"/>
			<path class="st0" d="M323.8,144h-22.8v9.1H322v7.5h-20.9v11.1h23.8v7.7h-32.6v-43h31.5V144z"/>
			<path class="st0" d="M388.4,140.9c3.5-3.5,7.9-5.3,13.2-5.3c7.2,0,12.4,2.4,15.7,7.1c1.8,2.7,2.8,5.3,2.9,8h-9
				c-0.6-2.1-1.3-3.6-2.2-4.7c-1.6-1.9-4-2.8-7.1-2.8c-3.2,0-5.7,1.3-7.6,4c-1.8,2.6-2.8,6.4-2.8,11.2c0,4.8,1,8.4,2.9,10.8
				c2,2.4,4.4,3.6,7.4,3.6c3.1,0,5.4-1,7-3.1c0.9-1.1,1.6-2.8,2.2-5h8.9c-0.8,4.7-2.7,8.5-5.9,11.4c-3.2,2.9-7.2,4.4-12.2,4.4
				c-6.1,0-10.9-2-14.4-6c-3.5-4-5.3-9.5-5.3-16.4C382.5,150.7,384.5,144.9,388.4,140.9z"/>
			<path class="st0" d="M445.4,136.4h9.1v26.4c0,3,0.3,5.1,1,6.5c1.1,2.4,3.4,3.6,7.1,3.6c3.6,0,6-1.2,7.1-3.6c0.7-1.4,1-3.5,1-6.5
				v-26.4h9.1v26.4c0,4.6-0.7,8.1-2.1,10.7c-2.6,4.7-7.7,7-15.1,7c-7.4,0-12.5-2.3-15.1-7c-1.4-2.5-2.1-6.1-2.1-10.7V136.4z"/>
			<path class="st0" d="M535.3,160.8c-2.5,2.1-6.1,3.2-10.8,3.2h-9v15.5h-8.9v-43h18.5c4.3,0,7.6,1.1,10.2,3.3
				c2.5,2.2,3.8,5.6,3.8,10.3C539.1,155.1,537.9,158.7,535.3,160.8z M528.5,145.3c-1.1-1-2.7-1.4-4.8-1.4h-8.1v12.7h8.1
				c2.1,0,3.6-0.5,4.8-1.5c1.1-1,1.7-2.7,1.7-4.9C530.2,147.8,529.6,146.2,528.5,145.3z"/>
		</g>
		<g>
			<path class="st0" d="M3.6,206.9h15.1c3,0,5.4,0.8,7.2,2.5s2.7,4.1,2.7,7.1c0,2.6-0.8,4.9-2.5,6.9c-1.6,2-4.1,2.9-7.5,2.9H8.2
				v14.2H3.6V206.9z M21.3,211.5c-1-0.5-2.4-0.7-4.1-0.7h-9v11.7h9c2,0,3.7-0.4,5-1.3c1.3-0.9,1.9-2.4,1.9-4.6
				C24.1,214.1,23.2,212.4,21.3,211.5z"/>
			<path class="st0" d="M34.5,206.9h4.6v29.7H56v4H34.5V206.9z"/>
			<path class="st0" d="M70.5,206.9h5.2l12.2,33.7h-5l-3.5-10.1H66.1l-3.7,10.1h-4.7L70.5,206.9z M78.1,226.8l-5.2-14.9l-5.4,14.9
				H78.1z"/>
			<path class="st0" d="M85.9,206.9h5.3l9.7,16.2l9.7-16.2h5.4L103.2,227v13.6h-4.6V227L85.9,206.9z"/>
			<path class="st0" d="M133.1,206.9h4.6v33.7h-4.6V206.9z"/>
			<path class="st0" d="M169.7,206.9v4h-11.4v29.7h-4.6v-29.7h-11.4v-4H169.7z"/>
			<path class="st0" d="M213.8,211.7c2.2,3,3.3,6.8,3.3,11.4c0,5-1.3,9.2-3.8,12.5c-3,3.9-7.3,5.9-12.8,5.9c-5.2,0-9.3-1.7-12.2-5.1
				c-2.6-3.3-4-7.5-4-12.5c0-4.6,1.1-8.5,3.4-11.7c2.9-4.2,7.2-6.2,12.9-6.2C206.6,206,211,207.9,213.8,211.7z M209.8,233.2
				c1.8-2.9,2.7-6.2,2.7-10c0-4-1-7.2-3.1-9.6c-2.1-2.4-4.9-3.6-8.5-3.6c-3.5,0-6.3,1.2-8.5,3.6c-2.2,2.4-3.3,5.9-3.3,10.6
				c0,3.7,0.9,6.9,2.8,9.4c1.9,2.6,4.9,3.8,9.2,3.8C205.1,237.5,208,236.1,209.8,233.2z"/>
			<path class="st0" d="M222.6,206.9h5.4l16.8,27.2v-27.2h4.4v33.7H244L227,213.4v27.2h-4.4V206.9z"/>
			<path class="st0" d="M293.3,206.9v4h-11.4v29.7h-4.6v-29.7H266v-4H293.3z"/>
			<path class="st0" d="M297.6,206.9h4.6v13.9h17.3v-13.9h4.6v33.7h-4.6v-15.8h-17.3v15.8h-4.6V206.9z"/>
			<path class="st0" d="M331.8,206.9h24.5v4.1h-20v10.2h18.5v3.9h-18.5v11.4h20.3v4h-24.8V206.9z"/>
			<path class="st0" d="M398.2,207.9c3.3,1.8,5.3,4.8,6.1,9.2h-4.5c-0.5-2.5-1.7-4.3-3.3-5.4c-1.7-1.1-3.8-1.7-6.4-1.7
				c-3.1,0-5.6,1.2-7.7,3.5c-2.1,2.3-3.1,5.8-3.1,10.5c0,4,0.9,7.3,2.6,9.8c1.7,2.5,4.5,3.8,8.4,3.8c3,0,5.5-0.9,7.4-2.6
				c2-1.8,3-4.6,3-8.6H390v-3.8h14.8v18h-2.9l-1.1-4.3c-1.5,1.7-2.9,2.9-4,3.5c-2,1.1-4.5,1.7-7.5,1.7c-3.9,0-7.3-1.3-10.1-3.9
				c-3.1-3.2-4.6-7.7-4.6-13.4c0-5.6,1.5-10.1,4.5-13.5c2.9-3.2,6.6-4.8,11.1-4.8C393.2,206,395.9,206.6,398.2,207.9z"/>
			<path class="st0" d="M412.9,206.9h15.3c2.5,0,4.6,0.4,6.2,1.1c3.1,1.4,4.7,4.1,4.7,8c0,2-0.4,3.7-1.2,5c-0.8,1.3-2,2.3-3.5,3.1
				c1.3,0.5,2.3,1.2,3,2.1c0.7,0.9,1,2.3,1.1,4.2l0.2,4.5c0,1.3,0.2,2.2,0.3,2.9c0.3,1.1,0.8,1.8,1.5,2.1v0.8h-5.6
				c-0.2-0.3-0.3-0.7-0.4-1.1c-0.1-0.5-0.2-1.3-0.2-2.7l-0.3-5.6c-0.1-2.2-0.9-3.7-2.4-4.4c-0.8-0.4-2.2-0.6-4-0.6h-10.1v14.5h-4.6
				V206.9z M427.7,222.3c2.1,0,3.7-0.4,4.9-1.3c1.2-0.9,1.8-2.4,1.8-4.6c0-2.4-0.8-4-2.5-4.9c-0.9-0.5-2.1-0.7-3.6-0.7h-10.8v11.5
				H427.7z"/>
			<path class="st0" d="M446.7,206.9h24.5v4.1h-20v10.2h18.5v3.9h-18.5v11.4h20.3v4h-24.8V206.9z"/>
			<path class="st0" d="M478,206.9h24.5v4.1h-20v10.2H501v3.9h-18.5v11.4h20.3v4H478V206.9z"/>
			<path class="st0" d="M508.9,206.9h5.4l16.8,27.2v-27.2h4.4v33.7h-5.1l-17.1-27.2v27.2h-4.4V206.9z"/>
		</g>
	</g>
	<g>
		<path class="st0" d="M561.1,90.8c0.1,0.1,0.2,0.2,0.3,0.3c0.3,0.3,0.7,0.7,1,1.1c0.5-0.2,1.1-0.3,1.6-0.5
			c-0.7-0.7-1.2-1.6-1.3-2.2c-0.1-0.7,0.6-0.8,1.6,0c0.6,0.5,1.1,1.1,1.4,1.6c0.4-0.1,0.8-0.3,1.1-0.4c0.1-0.4,0.5-0.6,1.1-0.5
			c0.4-0.2,0.9-0.4,1.3-0.6c0,0-0.1,0-0.1-0.1c-1.2-0.7-2-2.1-1.8-3.1c0.2-1.1,1.3-1.3,2.5-0.6c1,0.6,1.7,1.6,1.8,2.5
			c0.5-0.3,1-0.6,1.5-0.9c0-0.2,0-0.4,0.1-0.5c0.3-1,1.3-1.4,2.5-1.1c0.5-0.3,1-0.7,1.5-1.1c-0.1,0-0.3-0.1-0.4-0.1
			c-1.4-0.7-2.3-2.4-1.8-3.7c0.5-1.4,2-1.9,3.6-1.2c1,0.5,1.7,1.5,1.9,2.5c2-1.8,3.9-3.7,5.6-5.9c-0.6-0.9-0.8-2-0.4-3
			c0.6-1.5,2.3-2.3,3.8-1.8c0.4-0.6,0.7-1.3,1.1-1.9c-1.6-0.8-2.3-2.6-1.6-4.3c0.7-1.7,2.7-2.5,4.3-1.8c0,0,0.1,0,0.1,0
			c0.3-0.7,0.5-1.4,0.7-2c-1.7-0.7-2.4-2.7-1.7-4.3c0.6-1.3,1.9-2.1,3.3-1.9c0.2-0.9,0.3-1.8,0.4-2.7c-0.7-0.9-0.9-2-0.4-3
			c0.2-0.4,0.4-0.7,0.7-1c0.1-2.6,0-5.3-0.4-7.9c-0.3,0-0.6-0.1-0.9-0.2c-1.5-0.6-2.2-2-1.6-3.1c0.3-0.6,0.9-1,1.7-1.2
			c-0.4-1.7-0.9-3.3-1.4-5c-0.2,0-0.4-0.1-0.6-0.1c-1.3-0.3-1.9-1.2-1.4-1.9c0.2-0.3,0.5-0.5,0.9-0.6c-0.2-0.4-0.3-0.7-0.5-1.1
			c-0.6,0.6-2,0.9-3.2,0.7c-1.2-0.2-1.7-0.8-1.1-1.4c0.6-0.5,2-0.8,3.1-0.7c0.2,0,0.5,0.1,0.6,0.2c-0.1-0.3-0.2-0.5-0.4-0.8
			c-0.9-0.2-1.2-0.5-0.7-0.9c0.1,0,0.1-0.1,0.2-0.1c-0.1-0.2-0.2-0.3-0.3-0.5c-0.6,0.2-1.5,0.3-2.3,0.3c-0.9,0-1.3-0.2-0.9-0.5
			c1-0.1,1.9-0.2,2.9-0.3c-5-8.8-12.8-16-22.8-20.1c-24-9.9-51.4,1.5-61.3,25.4c-9.9,24,1.5,51.4,25.4,61.3
			c10.1,4.2,20.8,4.6,30.5,1.8C561.9,91.7,561.5,91.2,561.1,90.8z M560.5,83.2c-0.8-0.7-1.4-2.1-1.4-3.1c0-1,0.8-1.3,1.6-0.6
			c0.9,0.7,1.5,2.2,1.5,3.3C562.1,83.7,561.3,83.9,560.5,83.2z M562,87.2c0,0.8-0.6,0.8-1.4,0.1c-0.8-0.7-1.4-1.9-1.5-2.8
			c-0.1-0.9,0.5-1,1.3-0.2C561.3,85,562,86.3,562,87.2z M553.8,63.2c0.4,0.5,0.5,1.8,0.4,2.9c-0.2,1.1-0.6,1.6-0.9,1.1
			c-0.3-0.5-0.5-1.7-0.4-2.8C553,63.3,553.4,62.8,553.8,63.2z M553.9,59c0.3-1.1,0.8-1.8,1.2-1.5c0.4,0.4,0.5,1.7,0.2,2.9
			c-0.3,1.2-0.8,1.8-1.2,1.4C553.7,61.4,553.6,60.2,553.9,59z M554.2,69.2c0.1-1.1,0.6-1.6,1.1-1c0.5,0.6,0.9,2,0.8,3.2
			c-0.1,1.1-0.6,1.5-1.1,0.9C554.4,71.7,554.1,70.3,554.2,69.2z M555.4,66.8c-0.5-0.5-0.7-1.9-0.5-3.1c0.2-1.2,0.9-1.8,1.4-1.4
			c0.6,0.5,0.8,1.9,0.6,3.2C556.6,66.8,556,67.4,555.4,66.8z M579.3,42.8c-1.3-0.4-1.8-1.7-1-3c0.7-1.2,2.4-1.9,3.7-1.6
			c1.4,0.3,1.9,1.6,1.2,2.9C582.4,42.4,580.7,43.2,579.3,42.8z M579.6,47.8c-0.7,1.5-2.5,2.3-3.8,1.8c-1.3-0.5-1.8-2-1-3.4
			c0.7-1.4,2.4-2.2,3.7-1.8C579.8,44.8,580.4,46.3,579.6,47.8z M578.4,34.5c1.2,0.2,1.5,1.2,0.8,2.3c-0.8,1.1-2.3,1.9-3.5,1.6
			c-1.1-0.2-1.4-1.3-0.7-2.4C575.8,35,577.3,34.3,578.4,34.5z M578.6,31.5c0.7-0.8,2.2-1.4,3.3-1.3c1.1,0.1,1.5,0.9,0.8,1.8
			c-0.7,0.9-2.3,1.5-3.4,1.4C578.1,33.2,577.8,32.4,578.6,31.5z M574.8,39.8c1.2,0.3,1.5,1.5,0.8,2.8c-0.8,1.3-2.3,2.2-3.5,1.8
			c-1.1-0.3-1.4-1.6-0.7-2.9C572.2,40.4,573.7,39.6,574.8,39.8z M571.3,46.1c1.2,0.4,1.5,1.8,0.8,3.3c-0.7,1.5-2.2,2.3-3.4,1.9
			c-1.1-0.4-1.4-1.9-0.7-3.3C568.7,46.6,570.2,45.7,571.3,46.1z M569,56.6c-0.6,1.5-2,2.3-3.1,1.8c-1-0.5-1.4-2.1-0.8-3.6
			c0.6-1.5,1.9-2.3,3-1.8C569.2,53.4,569.6,55.1,569,56.6z M569,44.5c-0.7,1.3-2.1,2.2-3,1.9c-0.9-0.3-1-1.5-0.3-2.7
			c0.7-1.2,2-2.1,2.9-1.9C569.5,42,569.7,43.2,569,44.5z M565.8,51c-0.6,1.4-1.9,2.3-2.8,1.9c-0.8-0.4-1-1.8-0.4-3.1
			c0.6-1.3,1.8-2.2,2.7-1.9C566.2,48.2,566.4,49.6,565.8,51z M562.4,54.5c0.9,0.4,1.2,1.9,0.6,3.4c-0.5,1.4-1.6,2.2-2.4,1.7
			c-0.8-0.5-1-2-0.6-3.3C560.5,54.9,561.6,54.1,562.4,54.5z M560.1,61.3c0.8,0.5,1.2,2.1,0.8,3.5c-0.4,1.4-1.3,2-2.1,1.4
			c-0.7-0.6-1.1-2.1-0.7-3.4C558.4,61.4,559.3,60.7,560.1,61.3z M560.7,68.5c0.3-1.4,1.4-2,2.3-1.4c1,0.7,1.6,2.3,1.2,3.8
			c-0.4,1.4-1.4,1.9-2.4,1.2C560.9,71.5,560.4,69.9,560.7,68.5z M563.5,65.5c-1-0.6-1.4-2.2-1-3.7c0.5-1.5,1.7-2.2,2.7-1.7
			c1.1,0.6,1.6,2.3,1.1,3.8C565.8,65.4,564.5,66.1,563.5,65.5z M566,67.9c0.4-1.5,1.8-2.2,3-1.5c1.3,0.7,1.9,2.5,1.4,4
			c-0.5,1.5-1.9,2.1-3.1,1.4C566.1,71.1,565.5,69.4,566,67.9z M569.6,64.6c-1.2-0.6-1.8-2.4-1.2-3.9c0.6-1.6,2.1-2.3,3.4-1.8
			c1.3,0.6,1.9,2.4,1.3,4C572.4,64.5,570.9,65.3,569.6,64.6z M572.5,57c-1.3-0.6-1.8-2.3-1.1-3.8c0.7-1.5,2.3-2.4,3.6-1.9
			c1.4,0.5,1.9,2.2,1.2,3.8C575.5,56.8,573.8,57.6,572.5,57z M575.5,59.5c0.7-1.6,2.4-2.4,3.9-1.8c1.5,0.6,2.2,2.5,1.5,4.2
			c-0.7,1.7-2.5,2.5-4,1.8C575.5,63,574.9,61.1,575.5,59.5z M580.3,55.8c-1.5-0.6-2.1-2.4-1.4-4c0.7-1.6,2.5-2.4,4-1.8
			c1.5,0.6,2.2,2.3,1.5,3.9C583.7,55.6,581.8,56.4,580.3,55.8z M583.7,48.2c-1.5-0.5-2.1-2.1-1.4-3.6c0.7-1.4,2.5-2.1,4-1.6
			c1.5,0.5,2.2,2.1,1.5,3.5C587.1,48,585.3,48.8,583.7,48.2z M587.2,41.5c-1.5-0.5-2.1-1.8-1.3-3.1c0.7-1.2,2.4-1.8,3.8-1.4
			c1.5,0.4,2.1,1.8,1.5,3C590.5,41.3,588.7,41.9,587.2,41.5z M586.6,35.4c-0.7,1.1-2.4,1.7-3.7,1.4c-1.3-0.3-1.7-1.4-1-2.4
			c0.7-1,2.3-1.6,3.6-1.3C586.7,33.3,587.3,34.4,586.6,35.4z M582.7,29.4c-1.1-0.1-1.4-0.7-0.7-1.3c0.7-0.6,2-1,3.1-1
			c1.1,0.1,1.5,0.6,0.9,1.3C585.2,29,583.8,29.5,582.7,29.4z M582.8,26.7c-0.7,0.5-2,1-3,1c-0.9,0-1.1-0.3-0.4-0.8
			c0.7-0.5,1.9-0.9,2.8-1C583.2,25.8,583.4,26.2,582.8,26.7z M579.1,28.4c1,0,1.2,0.5,0.5,1.2c-0.7,0.7-2.1,1.3-3.1,1.3
			c-0.9,0-1.1-0.6-0.4-1.3C576.8,29,578.1,28.4,579.1,28.4z M576.1,33.6c-0.8,1-2.2,1.7-3.2,1.6c-0.9-0.1-1.1-0.9-0.3-1.8
			c0.7-0.9,2.1-1.6,3-1.5C576.6,31.9,576.8,32.7,576.1,33.6z M572.5,38.6c-0.8,1.2-2.2,2-3.1,1.8c-0.9-0.2-1-1.2-0.3-2.3
			c0.7-1.1,2.1-1.8,3-1.8C573.1,36.5,573.3,37.5,572.5,38.6z M570.2,35.7c-0.7,1-2,1.8-2.8,1.8c-0.7,0-0.7-0.8,0-1.7
			c0.7-0.9,1.9-1.7,2.6-1.7C570.9,34,571,34.7,570.2,35.7z M566.8,40.7c-0.7,1.2-1.9,2-2.6,1.9c-0.7-0.1-0.7-1.1,0-2.2
			c0.7-1.1,1.8-1.9,2.5-1.8C567.4,38.7,567.5,39.6,566.8,40.7z M563.5,46.6c-0.6,1.3-1.7,2.1-2.4,1.9c-0.6-0.2-0.7-1.4-0.1-2.6
			c0.6-1.2,1.6-2,2.3-1.9C564.1,44.1,564.2,45.3,563.5,46.6z M560.7,52.8c-0.5,1.3-1.5,2.1-2.1,1.8c-0.6-0.3-0.7-1.6-0.2-2.9
			c0.5-1.3,1.4-2.1,2-1.8C561.1,50.2,561.2,51.5,560.7,52.8z M558.5,59.3c-0.4,1.3-1.2,2-1.8,1.6c-0.6-0.4-0.7-1.8-0.3-3.1
			c0.4-1.3,1.1-2,1.7-1.6C558.7,56.5,558.9,57.9,558.5,59.3z M556.8,68.9c0.2-1.2,0.9-1.8,1.7-1.2c0.8,0.6,1.2,2.2,1,3.5
			c-0.2,1.3-1,1.7-1.7,1.1C557,71.6,556.6,70.1,556.8,68.9z M560.8,78.1c-0.9-0.7-1.4-2.2-1.3-3.4c0.2-1.2,1-1.7,2-1
			c1,0.7,1.6,2.3,1.3,3.6C562.6,78.5,561.7,78.8,560.8,78.1z M564.3,88.5c-1-0.7-1.7-2-1.7-3c0-1,0.9-1.1,1.9-0.4
			c1,0.8,1.8,2.2,1.7,3.1C566.1,89.2,565.3,89.3,564.3,88.5z M567,83.3c-0.2,1.1-1.3,1.4-2.3,0.6c-1-0.7-1.7-2.2-1.6-3.4
			c0.2-1.2,1.2-1.5,2.3-0.8C566.5,80.6,567.2,82.2,567,83.3z M565.7,78.4c-1.1-0.7-1.8-2.4-1.5-3.7c0.3-1.4,1.5-1.9,2.7-1.2
			c1.2,0.7,1.9,2.5,1.5,3.8C568,78.7,566.8,79.1,565.7,78.4z M573.2,83.7c-0.4,1.2-1.7,1.6-3,0.8c-1.3-0.7-2-2.3-1.7-3.6
			c0.3-1.3,1.6-1.7,2.9-1C572.7,80.8,573.5,82.5,573.2,83.7z M575.2,77.2c-0.5,1.4-2,2-3.4,1.2c-1.3-0.7-2.1-2.5-1.6-3.9
			c0.4-1.5,1.9-2.1,3.3-1.4C575,73.9,575.7,75.7,575.2,77.2z M574.1,71.4c-1.4-0.7-2.1-2.6-1.5-4.1c0.6-1.6,2.2-2.3,3.7-1.7
			c1.5,0.7,2.2,2.6,1.6,4.2C577.3,71.4,575.6,72.1,574.1,71.4z M583.2,76.7c-0.6,1.5-2.4,2.2-3.9,1.4c-1.5-0.7-2.3-2.6-1.8-4.1
			c0.6-1.6,2.3-2.3,3.9-1.5C583,73.3,583.8,75.1,583.2,76.7z M586.3,68.9c-0.7,1.7-2.6,2.4-4.2,1.7c-1.6-0.7-2.3-2.6-1.7-4.3
			c0.7-1.7,2.5-2.5,4.1-1.8C586.2,65.3,587,67.2,586.3,68.9z M589.7,60.8c-0.7,1.7-2.6,2.5-4.3,1.8c-1.6-0.7-2.4-2.6-1.6-4.3
			c0.7-1.7,2.6-2.5,4.2-1.8C589.7,57.2,590.4,59.1,589.7,60.8z M593.1,52.9c-0.7,1.6-2.6,2.4-4.3,1.7c-1.6-0.7-2.3-2.5-1.6-4.1
			c0.7-1.5,2.6-2.3,4.2-1.7C593.1,49.5,593.8,51.3,593.1,52.9z M594.7,42.1c1.6,0.6,2.3,2.2,1.7,3.6c-0.7,1.4-2.5,2.1-4.1,1.5
			c-1.6-0.6-2.3-2.2-1.6-3.6C591.3,42.2,593.1,41.5,594.7,42.1z M592.7,32.2c1.4,0.4,2,1.4,1.5,2.4c-0.6,1-2.3,1.5-3.7,1.1
			c-1.4-0.4-2-1.5-1.3-2.5C589.8,32.3,591.4,31.9,592.7,32.2z M588.5,29.1c1.2,0.2,1.8,1,1.2,1.8c-0.6,0.8-2.2,1.3-3.5,1.1
			c-1.3-0.2-1.7-1.1-1-1.9C585.8,29.4,587.3,28.9,588.5,29.1z M587.9,24.9c1,0,1.4,0.4,0.9,0.8c-0.6,0.5-1.9,0.8-3,0.7
			c-1-0.1-1.4-0.4-0.8-0.9C585.6,25.1,586.8,24.8,587.9,24.9z M582.1,25.2c1.2-0.4,2.5-0.6,3.8-0.9c0.2,0.1,0.1,0.2-0.2,0.4
			c-0.6,0.3-1.8,0.7-2.8,0.7C582.3,25.5,582,25.4,582.1,25.2z M580.7,25.6c-0.1,0.1-0.2,0.2-0.3,0.3c-0.6,0.4-1.9,0.9-2.7,1
			c-0.2,0-0.4,0-0.5,0C578.4,26.4,579.5,26,580.7,25.6z M574.3,28.7c0.7-0.5,1.8-1.1,2.6-1.2c0.8-0.1,0.9,0.2,0.2,0.8
			c-0.7,0.6-2,1.2-2.8,1.3C573.7,29.6,573.6,29.2,574.3,28.7z M573.8,31.5c-0.7,0.8-2,1.5-2.8,1.5c-0.8,0.1-0.8-0.5,0-1.3
			c0.7-0.7,1.9-1.4,2.7-1.5C574.4,30.2,574.5,30.7,573.8,31.5z M569.4,31.4c1-0.7,2-1.4,3-2c0.5-0.1,0.4,0.3-0.2,0.8
			c-0.7,0.6-1.8,1.3-2.5,1.5C569.3,31.8,569.2,31.6,569.4,31.4z M566.6,34.1c0.7-0.8,1.7-1.5,2.3-1.6c0.6-0.1,0.6,0.4-0.1,1.2
			c-0.7,0.8-1.8,1.6-2.4,1.7C565.7,35.5,565.9,34.9,566.6,34.1z M565.3,38c-0.7,1-1.7,1.8-2.3,1.8c-0.5,0-0.4-0.7,0.3-1.7
			c0.7-0.9,1.6-1.7,2.2-1.8C566.1,36.3,566,37,565.3,38z M565.1,34.9c0.2,0,0,0.5-0.5,1.2c-0.7,0.8-1.6,1.6-2,1.7
			c-0.1,0-0.2,0-0.2-0.1C563.2,36.8,564.1,35.9,565.1,34.9z M562.1,43c-0.6,1.1-1.6,2-2.1,1.9c-0.5-0.1-0.4-1,0.2-2.1
			c0.6-1,1.5-1.9,2-1.8C562.8,41,562.8,41.9,562.1,43z M559.8,41.1c0.4-0.5,0.7-1,1.1-1.5c0.4-0.4,0.7-0.6,0.9-0.7
			c0.4-0.1,0.2,0.6-0.4,1.6c-0.6,1-1.4,1.8-1.8,1.8C559.3,42.3,559.4,41.8,559.8,41.1z M559.4,46.2c0.5,0.1,0.5,1.2-0.1,2.4
			c-0.5,1.2-1.4,2-1.8,1.8c-0.4-0.2-0.4-1.3,0.1-2.4C558.1,46.9,558.9,46.1,559.4,46.2z M557.4,45.2c0.5-1,1.2-1.8,1.5-1.8
			c0.4,0,0.2,0.9-0.4,1.9c-0.6,1.1-1.2,1.9-1.6,1.8C556.7,47.1,556.9,46.2,557.4,45.2z M556.9,51.8c0.5,0.2,0.5,1.4,0,2.7
			c-0.4,1.2-1.1,2-1.5,1.6c-0.4-0.3-0.4-1.5,0-2.6C555.8,52.4,556.5,51.6,556.9,51.8z M556.2,47.3c0,0.1-0.1,0.2-0.1,0.3
			c-0.1,0.2-0.1,0.3-0.2,0.4C556,47.8,556.1,47.5,556.2,47.3z M555.2,50.1c0.4-1.1,1-1.8,1.3-1.7c0.3,0.1,0.2,1.1-0.3,2.2
			c-0.4,1.1-1,1.9-1.3,1.7C554.7,52.2,554.8,51.2,555.2,50.1z M553.5,55.2c0.3-1.1,0.7-1.8,1-1.6c0.3,0.2,0.2,1.3-0.1,2.5
			c-0.3,1.1-0.8,1.8-1,1.5C553.1,57.3,553.2,56.2,553.5,55.2z M552.5,66.6c0,0.5-0.1,0.8-0.2,1c-0.1-1.2-0.1-2.5-0.1-3.7
			c0,0,0,0,0,0C552.4,64.4,552.6,65.6,552.5,66.6z M552.4,62.8c0-0.1-0.1-0.2-0.1-0.3c0.1-1.1,0.2-2.2,0.3-3.4
			c0.1-0.3,0.3-0.4,0.4-0.3c0.2,0.3,0.2,1.5,0,2.6C552.9,62.6,552.6,63.2,552.4,62.8z M553.2,68.5c0.3,0.5,0.6,1.8,0.6,2.9
			c0,1-0.3,1.3-0.6,0.8c-0.3-0.6-0.5-1.8-0.5-2.8C552.6,68.4,552.8,68,553.2,68.5z M553.9,76.7c-0.3-1.2-0.6-2.4-0.9-3.7
			c0,0.1,0.1,0.1,0.2,0.2c0.3,0.6,0.7,1.8,0.7,2.7C553.9,76.3,553.9,76.5,553.9,76.7z M554.8,73.5c0.5,0.6,0.9,2,0.9,3
			c0,1-0.4,1.2-0.9,0.5c-0.5-0.6-0.8-1.9-0.9-2.9C554,73.2,554.3,72.9,554.8,73.5z M555.5,81.2c-0.4-0.9-0.8-1.9-1.1-2.9
			c-0.1-0.7,0.2-0.8,0.6-0.2c0.5,0.7,1,1.9,1.1,2.8C556.2,81.7,555.9,81.8,555.5,81.2z M557.6,73.6c0.7,0.7,1.2,2.2,1.1,3.3
			c-0.1,1.1-0.7,1.4-1.4,0.7c-0.6-0.7-1.1-2.1-1.1-3.2C556.3,73.4,556.9,73,557.6,73.6z M557.3,78.8c0.7,0.7,1.2,2.1,1.3,3
			c0,0.9-0.5,1-1.1,0.3c-0.6-0.7-1.1-2-1.2-2.9C556.2,78.3,556.6,78.1,557.3,78.8z M556.7,83.3c-0.2-0.8,0.2-0.8,0.8-0.1
			c0.6,0.7,1.2,2,1.4,2.7c0.1,0.7-0.3,0.7-0.9,0C557.4,85.2,556.9,84,556.7,83.3z M558.2,86.6C558.2,86.6,558.2,86.6,558.2,86.6
			c0.5,0.6,1,1.3,1.2,1.9C559,87.9,558.6,87.3,558.2,86.6z M560.7,88.1c0.8,0.7,1.5,1.9,1.6,2.5c0.1,0.6-0.4,0.5-1.1-0.2
			c-0.7-0.7-1.4-1.8-1.5-2.4C559.5,87.4,560,87.4,560.7,88.1z"/>
		<path class="st0" d="M654.4,39.5c-10.1-4.2-20.8-4.6-30.6-1.8c0,0,0,0,0,0c0.6,0.7,1.2,1.4,1.7,2.1c0.1,0.1,0.1,0.3,0.2,0.4
			c0.2,0.6-0.2,0.5-0.9-0.2c-0.7-0.7-1.3-1.6-1.5-2.2c-0.2,0.1-0.4,0.1-0.5,0.1c0.1,0.2,0.2,0.4,0.2,0.6c0.1,0.6-0.5,0.6-1.4-0.1
			c0,0,0,0,0,0c-0.3,0.1-0.6,0.2-0.9,0.3c0.3,0.1,0.6,0.2,1,0.5c0.9,0.7,1.7,1.9,1.7,2.7c0,0.8-0.7,0.9-1.7,0.2
			c-1-0.8-1.8-2-1.7-2.8c0-0.1,0-0.2,0.1-0.3c-0.5,0.2-0.9,0.3-1.3,0.5c0.3,0.5,0.4,0.9,0.4,1.3c-0.1,0.9-1.1,1.1-2.3,0.4
			c-0.2-0.1-0.4-0.3-0.6-0.5c-1.5,0.7-3,1.6-4.5,2.5c0.4,0.7,0.6,1.4,0.4,2.1c-0.4,1.3-1.9,1.7-3.3,1c-0.3-0.1-0.5-0.3-0.8-0.5
			c-2.1,1.6-4,3.4-5.8,5.3c0,0.4-0.1,0.8-0.2,1.1c-0.4,1-1.3,1.6-2.3,1.8c-0.6,0.7-1.1,1.5-1.7,2.3c1,0.9,1.3,2.4,0.8,3.7
			c-0.7,1.6-2.4,2.4-4.1,1.8c-0.3,0.7-0.6,1.3-0.9,2c1.6,0.8,2.3,2.7,1.6,4.3c-0.7,1.5-2.3,2.3-3.9,1.9c-0.2,0.7-0.4,1.5-0.6,2.2
			c1.2,0.9,1.7,2.5,1.1,3.8c-0.4,0.9-1.2,1.5-2,1.8c-0.3,2.7-0.4,5.4-0.2,8c0.8-0.4,1.8-0.4,2.7-0.1c1.6,0.6,2.3,2.1,1.6,3.4
			c-0.6,1.2-2.3,1.8-3.8,1.3c0.1,0.7,0.2,1.4,0.4,2.1c0.6,0.6,0.7,1.3,0.4,2c0.2,0.7,0.4,1.3,0.5,2c0.7-0.3,1.7-0.4,2.6-0.2
			c1.4,0.4,2,1.4,1.4,2.2c-0.5,0.7-1.7,1.1-2.9,1c0.4,1.1,0.9,2.2,1.4,3.3c0.5-0.1,1-0.1,1.6,0c1.2,0.2,1.6,0.7,1.1,1.2
			c-0.3,0.3-1,0.5-1.8,0.6c0.3,0.5,0.5,1,0.8,1.5c0.3,0,0.5,0,0.8,0c0.4,0,0.7,0,0.9,0.1c-0.5,0.1-1,0.1-1.5,0.1
			c5,8.7,12.8,15.9,22.8,20.1c24,9.9,51.4-1.5,61.3-25.4S678.4,49.4,654.4,39.5z M633.6,59.7c0.1,1.2,0.2,2.4,0.3,3.5c0,0,0,0,0,0
			c-0.2-0.5-0.3-1.7-0.3-2.6C633.6,60.1,633.6,59.9,633.6,59.7z M633,56.1c0.1,0.4,0.2,0.9,0.3,1.3c0,0.2,0,0.3,0,0.4
			c0,0.9-0.2,1.3-0.5,0.7c-0.3-0.6-0.6-1.9-0.7-2.8c0-0.9,0.2-1.2,0.5-0.6C632.8,55.4,632.9,55.8,633,56.1z M633.3,62.6
			c-0.1,1-0.4,1.5-0.7,1c-0.4-0.5-0.6-1.8-0.5-2.9c0.1-1.1,0.4-1.5,0.8-0.9C633.2,60.3,633.4,61.5,633.3,62.6z M632.6,54.1
			c-0.3-0.6-0.7-1.8-0.8-2.6c0,0,0-0.1,0-0.1C632,52.3,632.3,53.2,632.6,54.1z M628.6,54.4c0.7,0.7,1.1,2.1,1,3.2
			c-0.1,1.2-0.8,1.6-1.5,1c-0.7-0.7-1.2-2.2-1.1-3.4C627.2,54.1,627.9,53.7,628.6,54.4z M627.4,50c0-1,0.6-1.2,1.2-0.5
			c0.6,0.7,1.1,2,1.1,3c0,1-0.5,1.3-1.2,0.6C627.9,52.5,627.4,51,627.4,50z M627.8,60.1c0.7,0.6,1.1,2.1,0.8,3.4
			c-0.3,1.3-1.1,1.9-1.8,1.4c-0.8-0.6-1.2-2.2-0.9-3.5C626.2,60,627.1,59.5,627.8,60.1z M626.4,66.5c0.8,0.5,1.1,2,0.7,3.4
			c-0.4,1.4-1.4,2.1-2.2,1.6c-0.8-0.5-1.2-2.1-0.7-3.5C624.6,66.6,625.6,65.9,626.4,66.5z M608.6,83.3c1.3,0.4,1.8,1.9,1,3.3
			c-0.7,1.3-2.4,2.1-3.7,1.7c-1.4-0.4-1.9-1.8-1.2-3.2C605.5,83.6,607.2,82.8,608.6,83.3z M608.3,77.9c0.7-1.6,2.4-2.4,3.8-1.9
			c1.3,0.5,1.8,2.2,1.1,3.7c-0.7,1.5-2.3,2.3-3.7,1.9C608.1,81.1,607.5,79.5,608.3,77.9z M605,89.8c1.3,0.3,1.8,1.6,1,2.7
			c-0.7,1.1-2.4,1.8-3.7,1.5c-1.3-0.3-1.9-1.5-1.2-2.7C602,90.1,603.7,89.4,605,89.8z M605.2,95.3c0.7-1,2.3-1.7,3.5-1.5
			c1.1,0.2,1.4,1.1,0.7,2.1c-0.7,0.9-2.2,1.6-3.3,1.5C604.8,97.2,604.4,96.3,605.2,95.3z M609.5,92.5c-1.2-0.2-1.5-1.4-0.8-2.6
			c0.8-1.3,2.3-2,3.5-1.8c1.1,0.3,1.4,1.5,0.7,2.6C612.1,92,610.6,92.7,609.5,92.5z M613.1,86.6c-1.2-0.3-1.6-1.7-0.8-3.1
			c0.7-1.4,2.3-2.3,3.4-1.9c1.1,0.4,1.4,1.8,0.7,3.1C615.7,86.1,614.2,86.9,613.1,86.6z M618.8,74.6c1.1,0.5,1.4,2,0.8,3.5
			c-0.6,1.4-2,2.3-3.1,1.9c-1.2-0.4-1.6-2-0.9-3.5C616.3,75,617.7,74.1,618.8,74.6z M618.5,69.1c0.6-1.5,1.9-2.3,2.9-1.7
			c1,0.6,1.4,2.2,0.9,3.7c-0.5,1.5-1.8,2.3-2.8,1.8C618.4,72.4,618,70.7,618.5,69.1z M615.4,88c0.7-1.3,2.1-2.1,3.1-1.9
			c0.9,0.2,1,1.4,0.3,2.5c-0.7,1.2-2,2-2.9,1.8C614.9,90.4,614.7,89.3,615.4,88z M618.8,81.7c0.7-1.4,2-2.2,2.9-1.9
			c0.9,0.3,1,1.6,0.4,2.9c-0.6,1.3-1.9,2.1-2.8,1.9C618.3,84.4,618.1,83.1,618.8,81.7z M622.4,78.2c-0.9-0.4-1.2-1.8-0.6-3.3
			c0.6-1.4,1.7-2.2,2.6-1.8c0.8,0.4,1,1.9,0.5,3.2C624.3,77.7,623.2,78.6,622.4,78.2z M624.5,64.2c-0.4,1.4-1.5,2.1-2.5,1.5
			c-1.1-0.6-1.6-2.3-1.1-3.8c0.4-1.4,1.6-2.1,2.6-1.4C624.4,61.2,624.9,62.9,624.5,64.2z M621.1,58c-0.4,1.4-1.6,2-2.8,1.3
			c-1.2-0.7-1.9-2.5-1.5-3.9c0.4-1.4,1.7-1.9,2.9-1.2C620.8,54.9,621.4,56.6,621.1,58z M617.7,61.1c1.2,0.7,1.8,2.4,1.3,3.9
			c-0.5,1.5-1.9,2.3-3.2,1.6c-1.3-0.7-1.9-2.5-1.4-4.1C615,61.1,616.4,60.4,617.7,61.1z M615.1,68.5c1.3,0.6,1.8,2.4,1.2,3.9
			c-0.6,1.6-2.2,2.4-3.5,1.8c-1.4-0.6-1.9-2.3-1.3-4C612.2,68.7,613.8,67.9,615.1,68.5z M612.1,66c-0.6,1.6-2.3,2.4-3.8,1.7
			c-1.5-0.7-2.2-2.6-1.6-4.2c0.6-1.6,2.4-2.4,3.9-1.7C612,62.5,612.7,64.4,612.1,66z M607.5,69.7c1.5,0.6,2.1,2.5,1.4,4.1
			c-0.7,1.6-2.5,2.4-4,1.8c-1.5-0.6-2.2-2.5-1.5-4.1C604.2,69.8,606,69,607.5,69.7z M604.1,77.5c1.5,0.6,2.1,2.3,1.4,3.8
			c-0.7,1.5-2.5,2.3-4,1.8c-1.5-0.5-2.2-2.2-1.5-3.8C600.7,77.7,602.6,76.9,604.1,77.5z M600.6,84.7c1.5,0.5,2.1,2,1.3,3.4
			c-0.7,1.3-2.5,2-3.9,1.5c-1.5-0.5-2.2-1.9-1.5-3.3C597.3,84.9,599.1,84.2,600.6,84.7z M601.6,95.3c1.3,0.3,1.7,1.3,1,2.2
			c-0.7,0.9-2.2,1.4-3.5,1.2c-1.3-0.2-1.8-1.2-1.2-2.1C598.6,95.6,600.2,95,601.6,95.3z M602.6,101.2c-1.1-0.1-1.5-0.8-0.9-1.5
			c0.7-0.8,2.2-1.4,3.4-1.2c1.1,0.1,1.4,0.8,0.7,1.6C605.1,100.7,603.7,101.3,602.6,101.2z M602.6,103c-0.6,0.5-2,0.9-3,0.9
			c-1.1,0-1.5-0.5-0.9-1.1c0.6-0.6,2-1,3.2-0.9C602.9,102,603.3,102.5,602.6,103z M604.9,101.7c0.7-0.6,2.1-1.2,3-1.2
			c0.9,0,1.1,0.5,0.4,1.1c-0.7,0.6-2,1.1-2.9,1.1C604.5,102.7,604.2,102.3,604.9,101.7z M608.3,98.1c0.7-0.9,2.2-1.5,3.1-1.5
			c0.9,0,1.1,0.7,0.3,1.6c-0.7,0.8-2,1.4-3,1.4C607.8,99.6,607.6,99,608.3,98.1z M611.8,93.6c0.8-1.1,2.2-1.8,3.2-1.7
			c0.9,0.1,1.1,1,0.3,2.1c-0.7,1-2.1,1.7-3,1.7C611.3,95.5,611.1,94.6,611.8,93.6z M614.1,96.2c0.7-0.9,2-1.7,2.8-1.7
			c0.7,0,0.7,0.7,0,1.5c-0.7,0.8-1.9,1.5-2.7,1.6C613.5,97.7,613.4,97.1,614.1,96.2z M617.7,91.5c0.7-1.1,1.9-1.9,2.7-1.8
			c0.7,0.1,0.7,1,0,2c-0.7,1-1.8,1.8-2.6,1.8C617,93.4,616.9,92.5,617.7,91.5z M621,86c0.7-1.2,1.8-2.1,2.5-1.9
			c0.7,0.2,0.7,1.3,0,2.4c-0.6,1.1-1.7,2-2.4,1.9C620.4,88.2,620.3,87.2,621,86z M624,79.8c0.6-1.3,1.6-2.1,2.3-1.8
			c0.6,0.3,0.7,1.5,0.1,2.7c-0.5,1.2-1.5,2.1-2.2,1.9C623.6,82.4,623.5,81.2,624,79.8z M626.6,73.4c0.5-1.3,1.3-2.1,1.9-1.7
			c0.6,0.4,0.7,1.7,0.3,3c-0.4,1.3-1.3,2-1.9,1.7C626.2,76.2,626.1,74.8,626.6,73.4z M628.9,70.2c-0.6-0.4-0.8-1.9-0.5-3.2
			c0.3-1.3,1-1.9,1.6-1.4c0.5,0.5,0.7,1.9,0.4,3.1C630.2,70,629.5,70.7,628.9,70.2z M630.3,64.2c-0.6-0.5-0.9-2-0.7-3.2
			c0.2-1.2,0.7-1.7,1.3-1.1c0.5,0.6,0.8,1.9,0.6,3.1C631.4,64.2,630.8,64.7,630.3,64.2z M630.8,50.4c0.4,0.7,0.9,1.9,1,2.7
			c0.1,0.9-0.2,1.1-0.7,0.5c-0.5-0.7-0.9-2-1-2.9C630,49.9,630.4,49.7,630.8,50.4z M631,58.6c-0.5-0.6-0.9-2-0.9-3.1
			c0-1.1,0.5-1.4,1-0.7c0.5,0.6,0.8,1.9,0.8,3C631.9,58.8,631.5,59.2,631,58.6z M629.6,46.3c0.6,1.2,1.1,2.3,1.6,3.6
			c-0.1,0.1-0.2,0-0.5-0.4c-0.5-0.7-1-1.9-1.1-2.6C629.4,46.4,629.5,46.3,629.6,46.3z M628.6,48.5c-0.6-0.7-1.2-2-1.3-2.9
			c-0.1-0.8,0.4-0.9,1-0.1c0.6,0.7,1.2,1.9,1.3,2.7C629.6,49,629.2,49.2,628.6,48.5z M627.1,41.9c0.6,0.9,1.1,1.8,1.7,2.7l0,0
			c0.2,0.7-0.1,0.7-0.7,0c-0.6-0.7-1.2-1.9-1.4-2.5C626.5,41.6,626.7,41.6,627.1,41.9z M626.9,47.2c0,0.9-0.6,1.1-1.4,0.4
			c-0.9-0.8-1.5-2.1-1.5-3.1c0-0.9,0.7-1,1.5-0.2C626.2,45,626.9,46.3,626.9,47.2z M625,40.7c0.7,0.7,1.4,1.8,1.5,2.6
			c0.1,0.7-0.4,0.8-1.2,0.1c-0.8-0.7-1.5-2-1.6-2.7C623.7,39.9,624.3,40,625,40.7z M623.6,49.4c0.1-1.1,1-1.4,1.8-0.6
			c0.8,0.7,1.4,2.2,1.3,3.3c-0.1,1.1-0.9,1.5-1.8,0.8C624.1,52.1,623.4,50.6,623.6,49.4z M624.8,54.3c0.9,0.7,1.4,2.3,1.2,3.5
			c-0.2,1.3-1.2,1.8-2.1,1.2c-1-0.7-1.6-2.4-1.3-3.7C622.8,54,623.8,53.5,624.8,54.3z M619.4,43.6c0.1-1,1.1-1.2,2.1-0.4
			c1,0.7,1.7,2.1,1.6,3.1c-0.1,1-1,1.3-2.1,0.6C620,46.1,619.3,44.6,619.4,43.6z M618.4,49c0.3-1.2,1.4-1.6,2.5-0.8
			c1.1,0.7,1.8,2.3,1.5,3.5c-0.2,1.2-1.3,1.7-2.4,1C618.8,51.9,618.1,50.2,618.4,49z M613.7,42.9c0.3-1.1,1.5-1.4,2.8-0.6
			c1.2,0.7,2,2.2,1.8,3.3c-0.2,1.2-1.5,1.5-2.7,0.8C614.2,45.6,613.3,44.1,613.7,42.9z M611.9,48.9c0.4-1.3,1.8-1.8,3.2-1
			c1.3,0.7,2.1,2.4,1.7,3.7c-0.4,1.4-1.8,1.9-3.1,1.2C612.3,52,611.5,50.2,611.9,48.9z M613.1,54.4c1.4,0.7,2.1,2.5,1.6,4
			c-0.5,1.5-2.1,2.2-3.5,1.5c-1.5-0.7-2.2-2.6-1.7-4.2C610.1,54.3,611.7,53.7,613.1,54.4z M604.3,49c0.5-1.4,2.2-2,3.7-1.3
			c1.5,0.7,2.3,2.5,1.8,3.9c-0.5,1.5-2.2,2.1-3.7,1.4C604.5,52.3,603.7,50.5,604.3,49z M601.4,56.4c0.6-1.6,2.5-2.3,4-1.6
			c1.6,0.7,2.3,2.6,1.7,4.2c-0.6,1.6-2.4,2.4-4,1.6C601.5,60,600.7,58.1,601.4,56.4z M598.1,64.4c0.7-1.7,2.6-2.5,4.2-1.8
			c1.6,0.7,2.4,2.6,1.7,4.3c-0.7,1.7-2.6,2.5-4.2,1.8C598.2,68.1,597.4,66.1,598.1,64.4z M594.7,72.5c0.7-1.7,2.6-2.5,4.3-1.8
			c1.6,0.7,2.4,2.6,1.6,4.2c-0.7,1.6-2.6,2.4-4.2,1.8C594.8,76,594,74.2,594.7,72.5z M593,84c-1.6-0.6-2.4-2.3-1.7-3.8
			c0.7-1.5,2.6-2.3,4.2-1.6c1.6,0.6,2.3,2.4,1.6,3.9C596.5,83.9,594.6,84.6,593,84z M594.8,95.1c-1.4-0.4-2.1-1.6-1.5-2.7
			c0.6-1.2,2.4-1.7,3.9-1.3c1.4,0.4,2,1.7,1.3,2.8C597.9,94.9,596.2,95.5,594.8,95.1z M596.1,102.1c-1.2-0.2-1.8-0.9-1.2-1.6
			c0.6-0.7,2.1-1.1,3.4-0.9c1.2,0.2,1.7,1,1,1.7C598.8,101.9,597.3,102.3,596.1,102.1z M597,105.7c-1,0-1.4-0.3-0.9-0.7
			c0.5-0.4,1.8-0.6,2.9-0.6c1,0,1.4,0.4,0.8,0.7C599.2,105.5,597.9,105.7,597,105.7z M599,105.8C599,105.8,599,105.8,599,105.8
			c0.6-0.3,1.8-0.6,2.7-0.7c0.3,0,0.5,0,0.6,0C601.2,105.5,600.1,105.7,599,105.8z M602.4,104.8c-0.9,0.1-1.2-0.2-0.6-0.6
			c0.6-0.4,1.9-0.8,2.9-0.9c0.9,0,1.1,0.3,0.5,0.7C604.5,104.4,603.3,104.7,602.4,104.8z M604.7,104.6c0.6-0.2,1.3-0.5,1.9-0.6
			C606,104.2,605.3,104.4,604.7,104.6z M610.2,102.3c-0.7,0.5-1.8,1-2.6,1.1c-0.8,0.1-0.9-0.1-0.3-0.6c0.7-0.5,1.9-1,2.7-1.2
			C610.8,101.5,610.9,101.8,610.2,102.3z M610.6,100c0.7-0.7,2-1.4,2.8-1.4c0.8-0.1,0.8,0.4,0.1,1.1c-0.7,0.6-1.9,1.3-2.7,1.4
			C610,101.1,609.9,100.6,610.6,100z M615.2,99.6c-1.1,0.7-2.2,1.4-3.3,2c-0.2,0,0-0.3,0.4-0.7c0.7-0.6,1.8-1.2,2.5-1.4
			C615.1,99.5,615.3,99.5,615.2,99.6z M618,97.3c-0.7,0.7-1.7,1.4-2.3,1.5c-0.6,0.2-0.6-0.3,0.1-1c0.7-0.7,1.8-1.5,2.5-1.6
			C618.8,96.1,618.7,96.6,618,97.3z M619.1,93.9c0.7-0.9,1.8-1.7,2.4-1.8c0.5,0,0.4,0.6-0.3,1.5c-0.7,0.8-1.7,1.6-2.3,1.7
			C618.4,95.4,618.4,94.8,619.1,93.9z M619.4,96.5c-0.2,0,0-0.4,0.5-1c0.7-0.8,1.6-1.5,2.1-1.7c0.2-0.1,0.2,0,0.2,0.1
			C621.3,94.8,620.4,95.6,619.4,96.5z M622.5,89.1c0.7-1.1,1.7-1.9,2.2-1.9c0.5,0,0.4,0.9-0.2,1.9c-0.6,1-1.6,1.8-2.1,1.8
			C621.7,91,621.8,90.2,622.5,89.1z M624.6,91.1c-0.6,0.8-1.4,1.6-1.8,1.7c-0.4,0.1-0.3-0.5,0.4-1.4c0.7-0.9,1.5-1.7,1.9-1.8
			C625.4,89.6,625.2,90.2,624.6,91.1z M625.5,83.7c0.6-1.2,1.5-2,2-1.9c0.4,0.1,0.4,1.2-0.2,2.3c-0.5,1.1-1.4,1.9-1.9,1.8
			C624.8,85.9,624.9,84.9,625.5,83.7z M625.9,89.5c0.1-0.2,0.2-0.4,0.4-0.6c0.3-0.5,0.6-0.9,0.9-1.2
			C626.8,88.3,626.4,88.9,625.9,89.5z M627.4,86.7c-0.5,1-1.3,1.8-1.6,1.8c-0.4,0-0.2-0.7,0.4-1.8c0.6-1,1.3-1.9,1.7-1.8
			C628.2,85,628,85.8,627.4,86.7z M628,80.5c-0.5-0.2-0.5-1.4,0-2.6c0.5-1.2,1.2-2,1.7-1.7c0.4,0.3,0.4,1.4-0.1,2.6
			C629.2,79.9,628.5,80.7,628,80.5z M628.3,85.9c0-0.3,0.3-0.8,0.6-1.5c0.4-0.8,0.8-1.4,1-1.6C629.4,83.8,628.9,84.8,628.3,85.9z
			 M629.8,82c-0.5,1-1.1,1.8-1.4,1.8c-0.3-0.1-0.2-1,0.3-2.1c0.5-1.1,1.1-1.9,1.4-1.8C630.5,80,630.3,80.9,629.8,82z M630.2,74.8
			c-0.4-0.3-0.5-1.6-0.1-2.8c0.3-1.2,1-1.9,1.3-1.5c0.4,0.4,0.4,1.6,0.1,2.7C631.2,74.4,630.6,75.1,630.2,74.8z M630.7,81
			c-0.1,0.1-0.1,0.2-0.2,0.4c0-0.3,0.2-1,0.5-1.8c0.3-0.8,0.6-1.4,0.8-1.6C631.5,79,631.1,80,630.7,81z M631.8,76.9
			c-0.4,1.1-0.9,1.8-1.1,1.6c-0.3-0.2-0.2-1.2,0.2-2.4c0.4-1.1,0.9-1.9,1.1-1.6C632.2,74.8,632.1,75.9,631.8,76.9z M631.7,69.1
			c-0.4-0.4-0.5-1.7-0.3-2.9c0.2-1.2,0.7-1.7,1-1.2c0.3,0.5,0.5,1.7,0.3,2.8C632.5,68.9,632.1,69.5,631.7,69.1z M632.3,76.4
			c0-0.4,0.1-1.1,0.3-1.8c0.1-0.5,0.3-0.9,0.4-1.2C632.9,74.3,632.6,75.3,632.3,76.4z M633.2,71.8c-0.2,1.1-0.6,1.7-0.8,1.4
			c-0.2-0.3-0.2-1.4,0-2.6c0.3-1.1,0.6-1.7,0.8-1.4C633.4,69.7,633.4,70.8,633.2,71.8z M633.9,67.6c-0.1,0.5-0.3,0.8-0.4,0.5
			c-0.2-0.4-0.3-1.6-0.2-2.7c0.1-1.1,0.4-1.5,0.6-1.1c0,0.1,0.1,0.3,0.1,0.4C634,65.7,633.9,66.7,633.9,67.6z"/>
	</g>
</g>
</svg>
