<?xml version="1.0" encoding="utf-8"?>
<!-- Generator: Adobe Illustrator 23.0.2, SVG Export Plug-In . SVG Version: 6.00 Build 0)  -->
<svg version="1.1" id="Calque_1" xmlns="http://www.w3.org/2000/svg" xmlns:xlink="http://www.w3.org/1999/xlink" x="0px" y="0px"
	 viewBox="0 0 180.8 129.9" style="enable-background:new 0 0 180.8 129.9;" xml:space="preserve">
<style type="text/css">
	.st0{fill:#0F57B1;}
	.st1{fill:#FF3200;}
	.st2{fill:#FFFFFF;}
</style>
<g>
	<circle class="st0" cx="133.8" cy="82.9" r="47"/>
	<circle class="st1" cx="47" cy="47" r="47"/>
	<g id="source_1_">
		<path class="st2" d="M129.6,76.4c0.3-1,0.5-2,0.8-3c-0.1,0.3-0.3,0.7-0.4,1.2C129.8,75.2,129.7,75.9,129.6,76.4z"/>
		<path class="st2" d="M127.8,81.4c0.1-0.1,0.1-0.2,0.2-0.4c0.4-1,0.8-2,1.1-3c-0.2,0.2-0.5,0.8-0.8,1.6
			C128,80.3,127.8,81.1,127.8,81.4z"/>
		<path class="st2" d="M125.6,85.9c0.6-1,1.1-2,1.6-3.1c-0.2,0.2-0.7,0.9-1,1.6C125.8,85,125.6,85.6,125.6,85.9z"/>
		<path class="st2" d="M123.2,89.5c0.4-0.6,0.9-1.2,1.3-1.8c-0.3,0.3-0.6,0.8-0.9,1.2C123.4,89.1,123.3,89.3,123.2,89.5z"/>
		<path class="st2" d="M131.2,63.2L131.2,63.2c0-1.1-0.1-2.3-0.3-3.5c0,0.2-0.1,0.5-0.1,0.9C130.9,61.5,131,62.7,131.2,63.2z"/>
		<path class="st2" d="M130.6,65.4c-0.1,1.1-0.1,2.3,0.2,2.7c0.1,0.3,0.3,0,0.4-0.5c0.1-0.9,0.1-1.9,0.1-2.8c0-0.2-0.1-0.3-0.1-0.4
			C131,63.9,130.7,64.4,130.6,65.4z"/>
		<path class="st2" d="M129.7,70.7c-0.3,1.1-0.3,2.3,0,2.6c0.2,0.3,0.6-0.4,0.8-1.4s0.2-2.2,0-2.5C130.3,69,129.9,69.6,129.7,70.7z"
			/>
		<path class="st2" d="M128.2,76.2c-0.4,1.1-0.5,2.2-0.2,2.4c0.3,0.2,0.7-0.6,1.1-1.6c0.3-1.1,0.4-2.1,0.2-2.4
			C129,74.3,128.5,75,128.2,76.2z"/>
		<path class="st2" d="M127.5,79.8c-0.3-0.1-0.9,0.6-1.4,1.8c-0.5,1.1-0.6,2.1-0.3,2.1c0.3,0.1,0.9-0.7,1.4-1.8
			C127.6,80.9,127.8,80,127.5,79.8z"/>
		<path class="st2" d="M125.1,84.9c-0.3,0-1.1,0.8-1.7,1.8c-0.6,1-0.8,1.8-0.4,1.8c0.4,0,1.1-0.8,1.6-1.8
			C125.3,85.8,125.5,85,125.1,84.9z"/>
		<path class="st2" d="M122.4,89.6c-0.4,0.1-1.2,0.9-1.9,1.8c-0.6,0.9-0.8,1.5-0.4,1.4c0.4-0.1,1.2-0.9,1.8-1.7
			C122.5,90.2,122.7,89.6,122.4,89.6z"/>
		<path class="st2" d="M117.3,95.4c-0.6,0.6-0.8,1-0.5,1c1-0.8,1.9-1.7,2.8-2.6c0-0.1,0-0.2-0.2-0.1C118.9,93.9,118,94.7,117.3,95.4
			z"/>
		<path class="st2" d="M129.9,54.1c-0.2-0.9-0.5-1.8-0.8-2.7v0.1C129.2,52.3,129.5,53.5,129.9,54.1z"/>
		<path class="st2" d="M129.5,55.8c0,1,0.3,2.2,0.7,2.8c0.3,0.5,0.5,0.2,0.5-0.7c0-0.1,0-0.3,0-0.4c-0.1-0.4-0.2-0.9-0.3-1.3
			c-0.1-0.4-0.2-0.7-0.3-0.9C129.7,54.6,129.5,54.8,129.5,55.8z"/>
		<path class="st2" d="M129.4,60.7c-0.1,1.1,0.1,2.4,0.5,2.9c0.3,0.5,0.7,0,0.7-1c0.1-1-0.1-2.3-0.5-2.8
			C129.8,59.2,129.5,59.6,129.4,60.7z"/>
		<path class="st2" d="M128.7,66.1c-0.2,1.2-0.1,2.5,0.3,2.9c0.4,0.4,0.8-0.2,1-1.3c0.2-1.1,0.1-2.4-0.3-2.8
			C129.4,64.4,128.9,65,128.7,66.1z"/>
		<path class="st2" d="M128.8,73.2c0.3-1.2,0.3-2.4-0.1-2.7c-0.4-0.4-1,0.3-1.3,1.5c-0.4,1.2-0.3,2.5,0.1,2.8
			C127.9,75.1,128.5,74.4,128.8,73.2z"/>
		<path class="st2" d="M126.9,78.7c0.4-1.2,0.5-2.3,0.1-2.6c-0.4-0.3-1.2,0.5-1.7,1.7s-0.5,2.4,0,2.6
			C125.8,80.7,126.5,79.9,126.9,78.7z"/>
		<path class="st2" d="M124.6,84.1c0.6-1.1,0.6-2.1,0.2-2.3c-0.5-0.2-1.4,0.7-2,1.9c-0.6,1.2-0.6,2.2-0.1,2.3
			C123.2,86.1,124,85.2,124.6,84.1z"/>
		<path class="st2" d="M121.7,89.1c0.6-1,0.7-1.8,0.2-1.9c-0.5,0-1.5,0.8-2.2,1.9S119,91,119.5,91C120.1,90.9,121.1,90.1,121.7,89.1
			z"/>
		<path class="st2" d="M118.8,92.1c-0.6,0.1-1.7,0.8-2.4,1.8c-0.7,0.9-0.8,1.5-0.1,1.4c0.6-0.1,1.6-0.9,2.3-1.7
			C119.2,92.7,119.4,92,118.8,92.1z"/>
		<path class="st2" d="M115.5,96.2c-0.6,0.1-1.7,0.9-2.5,1.6c-0.7,0.7-0.7,1.2-0.1,1c0.6-0.2,1.6-0.8,2.3-1.5
			C116,96.6,116.1,96.1,115.5,96.2z"/>
		<path class="st2" d="M112.1,99.6c-0.6,0.2-1.8,0.8-2.5,1.4c-0.5,0.4-0.6,0.6-0.4,0.7c1.1-0.6,2.2-1.3,3.3-2
			C112.6,99.5,112.4,99.5,112.1,99.6z"/>
		<path class="st2" d="M126.8,46.8c0.2,0.8,0.7,1.9,1.1,2.6c0.3,0.4,0.4,0.5,0.5,0.4c-0.5-1.2-1-2.4-1.6-3.6
			C126.8,46.3,126.7,46.4,126.8,46.8z"/>
		<path class="st2" d="M127.4,50.8c0.1,0.9,0.5,2.2,1,2.9c0.5,0.6,0.8,0.4,0.7-0.5s-0.5-2.1-1-2.7C127.7,49.7,127.3,49.9,127.4,50.8
			z"/>
		<path class="st2" d="M129.2,57.8c0-1-0.3-2.3-0.8-3s-0.9-0.4-1,0.7c0,1.1,0.3,2.5,0.9,3.1C128.8,59.2,129.2,58.8,129.2,57.8z"/>
		<path class="st2" d="M128.8,63c0.1-1.1-0.1-2.5-0.6-3.1s-1.1-0.1-1.3,1.1c-0.2,1.2,0.1,2.7,0.7,3.2
			C128.1,64.7,128.7,64.2,128.8,63z"/>
		<path class="st2" d="M127.3,65.6c-0.6-0.5-1.3,0.1-1.6,1.4s-0.1,2.8,0.5,3.2c0.6,0.4,1.3-0.3,1.5-1.5
			C128.1,67.5,127.9,66.1,127.3,65.6z"/>
		<path class="st2" d="M125.8,71.8c-0.6-0.4-1.5,0.3-1.9,1.7c-0.5,1.4-0.3,2.7,0.3,3.1c0.6,0.3,1.5-0.5,1.9-1.7
			C126.5,73.5,126.4,72.2,125.8,71.8z"/>
		<path class="st2" d="M123.6,78c-0.7-0.3-1.7,0.5-2.3,1.8s-0.5,2.6,0.2,2.8c0.7,0.2,1.6-0.6,2.2-1.9
			C124.3,79.5,124.2,78.3,123.6,78z"/>
		<path class="st2" d="M120.8,84.1c-0.7-0.2-1.8,0.7-2.5,1.9c-0.7,1.2-0.6,2.3,0.1,2.4c0.7,0.1,1.8-0.7,2.4-1.9
			C121.5,85.3,121.5,84.2,120.8,84.1z"/>
		<path class="st2" d="M117.7,89.6c-0.8-0.1-2,0.8-2.7,1.8c-0.7,1.1-0.7,1.9,0.1,1.9c0.7,0,1.9-0.8,2.6-1.8
			C118.4,90.6,118.4,89.7,117.7,89.6z"/>
		<path class="st2" d="M114.2,94.5c-0.8,0-2,0.8-2.8,1.7c-0.7,0.9-0.7,1.5,0.2,1.4c0.8-0.1,1.9-0.8,2.7-1.6
			C115,95.2,115,94.5,114.2,94.5z"/>
		<path class="st2" d="M110.8,99.6c0.7-0.7,0.7-1.1-0.1-1.1c-0.8,0.1-2.1,0.7-2.8,1.4c-0.7,0.7-0.6,1.1,0.2,1
			C108.9,100.8,110.1,100.2,110.8,99.6z"/>
		<path class="st2" d="M107.3,101.6c-0.8,0.1-2,0.7-2.7,1.2s-0.5,0.8,0.3,0.6c0.8-0.1,1.9-0.6,2.6-1.1
			C108.2,101.8,108.1,101.5,107.3,101.6z"/>
		<path class="st2" d="M103.9,103.9c-0.6,0.1-1.4,0.4-1.9,0.6C102.6,104.4,103.3,104.2,103.9,103.9z"/>
		<path class="st2" d="M124,42.1c0.2,0.7,0.8,1.8,1.4,2.5c0.6,0.7,0.9,0.7,0.7,0l0,0c-0.5-0.9-1.1-1.8-1.7-2.7
			C124,41.6,123.8,41.6,124,42.1z"/>
		<path class="st2" d="M124.6,45.6c0.1,0.8,0.7,2.1,1.3,2.9c0.6,0.7,1,0.6,0.9-0.3c-0.1-0.8-0.7-2-1.3-2.7
			C124.9,44.8,124.5,44.8,124.6,45.6z"/>
		<path class="st2" d="M127.1,52.5c0-1-0.5-2.3-1.1-3c-0.7-0.7-1.2-0.5-1.2,0.5s0.5,2.5,1.2,3.2C126.6,53.8,127.1,53.6,127.1,52.5z"
			/>
		<path class="st2" d="M125.9,54.4c-0.7-0.7-1.4-0.3-1.5,0.8c-0.2,1.2,0.3,2.7,1.1,3.4c0.7,0.6,1.4,0.2,1.5-1
			C127,56.6,126.5,55.1,125.9,54.4z"/>
		<path class="st2" d="M125.1,60.1c-0.8-0.6-1.6-0.1-1.9,1.2c-0.3,1.4,0.1,2.9,0.9,3.5c0.8,0.6,1.6-0.1,1.8-1.4
			C126.2,62.3,125.9,60.8,125.1,60.1z"/>
		<path class="st2" d="M124.4,69.9c0.4-1.3,0.1-2.9-0.7-3.4c-0.8-0.6-1.8,0.1-2.3,1.5c-0.4,1.4-0.1,3,0.7,3.5
			C123,72,124,71.2,124.4,69.9z"/>
		<path class="st2" d="M122.2,76.4c0.5-1.4,0.3-2.8-0.5-3.2c-0.9-0.5-2,0.3-2.6,1.8c-0.6,1.4-0.3,2.9,0.6,3.3
			C120.5,78.6,121.6,77.7,122.2,76.4z"/>
		<path class="st2" d="M119,79.8c-0.9-0.3-2.2,0.5-2.9,1.9s-0.4,2.7,0.5,3c0.9,0.2,2.1-0.6,2.8-1.9C120,81.5,119.8,80.1,119,79.8z"
			/>
		<path class="st2" d="M116.1,88.7c0.7-1.2,0.6-2.3-0.3-2.5c-1-0.2-2.3,0.6-3.1,1.9c-0.7,1.2-0.5,2.4,0.5,2.5
			C114.1,90.7,115.4,89.8,116.1,88.7z"/>
		<path class="st2" d="M109.1,93.6c-0.7,1-0.5,1.9,0.5,2c0.9,0.1,2.3-0.7,3-1.7s0.6-1.9-0.3-2.1C111.3,91.7,109.9,92.5,109.1,93.6z"
			/>
		<path class="st2" d="M106.1,99.6c0.9,0,2.3-0.6,3-1.4s0.6-1.5-0.3-1.6c-1,0-2.4,0.6-3.1,1.5C104.9,99,105.1,99.6,106.1,99.6z"/>
		<path class="st2" d="M102.8,102.7c0.9,0,2.2-0.6,2.9-1.1c0.7-0.6,0.5-1.1-0.4-1.1c-1,0-2.4,0.6-3,1.2
			C101.5,102.3,101.8,102.7,102.8,102.7z"/>
		<path class="st2" d="M102,103.3c-1,0.1-2.3,0.5-2.9,0.9c-0.6,0.4-0.3,0.7,0.6,0.6c0.9-0.1,2.1-0.4,2.7-0.9
			C103.1,103.5,102.9,103.2,102,103.3z"/>
		<path class="st2" d="M96.4,105.8C96.3,105.8,96.3,105.8,96.4,105.8c1.1-0.1,2.2-0.4,3.3-0.6c-0.1,0-0.3,0-0.6,0
			C98.1,105.3,96.9,105.5,96.4,105.8z"/>
		<path class="st2" d="M120.6,37.7c0.2,0.5,0.9,1.6,1.6,2.3c0.7,0.7,1.1,0.8,0.9,0.2c0-0.1-0.1-0.2-0.2-0.4
			c-0.5-0.7-1.1-1.4-1.7-2.1C120.7,37.3,120.5,37.3,120.6,37.7z"/>
		<path class="st2" d="M121.1,40.6c0.1,0.7,0.8,1.9,1.6,2.7c0.8,0.7,1.3,0.7,1.2-0.1c-0.1-0.7-0.8-1.8-1.5-2.6
			C121.6,40,121,39.9,121.1,40.6z"/>
		<path class="st2" d="M122.7,44.3c-0.8-0.7-1.5-0.6-1.5,0.2c0,0.9,0.7,2.3,1.5,3.1c0.8,0.7,1.5,0.5,1.4-0.4
			C124.2,46.3,123.5,45,122.7,44.3z"/>
		<path class="st2" d="M120.9,49.4c-0.1,1.1,0.5,2.7,1.4,3.4s1.7,0.4,1.8-0.8c0.1-1.1-0.5-2.5-1.3-3.3C121.8,48,121,48.3,120.9,49.4
			z"/>
		<path class="st2" d="M119.9,55.3c-0.3,1.3,0.3,3,1.3,3.7c0.9,0.7,1.9,0.1,2.1-1.2c0.2-1.3-0.3-2.8-1.2-3.5
			C121.1,53.5,120.1,54,119.9,55.3z"/>
		<path class="st2" d="M120.8,60.6c-1-0.7-2.2-0.1-2.6,1.4c-0.4,1.5,0.1,3.2,1.1,3.8c1,0.6,2.1-0.1,2.5-1.5S121.7,61.2,120.8,60.6z"
			/>
		<path class="st2" d="M118.8,67.5c-1.1-0.6-2.4,0.2-2.9,1.7c-0.6,1.5-0.1,3.2,1,3.7s2.3-0.3,2.8-1.8
			C120.2,69.7,119.8,68,118.8,67.5z"/>
		<path class="st2" d="M112.9,76.5c-0.7,1.5-0.3,3.1,0.9,3.5c1.1,0.4,2.5-0.4,3.1-1.9c0.6-1.4,0.3-3-0.8-3.5S113.6,75,112.9,76.5z"
			/>
		<path class="st2" d="M109.6,83.5c-0.7,1.4-0.3,2.8,0.8,3.1c1.1,0.3,2.6-0.5,3.3-1.9c0.7-1.3,0.4-2.7-0.7-3.1
			C111.8,81.3,110.3,82.1,109.6,83.5z"/>
		<path class="st2" d="M110.2,90.8c0.8-1.2,0.5-2.4-0.7-2.6c-1.2-0.3-2.8,0.5-3.5,1.8c-0.7,1.2-0.4,2.4,0.8,2.6
			C107.9,92.7,109.4,92,110.2,90.8z"/>
		<path class="st2" d="M106.6,95.9c0.8-1,0.5-1.9-0.7-2.1s-2.7,0.5-3.5,1.5c-0.7,1-0.3,1.9,0.8,2.1
			C104.4,97.5,105.9,96.9,106.6,95.9z"/>
		<path class="st2" d="M103.1,100c0.7-0.8,0.4-1.5-0.7-1.6c-1.2-0.1-2.7,0.4-3.4,1.2c-0.7,0.8-0.3,1.4,0.9,1.5
			C101,101.3,102.4,100.7,103.1,100z"/>
		<path class="st2" d="M96.9,103.9c1,0,2.4-0.3,3-0.9c0.7-0.5,0.3-1-0.7-1.1c-1.1-0.1-2.5,0.3-3.2,0.9
			C95.4,103.4,95.8,103.8,96.9,103.9z"/>
		<path class="st2" d="M96.2,104.4c-1.1,0-2.4,0.2-2.9,0.6s-0.1,0.6,0.9,0.7c1,0,2.2-0.2,2.8-0.6C97.6,104.8,97.2,104.5,96.2,104.4z
			"/>
		<path class="st2" d="M93.7,106c-1,0-2.1,0.1-2.6,0.3c1.2,0,2.3-0.1,3.5-0.2C94.3,106,94.1,106,93.7,106z"/>
		<path class="st2" d="M118.5,35.7c0.8,0.7,1.3,0.8,1.2,0.4V36c-0.8-0.8-1.7-1.6-2.6-2.4c-0.2-0.1-0.4-0.1-0.3,0.1
			C116.9,34.1,117.7,35,118.5,35.7z"/>
		<path class="st2" d="M117.2,36c0,0.6,0.8,1.7,1.7,2.4s1.5,0.8,1.4,0.1c-0.1-0.6-0.9-1.6-1.7-2.3C117.8,35.6,117.1,35.5,117.2,36z"
			/>
		<path class="st2" d="M118.9,39.2c-0.9-0.7-1.7-0.7-1.8,0c0,0.8,0.7,2.1,1.7,2.8s1.7,0.6,1.7-0.2C120.6,41.1,119.9,39.9,118.9,39.2
			z"/>
		<path class="st2" d="M118.8,43.2c-1-0.8-2-0.6-2.1,0.4c-0.2,1,0.6,2.5,1.7,3.3c1,0.7,2,0.5,2.1-0.6
			C120.6,45.3,119.8,43.9,118.8,43.2z"/>
		<path class="st2" d="M118.2,48.2c-1.1-0.8-2.2-0.4-2.5,0.8c-0.3,1.3,0.4,2.9,1.6,3.7c1.1,0.7,2.2,0.3,2.4-1
			C120,50.5,119.3,48.9,118.2,48.2z"/>
		<path class="st2" d="M116.9,54.2c-1.2-0.7-2.5-0.2-2.9,1.2c-0.4,1.5,0.2,3.2,1.5,3.9c1.2,0.7,2.5,0.1,2.8-1.3
			C118.7,56.6,118.1,54.9,116.9,54.2z"/>
		<path class="st2" d="M115,61.1c-1.3-0.7-2.7,0-3.3,1.5c-0.5,1.6,0.1,3.4,1.4,4.1c1.3,0.6,2.7-0.1,3.2-1.6
			C116.8,63.5,116.2,61.8,115,61.1z"/>
		<path class="st2" d="M112.4,68.5c-1.3-0.6-2.9,0.2-3.6,1.8c-0.7,1.6-0.1,3.4,1.3,4c1.3,0.5,2.9-0.3,3.5-1.8
			C114.2,70.9,113.7,69.1,112.4,68.5z"/>
		<path class="st2" d="M109.3,76.1c-1.4-0.5-3.1,0.3-3.8,1.9s-0.2,3.2,1.2,3.7c1.3,0.5,3-0.4,3.7-1.9
			C111.1,78.2,110.6,76.6,109.3,76.1z"/>
		<path class="st2" d="M106.9,86.6c0.8-1.4,0.3-2.8-1-3.3c-1.4-0.5-3.1,0.3-3.9,1.8c-0.7,1.4-0.2,2.8,1.2,3.2
			C104.5,88.7,106.2,87.9,106.9,86.6z"/>
		<path class="st2" d="M98.5,91.4c-0.7,1.2-0.2,2.4,1.2,2.7c1.3,0.3,2.9-0.4,3.7-1.5c0.8-1.2,0.3-2.4-1-2.7
			C101,89.4,99.3,90.1,98.5,91.4z"/>
		<path class="st2" d="M95.2,96.5c-0.6,0.9-0.1,1.9,1.2,2.1c1.2,0.2,2.8-0.3,3.5-1.2c0.7-0.9,0.3-1.9-1-2.2
			C97.5,95,95.9,95.6,95.2,96.5z"/>
		<path class="st2" d="M96.7,101.3c0.6-0.7,0.2-1.4-1-1.7c-1.3-0.2-2.8,0.2-3.4,0.9c-0.6,0.7,0,1.4,1.2,1.6
			C94.6,102.3,96.1,101.9,96.7,101.3z"/>
		<path class="st2" d="M93.9,104c0.6-0.5,0.1-1-1.1-1.2c-1.2-0.2-2.6,0.1-3.1,0.6s0.1,1,1.2,1.1C92,104.6,93.3,104.4,93.9,104z"/>
		<path class="st2" d="M90.3,104.9c-1.1-0.1-2.4,0-2.8,0.3c-0.4,0.3,0.2,0.6,1.2,0.7s2.2,0,2.7-0.3
			C91.9,105.4,91.4,105.1,90.3,104.9z"/>
		<path class="st2" d="M86.4,106.1c0.8,0.1,1.7,0.1,2.5,0.2c-0.2,0-0.4-0.1-0.6-0.1C87.6,106.1,86.9,106.1,86.4,106.1z"/>
		<path class="st2" d="M115.9,32.6c-1-0.8-2-1.6-3.1-2.3l0,0c0.1,0.3,0.8,1,1.8,1.6C115.2,32.4,115.7,32.6,115.9,32.6z"/>
		<path class="st2" d="M112.9,32c0,0.5,0.8,1.4,1.8,2s1.7,0.8,1.7,0.3c-0.1-0.5-0.9-1.3-1.8-1.9C113.7,31.7,112.9,31.6,112.9,32z"/>
		<path class="st2" d="M112.7,34.6c-0.1,0.7,0.7,1.8,1.8,2.5s2,0.7,2,0s-0.8-1.7-1.8-2.4C113.7,34,112.8,33.9,112.7,34.6z"/>
		<path class="st2" d="M112.1,38.2c-0.2,0.9,0.6,2.2,1.8,3c1.2,0.7,2.2,0.6,2.3-0.4c0.1-0.9-0.7-2.1-1.8-2.8
			C113.3,37.2,112.3,37.3,112.1,38.2z"/>
		<path class="st2" d="M111,42.9c-0.3,1.1,0.5,2.7,1.8,3.5c1.3,0.7,2.5,0.4,2.7-0.8c0.2-1.1-0.6-2.6-1.8-3.3
			C112.5,41.6,111.2,41.8,111,42.9z"/>
		<path class="st2" d="M112.4,47.8c-1.3-0.8-2.7-0.3-3.2,1c-0.4,1.4,0.3,3.1,1.7,3.9c1.4,0.7,2.8,0.2,3.1-1.2
			C114.4,50.3,113.7,48.6,112.4,47.8z"/>
		<path class="st2" d="M106.9,55.8c-0.6,1.6,0.2,3.4,1.7,4.2c1.4,0.7,3,0,3.5-1.5s-0.2-3.3-1.6-4C109,53.7,107.4,54.3,106.9,55.8z"
			/>
		<path class="st2" d="M104,63.5c-0.6,1.7,0.1,3.6,1.6,4.2c1.5,0.7,3.2-0.1,3.8-1.7s-0.1-3.5-1.5-4.2
			C106.4,61.1,104.7,61.9,104,63.5z"/>
		<path class="st2" d="M106.2,73.8c0.7-1.6,0.1-3.4-1.4-4.1s-3.3,0.1-4.1,1.8c-0.7,1.7,0,3.5,1.5,4.1
			C103.8,76.2,105.5,75.4,106.2,73.8z"/>
		<path class="st2" d="M97.3,79.2c-0.7,1.5-0.1,3.2,1.5,3.8c1.5,0.5,3.3-0.3,4-1.8s0.1-3.2-1.4-3.8C99.9,76.9,98,77.7,97.3,79.2z"/>
		<path class="st2" d="M93.9,86.3c-0.7,1.4,0,2.8,1.5,3.3s3.2-0.2,3.9-1.5s0.1-2.9-1.3-3.4C96.4,84.2,94.6,84.9,93.9,86.3z"/>
		<path class="st2" d="M90.7,92.4c-0.6,1.1,0,2.3,1.5,2.7c1.4,0.4,3.1-0.2,3.7-1.2c0.7-1.1,0.1-2.4-1.3-2.8
			C93,90.6,91.3,91.2,90.7,92.4z"/>
		<path class="st2" d="M92.8,98.5c0.6-0.9,0-1.9-1.4-2.2c-1.4-0.4-3,0-3.6,0.9c-0.5,0.9,0.1,1.8,1.5,2.2
			C90.6,99.7,92.2,99.3,92.8,98.5z"/>
		<path class="st2" d="M90,101.9c0.5-0.6-0.1-1.4-1.4-1.7c-1.3-0.3-2.8-0.1-3.2,0.6c-0.4,0.6,0.2,1.4,1.5,1.6
			C88.1,102.8,89.5,102.5,90,101.9z"/>
		<path class="st2" d="M87.8,104.3c0.4-0.4-0.2-1-1.4-1.2c-1.2-0.3-2.5-0.2-2.9,0.3c-0.3,0.4,0.3,0.9,1.5,1.2
			C86.1,104.7,87.3,104.6,87.8,104.3z"/>
		<path class="st2" d="M84.5,104.9c-1.1-0.3-2.3-0.3-2.6,0c-0.3,0.2,0.4,0.6,1.4,0.8c1,0.2,2.1,0.2,2.5,0
			C86.2,105.5,85.6,105.1,84.5,104.9z"/>
		<path class="st2" d="M108.6,28.7c-0.1,0.3,0.7,1,1.8,1.6c1,0.6,1.9,0.7,1.8,0.4c0-0.3-0.8-1-1.8-1.5
			C109.5,28.6,108.7,28.4,108.6,28.7z"/>
		<path class="st2" d="M108.1,30.6c-0.1,0.5,0.7,1.4,1.8,2s2.1,0.7,2.2,0.1c0.1-0.5-0.8-1.4-1.8-2C109.2,30.2,108.3,30.1,108.1,30.6
			z"/>
		<path class="st2" d="M107.3,33.4c-0.2,0.7,0.6,1.9,1.9,2.5c1.3,0.7,2.4,0.6,2.5-0.2c0.1-0.7-0.7-1.8-1.9-2.4
			C108.6,32.7,107.5,32.7,107.3,33.4z"/>
		<path class="st2" d="M105.9,37.4c-0.3,1,0.5,2.4,1.9,3.1c1.4,0.7,2.7,0.4,2.9-0.6s-0.6-2.3-1.9-2.9
			C107.6,36.3,106.2,36.5,105.9,37.4z"/>
		<path class="st2" d="M109.2,45.2c0.4-1.2-0.5-2.7-1.8-3.4c-1.4-0.7-2.9-0.3-3.3,0.9c-0.5,1.2,0.4,2.8,1.8,3.6
			C107.3,46.9,108.8,46.5,109.2,45.2z"/>
		<path class="st2" d="M101.6,49c-0.6,1.5,0.2,3.3,1.8,4c1.5,0.7,3.2,0.1,3.7-1.4c0.5-1.4-0.3-3.2-1.8-3.9
			C103.8,47.1,102.2,47.6,101.6,49z"/>
		<path class="st2" d="M102.7,54.9c-1.6-0.7-3.4,0-4,1.6c-0.7,1.6,0.1,3.6,1.7,4.3c1.6,0.7,3.4,0,4-1.6
			C105.1,57.5,104.3,55.6,102.7,54.9z"/>
		<path class="st2" d="M95.4,64.4c-0.7,1.7,0.1,3.7,1.7,4.4c1.6,0.7,3.5-0.1,4.2-1.8c0.7-1.7-0.1-3.6-1.7-4.3
			C98,61.9,96.1,62.7,95.4,64.4z"/>
		<path class="st2" d="M92,72.5c-0.7,1.7,0,3.5,1.7,4.2c1.6,0.7,3.5-0.1,4.2-1.8c0.7-1.6,0-3.5-1.6-4.2C94.7,70,92.7,70.8,92,72.5z"
			/>
		<path class="st2" d="M88.7,80.2c-0.7,1.5,0.1,3.2,1.7,3.8c1.6,0.6,3.4-0.1,4.1-1.6c0.7-1.5,0-3.3-1.6-3.9
			C91.2,77.9,89.3,78.6,88.7,80.2z"/>
		<path class="st2" d="M85.6,87c-0.6,1.3,0.2,2.8,1.7,3.3s3.3,0,3.9-1.3c0.7-1.3,0-2.8-1.6-3.4C88,85.1,86.2,85.7,85.6,87z"/>
		<path class="st2" d="M88.2,94.6c0.6-1-0.1-2.3-1.6-2.9c-1.5-0.5-3.2-0.1-3.7,1c-0.5,1,0.3,2.3,1.7,2.8C86,96,87.6,95.6,88.2,94.6z
			"/>
		<path class="st2" d="M80.7,97.2c-0.4,0.8,0.4,1.8,1.7,2.2c1.3,0.4,2.8,0.2,3.2-0.5c0.5-0.8-0.2-1.8-1.6-2.3
			C82.6,96.1,81.1,96.4,80.7,97.2z"/>
		<path class="st2" d="M83.6,101.9c0.4-0.5-0.3-1.3-1.6-1.8c-1.3-0.4-2.6-0.3-2.9,0.3c-0.3,0.5,0.5,1.3,1.7,1.7
			C81.9,102.5,83.2,102.4,83.6,101.9z"/>
		<path class="st2" d="M80.3,102.6c-1.2-0.4-2.3-0.4-2.6,0c-0.2,0.3,0.5,0.9,1.6,1.3s2.2,0.4,2.5,0.1
			C82.2,103.6,81.5,103,80.3,102.6z"/>
		<path class="st2" d="M76.9,103.9L76.9,103.9c1.2,0.5,2.4,0.9,3.7,1.2c0,0,0,0,0.1,0c0.2-0.2-0.4-0.6-1.5-0.9
			C78.1,103.8,77.1,103.7,76.9,103.9z"/>
		<path class="st2" d="M108,27.7c0,0,0-0.1-0.1-0.1c-0.5-0.2-1-0.5-1.6-0.7c-0.6-0.3-1.2-0.5-1.9-0.7c-0.1,0-0.1,0-0.1,0.1
			c-0.1,0.2,0.6,0.7,1.7,1.2C107.1,27.8,108,28,108,27.7z"/>
		<path class="st2" d="M103.6,27.4c-0.2,0.4,0.6,1.1,1.7,1.5c1.2,0.5,2.2,0.6,2.3,0.2s-0.7-1-1.7-1.5
			C104.8,27.2,103.8,27.1,103.6,27.4z"/>
		<path class="st2" d="M102.5,29.6c-0.3,0.6,0.5,1.5,1.8,2c1.3,0.5,2.5,0.5,2.7-0.1c0.2-0.6-0.6-1.4-1.8-1.9
			C103.9,29,102.7,29,102.5,29.6z"/>
		<path class="st2" d="M100.9,32.8c-0.4,0.8,0.4,2,1.8,2.6c1.4,0.6,2.8,0.4,3.1-0.5c0.3-0.8-0.5-1.9-1.8-2.5
			C102.6,31.9,101.2,32,100.9,32.8z"/>
		<path class="st2" d="M98.8,37.2c-0.5,1.1,0.3,2.5,1.8,3.1s3,0.2,3.5-0.9c0.4-1.1-0.4-2.4-1.8-3C100.8,35.8,99.3,36.2,98.8,37.2z"
			/>
		<path class="st2" d="M96.2,42.9c-0.6,1.3,0.2,3,1.8,3.6c1.6,0.7,3.3,0.1,3.8-1.2s-0.3-2.9-1.8-3.5C98.5,41.1,96.8,41.6,96.2,42.9z
			"/>
		<path class="st2" d="M93.2,49.7c-0.7,1.5,0.1,3.4,1.8,4.1c1.6,0.7,3.5,0,4.1-1.6c0.6-1.5-0.2-3.3-1.8-4S93.8,48.2,93.2,49.7z"/>
		<path class="st2" d="M95.9,59.9c0.7-1.7-0.1-3.6-1.8-4.3s-3.6,0.1-4.3,1.7c-0.7,1.7,0.1,3.6,1.7,4.3
			C93.3,62.4,95.2,61.6,95.9,59.9z"/>
		<path class="st2" d="M86.5,65.4c-0.7,1.7,0.1,3.7,1.8,4.4c1.7,0.7,3.6-0.1,4.3-1.8c0.7-1.7-0.1-3.7-1.7-4.4
			C89.1,62.9,87.2,63.7,86.5,65.4z"/>
		<path class="st2" d="M89.1,76c0.7-1.6-0.1-3.5-1.8-4.2s-3.6,0-4.2,1.7c-0.7,1.6,0.1,3.5,1.8,4.2C86.6,78.3,88.4,77.6,89.1,76z"/>
		<path class="st2" d="M80.2,80.9c-0.6,1.4,0.2,3.1,1.8,3.8c1.6,0.7,3.3,0.1,4-1.3c0.6-1.5-0.1-3.2-1.8-3.9
			C82.6,78.7,80.8,79.4,80.2,80.9z"/>
		<path class="st2" d="M77.6,87.3c-0.5,1.2,0.4,2.7,1.8,3.3c1.5,0.6,3.1,0.2,3.6-1c0.6-1.2-0.2-2.8-1.8-3.4
			C79.8,85.6,78.1,86.1,77.6,87.3z"/>
		<path class="st2" d="M75.7,92.6c-0.3,0.9,0.5,2.2,1.8,2.8c1.4,0.6,2.8,0.3,3.2-0.6c0.5-1-0.3-2.3-1.8-2.9
			C77.5,91.3,76,91.6,75.7,92.6z"/>
		<path class="st2" d="M78.9,98.6c0.4-0.7-0.4-1.7-1.8-2.3c-1.3-0.6-2.6-0.4-2.9,0.3c-0.2,0.7,0.6,1.7,1.8,2.2
			C77.3,99.4,78.6,99.3,78.9,98.6z"/>
		<path class="st2" d="M77.5,101.3c0.3-0.5-0.5-1.3-1.8-1.8c-1.2-0.5-2.3-0.5-2.5,0c-0.1,0.5,0.6,1.3,1.8,1.7
			C76.2,101.8,77.3,101.8,77.5,101.3z"/>
		<path class="st2" d="M76.5,103.1c0.2-0.3-0.6-0.9-1.7-1.4c-1.1-0.5-2.1-0.6-2.2-0.3c-0.1,0.3,0.7,0.9,1.7,1.3
			C75.4,103.2,76.4,103.3,76.5,103.1z"/>
		<path class="st2" d="M100.9,26.2c1.1,0.4,2.2,0.4,2.4,0.2c0.2-0.2-0.5-0.7-1.6-1.1c-1-0.3-2.1-0.4-2.3-0.2
			C99.1,25.4,99.8,25.9,100.9,26.2z"/>
		<path class="st2" d="M98,26.7c-0.4,0.4,0.4,1.1,1.6,1.5c1.2,0.4,2.5,0.4,2.7-0.1c0.2-0.4-0.5-1.1-1.7-1.4
			C99.5,26.3,98.3,26.3,98,26.7z"/>
		<path class="st2" d="M96.1,29.1c-0.4,0.6,0.3,1.5,1.6,2s2.7,0.3,3.1-0.4c0.3-0.6-0.4-1.5-1.7-1.9C97.9,28.4,96.5,28.5,96.1,29.1z"
			/>
		<path class="st2" d="M93.8,32.7c-0.5,0.9,0.2,2,1.6,2.5c1.5,0.5,3,0.2,3.5-0.8c0.4-0.9-0.3-2-1.7-2.4
			C95.8,31.5,94.3,31.8,93.8,32.7z"/>
		<path class="st2" d="M91.1,37.5c-0.6,1.2,0.1,2.6,1.6,3.1c1.5,0.6,3.3,0,3.8-1.2c0.5-1.1-0.2-2.5-1.7-3
			C93.3,35.9,91.7,36.4,91.1,37.5z"/>
		<path class="st2" d="M87.9,43.5c-0.7,1.4,0,3,1.6,3.6s3.4-0.1,4.1-1.5c0.6-1.4-0.1-3-1.7-3.6C90.4,41.5,88.6,42.2,87.9,43.5z"/>
		<path class="st2" d="M90.4,52.9c0.7-1.6-0.1-3.4-1.7-4c-1.6-0.6-3.5,0.1-4.2,1.7c-0.7,1.6,0,3.4,1.6,4.1
			C87.8,55.3,89.7,54.5,90.4,52.9z"/>
		<path class="st2" d="M81.1,58.3c-0.7,1.7,0,3.6,1.6,4.3s3.6-0.1,4.3-1.8s0-3.6-1.7-4.3C83.7,55.9,81.8,56.7,81.1,58.3z"/>
		<path class="st2" d="M77.8,66.3c-0.7,1.7,0.1,3.6,1.7,4.3c1.6,0.7,3.5,0,4.2-1.7s-0.1-3.6-1.7-4.4C80.3,63.9,78.4,64.7,77.8,66.3z
			"/>
		<path class="st2" d="M80.5,76.7c0.6-1.6-0.2-3.5-1.8-4.2s-3.3,0-3.9,1.5c-0.6,1.5,0.2,3.4,1.8,4.1C78.1,78.9,79.9,78.3,80.5,76.7z
			"/>
		<path class="st2" d="M77.8,83.7c0.5-1.4-0.3-3.1-1.8-3.8c-1.5-0.7-3.1-0.2-3.6,1.2c-0.4,1.3,0.4,3,1.8,3.7
			C75.7,85.5,77.3,85,77.8,83.7z"/>
		<path class="st2" d="M75.6,89.6c0.4-1.1-0.4-2.6-1.9-3.4c-1.4-0.7-2.8-0.3-3.2,0.8c-0.3,1.1,0.5,2.5,1.9,3.2
			C73.8,91,75.2,90.7,75.6,89.6z"/>
		<path class="st2" d="M69.3,91.9c-0.2,0.9,0.6,2.1,1.9,2.7c1.2,0.7,2.5,0.5,2.8-0.3c0.3-0.9-0.5-2.1-1.9-2.8
			C70.8,90.8,69.5,91,69.3,91.9z"/>
		<path class="st2" d="M72.8,97.8c0.2-0.6-0.6-1.7-1.9-2.3c-1.2-0.6-2.3-0.6-2.4,0.1c-0.1,0.6,0.7,1.6,1.8,2.2
			C71.6,98.4,72.7,98.4,72.8,97.8z"/>
		<path class="st2" d="M72.2,100.2c0.1-0.4-0.7-1.2-1.8-1.8c-1.1-0.6-2-0.7-2-0.2c0,0.4,0.8,1.2,1.8,1.8
			C71.1,100.5,72.1,100.6,72.2,100.2z"/>
		<path class="st2" d="M68.4,99.9L68.4,99.9c1.1,0.7,2.2,1.4,3.4,2c0,0,0.1,0,0.1-0.1c0-0.3-0.7-0.9-1.7-1.4
			C69.1,99.8,68.3,99.6,68.4,99.9z"/>
		<path class="st2" d="M99.2,24.5c-1.2-0.3-2.4-0.5-3.7-0.6c0.2,0.1,0.7,0.3,1.3,0.5C97.8,24.6,98.9,24.7,99.2,24.5z"/>
		<path class="st2" d="M95.2,25.7c1.2,0.3,2.4,0.2,2.7-0.1c0.3-0.3-0.3-0.7-1.4-1c-1.1-0.2-2.2-0.2-2.6,0.1
			C93.5,25,94.1,25.4,95.2,25.7z"/>
		<path class="st2" d="M91.8,26.5c-0.5,0.5,0.1,1.1,1.4,1.4c1.3,0.3,2.6,0.1,3-0.4s-0.3-1.1-1.5-1.4C93.6,25.9,92.3,26,91.8,26.5z"
			/>
		<path class="st2" d="M89.3,29.3c-0.6,0.7,0,1.6,1.4,1.9s2.9,0,3.4-0.7s-0.2-1.6-1.5-1.9C91.3,28.3,89.9,28.6,89.3,29.3z"/>
		<path class="st2" d="M86.4,33.3c-0.7,1-0.1,2.1,1.3,2.5c1.4,0.4,3.1-0.1,3.7-1.1c0.6-1-0.1-2.1-1.5-2.4
			C88.7,31.9,87.1,32.3,86.4,33.3z"/>
		<path class="st2" d="M88.5,40c0.7-1.2,0-2.6-1.5-3c-1.4-0.4-3.1,0.2-3.8,1.4s-0.1,2.6,1.3,3.1C86,41.9,87.8,41.3,88.5,40z"/>
		<path class="st2" d="M85.1,46.6c0.7-1.5,0-3-1.5-3.5s-3.3,0.3-4,1.6c-0.7,1.4-0.1,3,1.4,3.6C82.6,48.8,84.4,48,85.1,46.6z"/>
		<path class="st2" d="M77.6,55.8c1.5,0.6,3.4-0.2,4.1-1.8c0.7-1.6,0-3.4-1.5-3.9c-1.5-0.6-3.3,0.3-4,1.8
			C75.4,53.4,76.1,55.2,77.6,55.8z"/>
		<path class="st2" d="M74.3,63.7c1.5,0.7,3.3-0.1,4-1.8s0-3.6-1.5-4.2c-1.5-0.6-3.2,0.2-3.9,1.8C72.2,61.1,72.8,63,74.3,63.7z"/>
		<path class="st2" d="M71.4,71.4c1.5,0.7,3.1,0,3.7-1.6c0.6-1.6-0.1-3.5-1.6-4.2s-3.1,0.1-3.7,1.7C69.3,68.8,70,70.6,71.4,71.4z"/>
		<path class="st2" d="M69.2,78.4c1.4,0.8,2.9,0.2,3.4-1.2c0.5-1.5-0.3-3.3-1.7-4s-2.9-0.1-3.3,1.4C67.1,76,67.8,77.7,69.2,78.4z"/>
		<path class="st2" d="M67.5,84.6c1.3,0.8,2.6,0.4,3-0.8c0.4-1.3-0.4-2.9-1.8-3.7c-1.3-0.7-2.6-0.3-2.9,1
			C65.5,82.2,66.2,83.8,67.5,84.6z"/>
		<path class="st2" d="M69,89.2c0.3-1-0.6-2.5-1.8-3.2s-2.4-0.5-2.5,0.6c-0.2,1,0.6,2.4,1.8,3.1C67.6,90.3,68.8,90.1,69,89.2z"/>
		<path class="st2" d="M68.1,93.4c0.1-0.8-0.7-2-1.8-2.8c-1.1-0.7-2.1-0.6-2.2,0.2c-0.1,0.8,0.7,2,1.8,2.6
			C67,94.2,68,94.1,68.1,93.4z"/>
		<path class="st2" d="M67.7,96.5c0-0.6-0.8-1.6-1.8-2.3c-1-0.7-1.8-0.7-1.8-0.1s0.8,1.5,1.8,2.2C66.8,97,67.6,97.1,67.7,96.5z"/>
		<path class="st2" d="M67.6,98.7c0-0.4-0.8-1.2-1.8-1.8c-0.9-0.6-1.6-0.8-1.5-0.4s0.9,1.2,1.7,1.8C67,98.8,67.7,99,67.6,98.7z"/>
		<path class="st2" d="M94,24c0.1-0.1,0.1-0.2,0-0.2c-1.3-0.1-2.6-0.2-3.8-0.2c-0.2,0.2,0.2,0.4,1.2,0.5C92.5,24.3,93.6,24.2,94,24z
			"/>
		<path class="st2" d="M88.1,24.8c-0.5,0.4,0,0.8,1.1,0.9c1.1,0.2,2.5,0,2.9-0.4s-0.1-0.8-1.2-0.9C89.8,24.3,88.6,24.5,88.1,24.8z"
			/>
		<path class="st2" d="M85.5,26.9c-0.6,0.6-0.1,1.2,1.1,1.4c1.2,0.2,2.7-0.1,3.2-0.7s0-1.1-1.2-1.3S86.1,26.4,85.5,26.9z"/>
		<path class="st2" d="M82.5,30.1c-0.7,0.8-0.2,1.6,1,1.9c1.3,0.2,2.9-0.2,3.5-1.1c0.6-0.8,0.1-1.6-1.2-1.8
			C84.6,28.9,83.1,29.4,82.5,30.1z"/>
		<path class="st2" d="M79.1,34.4c-0.7,1-0.3,2.1,1,2.4c1.3,0.3,3-0.3,3.7-1.4c0.7-1,0.1-2.1-1.2-2.4C81.4,32.8,79.9,33.4,79.1,34.4
			z"/>
		<path class="st2" d="M80.5,41.1c0.7-1.3,0.2-2.6-1.2-2.9c-1.3-0.3-3,0.4-3.7,1.6c-0.8,1.3-0.3,2.6,1,3
			C78,43.2,79.7,42.4,80.5,41.1z"/>
		<path class="st2" d="M73.1,49.6c1.4,0.5,3.1-0.3,3.8-1.8s0.2-3-1.2-3.4c-1.3-0.4-3,0.4-3.7,1.8C71.3,47.6,71.8,49.1,73.1,49.6z"/>
		<path class="st2" d="M73.5,55.2c0.7-1.6,0.1-3.3-1.2-3.8s-2.9,0.3-3.6,1.9c-0.7,1.5-0.2,3.2,1.1,3.8
			C71.1,57.6,72.8,56.8,73.5,55.2z"/>
		<path class="st2" d="M65.7,60.6c-0.6,1.5,0,3.3,1.2,3.9c1.3,0.7,2.8-0.1,3.4-1.7c0.6-1.6,0-3.4-1.3-4
			C67.8,58.3,66.3,59.1,65.7,60.6z"/>
		<path class="st2" d="M64.6,71.8c1.2,0.7,2.6,0.1,3.1-1.4s-0.1-3.3-1.4-4c-1.2-0.7-2.6,0-3,1.5C62.8,69.4,63.4,71.1,64.6,71.8z"/>
		<path class="st2" d="M63,78.4c1.1,0.8,2.4,0.3,2.7-1c0.4-1.4-0.3-3.1-1.5-3.8c-1.2-0.7-2.4-0.2-2.7,1.2C61.2,76,61.9,77.6,63,78.4
			z"/>
		<path class="st2" d="M62,84c1.1,0.8,2.1,0.5,2.3-0.6c0.2-1.2-0.5-2.7-1.6-3.5c-1.1-0.7-2.1-0.4-2.3,0.8C60.2,81.7,60.9,83.2,62,84
			z"/>
		<path class="st2" d="M63.5,88.3c0.1-0.9-0.7-2.3-1.7-3.1c-1-0.7-1.9-0.6-1.9,0.4c0,0.9,0.7,2.2,1.7,3
			C62.6,89.3,63.4,89.2,63.5,88.3z"/>
		<path class="st2" d="M63.3,92.1c0-0.7-0.8-1.9-1.7-2.6s-1.6-0.7-1.6,0c0.1,0.7,0.8,1.8,1.7,2.5C62.6,92.7,63.3,92.8,63.3,92.1z"/>
		<path class="st2" d="M63.5,95c-0.1-0.5-0.9-1.5-1.7-2.2c-0.9-0.7-1.4-0.8-1.3-0.3c0.1,0.5,0.9,1.5,1.7,2.1
			C63,95.3,63.6,95.4,63.5,95z"/>
		<path class="st2" d="M85.8,24.5c1,0,2.3-0.2,2.7-0.4c0.3-0.2,0.2-0.3-0.1-0.4c-1.2,0.1-2.4,0.2-3.6,0.3
			C84.5,24.3,84.8,24.5,85.8,24.5z"/>
		<path class="st2" d="M83.1,26.4c1.1,0,2.4-0.3,3-0.7c0.5-0.4,0.1-0.8-0.9-0.8s-2.3,0.3-2.9,0.7C81.7,26,82,26.4,83.1,26.4z"/>
		<path class="st2" d="M79.2,28c-0.7,0.6-0.4,1.2,0.7,1.3c1.1,0.1,2.6-0.4,3.2-1.1c0.6-0.6,0.2-1.2-0.9-1.3
			C81.3,27,79.9,27.4,79.2,28z"/>
		<path class="st2" d="M75.9,31.5c-0.7,0.9-0.4,1.7,0.7,1.8c1.2,0.2,2.7-0.5,3.4-1.4s0.3-1.7-0.8-1.8C78.1,30.1,76.6,30.7,75.9,31.5
			z"/>
		<path class="st2" d="M72.3,36.1c-0.8,1.1-0.5,2.1,0.7,2.4c1.2,0.2,2.8-0.5,3.5-1.6s0.4-2.1-0.8-2.3C74.6,34.3,73.1,35,72.3,36.1z"
			/>
		<path class="st2" d="M72.9,42.7c0.7-1.3,0.4-2.6-0.8-2.8c-1.1-0.2-2.6,0.6-3.4,1.8c-0.7,1.3-0.4,2.5,0.7,2.9
			C70.6,44.8,72.2,44,72.9,42.7z"/>
		<path class="st2" d="M66.1,51.2c1.1,0.4,2.7-0.4,3.4-1.9s0.3-2.9-0.8-3.3c-1.1-0.3-2.6,0.5-3.2,1.9C64.7,49.4,65,50.8,66.1,51.2z"
			/>
		<path class="st2" d="M63.2,58.4c1.1,0.5,2.5-0.3,3.1-1.8s0.2-3.2-0.9-3.6c-1.1-0.4-2.4,0.4-3,1.8C61.7,56.3,62.1,57.9,63.2,58.4z"
			/>
		<path class="st2" d="M59.8,61.8c-0.5,1.4,0,3.1,1,3.7s2.3-0.1,2.8-1.6s0-3.2-1.1-3.8C61.5,59.6,60.3,60.3,59.8,61.8z"/>
		<path class="st2" d="M58,68.5c-0.3,1.3,0.2,3,1.1,3.6c1,0.7,2.1,0.2,2.4-1.2c0.4-1.4-0.2-3.1-1.2-3.8C59.3,66.5,58.3,67.2,58,68.5
			z"/>
		<path class="st2" d="M56.8,74.7c-0.2,1.2,0.4,2.7,1.3,3.4c0.9,0.7,1.8,0.4,2-0.8c0.2-1.3-0.4-2.9-1.3-3.6
			C57.9,73,57,73.5,56.8,74.7z"/>
		<path class="st2" d="M57.8,83.2c0.8,0.8,1.6,0.6,1.7-0.4c0.1-1.1-0.6-2.5-1.5-3.3c-0.9-0.7-1.6-0.4-1.6,0.6
			C56.3,81,56.9,82.4,57.8,83.2z"/>
		<path class="st2" d="M57.9,87.3c0.8,0.7,1.4,0.7,1.4-0.1c0-0.8-0.7-2.2-1.5-2.9c-0.8-0.7-1.4-0.6-1.3,0.2
			C56.5,85.3,57.2,86.5,57.9,87.3z"/>
		<path class="st2" d="M59.6,90.6c-0.1-0.6-0.8-1.8-1.6-2.5c-0.7-0.7-1.2-0.7-1-0.1s0.8,1.7,1.5,2.4C59.2,91.1,59.7,91.2,59.6,90.6z
			"/>
		<path class="st2" d="M58.4,90.8c0.6,0.7,1.1,1.4,1.7,2.1c-0.3-0.5-0.9-1.2-1.4-1.8C58.6,90.9,58.5,90.8,58.4,90.8z"/>
		<path class="st2" d="M80.3,25.4c0.9-0.1,2.2-0.4,2.8-0.7c0.3-0.2,0.4-0.3,0.2-0.4c-1.3,0.2-2.5,0.5-3.8,0.9
			C79.3,25.4,79.6,25.5,80.3,25.4z"/>
		<path class="st2" d="M77.2,27.7c1,0,2.3-0.5,3-1c0.6-0.5,0.4-0.9-0.6-0.8c-0.9,0.1-2.1,0.5-2.8,1C76.1,27.4,76.2,27.7,77.2,27.7z"
			/>
		<path class="st2" d="M76.4,28.4c-0.9,0-2.2,0.6-2.9,1.3c-0.7,0.7-0.6,1.3,0.4,1.3s2.4-0.6,3.1-1.3C77.6,28.9,77.3,28.4,76.4,28.4z
			"/>
		<path class="st2" d="M69.9,33.4c-0.8,0.9-0.6,1.7,0.3,1.8c1,0.1,2.4-0.6,3.2-1.6c0.7-0.9,0.5-1.7-0.5-1.7
			C72,31.9,70.7,32.6,69.9,33.4z"/>
		<path class="st2" d="M66.4,38.1c-0.7,1.1-0.6,2.1,0.3,2.3c1,0.2,2.4-0.6,3.1-1.8c0.7-1.1,0.5-2.1-0.4-2.2
			C68.4,36.3,67.1,37.1,66.4,38.1z"/>
		<path class="st2" d="M63.3,46.4c0.9,0.3,2.3-0.6,3-1.9c0.7-1.3,0.5-2.5-0.5-2.7c-0.9-0.2-2.2,0.7-2.9,1.9
			C62.3,44.9,62.5,46.1,63.3,46.4z"/>
		<path class="st2" d="M60.3,52.9c0.9,0.4,2.1-0.4,2.8-1.9c0.6-1.4,0.4-2.8-0.5-3.1s-2.1,0.6-2.7,1.9C59.3,51.2,59.5,52.5,60.3,52.9
			z"/>
		<path class="st2" d="M57.9,59.6c0.8,0.5,1.9-0.3,2.4-1.7c0.5-1.5,0.2-3-0.6-3.4s-1.9,0.4-2.4,1.8C56.9,57.7,57.1,59.2,57.9,59.6z"
			/>
		<path class="st2" d="M56.1,66.2c0.8,0.6,1.7,0,2.1-1.4c0.4-1.4,0-3-0.8-3.5s-1.7,0.2-2,1.5C55,64.1,55.4,65.6,56.1,66.2z"/>
		<path class="st2" d="M55,72.3c0.7,0.7,1.5,0.2,1.7-1.1c0.2-1.3-0.2-2.9-1-3.5c-0.7-0.6-1.5,0-1.7,1.2C53.9,70.1,54.3,71.6,55,72.3
			z"/>
		<path class="st2" d="M54.6,77.6c0.7,0.7,1.3,0.4,1.4-0.7c0.1-1.1-0.4-2.6-1.1-3.3c-0.7-0.7-1.3-0.3-1.3,0.8
			C53.5,75.5,53.9,76.9,54.6,77.6z"/>
		<path class="st2" d="M53.5,79.3c0.1,0.9,0.6,2.2,1.2,2.9c0.6,0.7,1.1,0.6,1.1-0.3c0-1-0.6-2.3-1.3-3
			C53.9,78.1,53.5,78.3,53.5,79.3z"/>
		<path class="st2" d="M56.2,85.9c-0.1-0.8-0.7-2-1.4-2.7c-0.6-0.7-1-0.6-0.8,0.1c0.1,0.7,0.7,1.9,1.3,2.6S56.3,86.6,56.2,85.9z"/>
		<path class="st2" d="M55.5,86.6L55.5,86.6c0.4,0.6,0.8,1.3,1.2,1.9C56.5,88,56,87.2,55.5,86.6z"/>
		<path class="st2" d="M77.7,25.9c0.2-0.1,0.3-0.2,0.3-0.3c-1.2,0.4-2.4,0.8-3.5,1.3c0.1,0,0.3,0,0.5,0C75.8,26.7,77,26.3,77.7,25.9
			z"/>
		<path class="st2" d="M71.7,29.5c0.8-0.1,2.1-0.7,2.8-1.3c0.7-0.6,0.6-0.9-0.2-0.8s-1.9,0.7-2.6,1.2C70.9,29.2,71,29.6,71.7,29.5z"
			/>
		<path class="st2" d="M68.2,31.8c-0.7,0.7-0.7,1.3,0,1.3c0.8-0.1,2.1-0.8,2.8-1.5c0.7-0.8,0.6-1.3-0.2-1.2
			C70.1,30.4,68.9,31,68.2,31.8z"/>
		<path class="st2" d="M67.5,35.7c0.7-1,0.7-1.7-0.1-1.7s-1.9,0.8-2.6,1.7c-0.7,0.9-0.7,1.7,0,1.7C65.6,37.4,66.8,36.6,67.5,35.7z"
			/>
		<path class="st2" d="M64.1,40.7c0.7-1.1,0.6-2.1-0.1-2.1c-0.7,0-1.8,0.8-2.5,1.8c-0.7,1.1-0.7,2,0,2.2
			C62.2,42.7,63.4,41.9,64.1,40.7z"/>
		<path class="st2" d="M58.4,45.9c-0.6,1.2-0.6,2.3,0.1,2.6c0.7,0.2,1.8-0.6,2.4-1.9c0.6-1.3,0.6-2.4-0.2-2.6
			C60,43.9,59,44.7,58.4,45.9z"/>
		<path class="st2" d="M55.7,51.7c-0.5,1.3-0.4,2.5,0.2,2.9c0.6,0.4,1.6-0.4,2.1-1.8c0.5-1.3,0.4-2.6-0.3-2.9
			C57.1,49.7,56.2,50.5,55.7,51.7z"/>
		<path class="st2" d="M53.6,57.8c-0.4,1.3-0.2,2.6,0.3,3.1c0.6,0.5,1.4-0.2,1.8-1.6c0.4-1.3,0.2-2.8-0.4-3.1
			C54.8,55.8,54,56.5,53.6,57.8z"/>
		<path class="st2" d="M52.2,63.7c-0.2,1.2,0,2.6,0.5,3.1c0.5,0.6,1.2,0,1.5-1.2c0.3-1.3,0-2.7-0.6-3.2
			C53.1,61.8,52.5,62.5,52.2,63.7z"/>
		<path class="st2" d="M51.5,69.2c-0.1,1.1,0.2,2.4,0.7,3s1,0.2,1.1-0.9c0.1-1.2-0.2-2.6-0.8-3.2C52,67.6,51.6,68.1,51.5,69.2z"/>
		<path class="st2" d="M53.1,76.5c0-1-0.4-2.4-0.9-3s-0.8-0.3-0.8,0.7s0.4,2.2,0.9,2.9C52.7,77.7,53.1,77.5,53.1,76.5z"/>
		<path class="st2" d="M53.4,80.9c-0.1-0.8-0.6-2.1-1.1-2.8c-0.4-0.6-0.7-0.5-0.6,0.2c0.3,1,0.7,1.9,1.1,2.9
			C53.2,81.8,53.5,81.7,53.4,80.9z"/>
		<path class="st2" d="M67,31.7c0.6-0.2,1.8-0.8,2.5-1.5c0.6-0.6,0.7-0.9,0.2-0.8c-1,0.6-2.1,1.3-3,2C66.5,31.6,66.6,31.8,67,31.7z"
			/>
		<path class="st2" d="M63.6,35.4c0.6-0.1,1.7-0.9,2.4-1.7s0.8-1.3,0.1-1.2c-0.6,0.1-1.6,0.9-2.3,1.6C63.2,34.9,63,35.4,63.6,35.4z"
			/>
		<path class="st2" d="M62.6,38c0.7-1,0.8-1.7,0.2-1.6c-0.6,0.1-1.5,0.9-2.2,1.8c-0.7,0.9-0.8,1.7-0.3,1.7
			C60.9,39.8,61.9,39,62.6,38z"/>
		<path class="st2" d="M57.3,44.9c0.5,0.1,1.5-0.7,2.1-1.9c0.6-1.1,0.7-2,0.1-2c-0.5,0-1.4,0.8-2,1.8C57,43.9,56.9,44.8,57.3,44.9z"
			/>
		<path class="st2" d="M54.8,50.4c0.5,0.2,1.3-0.6,1.8-1.8s0.6-2.3,0.1-2.4c-0.5-0.1-1.3,0.7-1.8,1.8S54.3,50.2,54.8,50.4z"/>
		<path class="st2" d="M52.7,56.2c0.4,0.3,1.1-0.4,1.5-1.6c0.4-1.3,0.4-2.5,0-2.7s-1.1,0.5-1.5,1.7C52.3,54.7,52.3,55.9,52.7,56.2z"
			/>
		<path class="st2" d="M52.5,60.4c0.3-1.2,0.2-2.5-0.2-2.9c-0.4-0.3-0.9,0.3-1.2,1.5c-0.3,1.1-0.2,2.4,0.2,2.8
			C51.7,62.3,52.2,61.7,52.5,60.4z"/>
		<path class="st2" d="M51.5,66.1c0.2-1.2,0-2.5-0.4-2.9c-0.3-0.4-0.7,0.1-0.9,1.2c-0.1,1.1,0,2.3,0.4,2.8
			C50.9,67.7,51.3,67.3,51.5,66.1z"/>
		<path class="st2" d="M51,71.4c0-1-0.2-2.4-0.6-2.9c-0.3-0.5-0.6-0.1-0.6,0.9s0.2,2.2,0.5,2.8C50.7,72.7,51,72.4,51,71.4z"/>
		<path class="st2" d="M50.4,73.2c-0.1-0.1-0.1-0.2-0.2-0.2c0.2,1.2,0.5,2.5,0.9,3.7c0-0.1,0-0.4,0-0.7
			C51.1,75.1,50.8,73.8,50.4,73.2z"/>
		<path class="st2" d="M59.9,37.9c0.4-0.1,1.3-0.9,2-1.7c0.6-0.7,0.8-1.2,0.5-1.2c-1,0.9-1.9,1.9-2.7,2.9
			C59.7,37.9,59.7,37.9,59.9,37.9z"/>
		<path class="st2" d="M58.7,40.5c0.6-1,0.8-1.7,0.4-1.6c-0.2,0-0.5,0.3-0.9,0.7c-0.4,0.5-0.7,1-1.1,1.5c-0.4,0.7-0.5,1.2-0.2,1.2
			C57.3,42.2,58.1,41.4,58.7,40.5z"/>
		<path class="st2" d="M55.9,45.4c0.5-1.1,0.7-1.9,0.4-1.9s-1,0.8-1.5,1.8s-0.7,1.9-0.4,1.9C54.6,47.2,55.3,46.4,55.9,45.4z"/>
		<path class="st2" d="M53.5,50.6c0.4-1.1,0.6-2.1,0.3-2.3C53.5,48.2,53,49,52.5,50c-0.4,1-0.5,2-0.3,2.2
			C52.5,52.5,53.1,51.8,53.5,50.6z"/>
		<path class="st2" d="M51.6,56.1c0.3-1.1,0.4-2.3,0.1-2.5c-0.2-0.2-0.7,0.5-1,1.6s-0.4,2.1-0.1,2.4C50.9,57.9,51.3,57.2,51.6,56.1z
			"/>
		<path class="st2" d="M50.4,61.5c0.2-1.1,0.2-2.3,0-2.6c-0.1-0.2-0.3-0.1-0.4,0.3c-0.2,1.1-0.3,2.2-0.3,3.4c0,0.1,0,0.2,0.1,0.3
			C49.9,63.2,50.2,62.6,50.4,61.5z"/>
		<path class="st2" d="M49.8,66.6c0.1-1,0-2.2-0.2-2.7l0,0c0,1.2,0,2.5,0.1,3.7C49.7,67.5,49.8,67.1,49.8,66.6z"/>
		<path class="st2" d="M53.5,47.3c-0.1,0.2-0.2,0.5-0.3,0.7c0.1-0.1,0.1-0.3,0.2-0.4C53.4,47.5,53.5,47.4,53.5,47.3z"/>
	</g>
</g>
</svg>
