<svg version="1.1" id="Calque_1" xmlns="http://www.w3.org/2000/svg" xmlns:xlink="http://www.w3.org/1999/xlink" x="0px" y="0px"
	 viewBox="0 0 540 574.3" style="enable-background:new 0 0 540 574.3;" xml:space="preserve">
<style type="text/css">
	.st0{fill:#0F57B1;}
	.st1{fill:#FF3200;}
	.st2{fill:#FFFFFF;}
</style>
<g>
	<g>
		<g>
			<circle class="st0" cx="399.6" cy="247.8" r="140.3"/>
			<circle class="st1" cx="140.4" cy="140.4" r="140.3"/>
		</g>
		<g>
			<path class="st2" d="M134.2,162.3c0.7-2.5,1.1-4.8,1.1-6.3c-1,3.4-1.8,6.9-2.5,10.4C133.2,165.5,133.7,164.1,134.2,162.3z"/>
			<path class="st2" d="M139.6,145.2c1.1-2.8,1.7-5.2,1.6-6.3c-0.2,0.4-0.4,0.8-0.5,1.2c-1.4,3.5-2.7,6.9-3.8,10.4
				C137.6,150,138.6,147.9,139.6,145.2z"/>
			<path class="st2" d="M148.8,123.6c-2,3.4-3.8,7-5.5,10.7c0.8-0.8,2.2-3,3.5-5.6C148,126.4,148.7,124.5,148.8,123.6z"/>
			<path class="st2" d="M156.8,111.2c-1.5,2-2.9,4.1-4.2,6.2c0.9-1.1,2-2.6,3-4.2C156,112.5,156.4,111.8,156.8,111.2z"/>
			<path class="st2" d="M130.3,200.9c0-0.1,0-0.1-0.1-0.1c0.2,4,0.6,8.1,1.1,12.1c0.2-0.6,0.2-1.6,0.2-2.9
				C131.5,206.6,131,202.5,130.3,200.9z"/>
			<path class="st2" d="M132.4,193.3c0.4-3.7,0.1-7.8-0.6-9.1c-0.5-0.9-1.1-0.1-1.5,1.7c-0.2,3.2-0.3,6.4-0.2,9.6
				c0.1,0.6,0.2,1.1,0.4,1.5C131.2,198.5,132,196.9,132.4,193.3z"/>
			<path class="st2" d="M135.3,175.3c0.8-3.9,0.8-7.8,0-8.8c-0.8-0.9-2,1.3-2.8,4.9c-0.7,3.6-0.8,7.4-0.1,8.5
				C133.2,181.2,134.5,179.1,135.3,175.3z"/>
			<path class="st2" d="M136.5,162.1c0.9,0.9,2.6-1.6,3.8-5.5c1.3-3.9,1.5-7.6,0.6-8.2c-0.9-0.5-2.5,2-3.7,5.6
				C136,157.7,135.7,161.3,136.5,162.1z"/>
			<path class="st2" d="M142.5,144.1c1,0.5,3.1-2.2,4.8-6c1.6-3.8,2.1-7,1-7.2c-1-0.2-3.1,2.5-4.7,6
				C142.1,140.4,141.6,143.7,142.5,144.1z"/>
			<path class="st2" d="M150.3,126.7c1.2,0.1,3.7-2.7,5.7-6.2c2-3.5,2.5-6.2,1.2-6.1c-1.2,0.1-3.7,2.9-5.5,6.2
				C149.9,123.9,149.3,126.6,150.3,126.7z"/>
			<path class="st2" d="M159.6,110.7c1.3-0.3,4.2-3,6.4-6.2c2.2-3.1,2.7-5.2,1.3-4.7c-1.4,0.4-4.1,3.1-6.2,6
				C159.1,108.7,158.4,110.9,159.6,110.7z"/>
			<path class="st2" d="M169.9,96.5c1.5-0.5,4.6-3.1,7-5.8c1.9-2.2,2.6-3.6,1.8-3.6c-3.3,2.9-6.4,5.9-9.5,9.1
				C169.1,96.6,169.3,96.7,169.9,96.5z"/>
			<path class="st2" d="M135.2,231.8c0.8,3.1,1.8,6.1,2.9,9.2c0-0.1,0-0.3-0.1-0.4C137.5,237.8,136.2,233.9,135.2,231.8z"/>
			<path class="st2" d="M136.4,226.1c-0.2-3.3-1.2-7.6-2.4-9.6c-1.1-1.9-1.8-0.7-1.6,2.5c0,0.5,0.1,1,0.1,1.5c0.3,1.5,0.6,3,0.9,4.6
				c0.4,1.2,0.7,2.3,1.2,3.1C135.7,230.2,136.5,229.3,136.4,226.1z"/>
			<path class="st2" d="M134,212.5c1.2,1.9,2.3,0.5,2.5-3.1c0.2-3.7-0.6-8.2-1.8-10c-1.1-1.6-2.2,0-2.4,3.6
				C132.2,206.5,132.9,210.7,134,212.5z"/>
			<path class="st2" d="M135.3,195c1.2,1.7,2.8-0.2,3.5-4.2c0.7-4.1,0.2-8.6-1.1-10c-1.2-1.3-2.7,0.8-3.4,4.6
				C133.7,189.2,134.1,193.5,135.3,195z"/>
			<path class="st2" d="M138.3,166.8c-1.1,3.9-0.9,8.1,0.4,9.3c1.4,1.3,3.4-1,4.5-5.2c1.2-4.3,0.9-8.6-0.5-9.6
				C141.3,160.3,139.3,162.8,138.3,166.8z"/>
			<path class="st2" d="M144.4,147.8c-1.5,3.9-1.5,7.8-0.2,8.7c1.5,0.9,4-1.7,5.6-6c1.6-4.2,1.6-8.2,0-8.8
				C148.3,141.1,145.9,143.9,144.4,147.8z"/>
			<path class="st2" d="M158.4,130.7c2-4,2.1-7.5,0.3-7.7c-1.7-0.2-4.5,2.6-6.4,6.4c-1.8,3.8-2.1,7.2-0.6,7.7
				C153.5,137.6,156.4,134.7,158.4,130.7z"/>
			<path class="st2" d="M161.1,118.7c1.8,0.1,5.2-2.7,7.4-6.4c2.2-3.6,2.4-6.4,0.5-6.3c-1.8,0.1-5,2.9-7.1,6.3
				C159.8,115.7,159.5,118.5,161.1,118.7z"/>
			<path class="st2" d="M171.7,102.1c2-0.2,5.6-2.9,8-6.1c2.4-3.1,2.5-5.2,0.5-4.8c-2,0.4-5.4,3-7.6,5.9
				C170.2,100,169.8,102.3,171.7,102.1z"/>
			<path class="st2" d="M182.9,88c2.1-0.5,5.9-2.9,8.3-5.5c2.4-2.5,2.5-4,0.3-3.4c-2.1,0.6-5.6,2.9-7.9,5.3
				C181.3,86.8,180.9,88.4,182.9,88z"/>
			<path class="st2" d="M194.3,76.5c2.2-0.6,6-2.8,8.4-4.8c1.6-1.3,2.1-2.2,1.5-2.3c-3.9,2.1-7.6,4.3-11.3,6.8
				C192.8,76.7,193.2,76.8,194.3,76.5z"/>
			<path class="st2" d="M145.5,258.4c0.4,0.1,0.5-0.5,0.2-1.9c-0.6-2.6-2.4-6.6-3.9-8.9c-0.9-1.3-1.5-1.7-1.7-1.3
				C141.7,250.4,143.5,254.4,145.5,258.4z"/>
			<path class="st2" d="M143.7,243.1c-0.3-3.1-1.9-7.6-3.5-9.9c-1.6-2.1-2.6-1.3-2.3,1.8c0.3,3,1.8,7.1,3.3,9.3
				C142.8,246.7,143.9,246.2,143.7,243.1z"/>
			<path class="st2" d="M137.2,219.3c0,3.5,1.2,7.9,2.8,10.1c1.7,2.2,3.2,1.2,3.3-2.4c0.1-3.7-1.2-8.5-3-10.6
				C138.6,214.4,137.2,215.8,137.2,219.3z"/>
			<path class="st2" d="M145,208.3c0.6-4.2-0.5-9.1-2.4-11c-1.8-1.7-3.7,0.1-4.1,4.1c-0.5,3.9,0.5,8.6,2.2,10.5
				C142.5,214,144.4,212.4,145,208.3z"/>
			<path class="st2" d="M143.4,192.4c1.9,1.8,4.4-0.4,5.4-4.8c1.1-4.5,0.3-9.4-1.8-10.9c-1.9-1.4-4.3,0.9-5.2,5.1
				C140.9,186.1,141.6,190.8,143.4,192.4z"/>
			<path class="st2" d="M148.5,171.6c2.1,1.4,5-1.1,6.6-5.7c1.5-4.6,1-9.3-1.2-10.4c-2.1-1-4.9,1.6-6.3,6
				C146.1,165.7,146.5,170.2,148.5,171.6z"/>
			<path class="st2" d="M155.8,150.3c2.3,1,5.7-1.8,7.6-6.3c2-4.5,1.6-8.7-0.8-9.4c-2.2-0.7-5.5,2.2-7.3,6.4
				C153.4,145.1,153.7,149.3,155.8,150.3z"/>
			<path class="st2" d="M165,129.6c2.4,0.6,6.3-2.3,8.5-6.5c2.2-4.2,2-7.8-0.6-8.1c-2.4-0.3-6,2.6-8.2,6.5
				C162.7,125.3,162.8,129,165,129.6z"/>
			<path class="st2" d="M175.6,103.7c-2.4,3.5-2.4,6.5,0.1,6.7c2.6,0.2,6.7-2.6,9.2-6.3c2.4-3.6,2.2-6.6-0.5-6.5
				C181.9,97.6,178,100.3,175.6,103.7z"/>
			<path class="st2" d="M196.2,83.1c-2.6,0.2-6.6,2.7-9,5.5c-2.5,2.9-2.4,5.2,0.1,5.2c2.7-0.1,7-2.7,9.5-5.8
				C199.2,85,198.9,82.8,196.2,83.1z"/>
			<path class="st2" d="M198.8,76.4c-2.4,2.3-2.4,3.9,0.3,3.6c2.7-0.3,7-2.6,9.5-5c2.4-2.3,2-3.8-0.7-3.4
				C205.1,72,201.1,74.1,198.8,76.4z"/>
			<path class="st2" d="M210.5,69.3c2.7-0.5,6.9-2.3,9.3-4.1c2.2-1.7,1.7-2.6-1-2.1c-2.6,0.5-6.5,2.2-8.8,3.8
				C207.7,68.7,207.9,69.7,210.5,69.3z"/>
			<path class="st2" d="M228.7,59.2c-2.2,0.7-4.4,1.4-6.5,2.2C224.3,60.9,226.8,60,228.7,59.2z"/>
			<path class="st2" d="M148.4,263.9L148.4,263.9c1.8,3.2,3.7,6.2,5.7,9.3c1.3,1.2,1.9,1,1.5-0.7c-0.6-2.2-2.8-6.1-4.8-8.5
				C148.8,261.6,147.7,261.6,148.4,263.9z"/>
			<path class="st2" d="M145.8,251.9c0.4,2.7,2.3,6.8,4.4,9.2c2.1,2.4,3.6,2.3,3.3-0.5c-0.3-2.9-2.4-7.2-4.6-9.7
				C146.7,248.5,145.4,249,145.8,251.9z"/>
			<path class="st2" d="M144.6,237.1c0.1,3.3,1.8,7.9,4,10.2c2.3,2.4,4.1,1.8,4.2-1.6c0-3.5-1.9-8.4-4.2-10.8
				C146.3,232.6,144.6,233.6,144.6,237.1z"/>
			<path class="st2" d="M148.8,230.5c2.4,2.4,4.8,1.1,5.2-2.9c0.5-4.1-1.2-9.3-3.7-11.6c-2.4-2.1-4.7-0.5-5,3.4
				C145,223.4,146.5,228.3,148.8,230.5z"/>
			<path class="st2" d="M151.1,211.1c2.6,2.2,5.5,0.3,6.4-4.2c1-4.6-0.4-10-3.2-12c-2.6-1.9-5.3,0.2-6.2,4.7
				C147.3,203.9,148.6,209.1,151.1,211.1z"/>
			<path class="st2" d="M155.7,189.5c2.8,1.9,6.2-0.5,7.6-5.3c1.5-4.9,0.3-10.2-2.6-11.9c-2.7-1.5-6,1-7.4,5.7
				C152,182.6,153,187.8,155.7,189.5z"/>
			<path class="st2" d="M162.6,166.8c3,1.5,6.9-1.2,8.8-6.1c1.9-4.9,0.9-10-2.1-11.2c-2.9-1.2-6.7,1.7-8.5,6.3
				C159,160.4,159.8,165.3,162.6,166.8z"/>
			<path class="st2" d="M170.2,133.9c-2.1,4.4-1.5,8.9,1.4,10c3.1,1.1,7.5-1.8,9.7-6.5c2.2-4.7,1.4-9.2-1.8-10
				C176.5,126.6,172.3,129.5,170.2,133.9z"/>
			<path class="st2" d="M181,113.6c-2.4,4-1.9,7.9,1.2,8.6c3.2,0.8,7.9-2.2,10.4-6.5c2.4-4.2,1.7-8-1.6-8.5
				C187.8,106.8,183.4,109.7,181,113.6z"/>
			<path class="st2" d="M203,90.1c-3.2-0.2-7.7,2.4-10.2,5.8c-2.5,3.5-2,6.6,1.1,7c3.3,0.4,8.1-2.3,10.7-6
				C207.1,93.3,206.3,90.2,203,90.1z"/>
			<path class="st2" d="M204.7,81.1c-2.5,2.8-2,5.2,1.2,5.3c3.4,0.1,8.2-2.2,10.7-5.2c2.4-2.8,1.6-5.1-1.7-5.1
				C211.6,76.2,207.1,78.4,204.7,81.1z"/>
			<path class="st2" d="M226.1,65.6c-3.2,0.2-7.5,2-9.8,4c-2.4,2.1-1.8,3.8,1.4,3.7c3.3-0.1,8-2,10.3-4.2
				C230.2,67,229.3,65.4,226.1,65.6z"/>
			<path class="st2" d="M228.7,63.5c3.2-0.2,7.7-1.6,9.8-3.2c2-1.4,1-2.4-2.1-2.1c-3.1,0.3-7.2,1.6-9.3,3
				C224.9,62.7,225.5,63.7,228.7,63.5z"/>
			<path class="st2" d="M247.8,54.7c0.1,0,0.2-0.1,0.2-0.1c-3.8,0.6-7.7,1.4-11.4,2.3c0.5,0,1.2,0,2.1,0
				C241.8,56.6,245.9,55.7,247.8,54.7z"/>
			<path class="st2" d="M158.6,278.9c0.1,0.4,0.3,0.8,0.6,1.3c1.9,2.5,3.8,4.8,5.9,7.2c1.6,1.4,2.6,1.5,2.2,0
				c-0.5-1.8-3-5.3-5.5-7.8C159.3,277.3,157.9,277,158.6,278.9z"/>
			<path class="st2" d="M156,268.6c0.4,2.4,2.7,6.3,5.2,8.7c2.6,2.5,4.4,2.6,4.2,0.2c-0.3-2.5-2.7-6.6-5.4-9.1
				C157.3,265.9,155.5,266,156,268.6z"/>
			<path class="st2" d="M154.7,255.2c0.1,3.1,2.3,7.5,5,9.9c2.8,2.5,5.1,2.2,5.1-0.9c0-3.2-2.3-7.9-5.2-10.4
				C156.7,251.3,154.5,252,154.7,255.2z"/>
			<path class="st2" d="M155,238.6c-0.3,3.7,1.8,8.7,4.7,11.1c3,2.5,5.8,1.6,6.2-2.2c0.5-3.9-1.8-9.2-4.9-11.6
				C158,233.5,155.3,234.7,155,238.6z"/>
			<path class="st2" d="M157.5,219.1c-0.7,4.3,1.2,9.7,4.2,12c3.2,2.5,6.6,0.9,7.5-3.5c0.9-4.6-1.1-10.2-4.5-12.5
				C161.5,212.8,158.3,214.6,157.5,219.1z"/>
			<path class="st2" d="M162.3,197.1c-1.2,4.7,0.4,10.3,3.7,12.5c3.4,2.3,7.4,0.2,8.7-4.8c1.4-5-0.4-10.8-4-12.9
				C167.3,189.9,163.5,192.2,162.3,197.1z"/>
			<path class="st2" d="M169.3,173.5c-1.7,5-0.3,10.5,3.2,12.4c3.6,2,8.1-0.6,10-5.8c1.9-5.3,0.3-11-3.5-12.7
				C175.4,165.8,171.1,168.5,169.3,173.5z"/>
			<path class="st2" d="M178.5,149.7c-2.1,4.9-0.9,10.2,2.8,11.8c3.8,1.7,8.8-1.2,11-6.4c2.2-5.2,0.8-10.5-3.1-11.9
				C185.4,141.9,180.6,144.8,178.5,149.7z"/>
			<path class="st2" d="M200.5,120.4c-3.8-1-8.8,1.9-11.2,6.4c-2.4,4.6-1.3,9.3,2.5,10.6c4,1.3,9.2-1.6,11.6-6.5
				C205.9,126.2,204.6,121.5,200.5,120.4z"/>
			<path class="st2" d="M201.1,106.3c-2.5,4-1.5,8.1,2.3,9c4,0.9,9.4-1.8,11.9-6.1c2.5-4.2,1.2-8.1-2.8-8.8
				C208.7,99.7,203.6,102.3,201.1,106.3z"/>
			<path class="st2" d="M224.5,83.7c-3.8-0.4-8.8,1.8-11.3,5.1c-2.5,3.4-1.5,6.6,2.3,7.2c4,0.6,9.3-1.8,11.8-5.3
				C229.7,87.2,228.4,84.1,224.5,83.7z"/>
			<path class="st2" d="M224.9,74.7c-2.4,2.6-1.4,5,2.4,5.4c3.9,0.4,9.1-1.5,11.4-4.3c2.2-2.6,0.9-4.9-3-5.2
				C232,70.4,227.2,72.2,224.9,74.7z"/>
			<path class="st2" d="M235.8,64.3c-2.2,1.9-1.1,3.6,2.6,3.8c3.8,0.2,8.6-1.2,10.7-3.2c2-1.9,0.6-3.5-3.1-3.6
				C242.4,61.2,237.9,62.5,235.8,64.3z"/>
			<path class="st2" d="M255,55.1c-3.3,0-7.5,0.8-9.4,2c-2,1.2-0.8,2.3,2.7,2.4c3.6,0.1,8-0.9,9.8-2.1
				C259.8,56.2,258.4,55.2,255,55.1z"/>
			<path class="st2" d="M265.8,52.9c-3.9,0.1-7.9,0.4-11.8,0.8c0.6,0.2,1.6,0.3,2.9,0.3C260.3,54.1,264.2,53.6,265.8,52.9z"/>
			<path class="st2" d="M170.4,293c0,0.1,0.1,0.2,0.1,0.3c2.8,2.8,5.7,5.6,8.8,8.2c0.8,0.3,1.2,0.2,1-0.5c-0.4-1.4-3.1-4.4-5.9-6.7
				C171.6,292,169.8,291.5,170.4,293z"/>
			<path class="st2" d="M179,293.1c-0.2-2-2.9-5.7-6-8.1c-3.1-2.4-5.2-2.5-4.8-0.4c0.4,2,2.9,5.5,5.8,7.7
				C176.9,294.6,179.1,295,179,293.1z"/>
			<path class="st2" d="M167,273c0.1,2.7,2.7,6.8,5.8,9.2c3.2,2.5,5.9,2.4,6-0.2c0.1-2.8-2.6-7.1-6-9.6
				C169.5,269.9,166.9,270.2,167,273z"/>
			<path class="st2" d="M167.4,258.1c-0.3,3.4,2.2,8.1,5.6,10.6c3.5,2.6,6.7,1.9,7.2-1.4c0.5-3.5-2.1-8.6-5.8-11.1
				C170.8,253.7,167.7,254.6,167.4,258.1z"/>
			<path class="st2" d="M169.7,239.8c-0.7,4.1,1.7,9.4,5.4,11.9c3.8,2.6,7.6,1.3,8.5-2.8c0.9-4.3-1.6-9.9-5.5-12.5
				C174.1,234,170.4,235.5,169.7,239.8z"/>
			<path class="st2" d="M174.2,218.2c-1.2,4.7,1,10.5,5,12.9c4,2.5,8.5,0.7,9.8-4.2c1.4-5-0.9-11-5.2-13.4
				C179.7,211.2,175.4,213.4,174.2,218.2z"/>
			<path class="st2" d="M181.1,194.2c-1.6,5.1,0.4,11.1,4.5,13.4c4.3,2.4,9.3,0,11.1-5.3c1.8-5.4-0.3-11.6-4.8-13.8
				C187.6,186.4,182.7,189,181.1,194.2z"/>
			<path class="st2" d="M190,169c-2.1,5.3-0.2,11.2,4.1,13.3c4.5,2.1,9.9-0.6,12.1-6.1c2.2-5.5,0.2-11.6-4.5-13.5
				C197.3,160.8,192.1,163.7,190,169z"/>
			<path class="st2" d="M213,137.5c-4.5-1.5-10.1,1.4-12.4,6.4c-2.4,5.1-0.7,10.7,3.8,12.4c4.6,1.8,10.4-1.1,12.8-6.4
				C219.6,144.7,217.7,139.1,213,137.5z"/>
			<path class="st2" d="M212.3,120.6c-2.5,4.7-0.9,9.6,3.6,11.1c4.7,1.5,10.6-1.3,13.1-6.2c2.5-4.8,0.6-9.7-4.1-11
				C220.4,113.4,214.8,116.1,212.3,120.6z"/>
			<path class="st2" d="M236.7,94.9c-4.4-1-10,1.4-12.4,5.2c-2.5,4-1,8.2,3.5,9.3c4.7,1.2,10.5-1.3,12.9-5.4
				C243.1,100,241.3,95.9,236.7,94.9z"/>
			<path class="st2" d="M236,83.3c-2.4,3.2-0.8,6.5,3.6,7.4c4.5,0.9,10.1-1,12.4-4.4c2.2-3.2,0.3-6.4-4.1-7.2
				C243.6,78.3,238.3,80.2,236,83.3z"/>
			<path class="st2" d="M257.8,67.2c-4-0.6-9,0.8-11.1,3c-2.2,2.4-0.6,4.9,3.6,5.6c4.3,0.7,9.5-0.7,11.5-3.2
				C263.8,70.2,261.9,67.8,257.8,67.2z"/>
			<path class="st2" d="M256.3,61c-1.9,1.6-0.3,3.4,3.7,4c4.1,0.6,8.8-0.4,10.5-2.1c1.6-1.6-0.3-3.3-4.1-3.8
				C262.6,58.6,258.1,59.4,256.3,61z"/>
			<path class="st2" d="M273.7,54c-3.5-0.4-7.6,0-9.1,0.9c-1.6,1,0,2.1,3.7,2.6c3.8,0.5,8.1,0,9.5-1C279.1,55.5,277.3,54.4,273.7,54
				z"/>
			<path class="st2" d="M281.7,53.4c-2.9-0.2-5.7-0.4-8.6-0.5c0.6,0.1,1.3,0.2,2.1,0.3C277.6,53.5,280,53.5,281.7,53.4z"/>
			<path class="st2" d="M183.4,304.8c3.4,2.7,7,5.2,10.7,7.6c0,0,0,0,0,0c-0.2-1-2.9-3.4-6-5.4C185.7,305.4,183.9,304.6,183.4,304.8
				z"/>
			<path class="st2" d="M181.6,298.9c0.2,1.6,3,4.5,6.1,6.6c3.2,2.1,5.8,2.6,5.8,1.2c0-1.6-2.8-4.6-6.2-6.8
				C183.9,297.6,181.4,297.2,181.6,298.9z"/>
			<path class="st2" d="M194.1,297.9c0.3-2.3-2.6-6-6.3-8.4c-3.7-2.3-6.7-2.3-6.7,0.1c0,2.2,2.8,5.8,6.2,8
				C190.8,299.9,193.9,300,194.1,297.9z"/>
			<path class="st2" d="M181.9,276.8c-0.3,3,2.5,7.3,6.2,9.6c3.8,2.4,7.4,2,8-0.9c0.6-3.1-2.2-7.6-6.3-10.1
				C185.8,273.1,182.2,273.7,181.9,276.8z"/>
			<path class="st2" d="M199.9,269.3c1-3.9-1.8-9.2-6.2-11.7c-4.3-2.5-8.5-1.3-9.2,2.7c-0.7,3.8,2,8.8,6.1,11.2
				C194.7,274,198.9,273,199.9,269.3z"/>
			<path class="st2" d="M189,240c-1.2,4.5,1.5,10.2,5.9,12.7c4.5,2.5,9.3,1,10.7-3.6c1.4-4.7-1.3-10.6-6-13.1
				C195,233.5,190.2,235.3,189,240z"/>
			<path class="st2" d="M195.8,216.5c-1.6,5.1,0.9,11.2,5.6,13.7c4.8,2.5,10.2,0.3,12-4.8c1.8-5.3-0.7-11.7-5.8-14.1
				C202.7,208.9,197.4,211.2,195.8,216.5z"/>
			<path class="st2" d="M204.6,190.7c-2,5.5,0.3,11.8,5.3,14.2c5.1,2.4,10.9-0.2,13.1-5.8c2.2-5.7-0.3-12.1-5.5-14.4
				C212.4,182.5,206.6,185.2,204.6,190.7z"/>
			<path class="st2" d="M215.1,164.2c-2.3,5.5-0.1,11.7,5,13.9c5.2,2.2,11.4-0.6,13.8-6.3c2.4-5.7,0-11.9-5.3-14
				C223.4,155.9,217.4,158.7,215.1,164.2z"/>
			<path class="st2" d="M240.2,132.4c-5.1-1.7-11.2,1-13.7,6.1c-2.5,5.2-0.3,11,4.8,12.9c5.3,2,11.6-0.8,14-6.2
				C247.8,140,245.5,134.2,240.2,132.4z"/>
			<path class="st2" d="M251.7,109.9c-5-1.5-11,0.9-13.4,5.3c-2.5,4.6-0.4,9.7,4.7,11.4c5.2,1.7,11.4-0.8,13.8-5.6
				C259.2,116.4,256.8,111.4,251.7,109.9z"/>
			<path class="st2" d="M262.5,91.1c-4.8-1.3-10.5,0.6-12.7,4.3c-2.3,3.8-0.3,8.1,4.7,9.6c5.1,1.5,10.9-0.6,13.1-4.5
				C269.7,96.6,267.3,92.4,262.5,91.1z"/>
			<path class="st2" d="M260.2,79.6c-2.1,3,0,6.4,4.7,7.6c4.8,1.3,10.3-0.2,12.2-3.3c1.8-2.9-0.5-6.2-5.1-7.4
				C267.5,75.4,262.2,76.7,260.2,79.6z"/>
			<path class="st2" d="M280.1,65.9c-4.2-1-8.9-0.1-10.7,1.9c-1.8,2.1,0.3,4.7,4.7,5.8c4.5,1.1,9.5,0.2,11-2.1
				C286.6,69.4,284.3,66.9,280.1,65.9z"/>
			<path class="st2" d="M286.7,58.9c-3.9-0.8-8.1-0.5-9.5,0.8c-1.5,1.4,0.6,3.2,4.7,4.2c4.2,0.9,8.6,0.5,9.8-1
				C292.8,61.5,290.6,59.7,286.7,58.9z"/>
			<path class="st2" d="M288,57.7c3.8,0.8,7.7,0.8,8.7,0c0.9-0.8-1.3-2-4.9-2.7c-3.5-0.7-7.3-0.8-8.4-0.1
				C282.2,55.6,284.3,56.9,288,57.7z"/>
			<path class="st2" d="M195.9,311.2c0.1,1.1,2.8,3.4,6,5.2c3.3,1.8,6.2,2.4,6.4,1.4c0.2-1.1-2.5-3.5-6.1-5.4
				C198.7,310.6,195.9,310,195.9,311.2z"/>
			<path class="st2" d="M209.9,311.4c0.5-1.7-2.4-4.8-6.3-6.9c-3.9-2-7.2-2.2-7.4-0.3c-0.2,1.7,2.6,4.7,6.3,6.6
				C206.1,312.7,209.4,313,209.9,311.4z"/>
			<path class="st2" d="M212.7,301.6c0.8-2.5-2.1-6.4-6.4-8.6c-4.3-2.2-8.1-1.8-8.6,0.8c-0.4,2.5,2.4,6.1,6.4,8.2
				C208.1,304.2,212,304,212.7,301.6z"/>
			<path class="st2" d="M217.2,287.9c1.2-3.4-1.7-8-6.4-10.4c-4.7-2.3-9.1-1.4-10,2.1c-0.8,3.3,2.1,7.7,6.4,10
				C211.7,291.9,216.1,291.1,217.2,287.9z"/>
			<path class="st2" d="M205.8,261.5c-1.2,4.1,1.6,9.3,6.4,11.7c4.8,2.4,9.9,1,11.3-3.1c1.5-4.2-1.3-9.7-6.4-12.1
				C212.1,255.6,207,257.2,205.8,261.5z"/>
			<path class="st2" d="M212.7,239.4c-1.6,4.9,1.1,10.8,6.2,13.2c5.1,2.4,10.8,0.5,12.6-4.4c1.9-5-0.9-11.1-6.2-13.6
				C220,232.2,214.4,234.4,212.7,239.4z"/>
			<path class="st2" d="M221.6,214.2c-2,5.5,0.7,11.8,6,14.3c5.4,2.5,11.5,0,13.7-5.5c2.2-5.6-0.5-12.1-6.1-14.5
				C229.7,206.1,223.6,208.7,221.6,214.2z"/>
			<path class="st2" d="M232,187.2c-2.3,5.7,0.3,12.3,5.8,14.7c5.6,2.4,12-0.3,14.4-6.1c2.4-5.8-0.3-12.4-6-14.8
				C240.6,178.7,234.2,181.4,232,187.2z"/>
			<path class="st2" d="M243.3,160c-2.4,5.6,0.1,12,5.7,14.3c5.6,2.3,12.2-0.5,14.6-6.2c2.4-5.7-0.3-12-5.9-14.2
				C252.1,151.6,245.7,154.4,243.3,160z"/>
			<path class="st2" d="M254.9,134.3c-2.4,5.1,0.1,11.1,5.6,13.2c5.6,2.2,12-0.4,14.3-5.7c2.2-5.2-0.4-11-5.9-13
				C263.5,126.8,257.2,129.2,254.9,134.3z"/>
			<path class="st2" d="M265.9,111.5c-2.2,4.4,0.2,9.6,5.6,11.6c5.4,2,11.5-0.2,13.6-4.7c2-4.4-0.7-9.5-5.9-11.3
				C274,105.3,268.1,107.3,265.9,111.5z"/>
			<path class="st2" d="M288.1,89.5c-4.9-1.6-10.3-0.2-12.2,3.2c-2,3.6,0.5,7.9,5.6,9.7c5.1,1.8,10.8,0.2,12.5-3.5
				C295.7,95.4,293,91.2,288.1,89.5z"/>
			<path class="st2" d="M295.5,76.2c-4.5-1.5-9.4-0.6-11,1.9c-1.7,2.7,0.8,6.2,5.6,7.8c4.8,1.6,9.9,0.6,11.3-2.2
				C302.6,81,300,77.7,295.5,76.2z"/>
			<path class="st2" d="M291.5,67.6c-1.4,1.9,1.1,4.5,5.5,6c4.5,1.4,8.9,1,10-1c1-1.8-1.6-4.4-5.8-5.7
				C297.1,65.5,292.8,65.8,291.5,67.6z"/>
			<path class="st2" d="M305.6,60.8c-3.8-1.2-7.6-1.2-8.5-0.2c-1.1,1.2,1.4,3.1,5.4,4.4c4.1,1.3,8,1.3,8.7,0
				C311.9,63.9,309.4,62,305.6,60.8z"/>
			<path class="st2" d="M306.5,59.8c3.7,1.2,7.1,1.6,7.6,0.9c0.1-0.1,0.1-0.3-0.1-0.4c-4.2-1.4-8.4-2.6-12.6-3.6
				c-0.1,0-0.1,0.1-0.2,0.1C300.5,57.3,302.8,58.7,306.5,59.8z"/>
			<path class="st2" d="M210.3,321c0,0.1,0,0.3,0.2,0.5c1.8,0.8,3.6,1.6,5.4,2.4c2.1,0.9,4.3,1.7,6.4,2.5c0.2,0,0.4-0.1,0.4-0.2
				c0.4-0.7-2.1-2.4-5.7-3.9C213.5,320.9,210.5,320.2,210.3,321z"/>
			<path class="st2" d="M219.4,316.7c-4-1.7-7.5-1.9-7.9-0.5c-0.4,1.2,2.3,3.5,6,5.1c3.7,1.5,7.2,1.8,7.8,0.7
				C226,320.6,223.4,318.3,219.4,316.7z"/>
			<path class="st2" d="M229.2,314.6c1-2-1.7-5-6.1-6.8c-4.3-1.8-8.4-1.6-9.1,0.5c-0.6,1.9,2.1,4.9,6.2,6.6
				C224.2,316.5,228.3,316.4,229.2,314.6z"/>
			<path class="st2" d="M234.5,303.6c1.3-2.8-1.4-6.7-6.2-8.6c-4.7-2-9.4-1.2-10.4,1.7c-1,2.7,1.9,6.5,6.3,8.3
				C228.7,306.8,233.3,306.2,234.5,303.6z"/>
			<path class="st2" d="M223.5,281c-1.3,3.6,1.5,8.2,6.3,10.2c4.8,2,10,0.8,11.6-2.7c1.7-3.7-1.1-8.4-6.2-10.5
				C230.2,275.8,224.9,277.2,223.5,281z"/>
			<path class="st2" d="M250.1,269.2c2-4.6-0.8-10.1-6.2-12.3c-5.4-2.3-11.2-0.3-13,4.4c-1.7,4.5,1.1,9.8,6.3,12
				C242.4,275.3,248.2,273.6,250.1,269.2z"/>
			<path class="st2" d="M240.1,237.5c-2,5.2,0.8,11.3,6.2,13.5c5.5,2.3,11.7,0,13.9-5.2c2.3-5.3-0.5-11.5-6.1-13.8
				C248.5,229.8,242.2,232.2,240.1,237.5z"/>
			<path class="st2" d="M271.3,219.7c2.4-5.7-0.3-12.3-6.1-14.7c-5.7-2.4-12.3,0.3-14.6,6.1c-2.3,5.7,0.5,12.2,6.1,14.6
				C262.4,228,268.9,225.4,271.3,219.7z"/>
			<path class="st2" d="M282.7,192c2.4-5.8-0.4-12.4-6.1-14.8c-5.7-2.4-12.3,0.4-14.7,6.2c-2.4,5.8,0.3,12.5,6.1,14.9
				C273.7,200.6,280.3,197.8,282.7,192z"/>
			<path class="st2" d="M273.2,156.1c-2.3,5.6,0.4,12,6.1,14.4c5.7,2.4,12.1-0.3,14.4-5.9c2.2-5.5-0.6-11.9-6.2-14.2
				C281.9,148.1,275.5,150.6,273.2,156.1z"/>
			<path class="st2" d="M303.6,139.3c1.9-4.9-0.9-10.7-6.3-12.9c-5.4-2.2-11.4-0.1-13.5,4.7c-2.1,5,0.6,10.9,6.1,13.2
				C295.6,146.6,301.7,144.3,303.6,139.3z"/>
			<path class="st2" d="M312,117.2c1.5-4.1-1.3-9.1-6.3-11.2c-5-2.1-10.6-0.6-12.3,3.4c-1.9,4.2,0.9,9.4,6.2,11.6
				C304.8,123.2,310.4,121.5,312,117.2z"/>
			<path class="st2" d="M301.3,92c-1.5,3.3,1.3,7.7,6.2,9.7c4.9,2.1,9.9,1,11.2-2.5c1.2-3.2-1.7-7.4-6.3-9.4
				C307.7,87.9,302.7,88.8,301.3,92z"/>
			<path class="st2" d="M307.5,78.7c-1.2,2.4,1.6,5.9,6.2,7.8c4.6,1.9,9,1.4,9.8-1.2c0.8-2.4-2-5.7-6.3-7.5
				C313,76.1,308.6,76.5,307.5,78.7z"/>
			<path class="st2" d="M312.1,69.4c-0.9,1.6,1.9,4.4,6,6.1c4.2,1.7,8,1.7,8.5,0c0.5-1.6-2.2-4.3-6.1-5.9
				C316.7,68,312.9,67.9,312.1,69.4z"/>
			<path class="st2" d="M321.2,68.1c3.8,1.6,7.1,2,7.4,0.9c0.3-1-2.4-3-5.9-4.5c-3.5-1.5-6.8-1.9-7.3-1
				C314.8,64.5,317.4,66.5,321.2,68.1z"/>
			<path class="st2" d="M234.6,325.9c-3.8-1.2-7.5-1.5-8.1-0.5c-0.6,0.8,1.9,2.4,5.5,3.5c3.6,1.1,7.1,1.4,7.9,0.6
				C240.8,328.7,238.4,327.1,234.6,325.9z"/>
			<path class="st2" d="M235.6,324.6c3.9,1.2,8,1.1,9.1-0.2c1.2-1.5-1.3-3.7-5.5-5c-4.2-1.3-8.4-1.2-9.3,0.4
				C229.1,321.1,231.6,323.3,235.6,324.6z"/>
			<path class="st2" d="M240.5,317.2c4.3,1.4,8.9,0.8,10.3-1.3c1.5-2.2-1-5.2-5.5-6.7c-4.6-1.5-9.3-0.8-10.5,1.5
				C233.6,312.9,236.2,315.8,240.5,317.2z"/>
			<path class="st2" d="M258.5,303.7c1.8-3.1-0.7-6.9-5.6-8.6c-5-1.7-10.3-0.4-11.8,2.8c-1.5,3,1.2,6.7,5.9,8.3
				C251.7,307.7,256.8,306.6,258.5,303.7z"/>
			<path class="st2" d="M255.1,291c5,1.7,10.7,0,12.7-3.8c2.1-4-0.4-8.7-5.6-10.5c-5.3-1.9-11.1,0-13,4.1
				C247.4,284.8,250,289.3,255.1,291z"/>
			<path class="st2" d="M278.3,266.7c2.3-4.8-0.1-10.3-5.6-12.3c-5.5-2.1-11.7,0.3-13.9,5.2c-2.1,4.8,0.5,10.2,5.9,12.1
				C269.9,273.6,276,271.3,278.3,266.7z"/>
			<path class="st2" d="M289.6,242.6c2.4-5.4-0.1-11.6-5.6-13.7c-5.6-2.2-12.1,0.5-14.5,6c-2.3,5.4,0.3,11.5,5.9,13.6
				C280.9,250.5,287.2,247.9,289.6,242.6z"/>
			<path class="st2" d="M301.2,216c2.4-5.7-0.2-12.2-5.7-14.6c-5.6-2.4-12.2,0.4-14.5,6.2c-2.4,5.8,0.3,12.3,5.9,14.6
				C292.4,224.5,298.8,221.7,301.2,216z"/>
			<path class="st2" d="M312.2,188.7c2.2-5.6-0.5-12.2-5.9-14.6c-5.5-2.4-11.8,0.2-14.1,5.9c-2.3,5.8,0.4,12.4,6,14.8
				C303.7,197.1,310,194.4,312.2,188.7z"/>
			<path class="st2" d="M322,162.2c1.9-5.2-0.9-11.4-6.1-13.9c-5.3-2.5-11.2-0.2-13.3,5c-2.1,5.4,0.7,11.8,6.1,14.2
				C314.2,170,320.1,167.6,322,162.2z"/>
			<path class="st2" d="M330,138.3c1.5-4.6-1.4-10.2-6.3-12.6c-5-2.4-10.4-0.7-12.1,3.8c-1.7,4.7,1.1,10.6,6.3,13
				C323.1,144.9,328.5,143,330,138.3z"/>
			<path class="st2" d="M336.1,117.8c1-3.8-1.8-8.7-6.4-11c-4.6-2.3-9.4-1.2-10.7,2.5c-1.4,3.9,1.5,9,6.4,11.4
				C330.2,123.1,335,121.8,336.1,117.8z"/>
			<path class="st2" d="M324.4,93.3c-1,3,1.9,7.3,6.4,9.6c4.5,2.3,8.7,1.6,9.4-1.5c0.6-2.9-2.2-7-6.4-9.2
				C329.5,90,325.3,90.5,324.4,93.3z"/>
			<path class="st2" d="M328.1,81.4c-0.6,2.2,2.2,5.7,6.4,7.8c4.1,2.1,7.7,2,8.1-0.3c0.3-2.1-2.5-5.5-6.4-7.5
				C332.4,79.4,328.7,79.4,328.1,81.4z"/>
			<path class="st2" d="M336.6,79.3c3.8,2,6.8,2.3,6.9,0.7c0.1-1.4-2.7-4.1-6.2-6c-3.5-1.9-6.6-2.3-6.9-1
				C330,74.6,332.8,77.3,336.6,79.3z"/>
			<path class="st2" d="M343.3,74.2C343.3,74.2,343.3,74.2,343.3,74.2c-3.7-2.4-7.6-4.6-11.6-6.6c-0.2,0-0.3,0.1-0.3,0.3
				c-0.1,0.9,2.6,3,6,4.8C340.8,74.5,343.4,75.2,343.3,74.2z"/>
			<path class="st2" d="M248.5,332.1c-3.4-0.7-6.9-0.9-7.9-0.5c4.2,0.9,8.3,1.6,12.5,2C252.5,333.2,250.8,332.6,248.5,332.1z"/>
			<path class="st2" d="M249.7,331.2c3.7,0.8,7.6,0.6,8.9-0.3c1.4-1-0.7-2.5-4.6-3.4c-4-0.9-8.1-0.7-9.2,0.4
				C243.8,329,246,330.5,249.7,331.2z"/>
			<path class="st2" d="M265.6,324.7c1.7-1.7-0.4-3.8-4.7-4.8c-4.3-1-9-0.4-10.4,1.4c-1.3,1.7,1,3.8,5,4.7
				C259.5,326.9,264,326.3,265.6,324.7z"/>
			<path class="st2" d="M262.8,317.5c4.3,1,9.3-0.1,11.1-2.4c2-2.5-0.1-5.4-4.7-6.5c-4.6-1.2-9.8,0-11.5,2.6
				C256.1,313.7,258.4,316.5,262.8,317.5z"/>
			<path class="st2" d="M283.7,301.6c2.2-3.3,0.2-7.1-4.7-8.4c-4.9-1.4-10.6,0.4-12.6,3.9c-1.9,3.3,0.4,7,5.1,8.2
				C276.2,306.4,281.6,304.8,283.7,301.6z"/>
			<path class="st2" d="M281.6,288.7c4.9,1.4,10.7-0.8,13-4.8c2.4-4.2,0.3-8.8-4.7-10.4c-5.1-1.6-11.2,0.7-13.4,5
				C274.3,282.8,276.6,287.3,281.6,288.7z"/>
			<path class="st2" d="M292.8,268.2c5.1,1.6,11.1-0.9,13.5-5.7c2.5-4.9,0.4-10.3-4.7-12.1c-5.2-1.8-11.5,0.8-13.9,5.9
				C285.3,261.2,287.6,266.6,292.8,268.2z"/>
			<path class="st2" d="M318.1,238c2.4-5.4,0.3-11.4-4.9-13.4c-5.3-2.1-11.5,0.7-14,6.3c-2.4,5.5-0.1,11.5,5.2,13.4
				C309.6,246.1,315.7,243.3,318.1,238z"/>
			<path class="st2" d="M329.2,211.7c2.2-5.5-0.1-11.8-5.1-14.1c-5.2-2.3-11.2,0.4-13.5,6.1c-2.3,5.7,0.1,12.1,5.4,14.2
				C321.1,220.1,327,217.3,329.2,211.7z"/>
			<path class="st2" d="M339,185.4c1.9-5.4-0.6-11.6-5.4-14c-5-2.5-10.6,0-12.6,5.4c-2,5.6,0.5,12,5.6,14.4
				C331.6,193.4,337.1,190.8,339,185.4z"/>
			<path class="st2" d="M346.9,160.5c1.4-4.9-1.1-10.8-5.7-13.3c-4.7-2.5-9.8-0.6-11.4,4.3c-1.7,5.1,1,11.3,5.9,13.7
				C340.4,167.6,345.5,165.5,346.9,160.5z"/>
			<path class="st2" d="M352.7,138.3c1-4.2-1.7-9.6-6-12.1c-4.4-2.5-8.9-1.2-10.1,3c-1.2,4.4,1.5,10,6.1,12.6
				C347.3,144.2,351.7,142.7,352.7,138.3z"/>
			<path class="st2" d="M341.5,110.7c-0.8,3.5,2,8.5,6.3,11c4.2,2.5,8.1,1.5,8.6-2.1c0.5-3.4-2.2-8.1-6.2-10.5
				C346.2,106.6,342.3,107.3,341.5,110.7z"/>
			<path class="st2" d="M344.4,96.2c-0.5,2.7,2.4,6.9,6.4,9.3c3.9,2.4,7.2,2,7.3-0.7c0.2-2.6-2.6-6.6-6.2-8.9
				C348.2,93.5,344.8,93.6,344.4,96.2z"/>
			<path class="st2" d="M345.8,85.5c-0.1,1.9,2.7,5.4,6.3,7.7c3.5,2.3,6.3,2.4,6.2,0.4c-0.1-1.9-2.9-5.2-6.2-7.4
				C348.7,84,345.9,83.7,345.8,85.5z"/>
			<path class="st2" d="M357.2,85.6c-0.3-1.3-3-4-6-6c-3-2-5.5-2.7-5.4-1.5c0.1,1.3,2.9,4.1,6.1,6.2C355.2,86.4,357.5,87,357.2,85.6
				z"/>
			<path class="st2" d="M267,332.8c-3.6-0.4-7.6-0.2-8.9,0.5c-0.4,0.2-0.4,0.5-0.1,0.8c4.4,0.3,8.7,0.5,13.1,0.4
				C271.9,333.9,270.2,333.2,267,332.8z"/>
			<path class="st2" d="M268.7,331.7c3.6,0.4,7.9-0.2,9.5-1.4c1.8-1.2,0.1-2.6-3.7-3.1c-3.9-0.5-8.4,0.2-9.9,1.5
				C263.2,329.9,265,331.3,268.7,331.7z"/>
			<path class="st2" d="M287.1,323c2-1.9,0.4-4-3.7-4.6c-4.2-0.6-9.1,0.5-11,2.6c-1.7,1.9,0.1,3.9,4.1,4.4
				C280.5,325.9,285.2,324.9,287.1,323z"/>
			<path class="st2" d="M285.8,315.7c4.2,0.7,9.2-0.9,11.4-3.5c2.3-2.7,0.7-5.6-3.6-6.4c-4.4-0.8-9.8,0.9-11.9,3.8
				C279.7,312.3,281.6,315,285.8,315.7z"/>
			<path class="st2" d="M308.5,297.5c2.5-3.5,0.9-7.2-3.5-8.2c-4.6-1-10.3,1.2-12.6,4.9c-2.3,3.6-0.4,7.1,4,8
				C300.7,303,306.1,300.9,308.5,297.5z"/>
			<path class="st2" d="M307.8,284.6c4.5,1.1,10.1-1.4,12.6-5.6c2.5-4.3,1-8.8-3.5-10.1c-4.7-1.3-10.5,1.3-13,5.8
				C301.3,279.1,303.2,283.5,307.8,284.6z"/>
			<path class="st2" d="M332.3,257.2c2.5-4.9,0.9-10.1-3.7-11.7c-4.7-1.6-10.5,1.2-13,6.3c-2.5,5-0.6,10.3,4.1,11.7
				C324.2,264.8,329.9,262,332.3,257.2z"/>
			<path class="st2" d="M343.6,233c2.2-5.2,0.5-11-3.9-12.9c-4.6-1.9-10.2,0.9-12.5,6.4c-2.3,5.4-0.4,11.2,4.3,13
				C335.9,241.1,341.4,238.2,343.6,233z"/>
			<path class="st2" d="M353.6,207.7c1.9-5.3,0-11.3-4.3-13.4c-4.4-2.2-9.7,0.4-11.7,5.8c-2,5.5,0,11.7,4.6,13.7
				C346.6,215.7,351.7,213,353.6,207.7z"/>
			<path class="st2" d="M361.6,182.8c1.4-5-0.7-10.9-4.7-13.3c-4.2-2.4-8.9-0.3-10.5,4.9c-1.6,5.2,0.6,11.4,4.9,13.7
				C355.6,190.3,360.2,187.9,361.6,182.8z"/>
			<path class="st2" d="M367.4,159.8c1-4.5-1.3-10.1-5.1-12.5c-3.9-2.6-8.1-1-9.2,3.6c-1.2,4.7,1.2,10.6,5.3,13
				C362.4,166.3,366.5,164.4,367.4,159.8z"/>
			<path class="st2" d="M357.6,130.4c-0.7,4,1.8,9.4,5.7,11.9c3.7,2.5,7.2,1.2,7.7-2.7c0.5-3.8-1.9-8.9-5.5-11.4
				C361.8,125.6,358.3,126.5,357.6,130.4z"/>
			<path class="st2" d="M372.4,122.7c0.1-3.1-2.4-7.5-5.7-10c-3.4-2.5-6.4-2.1-6.7,0.9c-0.3,3.2,2.3,7.9,5.9,10.5
				C369.4,126.5,372.3,125.9,372.4,122.7z"/>
			<path class="st2" d="M360.7,100.4c0,2.4,2.7,6.5,6,9c3.2,2.5,5.6,2.3,5.4-0.2c-0.2-2.4-2.8-6.2-5.8-8.5
				C363.2,98.3,360.7,98.2,360.7,100.4z"/>
			<path class="st2" d="M370.4,99.1c-0.5-1.7-3-4.9-5.8-7.2c-2.8-2.2-4.9-2.8-4.6-1.2c0.3,1.7,3,5.1,6,7.5
				C368.9,100.6,370.9,101,370.4,99.1z"/>
			<path class="st2" d="M286.1,331.4c-3.5-0.1-7.7,0.7-9.3,1.6c-0.9,0.5-0.8,1,0.2,1.3c4.1-0.2,8.1-0.7,12.2-1.3
				C290.6,332.2,289.3,331.5,286.1,331.4z"/>
			<path class="st2" d="M288.3,330.1c3.4,0.1,7.8-1,9.7-2.4c2.1-1.5,0.9-2.8-2.6-3c-3.7-0.1-8.3,1-10.2,2.6
				C283.3,328.8,284.8,330,288.3,330.1z"/>
			<path class="st2" d="M308.3,319.1c2.3-2.2,1.2-4.2-2.5-4.5c-3.9-0.3-8.8,1.4-11,3.7c-2.1,2.2-0.7,4.1,3,4.3
				C301.5,322.7,306.1,321.2,308.3,319.1z"/>
			<path class="st2" d="M319.7,307.1c2.5-2.9,1.5-5.7-2.4-6.2c-4-0.5-9.2,1.7-11.6,4.8c-2.3,3-1,5.6,2.9,6
				C312.3,312,317.3,309.9,319.7,307.1z"/>
			<path class="st2" d="M320.2,297c3.8,0.5,8.9-1.9,11.4-5.5c2.6-3.7,1.5-7.3-2.3-8c-4-0.8-9.4,1.8-11.9,5.7
				C314.9,293,316.2,296.5,320.2,297z"/>
			<path class="st2" d="M343.6,272.6c2.5-4.3,1.5-8.7-2.4-9.7c-4-1.1-9.3,1.8-11.8,6.3c-2.5,4.5-1.2,8.8,2.8,9.6
				C336.1,279.6,341.2,276.8,343.6,272.6z"/>
			<path class="st2" d="M355,250.9c2.3-4.8,1.1-9.8-2.6-11.1c-3.9-1.5-9,1.5-11.4,6.5c-2.4,5-1,10,3,11.2
				C347.9,258.5,352.8,255.6,355,250.9z"/>
			<path class="st2" d="M365.2,227.4c1.9-5,0.6-10.4-2.9-12.1c-3.7-1.8-8.5,0.9-10.5,6.2c-2.1,5.2-0.6,10.8,3.3,12.3
				C358.7,235.3,363.2,232.4,365.2,227.4z"/>
			<path class="st2" d="M373.5,203.6c1.5-4.9,0-10.5-3.4-12.5c-3.6-2.1-7.8,0.3-9.4,5.4c-1.7,5.2,0,11,3.7,12.9
				C367.9,211.2,372,208.6,373.5,203.6z"/>
			<path class="st2" d="M379.6,180.6c1-4.6-0.8-10.1-4-12.3c-3.3-2.4-7-0.5-8.2,4.3c-1.2,4.8,0.7,10.6,4.2,12.8
				C375,187.5,378.5,185.3,379.6,180.6z"/>
			<path class="st2" d="M383.3,159.6c0.5-4.1-1.4-9.2-4.4-11.7c-3.1-2.5-6.2-1.2-6.9,2.9c-0.7,4.3,1.4,9.8,4.7,12.2
				C379.7,165.4,382.7,163.8,383.3,159.6z"/>
			<path class="st2" d="M384.8,141.4c0.1-3.4-2.1-8.1-4.8-10.6c-2.9-2.5-5.5-1.9-5.7,1.6c-0.3,3.6,2,8.6,5.1,11.2
				C382.2,145.9,384.7,144.9,384.8,141.4z"/>
			<path class="st2" d="M374.6,117.2c0.1,2.9,2.5,7.3,5.3,9.9c2.7,2.5,4.7,2,4.4-0.8c-0.2-2.8-2.5-6.9-5.1-9.4
				C376.6,114.3,374.4,114.5,374.6,117.2z"/>
			<path class="st2" d="M382.4,114.2c-0.5-2.2-2.9-5.7-5.3-8.1c-2.5-2.4-4.2-2.7-3.8-0.7c0.4,2.2,2.9,6,5.5,8.5
				C381.4,116.4,382.9,116.4,382.4,114.2z"/>
			<path class="st2" d="M377.6,104.9c-1.9-2.4-3.9-4.8-6-7c1,1.7,3,4.1,4.9,6C376.9,104.3,377.3,104.6,377.6,104.9z"/>
			<path class="st2" d="M304.9,328.1c-3.2,0.2-7.4,1.4-9.4,2.6c-1,0.6-1.2,1.1-0.6,1.3c4.3-0.8,8.6-1.9,12.8-3.1
				C308.1,328.3,307.2,327.9,304.9,328.1z"/>
			<path class="st2" d="M316.9,323.1c2.3-1.7,1.7-3-1.5-2.9c-3.3,0.2-7.8,1.8-10,3.6c-2.1,1.7-1.2,2.9,2,2.7
				C310.5,326.2,314.7,324.7,316.9,323.1z"/>
			<path class="st2" d="M318.1,317.8c3.2-0.1,7.6-2.1,10-4.4c2.5-2.4,1.9-4.4-1.3-4.4c-3.3,0-8.1,2.1-10.5,4.6
				C314,316.1,314.8,317.9,318.1,317.8z"/>
			<path class="st2" d="M329.7,305.8c3.2,0,7.7-2.3,10.2-5.3c2.5-3.1,2-5.8-1.1-6c-3.3-0.2-8.2,2.3-10.7,5.5
				C325.6,303.2,326.3,305.8,329.7,305.8z"/>
			<path class="st2" d="M341.7,290.4c3.2,0.3,7.7-2.4,10.1-6.1c2.5-3.7,2-7.2-1.1-7.7c-3.3-0.5-8.1,2.3-10.6,6.2
				C337.6,286.8,338.3,290.1,341.7,290.4z"/>
			<path class="st2" d="M363.2,265.4c2.3-4.2,1.7-8.4-1.3-9.2c-3.2-0.9-7.7,2-10.1,6.6c-2.4,4.5-1.6,8.6,1.7,9.2
				C356.6,272.5,360.9,269.6,363.2,265.4z"/>
			<path class="st2" d="M372,233.9c-3-1.3-7.2,1.6-9.3,6.4c-2.1,4.8-1.2,9.6,1.9,10.6c3,1,7-2,9-6.5
				C375.5,239.8,374.8,235.1,372,233.9z"/>
			<path class="st2" d="M380.1,210.9c-2.9-1.7-6.6,0.9-8.3,5.8c-1.7,5-0.7,10.1,2.3,11.5c2.8,1.3,6.4-1.4,8-6.1
				C383.7,217.6,382.8,212.5,380.1,210.9z"/>
			<path class="st2" d="M386,188.6c-2.7-2-5.8,0.1-7.1,4.9c-1.2,4.8,0,10.2,2.8,12c2.7,1.7,5.7-0.7,6.8-5.2
				C389.7,195.6,388.5,190.5,386,188.6z"/>
			<path class="st2" d="M389.6,167.8c-2.5-2.3-5.1-0.6-5.9,3.7c-0.8,4.4,0.8,9.7,3.4,11.8c2.5,2,5,0.1,5.7-4.1
				C393.4,175,391.9,170,389.6,167.8z"/>
			<path class="st2" d="M394.6,160.2c0.2-3.6-1.5-8.4-3.7-10.7c-2.3-2.4-4.5-1.4-4.8,2.4c-0.3,3.9,1.5,8.9,3.9,11.2
				C392.4,165.3,394.4,164,394.6,160.2z"/>
			<path class="st2" d="M394.4,143.8c-0.2-3.1-2.1-7.4-4.2-9.8c-2.2-2.5-3.9-2-3.8,1.1c0.1,3.2,2.1,7.9,4.4,10.3
				C393.1,147.8,394.7,147,394.4,143.8z"/>
			<path class="st2" d="M389.9,130.8c2.1,2.4,3.3,2.1,2.7-0.5c-0.5-2.5-2.5-6.3-4.5-8.7c-2-2.4-3.4-2.5-3,0
				C385.6,124.1,387.7,128.3,389.9,130.8z"/>
			<path class="st2" d="M387.4,119c-1.4-2.2-2.8-4.4-4.3-6.6C384.1,114.4,385.8,117,387.4,119C387.4,118.9,387.4,119,387.4,119z"/>
			<path class="st2" d="M313.7,326.4c-0.6,0.4-1,0.7-1.1,0.9c4-1.3,8-2.9,11.9-4.6c-0.4-0.1-0.9,0-1.7,0.1
				C320,323.4,315.9,325,313.7,326.4z"/>
			<path class="st2" d="M333.9,313.9c-2.7,0.4-7,2.4-9.4,4.5c-2.3,2-1.9,3.1,0.9,2.6c2.6-0.5,6.6-2.4,8.9-4.2
				C336.6,314.8,336.5,313.5,333.9,313.9z"/>
			<path class="st2" d="M345.7,306.1c2.5-2.6,2.4-4.5-0.2-4.3c-2.7,0.2-7,2.6-9.5,5.4c-2.4,2.6-2.1,4.4,0.6,4.1
				C339.3,310.9,343.3,308.6,345.7,306.1z"/>
			<path class="st2" d="M357.4,292.6c2.4-3.2,2.4-5.8-0.1-5.8c-2.6,0-6.8,2.7-9.4,6.1c-2.5,3.3-2.2,5.8,0.5,5.6
				C351,298.3,355,295.7,357.4,292.6z"/>
			<path class="st2" d="M368.5,269c-2.5-0.4-6.5,2.5-8.9,6.5c-2.4,3.9-2.1,7.1,0.5,7.2c2.5,0.1,6.3-2.7,8.5-6.3
				C370.9,272.6,370.9,269.3,368.5,269z"/>
			<path class="st2" d="M370.5,255.5c-2.1,4.3-1.8,8.2,0.6,8.7c2.3,0.5,5.8-2.4,7.8-6.5c2-4.1,1.9-8-0.3-8.7
				C376.3,248.3,372.6,251.2,370.5,255.5z"/>
			<path class="st2" d="M387.1,228c-2.2-1.2-5.4,1.5-7.2,6.1c-1.8,4.6-1.4,9,1,9.9c2.2,0.8,5.3-2,6.9-6.3
				C389.4,233.5,389.1,229.1,387.1,228z"/>
			<path class="st2" d="M393.4,206.7c-2-1.6-4.7,0.8-6.1,5.4c-1.3,4.6-0.7,9.4,1.5,10.7c2,1.2,4.6-1.3,5.8-5.6
				C395.8,212.9,395.3,208.2,393.4,206.7z"/>
			<path class="st2" d="M392.5,190.7c-0.8,4.4,0.1,9.3,2.1,11c1.9,1.6,4-0.6,4.7-4.7c0.7-4.1-0.1-8.8-1.9-10.6
				C395.6,184.5,393.4,186.4,392.5,190.7z"/>
			<path class="st2" d="M401.7,178c0.3-3.7-0.8-8.3-2.5-10.3c-1.8-2.1-3.5-0.8-3.8,3.1c-0.4,4,0.8,8.9,2.7,10.8
				C399.8,183.5,401.4,181.9,401.7,178z"/>
			<path class="st2" d="M396.1,153.2c0.1,3.5,1.5,8.1,3.2,10.3c1.6,2.1,2.8,1,2.7-2.4c-0.1-3.3-1.5-7.6-3.1-9.8
				C397.4,149.1,396.1,149.9,396.1,153.2z"/>
			<path class="st2" d="M395,138.3c0.4,2.9,2.1,7.2,3.7,9.4c1.4,2,2.3,1.7,2-0.7c-1.1-3.3-2.4-6.6-3.8-9.8
				C395.5,135.3,394.6,135.6,395,138.3z"/>
			<path class="st2" d="M350,306.4c-2.2,0.6-5.9,2.9-8.4,5.1c-2.1,1.9-2.4,3-0.8,2.8c3.5-2.1,7-4.5,10.3-6.9
				C351.6,306.5,351.3,306,350,306.4z"/>
			<path class="st2" d="M361.3,293.8c-2.1,0.3-5.8,3-8.2,5.8c-2.4,2.8-2.5,4.5-0.4,4c2-0.5,5.5-3,7.8-5.6
				C362.9,295.3,363.3,293.4,361.3,293.8z"/>
			<path class="st2" d="M372.4,278.5c-1.9,0.1-5.4,2.9-7.8,6.3c-2.3,3.3-2.5,5.8-0.5,5.5c1.9-0.3,5.2-3,7.4-6.1
				C373.7,281,374.1,278.5,372.4,278.5z"/>
			<path class="st2" d="M382.4,261.1c-1.8-0.3-4.9,2.6-7.1,6.4c-2.1,3.8-2.3,6.9-0.4,6.9c1.7,0,4.8-2.8,6.8-6.3
				C383.7,264.5,384,261.4,382.4,261.1z"/>
			<path class="st2" d="M384.7,256.6c1.6,0.4,4.3-2.4,5.9-6.3c1.7-3.8,1.9-7.5,0.4-8.2c-1.6-0.7-4.3,2.1-6.2,6.2
				C383.1,252.6,383,256.2,384.7,256.6z"/>
			<path class="st2" d="M397.9,231.6c1.3-3.9,1.3-8-0.1-9c-1.4-1.1-3.7,1.4-5.1,5.7c-1.4,4.3-1.3,8.4,0.2,9.2
				C394.3,238.2,396.5,235.6,397.9,231.6z"/>
			<path class="st2" d="M402.4,203.2c-1.3-1.5-3.1,0.7-4.1,4.8c-0.9,4.2-0.6,8.6,0.8,9.8c1.3,1.1,3.1-1.2,3.9-5.1
				C403.9,208.8,403.6,204.6,402.4,203.2z"/>
			<path class="st2" d="M404.9,184.8c-1.2-1.8-2.6-0.1-3,3.8c-0.5,4,0.1,8.5,1.4,10c1.2,1.5,2.5-0.4,2.9-4.2
				C406.6,190.8,406,186.5,404.9,184.8z"/>
			<path class="st2" d="M403.1,170.8c-0.1,3.6,0.9,8,2,9.8c1.1,1.7,2,0.3,2-3.1c0-3.3-0.8-7.5-1.9-9.4
				C404.2,166.2,403.2,167.3,403.1,170.8z"/>
			<path class="st2" d="M405.1,164.4c0.2,0.4,0.4,0.6,0.5,0.8c-0.9-4.2-1.9-8.4-3.1-12.5c-0.1,0.4-0.1,1.2,0,2.4
				C402.8,158.1,404,162.3,405.1,164.4z"/>
			<path class="st2" d="M374.1,285.1c-1.4,0.4-4.5,3.1-6.8,6c-1.9,2.4-2.6,4-1.8,4.1c3.2-3.1,6.3-6.4,9.2-9.9
				C374.7,285,374.5,284.9,374.1,285.1z"/>
			<path class="st2" d="M384,270c-1.3,0.1-4,2.9-6.1,6.2c-2.1,3.3-2.7,5.7-1.3,5.3c0.7-0.2,1.8-1.1,3-2.4c1.3-1.7,2.5-3.4,3.7-5.1
				C384.6,271.7,385,269.9,384,270z"/>
			<path class="st2" d="M387.4,259.5c-1.8,3.7-2.4,6.6-1.1,6.6c1.1,0,3.4-2.8,5.1-6.1c1.7-3.4,2.3-6.4,1.3-6.6
				C391.6,253,389.2,255.8,387.4,259.5z"/>
			<path class="st2" d="M395.4,241.4c-1.5,3.9-1.9,7.3-0.8,7.7c0.9,0.3,2.8-2.3,4.2-5.9c1.4-3.6,1.8-7,0.9-7.6
				C398.8,234.9,396.8,237.5,395.4,241.4z"/>
			<path class="st2" d="M401.5,222.7c-1.1,3.9-1.2,7.7-0.3,8.5c0.8,0.7,2.3-1.7,3.3-5.4c1-3.6,1.2-7.3,0.4-8.3
				C404,216.5,402.6,218.8,401.5,222.7z"/>
			<path class="st2" d="M405.6,204.3c-0.6,3.8-0.5,7.8,0.2,8.9c0.4,0.6,0.9,0.2,1.4-0.9c0.5-3.8,0.9-7.6,1.1-11.5
				c-0.1-0.3-0.2-0.6-0.3-0.9C407.3,198.7,406.2,200.5,405.6,204.3z"/>
			<path class="st2" d="M408.4,195.9C408.4,195.9,408.4,195.9,408.4,195.9c0.1-4.2,0-8.4-0.3-12.5c-0.3,0.6-0.5,1.8-0.6,3.5
				C407.3,190.4,407.7,194.5,408.4,195.9z"/>
			<path class="st2" d="M395.4,252.8c0.4-0.8,0.7-1.6,1.1-2.4c-0.2,0.5-0.5,1-0.7,1.5C395.6,252.2,395.5,252.5,395.4,252.8z"/>
		</g>
	</g>
	<g>
		<g>
			<path class="st2" d="M0.4,469.1h9v35.3h21.5v7.7H0.4V469.1z"/>
			<path class="st2" d="M86.7,476.7H63.9v9.1h20.9v7.5H63.9v11.1h23.8v7.7H55.1v-43h31.5V476.7z"/>
			<path class="st2" d="M124.9,469.1h10.2l15.2,43h-9.7l-2.8-8.8h-15.8l-2.9,8.8h-9.4L124.9,469.1z M124.3,495.9h11l-5.4-16.9
				L124.3,495.9z"/>
			<path class="st2" d="M202.6,482.5c-0.7-2.9-2.3-5-5-6.2c-1.5-0.6-3.1-1-4.9-1c-3.5,0-6.3,1.3-8.5,3.9c-2.2,2.6-3.3,6.5-3.3,11.8
				c0,5.3,1.2,9,3.6,11.2c2.4,2.2,5.2,3.3,8.2,3.3c3,0,5.5-0.9,7.4-2.6c1.9-1.7,3.1-4,3.6-6.8h-9.9V489h17.9v23.1h-6l-0.9-5.4
				c-1.7,2-3.3,3.5-4.7,4.3c-2.4,1.5-5.3,2.2-8.8,2.2c-5.7,0-10.4-2-14-5.9c-3.8-4-5.7-9.4-5.7-16.3c0-7,1.9-12.5,5.7-16.7
				c3.8-4.2,8.9-6.3,15.2-6.3c5.5,0,9.9,1.4,13.2,4.2c3.3,2.8,5.2,6.2,5.7,10.4H202.6z"/>
			<path class="st2" d="M238.1,469.1h9v35.3h21.5v7.7h-30.5V469.1z"/>
			<path class="st2" d="M324.3,476.7h-22.8v9.1h20.9v7.5h-20.9v11.1h23.8v7.7h-32.6v-43h31.5V476.7z"/>
			<path class="st2" d="M388.9,473.6c3.5-3.5,7.9-5.3,13.2-5.3c7.2,0,12.4,2.4,15.7,7.1c1.8,2.7,2.8,5.3,2.9,8h-9
				c-0.6-2.1-1.3-3.6-2.2-4.7c-1.6-1.9-4-2.8-7.1-2.8c-3.2,0-5.7,1.3-7.6,4c-1.8,2.6-2.8,6.4-2.8,11.2c0,4.8,1,8.4,2.9,10.8
				c2,2.4,4.4,3.6,7.4,3.6c3.1,0,5.4-1,7-3.1c0.9-1.1,1.6-2.8,2.2-5h8.9c-0.8,4.7-2.7,8.5-5.9,11.4c-3.2,2.9-7.2,4.4-12.2,4.4
				c-6.1,0-10.9-2-14.4-6c-3.5-4-5.3-9.5-5.3-16.4C382.9,483.5,384.9,477.7,388.9,473.6z"/>
			<path class="st2" d="M445.8,469.1h9.1v26.4c0,3,0.3,5.1,1,6.5c1.1,2.4,3.4,3.6,7.1,3.6c3.6,0,6-1.2,7.1-3.6c0.7-1.4,1-3.5,1-6.5
				v-26.4h9.1v26.4c0,4.6-0.7,8.1-2.1,10.7c-2.6,4.7-7.7,7-15.1,7c-7.4,0-12.5-2.3-15.1-7c-1.4-2.5-2.1-6.1-2.1-10.7V469.1z"/>
			<path class="st2" d="M535.8,493.5c-2.5,2.1-6.1,3.2-10.8,3.2h-9v15.5h-8.9v-43h18.5c4.3,0,7.6,1.1,10.2,3.3
				c2.5,2.2,3.8,5.6,3.8,10.3C539.6,487.8,538.3,491.4,535.8,493.5z M528.9,478c-1.1-1-2.7-1.4-4.8-1.4H516v12.7h8.1
				c2.1,0,3.6-0.5,4.8-1.5c1.1-1,1.7-2.7,1.7-4.9C530.6,480.6,530.1,479,528.9,478z"/>
		</g>
		<g>
			<path class="st2" d="M4.1,539.6h15.1c3,0,5.4,0.8,7.2,2.5c1.8,1.7,2.7,4.1,2.7,7.1c0,2.6-0.8,4.9-2.5,6.9c-1.6,2-4.1,2.9-7.5,2.9
				H8.6v14.2H4.1V539.6z M21.8,544.2c-1-0.5-2.4-0.7-4.1-0.7h-9v11.7h9c2,0,3.7-0.4,5-1.3c1.3-0.9,1.9-2.4,1.9-4.6
				C24.5,546.8,23.6,545.1,21.8,544.2z"/>
			<path class="st2" d="M35,539.6h4.6v29.7h16.9v4H35V539.6z"/>
			<path class="st2" d="M70.9,539.6h5.2l12.2,33.7h-5l-3.5-10.1H66.6l-3.7,10.1h-4.7L70.9,539.6z M78.5,559.5l-5.2-14.9l-5.4,14.9
				H78.5z"/>
			<path class="st2" d="M86.4,539.6h5.3l9.7,16.2l9.7-16.2h5.4l-12.8,20.1v13.6h-4.6v-13.6L86.4,539.6z"/>
			<path class="st2" d="M133.6,539.6h4.6v33.7h-4.6V539.6z"/>
			<path class="st2" d="M170.1,539.6v4h-11.4v29.7h-4.6v-29.7h-11.4v-4H170.1z"/>
			<path class="st2" d="M214.3,544.4c2.2,3,3.3,6.8,3.3,11.4c0,5-1.3,9.2-3.8,12.5c-3,3.9-7.3,5.9-12.8,5.9c-5.2,0-9.3-1.7-12.2-5.1
				c-2.6-3.3-4-7.5-4-12.5c0-4.6,1.1-8.5,3.4-11.7c2.9-4.2,7.2-6.2,12.9-6.2C207,538.7,211.4,540.6,214.3,544.4z M210.3,565.9
				c1.8-2.9,2.7-6.2,2.7-10c0-4-1-7.2-3.1-9.6c-2.1-2.4-4.9-3.6-8.5-3.6c-3.5,0-6.3,1.2-8.5,3.6c-2.2,2.4-3.3,5.9-3.3,10.6
				c0,3.7,0.9,6.9,2.8,9.4c1.9,2.6,4.9,3.8,9.2,3.8C205.5,570.2,208.5,568.8,210.3,565.9z"/>
			<path class="st2" d="M223.1,539.6h5.4l16.8,27.2v-27.2h4.4v33.7h-5.1l-17.1-27.2v27.2h-4.4V539.6z"/>
			<path class="st2" d="M293.7,539.6v4h-11.4v29.7h-4.6v-29.7h-11.4v-4H293.7z"/>
			<path class="st2" d="M298,539.6h4.6v13.9H320v-13.9h4.6v33.7H320v-15.8h-17.3v15.8H298V539.6z"/>
			<path class="st2" d="M332.3,539.6h24.5v4.1h-20V554h18.5v3.9h-18.5v11.4h20.3v4h-24.8V539.6z"/>
			<path class="st2" d="M398.7,540.6c3.3,1.8,5.3,4.8,6.1,9.2h-4.5c-0.5-2.5-1.7-4.3-3.3-5.4c-1.7-1.1-3.8-1.7-6.4-1.7
				c-3.1,0-5.6,1.2-7.7,3.5c-2.1,2.3-3.1,5.8-3.1,10.5c0,4,0.9,7.3,2.6,9.8c1.7,2.5,4.5,3.8,8.4,3.8c3,0,5.5-0.9,7.4-2.6
				c2-1.8,3-4.6,3-8.6h-10.6v-3.8h14.8v18h-2.9l-1.1-4.3c-1.5,1.7-2.9,2.9-4,3.5c-2,1.1-4.5,1.7-7.5,1.7c-3.9,0-7.3-1.3-10.1-3.9
				c-3.1-3.2-4.6-7.7-4.6-13.4c0-5.6,1.5-10.1,4.5-13.5c2.9-3.2,6.6-4.8,11.1-4.8C393.7,538.7,396.4,539.4,398.7,540.6z"/>
			<path class="st2" d="M413.3,539.6h15.3c2.5,0,4.6,0.4,6.2,1.1c3.1,1.4,4.7,4.1,4.7,8c0,2-0.4,3.7-1.2,5c-0.8,1.3-2,2.3-3.5,3.1
				c1.3,0.5,2.3,1.2,3,2.1c0.7,0.9,1,2.3,1.1,4.2l0.2,4.5c0,1.3,0.2,2.2,0.3,2.9c0.3,1.1,0.8,1.8,1.5,2.1v0.8h-5.6
				c-0.2-0.3-0.3-0.7-0.4-1.1c-0.1-0.5-0.2-1.3-0.2-2.7l-0.3-5.6c-0.1-2.2-0.9-3.7-2.4-4.4c-0.8-0.4-2.2-0.6-4-0.6h-10.1v14.5h-4.6
				V539.6z M428.2,555.1c2.1,0,3.7-0.4,4.9-1.3c1.2-0.9,1.8-2.4,1.8-4.6c0-2.4-0.8-4-2.5-4.9c-0.9-0.5-2.1-0.7-3.6-0.7h-10.8v11.5
				H428.2z"/>
			<path class="st2" d="M447.1,539.6h24.5v4.1h-20V554h18.5v3.9h-18.5v11.4h20.3v4h-24.8V539.6z"/>
			<path class="st2" d="M478.5,539.6h24.5v4.1h-20V554h18.5v3.9h-18.5v11.4h20.3v4h-24.8V539.6z"/>
			<path class="st2" d="M509.4,539.6h5.4l16.8,27.2v-27.2h4.4v33.7h-5.1l-17.1-27.2v27.2h-4.4V539.6z"/>
		</g>
	</g>
</g>
</svg>
