<?xml version="1.0" encoding="utf-8"?>
<!-- Generator: Adobe Illustrator 22.1.0, SVG Export Plug-In . SVG Version: 6.00 Build 0)  -->
<svg version="1.1" id="Calque_1" xmlns="http://www.w3.org/2000/svg" xmlns:xlink="http://www.w3.org/1999/xlink" x="0px" y="0px"
	 viewBox="0 0 1000 1000" style="enable-background:new 0 0 1000 1000;" xml:space="preserve">
<style type="text/css">
	.st0{fill:#33386B;}
	.st1{fill:#FFFFFF;}
</style>
<g>
	<path class="st0" d="M242.1,431.2c-1.8,6.3-3.4,12.6-4.8,18.9c0.8-1.6,1.7-4.2,2.6-7.5C241.2,438.1,242,433.8,242.1,431.2"/>
	<path class="st0" d="M253.6,400c-0.3,0.8-0.7,1.5-1,2.3c-2.7,6.3-5.2,12.6-7.3,19c1.3-1.2,3.3-5,5.2-9.8
		C252.5,406.4,253.7,401.9,253.6,400"/>
	<path class="st0" d="M268.2,371.9c-3.8,6.3-7.3,12.8-10.6,19.4c1.6-1.5,4.3-5.4,6.8-10.2C266.5,377.1,267.9,373.7,268.2,371.9"/>
	<path class="st0" d="M283.4,349.4c-2.8,3.7-5.5,7.5-8.1,11.4c1.8-2,3.9-4.7,5.8-7.7C282,351.7,282.8,350.5,283.4,349.4"/>
	<path class="st0" d="M232.4,512.9c0.4,7.4,1.1,14.7,2.1,22c0.3-1,0.5-2.9,0.4-5.3c0-6.1-1.1-13.5-2.4-16.4
		C232.5,513,232.4,512.9,232.4,512.9"/>
	<path class="st0" d="M234.6,481.9c-0.7,0-1.4,1.4-2,3.8c-0.4,5.8-0.5,11.7-0.5,17.5c0.2,1.1,0.5,2.1,0.8,2.8c0.3,0.7,0.7,1,1,1
		c1,0,2.1-2.9,2.7-7.8c0.8-6.7,0.2-14.1-1.2-16.5C235.1,482.1,234.8,481.9,234.6,481.9"/>
	<path class="st0" d="M241.5,449.9c-1.4,0-3.4,3.8-4.6,9.4c-1.4,6.5-1.5,13.5-0.2,15.5c0.3,0.4,0.6,0.7,1,0.7c1.4,0,3.2-3.6,4.5-9.2
		c1.6-7.1,1.6-14.3,0-16C242,450,241.7,449.9,241.5,449.9"/>
	<path class="st0" d="M252.3,417.2c-1.8,0-4.6,4.3-6.7,10.4c-2.2,6.6-2.8,13.2-1.3,14.6c0.2,0.2,0.5,0.3,0.8,0.3
		c1.8,0,4.5-4.2,6.6-10.3c2.4-7.2,3-13.8,1.1-14.9C252.7,417.3,252.5,417.2,252.3,417.2"/>
	<path class="st0" d="M266.9,385.2c-2,0-5.9,4.8-8.8,11c-3,6.4-3.9,12.3-2.1,13.1c0.2,0.1,0.3,0.1,0.5,0.1c2.1,0,5.8-4.7,8.7-11.1
		c3.2-6.9,4.1-12.8,1.9-13.2C267,385.2,267,385.2,266.9,385.2"/>
	<path class="st0" d="M284.6,355.2c-0.1,0-0.1,0-0.2,0c-2.3,0.3-7.1,5.3-10.6,11.3c-3.5,6-4.7,11-2.7,11.2c0,0,0.1,0,0.1,0
		c2.3,0,7.1-5.1,10.8-11.4C285.7,360.1,286.8,355.2,284.6,355.2"/>
	<path class="st0" d="M304.4,328.4c-0.2,0-0.4,0-0.7,0.1c-2.6,0.8-7.9,5.7-11.9,10.9c-3.8,5.1-5.2,9-3.3,9c0.1,0,0.2,0,0.3,0
		c2.6-0.5,8.1-5.5,12.4-11.2C305.1,332,306.3,328.4,304.4,328.4"/>
	<path class="st0" d="M325.6,305.5L325.6,305.5c-6.4,5.2-12.4,10.7-18.3,16.5c-0.1,0.5,0.1,0.8,0.6,0.8c0.2,0,0.5-0.1,0.8-0.2
		c2.9-1,8.9-5.7,13.4-10.6C325.8,308,327.1,305.5,325.6,305.5"/>
	<path class="st0" d="M241.9,569.4c1.6,5.6,3.5,11.2,5.5,16.7c0-0.3-0.1-0.5-0.1-0.8C246.3,580.4,243.9,573.3,241.9,569.4"/>
	<path class="st0" d="M237.8,539.9c-1,0-1.5,2.2-1.3,6.1c0.1,0.9,0.2,1.8,0.3,2.7c0.6,2.8,1.1,5.5,1.8,8.3c0.7,2.2,1.4,4.2,2.2,5.6
		c0.8,1.4,1.5,2.1,2,2.1c1,0,1.5-2,1.3-5.7c-0.3-6-2.4-13.9-4.6-17.5C238.9,540.5,238.3,539.9,237.8,539.9"/>
	<path class="st0" d="M239.4,509.3c-1.5,0-2.7,2.9-2.9,7.7c-0.4,6.4,1,14.1,3.2,17.4c0.7,1.1,1.4,1.6,2,1.6c1.4,0,2.6-2.6,2.9-7.3
		c0.5-6.8-1.1-15-3.4-18.2C240.5,509.6,239.9,509.3,239.4,509.3"/>
	<path class="st0" d="M245.1,475.7c-2,0-4,3.5-5,9.1c-1.1,6.9-0.3,14.7,1.9,17.5c0.6,0.7,1.2,1.1,1.8,1.1c1.9,0,3.9-3.3,4.9-8.8
		c1.4-7.4,0.4-15.6-2.2-18.2C246.1,475.9,245.6,475.7,245.1,475.7"/>
	<path class="st0" d="M255.1,440.4c-2.5,0-5.5,4.2-7.3,10.4c-2,7.2-1.7,14.8,0.7,17.1c0.5,0.5,1,0.7,1.6,0.7c2.4,0,5.3-4,7.1-10.2
		c2.3-7.8,1.8-15.6-1-17.5C255.9,440.5,255.5,440.4,255.1,440.4"/>
	<path class="st0" d="M269.2,405c-2.9,0-7,4.7-9.6,11.2c-2.9,7.2-3,14.3-0.3,15.9c0.4,0.2,0.8,0.3,1.3,0.3c2.9,0,6.9-4.5,9.5-11.2
		c3.1-7.7,3.1-14.9-0.1-16.1C269.8,405,269.5,405,269.2,405"/>
	<path class="st0" d="M286.9,370.9c-3.2,0-8.5,5.1-11.9,11.6c-3.6,6.8-4,13.2-1.1,14c0.3,0.1,0.5,0.1,0.8,0.1c3.3,0,8.4-5,11.9-11.7
		c3.8-7.3,4.1-13.6,0.6-14C287.1,370.9,287,370.9,286.9,370.9"/>
	<path class="st0" d="M307.3,339.8c-0.1,0-0.1,0-0.2,0c-3.5,0.2-9.6,5.3-13.7,11.5c-4.1,6.2-4.8,11.5-1.5,11.7c0.1,0,0.2,0,0.3,0
		c3.6,0,9.8-5.2,14-11.7C310.3,344.9,310.8,339.8,307.3,339.8"/>
	<path class="st0" d="M329.4,312.8c-0.3,0-0.6,0-0.9,0.1c-3.8,0.7-10.3,5.5-14.7,10.8c-4.3,5.2-5.1,9.2-2,9.2c0.1,0,0.2,0,0.4,0
		c3.8-0.4,10.8-5.4,15.4-11.1C331.8,316.5,332.4,312.8,329.4,312.8"/>
	<path class="st0" d="M352,290.5c-0.4,0-1,0.1-1.6,0.2c-4,1-10.8,5.3-15.2,9.6c-4.1,3.9-5,6.8-2.5,6.8c0.3,0,0.7,0,1.1-0.1
		c4.1-0.8,11.3-5.4,16-10.1C353.8,293.1,354.5,290.5,352,290.5"/>
	<path class="st0" d="M374.8,273.2c-7.4,3.8-14.7,7.9-21.7,12.3c-0.2,0.6,0.1,0.9,0.8,0.9c0.4,0,1.1-0.1,1.8-0.3
		c4.2-1.2,11.6-5.1,16.2-8.7C375,275,375.9,273.5,374.8,273.2"/>
	<path class="st0" d="M251.7,595.6c-0.2,0-0.4,0.1-0.5,0.3c3.1,7.5,6.6,14.8,10.4,22c0.1,0,0.1,0,0.2,0c0.7,0,0.8-1.1,0.3-3.4
		c-1.1-4.7-4.5-12.1-7.6-16.3C253.3,596.5,252.3,595.6,251.7,595.6"/>
	<path class="st0" d="M248.5,570c-1.2,0-1.8,1.9-1.4,5.4c0.6,5.4,3.5,13,6.4,17c1.3,1.8,2.4,2.6,3.2,2.6c1.2,0,1.8-1.7,1.5-4.9
		c-0.5-5.7-3.6-13.9-6.8-18C250.3,570.7,249.3,570,248.5,570"/>
	<path class="st0" d="M248.9,539.7c-1.8,0-3.1,2.6-3.2,7c-0.1,6.3,2.3,14.5,5.5,18.4c1.1,1.4,2.3,2.1,3.2,2.1c1.7,0,3-2.3,3.2-6.5
		c0.2-6.8-2.4-15.5-5.8-19.3C250.7,540.2,249.8,539.7,248.9,539.7"/>
	<path class="st0" d="M253.5,505.4c-2.5,0-4.6,3.3-5.3,8.7c-0.9,7.1,1,15.6,4.3,19.1c1,1.1,2.1,1.6,3.1,1.6c2.4,0,4.5-3,5.2-8.3
		c1.1-7.6-1-16.6-4.6-20C255.2,505.8,254.3,505.4,253.5,505.4"/>
	<path class="st0" d="M262.5,468.2c-3.1,0-6.3,3.9-7.8,10.1c-1.8,7.6-0.4,16.3,3.1,19.3c0.9,0.8,1.8,1.1,2.8,1.1
		c3,0,6.1-3.7,7.6-9.9c2-8.2,0.5-17.2-3.5-19.9C264,468.5,263.2,468.2,262.5,468.2"/>
	<path class="st0" d="M276,429.7c-3.7,0-8,4.5-10.4,11.3c-2.7,7.8-1.8,16.2,1.9,18.6c0.8,0.5,1.6,0.7,2.4,0.7
		c3.7,0,7.8-4.4,10.2-11.2c3-8.4,1.9-16.9-2.4-19C277.2,429.8,276.6,429.7,276,429.7"/>
	<path class="st0" d="M293.4,391.7c-4.2,0-9.7,4.9-12.9,11.9c-3.5,7.7-3.1,15.3,1,17.1c0.6,0.3,1.3,0.4,1.9,0.4
		c4.2,0,9.5-4.8,12.8-11.9c3.8-8.2,3-15.9-1.6-17.2C294.3,391.8,293.9,391.7,293.4,391.7"/>
	<path class="st0" d="M314,356.1c-4.6,0-11.1,5.1-15,11.9c-4.2,7.2-4,13.8,0.4,14.9c0.4,0.1,0.8,0.1,1.3,0.1
		c4.7,0,11.1-5.1,15.1-12.1c4.3-7.6,3.8-14.2-1.1-14.8C314.5,356.1,314.2,356.1,314,356.1"/>
	<path class="st0" d="M336.6,324.6L336.6,324.6c-4.8,0-12.4,5-16.8,11.2c-4.6,6.3-4.5,11.8,0.1,12.2c0.2,0,0.4,0,0.6,0
		c5,0,12.5-5.1,17-11.6C342.2,329.9,341.7,324.6,336.6,324.6"/>
	<path class="st0" d="M360.1,298c-0.3,0-0.5,0-0.8,0c-5,0.4-12.7,5-17.3,10.1c-4.7,5.2-4.7,9.4-0.1,9.4c0.1,0,0.2,0,0.2,0
		c5.2-0.2,13.4-4.9,18.2-10.5C364.8,301.9,364.6,298,360.1,298"/>
	<path class="st0" d="M383.3,277c-0.5,0-1,0-1.7,0.1c-5.1,0.8-12.8,4.6-17.3,8.6c-4.3,3.9-4.5,6.7-0.6,6.7c0.3,0,0.7,0,1.1-0.1
		c5.3-0.6,13.5-4.7,18.3-9.1C387.1,279.6,387,277,383.3,277"/>
	<path class="st0" d="M405.4,261.5c-0.7,0-1.5,0.1-2.6,0.3c-5.1,0.9-12.6,4-16.9,7c-3.8,2.6-4.1,4.3-1.1,4.3c0.6,0,1.3-0.1,2.1-0.2
		c5.3-0.8,13.3-4.2,17.8-7.4C408.2,263,408.3,261.5,405.4,261.5"/>
	<path class="st0" d="M421.9,254.4c-4.2,1.3-8.4,2.6-12.5,4C413.3,257.6,418.2,256,421.9,254.4"/>
	<path class="st0" d="M267.7,624.9c-0.8,0-1,1-0.3,3.1l0,0c3.4,5.7,7.1,11.4,11,16.9c1,0.9,1.9,1.4,2.4,1.4c0.7,0,0.9-0.9,0.4-2.6
		c-1.1-4.1-5.3-11.1-9.3-15.5C269.9,626,268.5,624.9,267.7,624.9"/>
	<path class="st0" d="M263.9,601.6c-1.4,0-2,1.6-1.6,4.5c0.8,5,4.5,12.4,8.4,16.8c1.9,2.1,3.5,3.1,4.7,3.1c1.3,0,2-1.3,1.7-4
		c-0.6-5.2-4.6-13.2-8.9-17.7C266.5,602.5,265,601.6,263.9,601.6"/>
	<path class="st0" d="M263.5,572.9c-2.1,0-3.4,2.2-3.4,6.2c0.1,6.1,3.5,14.4,7.7,18.6c1.7,1.8,3.4,2.6,4.7,2.6c2,0,3.3-1.9,3.4-5.6
		c0.1-6.4-3.6-15.3-8.1-19.6C266.1,573.6,264.7,572.9,263.5,572.9"/>
	<path class="st0" d="M267,539c-2.9,0-5.1,2.9-5.6,8c-0.7,7.1,2.3,16,6.8,20.1c1.6,1.5,3.1,2.2,4.5,2.2c2.8,0,4.9-2.7,5.5-7.5
		c1-7.5-2.3-17-7.2-21.1C269.6,539.6,268.3,539,267,539"/>
	<path class="st0" d="M275.1,501c-3.7,0-7,3.7-8.2,9.7c-1.6,7.9,0.9,17.2,5.7,21c1.4,1.1,2.9,1.7,4.3,1.7c3.5,0,6.8-3.4,8.1-9.3
		c1.9-8.4-0.9-18.2-6.1-21.8C277.5,501.4,276.3,501,275.1,501"/>
	<path class="st0" d="M287.8,460.2c-4.4,0-8.9,4.3-11,11.1c-2.5,8.4-0.5,17.8,4.5,21c1.2,0.8,2.6,1.2,3.9,1.2
		c4.3,0,8.7-4.1,10.8-10.9c2.8-9,0.6-18.7-5-21.6C289.9,460.5,288.8,460.2,287.8,460.2"/>
	<path class="st0" d="M304.7,418.7c-5.1,0-10.8,4.8-13.7,12c-3.4,8.5-1.8,17.5,3.5,20.1c1.1,0.5,2.2,0.8,3.4,0.8
		c5,0,10.6-4.7,13.5-12c3.7-9,1.8-18.2-4.1-20.4C306.5,418.8,305.7,418.7,304.7,418.7"/>
	<path class="st0" d="M325.2,378.7c-5.6,0-12.3,5-16,12.2c-4.1,8.1-2.9,16.3,2.7,18.3c0.9,0.3,1.8,0.4,2.8,0.4c5.6,0,12.3-5,16-12.4
		c4.3-8.6,2.7-16.8-3.5-18.3C326.6,378.7,325.9,378.7,325.2,378.7"/>
	<path class="st0" d="M348,342.2c-5.9,0-13.6,4.9-17.9,11.7c-4.6,7.4-3.6,14.4,2.3,15.7c0.7,0.2,1.4,0.2,2.1,0.2c6,0,13.7-5,17.9-12
		c4.7-7.7,3.3-14.7-3.1-15.5C348.9,342.2,348.4,342.2,348,342.2"/>
	<path class="st0" d="M371.8,310.8c-6.1,0-14.5,4.6-19.1,10.5c-4.8,6.3-3.9,12,2.2,12.7c0.4,0,0.8,0.1,1.3,0.1
		c6.3,0,14.7-4.7,19.3-11c4.8-6.5,3.4-12-3.1-12.4C372.2,310.8,372,310.8,371.8,310.8"/>
	<path class="st0" d="M395.4,285.4c-0.1,0-0.1,0-0.2,0c-6.2,0.1-14.8,4.1-19.5,9c-4.8,5.1-3.9,9.4,2.3,9.6c0.2,0,0.3,0,0.5,0
		c6.4,0,15.3-4.2,20-9.4C403.1,289.5,401.6,285.4,395.4,285.4"/>
	<path class="st0" d="M417.9,266.2c-0.3,0-0.7,0-1,0c-6.1,0.3-14.4,3.6-18.9,7.2c-4.5,3.8-3.6,6.7,2.2,6.7c0.1,0,0.3,0,0.4,0
		c6.4-0.2,15.4-3.6,19.9-7.6C424.6,268.9,423.3,266.2,417.9,266.2"/>
	<path class="st0" d="M438.6,252.7c-0.6,0-1.2,0-1.9,0.1c-5.9,0.5-13.8,2.9-17.8,5.4c-3.9,2.4-3.1,4.2,1.7,4.2c0.4,0,0.9,0,1.4,0
		c6.2-0.4,14.7-3,18.8-5.8C444.1,254.3,443,252.7,438.6,252.7"/>
	<path class="st0" d="M459,246.1c-7.4,1.1-14.7,2.6-22,4.3c0.4,0,0.8,0.1,1.4,0.1c0.8,0,1.7,0,2.7-0.1c6-0.5,13.9-2.3,17.4-4
		C458.8,246.3,458.9,246.2,459,246.1"/>
	<path class="st0" d="M287.4,653.2c-0.8,0-1,0.8-0.4,2.3c0.2,0.7,0.7,1.5,1.2,2.3c3.6,4.5,7.4,8.8,11.3,13.1
		c1.6,1.3,2.9,1.9,3.6,1.9c0.7,0,1-0.6,0.6-1.9c-1-3.3-5.8-9.7-10.6-14.2C290.4,654.4,288.4,653.2,287.4,653.2"/>
	<path class="st0" d="M283.6,632.9c-1.5,0-2.2,1.2-1.7,3.6c0.8,4.4,5.3,11.4,10,15.8c2.6,2.3,4.8,3.5,6.2,3.5c1.4,0,2.1-1,1.8-3.1
		c-0.5-4.5-5.3-12-10.5-16.6C287.1,634,285,632.9,283.6,632.9"/>
	<path class="st0" d="M282.9,606.8c-2.3,0-3.7,1.8-3.6,5.3c0.2,5.6,4.5,13.6,9.7,18.1c2.4,2,4.6,3.1,6.3,3.1c2.1,0,3.5-1.6,3.6-4.7
		c0.1-5.8-4.5-14.4-10.1-19.1C286.6,607.7,284.5,606.8,282.9,606.8"/>
	<path class="st0" d="M286,574.7c-3.2,0-5.5,2.6-5.9,7.2c-0.6,6.8,3.5,15.8,9,20.3c2.2,1.8,4.3,2.6,6.2,2.6c3,0,5.3-2.3,5.8-6.5
		c0.9-7.1-3.4-16.7-9.5-21.2C289.7,575.4,287.7,574.7,286,574.7"/>
	<path class="st0" d="M293.5,537.1c-4.1,0-7.6,3.3-8.6,9.1c-1.4,7.8,2.2,17.6,8.2,21.9c2,1.4,4,2.1,5.9,2.1c4,0,7.3-3.1,8.5-8.5
		c1.8-8.3-2.1-18.6-8.6-22.9C297,537.7,295.2,537.1,293.5,537.1"/>
	<path class="st0" d="M305.5,495.3c-5,0-9.7,4.1-11.5,10.8c-2.4,8.7,0.8,18.8,7.2,22.8c1.8,1.1,3.7,1.7,5.5,1.7
		c4.9,0,9.4-3.8,11.3-10.4c2.7-9.2-0.7-19.8-7.7-23.6C308.7,495.7,307.1,495.3,305.5,495.3"/>
	<path class="st0" d="M322,451.2c-5.8,0-11.7,4.6-14.3,12c-3.3,9.1-0.5,19.2,6.2,22.7c1.6,0.8,3.3,1.2,5,1.2
		c5.7,0,11.4-4.5,14.2-11.8c3.6-9.6,0.5-20-6.8-23.2C324.8,451.5,323.4,451.2,322,451.2"/>
	<path class="st0" d="M342.1,407.2c-6.4,0-13.3,5-16.7,12.5c-4.1,9-1.7,18.6,5.3,21.5c1.4,0.6,2.9,0.9,4.4,0.9
		c6.4,0,13.2-4.9,16.7-12.5c4.2-9.5,1.5-19.2-6.1-21.7C344.5,407.4,343.3,407.2,342.1,407.2"/>
	<path class="st0" d="M364.7,365.9c-6.8,0-14.6,4.9-18.6,12.1c-4.6,8.4-2.5,17.1,4.8,19.3c1.2,0.4,2.5,0.6,3.8,0.6
		c6.9,0,14.6-4.9,18.6-12.4c4.7-8.8,2.1-17.4-5.6-19.2C366.7,366,365.7,365.9,364.7,365.9"/>
	<path class="st0" d="M388.4,329.4c-7,0-15.3,4.6-19.6,11c-4.9,7.4-2.9,14.7,4.5,16.4c1,0.2,2.1,0.3,3.2,0.3
		c7.2,0,15.5-4.7,19.8-11.5c4.8-7.6,2.3-14.8-5.4-16.1C390,329.5,389.2,329.4,388.4,329.4"/>
	<path class="st0" d="M411.9,299c-7,0-15.6,3.9-19.9,9.4c-4.9,6.1-2.9,12,4.5,13.1c0.8,0.1,1.7,0.2,2.6,0.2c7.3,0,15.9-4.1,20.2-9.9
		c4.6-6.3,2.1-12-5.5-12.7C413.2,299.1,412.6,299,411.9,299"/>
	<path class="st0" d="M434.1,275.4c-6.9,0-15.4,3.2-19.6,7.5c-4.7,4.7-2.6,9.2,4.7,9.9c0.7,0.1,1.3,0.1,2,0.1
		c7.2,0,15.8-3.3,19.9-7.9c4.3-4.8,1.7-9-5.7-9.5C435,275.4,434.6,275.4,434.1,275.4"/>
	<path class="st0" d="M454.2,258.3c-6.7,0-14.8,2.4-18.7,5.5c-4.3,3.4-2.1,6.5,4.9,6.9c0.5,0,1,0,1.4,0c7,0,15.4-2.5,19.2-5.8
		c3.8-3.4,1.1-6.3-5.9-6.6C454.8,258.3,454.5,258.3,454.2,258.3"/>
	<path class="st0" d="M472,247.1c-6.4,0-14.1,1.6-17.6,3.6c-3.8,2.2-1.5,4.2,5.2,4.4c0.3,0,0.7,0,1,0c6.7,0,14.6-1.7,18-3.9
		c3.3-2.2,0.5-4-6.1-4.1C472.3,247.1,472.1,247.1,472,247.1"/>
	<path class="st0" d="M493.3,243.1c-7.6,0.2-15.2,0.7-22.7,1.5c1.2,0.3,3,0.5,5.6,0.5c0.2,0,0.4,0,0.7,0
		C483.2,245.1,490.4,244.3,493.3,243.1"/>
	<path class="st0" d="M310.2,679.5c-0.7,0-1,0.5-0.5,1.6c0.1,0.2,0.2,0.4,0.3,0.6c5.4,5.2,11,10.1,16.9,14.9c0.5,0.2,1,0.3,1.3,0.3
		c0.6,0,0.9-0.4,0.7-1.2c-0.8-2.6-5.9-8.1-11.4-12.2C314,680.9,311.4,679.5,310.2,679.5"/>
	<path class="st0" d="M307.1,663c-1.5,0-2.2,0.9-1.8,2.7c0.7,3.7,5.7,10,11.2,14.1c3.2,2.4,6,3.7,7.7,3.7c1.3,0,2.1-0.7,1.9-2.2
		c-0.3-3.7-5.5-10.4-11.6-14.8C311.4,664.2,308.8,663,307.1,663"/>
	<path class="st0" d="M306.8,640.5c-2.4,0-3.8,1.5-3.7,4.3c0.2,4.9,5.1,12.4,11.2,16.7c3,2.2,5.8,3.3,7.8,3.3c2.2,0,3.6-1.2,3.8-3.7
		c0.2-5-4.9-12.9-11.5-17.6C311.4,641.5,308.8,640.5,306.8,640.5"/>
	<path class="st0" d="M310.1,611.4c-3.4,0-5.8,2.2-6.2,6.2c-0.5,6.2,4.3,14.8,10.8,19.4c2.8,1.9,5.5,2.9,7.7,2.9
		c3.2,0,5.6-1.9,6.1-5.5c0.9-6.5-4.1-15.6-11.2-20.3C314.7,612.2,312.2,611.4,310.1,611.4"/>
	<path class="st0" d="M317.3,575.8c-4.5,0-8,3-9,8.2c-1.3,7.5,3.3,17.2,10.3,21.8c2.6,1.7,5.1,2.5,7.5,2.5c4.3,0,7.7-2.7,8.9-7.6
		c1.8-7.9-3-18.1-10.7-22.7C321.9,576.5,319.5,575.8,317.3,575.8"/>
	<path class="st0" d="M329,534.5c-5.5,0-10.3,3.8-12,10.2c-2.3,8.6,2,19.1,9.6,23.6c2.4,1.4,4.8,2,7.1,2c5.3,0,10-3.5,11.8-9.6
		c2.7-9.1-1.8-20.1-10-24.4C333.3,535,331.1,534.5,329,534.5"/>
	<path class="st0" d="M345,489.2c-6.4,0-12.4,4.5-14.8,11.7c-3.2,9.4,0.7,20.3,8.7,24.5c2.2,1.1,4.4,1.7,6.6,1.7
		c6.2,0,12.1-4.2,14.7-11.4c3.5-9.9-0.6-21.1-9.2-25.1C349,489.6,347,489.2,345,489.2"/>
	<path class="st0" d="M364.7,442.3c-7.1,0-14.1,4.9-17.3,12.6c-4,9.6-0.4,20.5,7.9,24.2c2,0.9,4.1,1.3,6.2,1.3
		c7,0,13.9-4.8,17.2-12.5c4.2-10.1,0.3-21.1-8.6-24.5C368.3,442.6,366.5,442.3,364.7,442.3"/>
	<path class="st0" d="M386.9,396.7c-7.5,0-15.3,4.9-19,12.5c-4.5,9.3-1.3,19.5,7.3,22.7c1.8,0.7,3.7,1,5.7,1c7.5,0,15.3-4.9,19-12.7
		c4.6-9.7,1-19.9-8.1-22.7C390.2,396.9,388.5,396.7,386.9,396.7"/>
	<path class="st0" d="M410.3,355c-7.7,0-16,4.6-19.9,11.6c-4.9,8.5-1.8,17.6,6.9,20.2c1.7,0.5,3.4,0.8,5.2,0.8c7.8,0,16.1-4.7,20-12
		c4.7-8.7,1.2-17.7-7.8-20C413.2,355.2,411.8,355,410.3,355"/>
	<path class="st0" d="M433.4,319.3c-7.6,0-15.9,4-19.9,9.9c-4.9,7.3-1.9,14.9,6.8,17c1.5,0.4,3.1,0.6,4.8,0.6
		c7.8,0,16.2-4.2,20.1-10.5c4.6-7.4,1-14.8-7.8-16.6C436.1,319.4,434.7,319.3,433.4,319.3"/>
	<path class="st0" d="M454.9,290.5c-7.3,0-15.2,3.2-19,7.9c-4.6,5.8-1.6,11.9,6.8,13.6c1.5,0.3,3,0.4,4.5,0.4
		c7.6,0,15.7-3.4,19.3-8.5c4.2-5.9,0.6-11.7-7.8-13.1C457.5,290.6,456.2,290.5,454.9,290.5"/>
	<path class="st0" d="M474.1,268.9c-6.8,0-14.1,2.3-17.4,5.8c-4.2,4.3-1.2,8.9,7,10.2c1.5,0.2,3,0.3,4.5,0.3
		c7.2,0,14.5-2.5,17.7-6.2c3.7-4.3,0.1-8.7-7.9-9.8C476.7,269,475.4,268.9,474.1,268.9"/>
	<path class="st0" d="M490.3,254c-6.1,0-12.4,1.5-15.2,3.7c-3.7,3-0.6,6.2,7.1,7.2c1.6,0.2,3.2,0.3,4.8,0.3c6.5,0,12.9-1.6,15.5-4.1
		c3.1-2.9-0.5-6-7.9-6.9C493.2,254.1,491.7,254,490.3,254"/>
	<path class="st0" d="M503.3,244.8c-5.2,0-10.1,0.8-12.3,2c-3.2,1.8,0,3.9,7.2,4.7c1.9,0.2,3.8,0.3,5.7,0.3c5.4,0,10.5-0.8,12.5-2.2
		c2.5-1.8-1-3.8-7.9-4.5C506.8,244.9,505,244.8,503.3,244.8"/>
	<path class="st0" d="M507.5,243.1c1.1,0.2,2.5,0.4,4,0.6c2.9,0.3,5.8,0.4,8.4,0.4c1.5,0,2.8,0,4-0.1
		C518.5,243.5,513,243.2,507.5,243.1"/>
	<path class="st0" d="M335,702.6c-0.1,0-0.3,0-0.4,0.1c6.6,4.9,13.4,9.6,20.5,13.9v-0.1c-0.4-1.8-5.6-6.2-11.6-9.9
		C339.5,704,336.3,702.6,335,702.6"/>
	<path class="st0" d="M333.2,690c-1.4,0-2.1,0.6-1.9,1.9c0.4,2.9,5.7,8.2,11.7,12c3.8,2.4,7.2,3.6,9.2,3.6c1.2,0,1.9-0.5,1.9-1.5
		c0-2.9-5.4-8.4-12-12.5C338.4,691.3,335.2,690,333.2,690"/>
	<path class="st0" d="M334.1,671.6c-2.4,0-3.9,1.1-3.9,3.3c0,4.1,5.3,10.6,12,14.7c3.5,2.1,6.8,3.2,9.2,3.2c2.2,0,3.7-0.9,3.9-2.7
		c0.5-4.1-5-11-12.2-15.3C339.6,672.6,336.4,671.6,334.1,671.6"/>
	<path class="st0" d="M338.2,646.5c-3.6,0-6,1.8-6.4,5.1c-0.6,5.4,4.7,13.3,12,17.6c3.3,1.9,6.4,2.9,9.1,2.9c3.3,0,5.8-1.5,6.4-4.5
		c1.2-5.6-4.3-13.8-12.2-18.4C343.8,647.3,340.7,646.5,338.2,646.5"/>
	<path class="st0" d="M346,614.2c-4.7,0-8.4,2.6-9.4,7.2c-1.4,6.9,3.9,16,11.8,20.5c3,1.7,6,2.5,8.7,2.5c4.5,0,8.1-2.3,9.3-6.5
		c1.9-7.1-3.5-16.8-12-21.4C351.5,614.9,348.6,614.2,346,614.2"/>
	<path class="st0" d="M357.9,575c-5.9,0-10.8,3.4-12.4,9.4c-2.2,8.2,2.8,18.6,11.4,23.1c2.8,1.5,5.7,2.2,8.4,2.2
		c5.6,0,10.4-3.1,12.2-8.7c2.8-8.6-2.4-19.4-11.6-24C363.2,575.7,360.5,575,357.9,575"/>
	<path class="st0" d="M373.9,530.2c-6.8,0-13,4.2-15.3,11.2c-3.1,9.4,1.7,20.5,10.8,25c2.6,1.3,5.3,1.9,7.9,1.9
		c6.6,0,12.7-3.9,15.2-10.7c3.5-9.7-1.4-21.3-11.1-25.7C378.8,530.8,376.3,530.2,373.9,530.2"/>
	<path class="st0" d="M393.2,482.1c-7.6,0-14.7,4.7-17.7,12.5c-3.9,10,0.6,21.6,10.1,25.8c2.5,1.1,5,1.6,7.6,1.6
		c7.4,0,14.5-4.6,17.6-12.2c4.2-10.3-0.6-22.2-10.6-26.3C397.9,482.5,395.6,482.1,393.2,482.1"/>
	<path class="st0" d="M415,433.4c-8,0-15.9,4.9-19.4,12.8c-4.5,10.1-0.2,21.4,9.6,25.3c2.3,0.9,4.8,1.4,7.2,1.4
		c8,0,15.8-4.9,19.3-12.8c4.5-10.3,0-21.8-10.2-25.5C419.5,433.7,417.2,433.4,415,433.4"/>
	<path class="st0" d="M437.9,387.2c-8.1,0-16.3,4.7-20.1,12.1c-4.8,9.5-0.7,20.1,9.2,23.6c2.2,0.8,4.5,1.2,6.9,1.2
		c8.2,0,16.4-4.8,20.1-12.5c4.6-9.7,0.2-20.2-9.9-23.4C442.1,387.5,440,387.2,437.9,387.2"/>
	<path class="st0" d="M460.2,346.2c-8,0-16,4.1-19.7,10.6c-4.8,8.4-0.8,17.7,9,20.8c2.2,0.7,4.4,1,6.7,1c8.2,0,16.3-4.3,19.8-11.1
		c4.4-8.5,0-17.6-9.8-20.4C464.3,346.4,462.3,346.2,460.2,346.2"/>
	<path class="st0" d="M480.9,312c-7.5,0-15,3.3-18.4,8.5c-4.5,7-0.5,14.8,9,17.4c2.2,0.6,4.4,0.9,6.6,0.9c7.8,0,15.4-3.5,18.6-9.2
		c4-7-0.4-14.6-9.8-17C485,312.2,482.9,312,480.9,312"/>
	<path class="st0" d="M499,285.3c-6.8,0-13.4,2.4-16.4,6.3c-4.1,5.4-0.1,11.6,9,13.9c2.2,0.6,4.5,0.8,6.8,0.8
		c7.1,0,13.8-2.6,16.6-6.9c3.4-5.4-1-11.4-9.8-13.4C503.2,285.6,501.1,285.3,499,285.3"/>
	<path class="st0" d="M513.9,266c-5.9,0-11.3,1.5-13.7,4.2c-3.5,3.8,0.5,8.6,9,10.5c2.5,0.6,5,0.8,7.4,0.8c6.1,0,11.7-1.7,13.8-4.6
		c2.8-3.8-1.6-8.4-9.8-10.2C518.5,266.2,516.2,266,513.9,266"/>
	<path class="st0" d="M525.4,253.1c-4.6,0-8.5,0.8-10.3,2.3c-2.9,2.5,1.1,5.9,9,7.6c2.9,0.6,5.8,0.9,8.5,0.9c4.8,0,8.9-0.9,10.4-2.7
		c2.2-2.5-2.1-5.8-9.6-7.3C530.8,253.4,528,253.1,525.4,253.1"/>
	<path class="st0" d="M533.4,245.6c-2.8,0-5,0.3-6.1,0.9c-2.4,1.4,1.6,3.7,8.8,5.2c3.7,0.7,7.4,1.1,10.4,1.1c3,0,5.4-0.4,6.3-1.2
		c1.7-1.4-2.5-3.6-9.4-5C540,246,536.4,245.6,533.4,245.6"/>
	<path class="st0" d="M360.7,713.2c-1.2,0-1.9,0.4-1.8,1.2c0.1,2,5.3,6.3,11.6,9.4c4.3,2.2,8.2,3.4,10.4,3.4c1,0,1.7-0.3,1.8-0.8
		c0.4-2-4.9-6.3-11.7-9.8C366.6,714.4,362.8,713.2,360.7,713.2"/>
	<path class="st0" d="M363.3,699.2c-2.3,0-3.8,0.8-4,2.4c-0.3,3.1,5.1,8.5,12.1,12c3.9,2,7.7,3,10.3,3c2.1,0,3.6-0.6,4-1.9
		c0.9-3.2-4.6-8.8-12.1-12.5C369.5,700.2,365.9,699.2,363.3,699.2"/>
	<path class="st0" d="M368.9,678.6c-3.6,0-6.2,1.4-6.7,4.1c-0.9,4.5,4.6,11.2,12.3,15c3.6,1.8,7.1,2.6,10,2.6c3.4,0,5.9-1.2,6.6-3.5
		c1.5-4.6-4-11.6-12.4-15.6C375.2,679.4,371.7,678.6,368.9,678.6"/>
	<path class="st0" d="M377.9,650.7c-4.9,0-8.7,2.2-9.7,6.2c-1.6,6,4,14.1,12.4,18.2c3.3,1.6,6.6,2.4,9.6,2.4c4.6,0,8.3-1.9,9.6-5.5
		c2.2-6.2-3.4-14.6-12.4-18.9C384.1,651.4,380.8,650.7,377.9,650.7"/>
	<path class="st0" d="M390.6,615.2c-6.1,0-11.2,3-12.9,8.4c-2.3,7.5,3.1,17.1,12.3,21.3c3.1,1.4,6.2,2.1,9.1,2.1
		c5.8,0,10.8-2.8,12.7-7.7c2.9-7.8-2.6-17.7-12.3-22.1C396.5,615.9,393.4,615.2,390.6,615.2"/>
	<path class="st0" d="M406.9,572.8c-7.1,0-13.4,3.9-15.8,10.5c-3.2,8.9,2.2,19.7,12,24.1c2.9,1.3,5.9,1.9,8.7,1.9
		c6.9,0,13.1-3.6,15.6-9.9c3.7-9.2-1.7-20.3-12-24.8C412.5,573.4,409.7,572.8,406.9,572.8"/>
	<path class="st0" d="M426.3,525.3c-7.9,0-15.2,4.5-18.1,12.1c-3.9,10,1.3,21.6,11.6,26c2.7,1.2,5.6,1.7,8.4,1.7
		c7.7,0,14.9-4.4,18-11.7c4.2-10.2-1-22.1-11.7-26.5C431.7,525.8,429,525.3,426.3,525.3"/>
	<path class="st0" d="M447.8,475.2c-8.3,0-16.3,4.9-19.6,12.8c-4.4,10.4,0.6,22.4,11.2,26.8c2.7,1.1,5.4,1.6,8.1,1.6
		c8.3,0,16.1-4.8,19.5-12.8c4.5-10.6-0.6-22.7-11.5-27C453,475.7,450.4,475.2,447.8,475.2"/>
	<path class="st0" d="M470.1,425.8c-8.4,0-16.5,4.8-20.1,12.5c-4.7,10.2,0.2,21.9,10.9,26.1c2.6,1,5.3,1.5,7.9,1.5
		c8.5,0,16.6-4.8,20.1-12.8c4.6-10.3-0.5-22-11.3-26C475.2,426.2,472.6,425.8,470.1,425.8"/>
	<path class="st0" d="M491.7,380.2c-8.2,0-16,4.3-19.5,11.3c-4.6,9.4,0.2,20.2,10.8,24.1c2.6,1,5.3,1.4,7.9,1.4
		c8.3,0,16.3-4.5,19.6-11.8c4.3-9.4-0.8-20-11.3-23.7C496.8,380.6,494.3,380.2,491.7,380.2"/>
	<path class="st0" d="M511.4,340.7c-7.6,0-14.8,3.5-17.9,9.4c-4.3,8.1,0.4,17.6,10.8,21.2c2.6,0.9,5.4,1.3,8,1.3
		c7.8,0,15.1-3.7,18.1-10c3.8-8.1-1.3-17.3-11.3-20.6C516.6,341,514,340.7,511.4,340.7"/>
	<path class="st0" d="M528.3,308.6c-6.7,0-12.9,2.6-15.5,7.1c-3.8,6.5,1,14.5,10.8,17.7c2.8,0.9,5.6,1.4,8.4,1.4
		c7,0,13.3-2.9,15.7-7.8c3.2-6.5-1.9-14.1-11.4-17.1C533.6,309,530.9,308.6,528.3,308.6"/>
	<path class="st0" d="M541.9,284.2c-5.6,0-10.6,1.7-12.6,4.8c-3.2,4.9,1.6,11.3,10.7,14.2c3,1,6.1,1.4,8.9,1.4c5.9,0,11-2,12.8-5.4
		c2.5-4.9-2.5-11-11.3-13.7C547.6,284.6,544.6,284.2,541.9,284.2"/>
	<path class="st0" d="M552,266.9c-4.3,0-7.8,1-9.3,2.9c-2.6,3.4,2.1,8.3,10.6,10.9c3.4,1,6.8,1.6,9.8,1.6c4.6,0,8.2-1.2,9.4-3.4
		c1.9-3.4-3.1-8.1-11.1-10.5C558.3,267.4,555,266.9,552,266.9"/>
	<path class="st0" d="M559.2,255.8c-2.7,0-4.8,0.5-5.7,1.4c-2,2.1,2.6,5.7,10.4,8c4,1.2,7.9,1.8,11,1.8c3,0,5.2-0.6,5.9-1.7
		c1.3-2.1-3.5-5.6-10.8-7.8C566.1,256.4,562.2,255.8,559.2,255.8"/>
	<path class="st0" d="M561.9,249.8c-0.2,0.1-0.3,0.1-0.4,0.2c-1.5,1.1,3,3.6,10,5.7c4.7,1.4,9.2,2.2,12,2.2c1.4,0,2.3-0.2,2.7-0.6
		c0.2-0.2,0.1-0.5-0.1-0.8C578.1,253.8,570,251.6,561.9,249.8"/>
	<path class="st0" d="M388.2,731.7c-1,0-1.6,0.2-1.7,0.7c0,0.2,0.1,0.5,0.4,0.9c3.4,1.5,6.9,3,10.4,4.4c4.1,1.6,8.2,3.1,12.3,4.5
		c0.4-0.1,0.7-0.2,0.8-0.4c0.8-1.3-4.1-4.4-11-7.1C394.8,732.8,390.5,731.7,388.2,731.7"/>
	<path class="st0" d="M392.9,721.8c-2.2,0-3.7,0.5-4,1.6c-0.7,2.3,4.5,6.4,11.6,9.2c4.2,1.6,8.2,2.5,11.1,2.5c2,0,3.4-0.4,3.9-1.3
		c1.3-2.3-3.8-6.5-11.4-9.5C399.8,722.6,395.8,721.8,392.9,721.8"/>
	<path class="st0" d="M400.6,705.8c-3.6,0-6.3,1.1-7,3.2c-1.2,3.5,4.1,8.9,11.9,12c3.7,1.5,7.4,2.2,10.4,2.2c3.4,0,6-0.9,6.9-2.6
		c1.9-3.6-3.3-9.2-11.7-12.5C407.3,706.5,403.6,705.8,400.6,705.8"/>
	<path class="st0" d="M411.4,682.7c-5,0-9,1.8-10.2,5.1c-1.8,5,3.6,11.8,12.2,15.2c3.3,1.3,6.7,1.9,9.7,1.9c4.8,0,8.7-1.6,10.1-4.5
		c2.6-5.1-2.8-12.2-11.9-15.8C417.8,683.4,414.4,682.7,411.4,682.7"/>
	<path class="st0" d="M425.4,651.9c-6.3,0-11.6,2.7-13.4,7.4c-2.5,6.6,2.9,14.9,12.2,18.6c3.1,1.2,6.2,1.8,9.1,1.8
		c6,0,11.2-2.4,13.2-6.7c3.2-6.7-2.1-15.4-11.9-19.2C431.5,652.5,428.3,651.9,425.4,651.9"/>
	<path class="st0" d="M442.5,613.4c-7.3,0-13.8,3.6-16.3,9.7c-3.3,8.2,2.2,18,12.1,21.9c2.9,1.1,5.8,1.7,8.7,1.7
		c7.1,0,13.4-3.3,16.1-9c3.8-8.3-1.5-18.4-11.9-22.5C448.4,614,445.4,613.4,442.5,613.4"/>
	<path class="st0" d="M462.3,568.4c-8.1,0-15.5,4.3-18.5,11.5c-3.9,9.5,1.4,20.6,12,24.7c2.7,1.1,5.6,1.6,8.4,1.6
		c7.9,0,15.2-4.1,18.3-11c4.3-9.6-0.9-20.9-11.7-25.2C468,568.9,465.1,568.4,462.3,568.4"/>
	<path class="st0" d="M483.9,519c-8.5,0-16.5,4.8-19.8,12.7c-4.4,10.4,0.9,22.3,11.8,26.6c2.7,1.1,5.5,1.6,8.2,1.6
		c8.4,0,16.3-4.7,19.7-12.4c4.6-10.4-0.7-22.5-11.7-26.8C489.4,519.5,486.6,519,483.9,519"/>
	<path class="st0" d="M505.8,468.2c-8.5,0-16.6,4.8-20.1,12.8c-4.6,10.6,0.6,22.8,11.7,27.1c2.7,1.1,5.5,1.6,8.2,1.6
		c8.5,0,16.6-4.9,20.1-12.9c4.5-10.6-0.7-22.7-11.7-27.1C511.4,468.7,508.6,468.2,505.8,468.2"/>
	<path class="st0" d="M526.9,419.4c-8.2,0-15.9,4.5-19.3,11.9c-4.5,10.2,0.7,21.9,11.7,26.3c2.7,1.1,5.6,1.6,8.3,1.6
		c8.3,0,16.1-4.6,19.3-12.3c4.2-10.1-1.1-21.7-11.9-25.9C532.4,419.9,529.6,419.4,526.9,419.4"/>
	<path class="st0" d="M545.6,375.4c-7.5,0-14.5,3.8-17.4,10.2c-4.1,9.1,1.1,19.9,11.8,24.1c2.8,1.1,5.8,1.7,8.6,1.7
		c7.8,0,14.8-4,17.6-10.8c3.6-9-1.7-19.5-12-23.6C551.3,375.9,548.4,375.4,545.6,375.4"/>
	<path class="st0" d="M561.3,338.2c-6.6,0-12.5,2.9-14.9,8c-3.6,7.6,1.7,17.1,11.9,21.1c3,1.2,6.1,1.8,9,1.8
		c6.9,0,12.9-3.2,15.1-8.7c2.9-7.5-2.5-16.6-12.2-20.5C567.2,338.7,564.2,338.2,561.3,338.2"/>
	<path class="st0" d="M573.5,308.6c-5.5,0-10.1,2-11.9,5.7c-2.9,6,2.4,14,11.9,17.7c3.2,1.3,6.5,1.9,9.5,1.9c5.8,0,10.5-2.3,12-6.4
		c2.2-5.9-3.3-13.5-12.2-17.1C579.7,309.2,576.5,308.6,573.5,308.6"/>
	<path class="st0" d="M582.3,286.5c-4.2,0-7.5,1.3-8.7,3.6c-2.3,4.4,3,10.8,11.8,14.3c3.6,1.4,7.1,2.1,10.1,2.1
		c4.4,0,7.8-1.5,8.8-4.2c1.5-4.3-3.9-10.5-12.1-13.7C588.8,287.2,585.3,286.5,582.3,286.5"/>
	<path class="st0" d="M588,271.2c-2.8,0-4.8,0.7-5.5,2c-1.6,3,3.6,8,11.6,11.1c4,1.6,7.8,2.4,10.8,2.4c3,0,5.1-0.8,5.6-2.4
		c1-2.9-4.3-7.8-11.8-10.7C594.9,271.9,591,271.2,588,271.2"/>
	<path class="st0" d="M591.5,261.5c-1.4,0-2.4,0.3-2.7,0.8c-1.1,1.8,3.9,5.5,11.2,8.4c4.5,1.8,8.6,2.7,11.3,2.7
		c1.6,0,2.7-0.4,2.9-1.1c0.5-1.8-4.6-5.5-11.4-8.1C598.4,262.4,594.1,261.5,591.5,261.5"/>
	<path class="st0" d="M421.6,739.2c-2,0-3.5,0.3-4,1c-1.1,1.5,3.6,4.4,10.5,6.4c4.2,1.2,8.5,1.9,11.5,1.9c1.8,0,3.2-0.2,3.8-0.8
		c1.7-1.5-2.8-4.4-10.2-6.6C428.8,739.9,424.6,739.2,421.6,739.2"/>
	<path class="st0" d="M431.6,727.5c-3.7,0-6.5,0.8-7.4,2.4c-1.6,2.6,3.3,6.6,10.9,8.9c3.5,1,7.1,1.6,10.2,1.6c3.4,0,6.2-0.7,7.3-2
		c2.3-2.6-2.4-6.7-10.5-9.2C438.4,728.1,434.7,727.5,431.6,727.5"/>
	<path class="st0" d="M444.4,709.3c-5.2,0-9.4,1.5-10.9,4.2c-2.2,4,2.8,9.3,11.2,11.8c3,0.9,6.2,1.4,9.1,1.4c4.9,0,9.1-1.3,10.8-3.7
		c2.9-4-1.9-9.5-10.7-12.2C450.6,709.8,447.4,709.3,444.4,709.3"/>
	<path class="st0" d="M460,683.7c-6.4,0-12,2.3-14.1,6.4c-2.8,5.5,2.3,12.3,11.3,15.1c2.7,0.9,5.6,1.3,8.3,1.3
		c6.2,0,11.6-2.1,14-5.8c3.5-5.6-1.3-12.6-10.7-15.6C465.7,684.1,462.8,683.7,460,683.7"/>
	<path class="st0" d="M478.2,650.2c-7.4,0-14.2,3.3-16.9,8.8c-3.5,7.2,1.6,15.5,11.3,18.7c2.6,0.8,5.2,1.2,7.8,1.2
		c7.1,0,13.8-3,16.7-8.1c4.1-7.2-0.7-15.8-10.8-19.2C483.6,650.6,480.9,650.2,478.2,650.2"/>
	<path class="st0" d="M498.6,609.3c-8.1,0-15.7,4.1-18.9,10.9c-4,8.7,1,18.5,11.3,22c2.5,0.8,5,1.2,7.6,1.2
		c7.9,0,15.4-3.9,18.7-10.3c4.5-8.7-0.3-18.8-10.8-22.5C504,609.7,501.3,609.3,498.6,609.3"/>
	<path class="st0" d="M520.5,562.6c-8.4,0-16.5,4.7-20,12.3c-4.4,9.9,0.6,21,11.3,24.8c2.4,0.9,5,1.3,7.5,1.3
		c8.3,0,16.4-4.5,19.9-11.9c4.7-9.8-0.1-21.1-10.8-25.1C525.8,563.1,523.1,562.6,520.5,562.6"/>
	<path class="st0" d="M542.4,512.6c-8.4,0-16.5,4.9-20,12.9c-4.6,10.6,0.5,22.4,11.3,26.6c2.5,1,5.1,1.4,7.7,1.4
		c8.4,0,16.5-4.9,20-12.8c4.6-10.4-0.3-22.3-11-26.5C547.8,513.1,545.1,512.6,542.4,512.6"/>
	<path class="st0" d="M563.1,462.5c-8.1,0-15.7,4.7-19,12.4c-4.4,10.5,0.8,22.6,11.5,27c2.6,1,5.3,1.5,7.9,1.5
		c8.2,0,15.9-4.8,19.1-12.6c4.2-10.3-0.9-22.2-11.4-26.6C568.6,463,565.8,462.5,563.1,462.5"/>
	<path class="st0" d="M581.2,415.4c-7.4,0-14.2,4.1-17,11c-4,9.8,1.3,21.5,11.8,25.9c2.7,1.2,5.6,1.7,8.3,1.7
		c7.6,0,14.5-4.3,17.1-11.5c3.6-9.6-1.7-20.9-11.7-25.3C586.9,415.9,584,415.4,581.2,415.4"/>
	<path class="st0" d="M596,373.8c-6.5,0-12.1,3.2-14.4,9c-3.4,8.6,2.1,19.3,12.1,23.8c2.9,1.3,5.9,1.9,8.7,1.9
		c6.7,0,12.5-3.5,14.5-9.6c2.8-8.4-2.6-18.6-12.1-23C601.9,374.4,598.9,373.8,596,373.8"/>
	<path class="st0" d="M607,339.2c-5.3,0-9.8,2.4-11.4,6.7c-2.6,7.1,2.9,16.4,12.3,20.8c3.2,1.5,6.3,2.2,9.2,2.2
		c5.6,0,10.1-2.7,11.5-7.4c2-6.9-3.5-15.8-12.4-20C613.1,339.9,609.9,339.2,607,339.2"/>
	<path class="st0" d="M614.4,312.2c-4.1,0-7.3,1.6-8.3,4.5c-1.9,5.5,3.7,13.3,12.4,17.5c3.4,1.6,6.8,2.4,9.7,2.4
		c4.3,0,7.6-1.8,8.4-5.2c1.3-5.3-4.3-12.8-12.4-16.8C620.8,313,617.4,312.2,614.4,312.2"/>
	<path class="st0" d="M618.7,292.2c-2.8,0-4.8,0.9-5.4,2.7c-1.2,4,4.3,10.3,12.3,14.3c3.8,1.8,7.3,2.8,10.1,2.8c3,0,5.1-1.1,5.5-3.3
		c0.6-3.9-4.9-10-12.3-13.7C625.2,293.1,621.6,292.2,618.7,292.2"/>
	<path class="st0" d="M620.6,278.5c-1.6,0-2.7,0.5-2.9,1.4c-0.7,2.6,4.7,7.7,12,11.3c4.2,2.1,7.9,3.1,10.3,3.1c1.8,0,2.9-0.6,3-1.8
		c0.1-2.6-5.2-7.5-11.9-10.9C626.9,279.6,623.1,278.5,620.6,278.5"/>
	<path class="st0" d="M620.1,270c-0.3,0.1-0.5,0.2-0.5,0.5c-0.2,1.6,5,5.5,11.5,8.8c4.5,2.3,8.3,3.6,10.1,3.6c0.8,0,1.2-0.3,1.2-0.8
		l0,0C635.3,277.6,627.8,273.6,620.1,270"/>
	<path class="st0" d="M448.4,751.2c-1.6,0-2.9,0.1-3.6,0.4c8,1.6,16,2.8,24,3.7c-1.1-0.9-4.3-1.9-8.8-2.8
		C455.7,751.6,451.4,751.2,448.4,751.2"/>
	<path class="st0" d="M461.1,743.2c-3.9,0-7,0.6-8.2,1.8c-1.9,1.8,2.3,4.5,9.5,6c3.1,0.6,6.3,0.9,9.1,0.9c3.7,0,6.7-0.5,8.1-1.5
		c2.6-1.8-1.3-4.6-8.9-6.1C467.3,743.6,464,743.2,461.1,743.2"/>
	<path class="st0" d="M475.9,729.4c-5.5,0-10.2,1.3-12,3.5c-2.5,3.1,1.9,6.9,9.7,8.5c2.5,0.5,5,0.8,7.4,0.8c5.2,0,9.8-1.1,11.8-3.1
		c3.2-3.1-0.8-7-9-8.8C481.2,729.7,478.5,729.4,475.9,729.4"/>
	<path class="st0" d="M492.9,708.7c-6.6,0-12.7,2.1-15.2,5.6c-3.1,4.5,1.3,9.6,9.8,11.5c2.1,0.5,4.4,0.7,6.5,0.7
		c6.3,0,12.3-1.9,14.9-5.1c3.8-4.5-0.2-9.9-9-11.9C497.7,709,495.3,708.7,492.9,708.7"/>
	<path class="st0" d="M512.1,680.5c-7.5,0-14.6,3-17.6,7.9c-3.7,6.1,0.7,12.8,9.8,15c2,0.5,4,0.7,6.1,0.7c7.2,0,14.2-2.8,17.4-7.3
		c4.3-6.1,0.3-13-9-15.4C516.6,680.8,514.4,680.5,512.1,680.5"/>
	<path class="st0" d="M533.3,644.7c-8,0-15.9,3.9-19.3,10.1c-4.2,7.7,0.2,15.9,9.8,18.5c1.9,0.5,3.9,0.8,5.9,0.8
		c7.8,0,15.6-3.6,19.1-9.5c4.7-7.6,0.7-16.1-9-19C537.7,645,535.5,644.7,533.3,644.7"/>
	<path class="st0" d="M555.5,602.3c-8.2,0-16.4,4.5-20.1,11.8c-4.6,9.1-0.1,18.8,9.8,21.8c2,0.6,4,0.9,6.1,0.9
		c8.1,0,16.2-4.4,20-11.3c4.8-8.9,0.8-18.9-9.1-22.1C560.1,602.6,557.8,602.3,555.5,602.3"/>
	<path class="st0" d="M577.7,555c-8.2,0-16.3,4.9-19.9,12.7c-4.6,10-0.1,21,10,24.5c2.1,0.7,4.2,1,6.3,1c8.1,0,16.2-4.8,19.9-12.5
		c4.7-9.8,0.5-20.8-9.3-24.5C582.4,555.4,580,555,577.7,555"/>
	<path class="st0" d="M598.3,505.7c-7.8,0-15.3,4.8-18.7,12.7c-4.4,10.4,0.2,22.1,10.3,26c2.2,0.9,4.5,1.3,6.7,1.3
		c7.8,0,15.4-4.9,18.7-12.8c4.3-10.1-0.1-21.6-9.8-25.7C603.2,506.2,600.7,505.7,598.3,505.7"/>
	<path class="st0" d="M616.1,457.4c-7.1,0-13.7,4.3-16.6,11.7c-3.9,10.2,0.9,21.9,10.8,26.2c2.4,1,4.8,1.5,7.2,1.5
		c7.3,0,14-4.5,16.7-12c3.6-9.8-1.1-21.2-10.4-25.6C621.3,458,618.7,457.4,616.1,457.4"/>
	<path class="st0" d="M630.4,413c-6.2,0-11.7,3.6-13.9,9.9c-3.2,9.3,1.9,20.5,11.3,25.1c2.6,1.2,5.2,1.8,7.7,1.8
		c6.4,0,12-3.9,14-10.5c2.7-8.9-2.2-19.7-11-24.3C635.8,413.7,633,413,630.4,413"/>
	<path class="st0" d="M640.6,374.5c-5.1,0-9.4,2.7-10.9,7.8c-2.4,8,2.9,18.2,11.8,22.9c2.8,1.5,5.6,2.2,8.2,2.2c5.4,0,9.7-3,11-8.5
		c1.8-7.6-3.3-17.5-11.6-22C646.2,375.2,643.3,374.5,640.6,374.5"/>
	<path class="st0" d="M646.9,342.9c-4,0-7,1.9-7.9,5.6c-1.6,6.4,3.9,15.5,12.1,20.1c3.1,1.7,6,2.5,8.6,2.5c4.2,0,7.4-2.2,8-6.3
		c1-6.2-4.3-14.8-11.9-19.2C652.7,343.7,649.6,342.9,646.9,342.9"/>
	<path class="st0" d="M649.9,318.3c-2.8,0-4.8,1.2-5.2,3.7c-0.9,4.9,4.6,12.6,12.2,17c3.3,2,6.4,2.9,8.9,2.9c3,0,5-1.5,5.2-4.3
		c0.4-4.8-5-12.1-12-16.3C655.7,319.3,652.4,318.3,649.9,318.3"/>
	<path class="st0" d="M650.2,300.3c-1.7,0-2.9,0.7-3,2.1c-0.3,3.5,5.2,9.8,12.1,14.1c3.6,2.2,6.8,3.3,9,3.3c1.9,0,3-0.9,2.9-2.6
		c-0.2-3.5-5.5-9.5-11.9-13.4C655.8,301.5,652.4,300.3,650.2,300.3"/>
	<path class="st0" d="M648.6,288c-0.9,0-1.4,0.3-1.3,1.1c0.2,2.4,5.5,7.4,11.8,11.3c3.9,2.4,7.1,3.7,8.8,3.7c1,0,1.5-0.5,1.2-1.4
		c-0.6-2.4-5.8-7.2-11.6-10.9C653.7,289.3,650.4,288,648.6,288"/>
	<path class="st0" d="M488.7,753.4c-4.6,0-8.5,0.5-10.2,1.3c-0.8,0.4-0.9,0.9-0.2,1.4c6.8,0.5,13.6,0.8,20.4,0.8c1.6,0,3.2,0,4.7,0
		c1.6-1.1-1.6-2.5-7.8-3.1C493.3,753.5,491,753.4,488.7,753.4"/>
	<path class="st0" d="M505,743.3c-6,0-11.6,1.1-13.9,3c-2.8,2.2,0.8,4.7,7.9,5.5c1.5,0.2,3,0.2,4.6,0.2c5.7,0,11.2-1,13.8-2.7
		c3.4-2.3,0.2-4.8-7.1-5.7C508.4,743.4,506.7,743.3,505,743.3"/>
	<path class="st0" d="M522.7,727.2c-6.8,0-13.7,2-16.5,5c-3.4,3.5,0.2,7.1,7.9,8.1c1.3,0.2,2.6,0.2,3.9,0.2c6.5,0,13.2-1.8,16.3-4.6
		c3.9-3.5,0.8-7.3-7-8.4C525.8,727.3,524.3,727.2,522.7,727.2"/>
	<path class="st0" d="M542.6,704.2c-7.4,0-15.1,2.8-18.5,7.2c-3.9,5-0.4,10,7.8,11.2c1.2,0.2,2.5,0.3,3.8,0.3
		c7.1,0,14.6-2.7,18.2-6.7c4.4-5,1.4-10.2-6.9-11.6C545.5,704.3,544,704.2,542.6,704.2"/>
	<path class="st0" d="M564.1,673.9c-7.8,0-16,3.7-19.8,9.4c-4.4,6.5-0.8,13,7.8,14.6c1.3,0.2,2.5,0.3,3.9,0.3
		c7.5,0,15.6-3.5,19.5-8.8c4.8-6.5,1.8-13.2-6.8-15C567.2,674,565.6,673.9,564.1,673.9"/>
	<path class="st0" d="M586.6,636.6c-7.9,0-16.2,4.4-20.2,11.2c-4.7,8-1.1,16.1,7.8,18.1c1.3,0.3,2.7,0.5,4.2,0.5
		c7.7,0,16-4.3,20-10.7c4.9-7.8,1.9-16.1-6.8-18.4C589.9,636.8,588.2,636.6,586.6,636.6"/>
	<path class="st0" d="M608.9,593.6c-7.7,0-15.8,4.8-19.7,12.4c-4.7,9.2-1.2,18.7,7.9,21.3c1.5,0.4,3,0.6,4.6,0.6
		c7.6,0,15.8-4.8,19.7-12.1c4.8-8.9,1.6-18.5-7.1-21.4C612.5,593.9,610.7,593.6,608.9,593.6"/>
	<path class="st0" d="M629.7,547c-7.3,0-14.8,4.9-18.3,12.7c-4.5,9.9-0.7,20.5,8.2,23.6c1.7,0.6,3.4,0.8,5.1,0.8
		c7.3,0,14.9-4.9,18.4-12.6c4.3-9.5,1-20.1-7.5-23.5C633.7,547.3,631.7,547,629.7,547"/>
	<path class="st0" d="M647.7,499.6c-6.7,0-13.2,4.6-16.1,12.1c-3.9,10.1,0.1,21.3,8.8,24.9c1.8,0.8,3.8,1.1,5.6,1.1
		c6.8,0,13.4-4.7,16.3-12.3c3.6-9.6,0-20.5-8.3-24.4C652,500,649.8,499.6,647.7,499.6"/>
	<path class="st0" d="M661.9,454.1c-5.8,0-11.2,3.9-13.4,10.7c-3.2,9.6,1.1,20.8,9.5,24.9c2.1,1,4.2,1.5,6.2,1.5
		c6,0,11.5-4.2,13.6-11.1c2.8-9.1-1.3-19.9-9.1-24.2C666.4,454.7,664.1,454.1,661.9,454.1"/>
	<path class="st0" d="M671.8,412.9c-4.9,0-9,3.1-10.5,8.8c-2.3,8.6,2.3,19.3,10.3,23.8c2.3,1.3,4.6,1.9,6.7,1.9
		c5.1,0,9.3-3.4,10.6-9.4c1.9-8.2-2.6-18.4-9.9-22.9C676.6,413.7,674.1,412.9,671.8,412.9"/>
	<path class="st0" d="M677.6,377.7c-3.8,0-6.8,2.3-7.6,6.7c-1.4,7.3,3.5,17.1,10.9,21.8c2.5,1.6,5,2.3,7.1,2.3c4,0,7-2.6,7.7-7.3
		c1-7-3.7-16.2-10.5-20.8C682.6,378.5,679.9,377.7,677.6,377.7"/>
	<path class="st0" d="M679.8,349c-2.8,0-4.7,1.6-5,4.7c-0.6,5.8,4.5,14.5,11.4,19.2c2.8,1.9,5.3,2.8,7.4,2.8c3,0,4.9-1.8,5.1-5.3
		c0.2-5.6-4.7-13.8-11-18.3C684.7,350,682,349,679.8,349"/>
	<path class="st0" d="M679,326.8c-1.8,0-2.9,1-2.9,3c0.1,4.4,5.2,11.8,11.6,16.4c3,2.2,5.6,3.2,7.5,3.2c2,0,3.1-1.2,2.9-3.6
		c-0.4-4.3-5.4-11.3-11.2-15.6C683.7,327.9,680.9,326.8,679,326.8"/>
	<path class="st0" d="M676,310.4c-1,0-1.5,0.5-1.3,1.7c0.5,3.2,5.7,9.3,11.5,13.7c3.2,2.4,5.9,3.7,7.3,3.7c1.1,0,1.6-0.7,1.2-2.2
		c-0.9-3.2-5.8-9-11.1-13C680.3,311.8,677.5,310.4,676,310.4"/>
	<path class="st0" d="M531.7,751.3c-6.5,0-14.1,1.3-17.2,2.9c-1.8,1-1.5,1.8,0.4,2.3c7.9-0.4,15.7-1.3,23.4-2.4
		c2.7-1.5,0.3-2.7-5.8-2.9C532.2,751.3,532,751.3,531.7,751.3"/>
	<path class="st0" d="M549.1,739c-6.9,0-15,2-18.5,4.7c-3.5,2.7-0.8,5,6,5.1c0.2,0,0.4,0,0.6,0c6.5,0,14.5-1.9,18.2-4.4
		c4-2.7,1.8-5.1-5.1-5.4C549.9,739,549.5,739,549.1,739"/>
	<path class="st0" d="M568.8,720.6c-7.1,0-15.6,2.9-19.5,6.8c-4.1,4-1.4,7.5,5.8,7.8c0.3,0,0.7,0,1,0c6.8,0,15.1-2.7,19.2-6.3
		c4.5-4,2.4-7.7-4.8-8.2C569.9,720.6,569.3,720.6,568.8,720.6"/>
	<path class="st0" d="M590.2,695.5c-7.3,0-15.9,3.7-20.1,8.8c-4.5,5.4-1.9,10.3,5.6,10.9c0.5,0,1,0.1,1.5,0.1c7,0,15.5-3.5,19.8-8.3
		c4.8-5.3,2.8-10.4-4.5-11.3C591.7,695.5,591,695.5,590.2,695.5"/>
	<path class="st0" d="M612.7,663.6c-7.3,0-15.8,4.4-20.1,10.6c-4.7,6.9-2.3,13.2,5.4,14.2c0.7,0.1,1.4,0.1,2.1,0.1
		c7.1,0,15.5-4.2,19.9-10.1c4.9-6.7,3-13.3-4.4-14.6C614.6,663.7,613.7,663.6,612.7,663.6"/>
	<path class="st0" d="M635.1,625.7c-7.1,0-15.2,4.8-19.3,12c-4.8,8.2-2.3,16,5.5,17.5c0.9,0.2,1.8,0.3,2.7,0.3
		c6.9,0,15-4.8,19.2-11.6c4.8-7.9,2.8-15.8-4.6-17.7C637.4,625.8,636.3,625.7,635.1,625.7"/>
	<path class="st0" d="M656,583.2c-6.7,0-14,5-17.8,12.6c-4.5,9.1-1.9,18.2,5.7,20.4c1.1,0.3,2.2,0.4,3.3,0.4c6.7,0,14.1-5,17.8-12.4
		c4.4-8.7,2.2-17.8-5-20.3C658.8,583.4,657.4,583.2,656,583.2"/>
	<path class="st0" d="M674.3,538.4c-6.1,0-12.5,4.7-15.6,12.3c-4,9.6-1.1,19.7,6.3,22.5c1.3,0.5,2.6,0.7,3.9,0.7
		c6.2,0,12.6-4.9,15.7-12.3c3.8-9.1,1.2-19-5.6-22.1C677.5,538.7,675.9,538.4,674.3,538.4"/>
	<path class="st0" d="M688.8,493.7c-5.3,0-10.5,4.2-12.9,11.3c-3.2,9.5,0,20,7.1,23.5c1.5,0.7,3,1.1,4.5,1.1
		c5.5,0,10.8-4.4,13.1-11.5c2.9-9-0.1-19.2-6.6-22.9C692.3,494.2,690.6,493.7,688.8,493.7"/>
	<path class="st0" d="M699,451.7c-4.5,0-8.5,3.5-10.1,9.6c-2.3,8.8,1.3,19.4,8.1,23.4c1.7,1,3.4,1.5,5,1.5c4.6,0,8.7-3.8,10.2-10.1
		c1.9-8.3-1.5-18.4-7.6-22.5C702.8,452.3,700.9,451.7,699,451.7"/>
	<path class="st0" d="M704.9,414.2c-3.5,0-6.4,2.7-7.3,7.6c-1.4,7.8,2.7,17.8,9,22.2c1.9,1.3,3.8,1.9,5.5,1.9c3.7,0,6.6-3,7.4-8.2
		c1-7.4-2.8-16.9-8.5-21.3C708.8,414.9,706.8,414.2,704.9,414.2"/>
	<path class="st0" d="M706.8,382.3c-2.6,0-4.5,2-4.8,5.7c-0.5,6.6,3.9,15.7,9.8,20.3c2.1,1.7,4.1,2.4,5.7,2.4c2.8,0,4.7-2.2,4.8-6.3
		c0.2-6.3-3.9-14.9-9.3-19.4C710.7,383.2,708.6,382.3,706.8,382.3"/>
	<path class="st0" d="M705.4,356.4c-1.8,0-2.8,1.3-2.7,3.9c0.2,5.3,4.8,13.4,10.3,18c2.3,2,4.4,2.9,5.9,2.9c1.9,0,3-1.5,2.7-4.5
		c-0.5-5.1-4.9-12.7-9.8-17.1C709.2,357.5,707,356.4,705.4,356.4"/>
	<path class="st0" d="M701.5,336.4c-1,0-1.5,0.8-1.2,2.5c0.8,4,5.5,11,10.6,15.5c2.5,2.3,4.5,3.4,5.8,3.4c1.2,0,1.6-1,1.1-3
		c-1-3.9-5.5-10.5-10.1-14.7C705,337.6,702.8,336.4,701.5,336.4"/>
	<path class="st0" d="M696.9,325.1c2,3.1,5.7,7.5,9.4,11c0.8,0.7,1.5,1.4,2.2,1.9C704.8,333.6,700.9,329.3,696.9,325.1"/>
	<path class="st0" d="M570.8,745.1c-0.6,0-1.3,0-2.1,0.1c-6.1,0.5-14.3,2.6-18.1,4.7c-2,1.1-2.3,1.9-1.2,2.4
		c8.3-1.5,16.5-3.4,24.6-5.7C574.7,745.7,573.5,745.1,570.8,745.1"/>
	<path class="st0" d="M589.8,730.8c-0.3,0-0.6,0-1,0c-6.3,0.3-15,3.3-19.3,6.6c-3.7,2.9-2.6,4.9,2.3,4.9c0.5,0,1,0,1.5-0.1
		c5.9-0.4,14.1-3.2,18.3-6.2C595.8,733,595,730.8,589.8,730.8"/>
	<path class="st0" d="M610.8,710.4L610.8,710.4c-6.4,0-15.6,3.8-20.2,8.4c-4.3,4.3-3,7.5,2.8,7.5c0.2,0,0.5,0,0.7,0
		c6.1-0.2,14.6-3.8,19.2-8C617.9,714,616.9,710.4,610.8,710.4"/>
	<path class="st0" d="M632.9,683.8c-6.4,0-15.1,4.4-19.8,10.1c-4.7,5.8-3.2,10.5,3.2,10.6c0,0,0.1,0,0.1,0c6.2,0,14.8-4.3,19.5-9.7
		c4.9-5.6,3.9-10.6-2.2-11C633.4,683.8,633.2,683.8,632.9,683.8"/>
	<path class="st0" d="M655.1,651.3c-6.2,0-14.3,4.8-18.8,11.5c-4.8,7.1-3.4,13.2,3.1,13.7c0.3,0,0.6,0,0.9,0
		c6.1,0,14.1-4.8,18.6-11.1c4.8-6.8,3.9-13.1-2.1-14C656.2,651.3,655.6,651.3,655.1,651.3"/>
	<path class="st0" d="M676.1,613.7c-5.9,0-13.1,5-17.1,12.3c-4.5,8.1-3.1,15.6,3.2,16.8c0.5,0.1,1.1,0.1,1.6,0.1
		c5.8,0,13.1-5,17.1-12c4.4-7.7,3.4-15.3-2.4-16.9C677.7,613.8,676.9,613.7,676.1,613.7"/>
	<path class="st0" d="M694.7,572.7c-5.4,0-11.5,4.9-14.9,12.3c-4,8.8-2.4,17.5,3.7,19.3c0.7,0.2,1.5,0.3,2.3,0.3
		c5.4,0,11.7-5,15-12.2c3.8-8.3,2.5-16.9-3-19.1C696.7,572.9,695.7,572.7,694.7,572.7"/>
	<path class="st0" d="M709.8,530.4c-4.7,0-9.7,4.5-12.4,11.6c-3.3,9-1.3,18.5,4.4,21.1c0.9,0.4,1.9,0.6,2.9,0.6
		c4.8,0,10-4.6,12.5-11.7c3-8.5,1.3-17.7-3.9-20.6C712.2,530.7,711,530.4,709.8,530.4"/>
	<path class="st0" d="M720.7,489.2c-4,0-7.8,3.8-9.6,10.3c-2.4,8.8,0,18.6,5.5,21.8c1.1,0.7,2.3,1,3.4,1c4.1,0,8-4.1,9.7-10.6
		c2.1-8.2-0.1-17.6-5-21.1C723.4,489.6,722,489.2,720.7,489.2"/>
	<path class="st0" d="M727.2,450.9c-3.2,0-6,3.1-6.9,8.5c-1.5,8.1,1.5,17.8,6.5,21.6c1.3,1,2.6,1.4,3.8,1.4c3.3,0,6.2-3.3,7.1-9
		c1.2-7.6-1.5-16.8-6.1-20.7C730.1,451.5,728.6,450.9,727.2,450.9"/>
	<path class="st0" d="M729.5,417c-2.4,0-4.2,2.3-4.5,6.7c-0.6,7.1,2.9,16.3,7.6,20.5c1.5,1.3,2.9,1.9,4.1,1.9c2.5,0,4.4-2.6,4.6-7.2
		c0.3-6.7-2.9-15.3-7.2-19.5C732.5,417.7,730.9,417,729.5,417"/>
	<path class="st0" d="M728.2,388.3c-1.7,0-2.7,1.7-2.6,4.9c0.2,5.9,4,14.4,8.4,18.8c1.7,1.7,3.1,2.5,4.3,2.5c1.8,0,2.8-1.9,2.5-5.5
		c-0.4-5.6-4-13.5-8-17.8C731.1,389.2,729.5,388.3,728.2,388.3"/>
	<path class="st0" d="M724.1,364.9c-1,0-1.5,1.1-1.1,3.4c0.9,4.7,4.9,12.3,9.1,16.8c1.8,2,3.3,3,4.3,3c1.1,0,1.5-1.3,1-3.9
		c-1-4.6-4.8-11.6-8.6-15.9C726.8,366.1,725.2,364.9,724.1,364.9"/>
	<path class="st0" d="M719.2,351.6c1.9,3.7,5.2,8.4,8.2,11.9l0.1,0.1C724.8,359.5,722.1,355.5,719.2,351.6"/>
	<path class="st0" d="M605.4,735.5c-0.6,0-1.5,0.1-2.5,0.3c-5.3,1-13.1,3.9-17.4,6.4c-1.1,0.7-1.8,1.3-2.2,1.7
		c7.8-2.4,15.4-5.3,22.8-8.4C605.9,735.5,605.7,735.5,605.4,735.5"/>
	<path class="st0" d="M626,719.2c-0.5,0-1,0-1.7,0.1c-5.3,0.7-13.5,4.4-18.1,8.2c-3.7,3-3.7,5-0.5,5c0.6,0,1.3-0.1,2.2-0.2
		c5.1-0.9,12.6-4.3,17.1-7.7C629.1,721.4,629.4,719.2,626,719.2"/>
	<path class="st0" d="M647.6,697.3c-0.2,0-0.5,0-0.7,0c-5.2,0.4-13.5,4.8-18.3,9.8c-4.3,4.4-4.1,7.5-0.1,7.5c0.4,0,0.8,0,1.3-0.1
		c5-0.7,12.8-4.8,17.4-9.3C651.7,700.7,651.8,697.3,647.6,697.3"/>
	<path class="st0" d="M669.3,669.8c-5.1,0-13.1,5-17.9,11.1c-4.6,5.8-4.3,10.3,0.5,10.3c0.2,0,0.3,0,0.5,0c4.9-0.3,12.6-5,17.2-10.7
		c4.7-5.8,4.7-10.6-0.1-10.7C669.4,669.8,669.4,669.8,669.3,669.8"/>
	<path class="st0" d="M690.2,637.2c-4.9,0-11.9,5.1-16.2,11.9c-4.5,7.1-4.1,13,0.9,13.2c0.1,0,0.2,0,0.3,0c4.7,0,11.8-5.1,16.1-11.6
		c4.4-6.7,4.3-12.8-0.2-13.4C690.8,637.2,690.5,637.2,690.2,637.2"/>
	<path class="st0" d="M708.9,600.7c-4.5,0-10.4,5-14.1,12.1c-4.1,7.9-3.6,15,1.2,15.9c0.3,0.1,0.6,0.1,1,0.1
		c4.4,0,10.5-5.1,14.1-11.9c3.9-7.4,3.6-14.6-0.6-15.9C710,600.8,709.5,600.7,708.9,600.7"/>
	<path class="st0" d="M724.6,561.9c-4,0-8.8,4.7-11.6,11.7c-3.4,8.4-2.6,16.5,1.9,18.1c0.5,0.2,1,0.3,1.5,0.3c4,0,8.9-4.8,11.8-11.7
		c3.2-7.8,2.6-15.8-1.4-17.8C726,562.1,725.3,561.9,724.6,561.9"/>
	<path class="st0" d="M736.3,522.8c-3.4,0-7,4.1-9.1,10.7c-2.5,8.4-1.3,17.1,2.8,19.5c0.7,0.4,1.3,0.5,2,0.5c3.5,0,7.3-4.3,9.2-10.8
		c2.3-7.8,1.2-16.3-2.4-19C738.1,523.1,737.2,522.8,736.3,522.8"/>
	<path class="st0" d="M743.8,485.2c-2.7,0-5.4,3.4-6.5,9.2c-1.6,8,0.1,17,4,20.1c0.8,0.6,1.6,0.9,2.4,0.9c2.8,0,5.5-3.7,6.6-9.5
		c1.4-7.4-0.2-16-3.6-19.3C745.8,485.6,744.8,485.2,743.8,485.2"/>
	<path class="st0" d="M747,450.7c-2.1,0-3.8,2.7-4.2,7.5c-0.7,7.3,1.6,16.2,5.1,19.8c0.9,0.9,1.9,1.4,2.7,1.4c2.2,0,3.9-2.9,4.3-7.9
		c0.5-6.8-1.6-15.2-4.8-18.9C749.1,451.3,748,450.7,747,450.7"/>
	<path class="st0" d="M746.5,420.3c-1.5,0-2.4,2-2.4,5.8c0.1,6.3,3,14.8,6.2,18.7c1.1,1.3,2.1,1.9,2.9,1.9c1.6,0,2.5-2.3,2.3-6.3
		c-0.2-6-2.9-13.9-5.9-17.8C748.5,421.1,747.4,420.3,746.5,420.3"/>
	<path class="st0" d="M742.8,394.6c-0.9,0-1.3,1.4-0.9,4.2c0.8,5.3,4.1,13.1,7.2,17.2c1.2,1.6,2.2,2.4,2.9,2.4c0.9,0,1.2-1.3,1-3.6
		c-2.2-6-4.6-12-7.3-17.9C744.5,395.4,743.5,394.6,742.8,394.6"/>
	<path class="st0" d="M656.8,705.4c-0.4,0-0.9,0.1-1.5,0.2c-4.2,1-11.4,5.3-16.1,9.3c-3.7,3.2-4.4,5.1-2.3,5.1c0.2,0,0.5,0,0.8-0.1
		c6.8-3.9,13.4-8.1,19.8-12.6C658.3,706.1,658.1,705.4,656.8,705.4"/>
	<path class="st0" d="M678,682.5c-0.2,0-0.5,0-0.8,0.1c-4,0.6-11.1,5.4-15.8,10.6c-4.1,4.4-4.8,7.5-2,7.5c0.4,0,0.8-0.1,1.3-0.2
		c3.9-0.9,10.6-5.4,15-10.2C679.9,685.8,680.8,682.5,678,682.5"/>
	<path class="st0" d="M698.5,654.8c0,0-0.1,0-0.1,0c-3.7,0.1-10.4,5.3-15,11.4c-4.2,5.7-4.8,10-1.5,10c0.2,0,0.4,0,0.6,0
		c3.6-0.5,10-5.5,14.3-11.1C701.1,659.3,701.8,654.8,698.5,654.8"/>
	<path class="st0" d="M717.3,622.9c-3.5,0-9.2,5.1-13.1,11.8c-4.1,6.9-4.5,12.6-0.8,12.6h0c3.4,0,9.2-5.2,13.1-11.6
		c3.9-6.5,4.5-12.3,1.4-12.8C717.6,623,717.5,622.9,717.3,622.9"/>
	<path class="st0" d="M733.4,588.2c-3.1,0-7.7,4.8-10.9,11.6c-3.5,7.5-3.7,14.2-0.4,15c0.2,0,0.4,0.1,0.6,0.1
		c3.1,0,7.8-4.9,10.9-11.5c3.3-7,3.6-13.7,0.8-14.9C734.1,588.3,733.8,588.2,733.4,588.2"/>
	<path class="st0" d="M746,552.2c-2.7,0-6.2,4.3-8.4,10.8c-2.7,7.8-2.6,15.3,0.4,16.8c0.3,0.2,0.6,0.2,1,0.2c2.7,0,6.3-4.5,8.6-10.9
		c2.5-7.2,2.4-14.6-0.1-16.4C747,552.4,746.5,552.2,746,552.2"/>
	<path class="st0" d="M754.6,516.4c-2.2,0-4.7,3.7-6.1,9.6c-1.8,7.7-1.2,15.7,1.5,17.9c0.4,0.3,0.9,0.5,1.3,0.5
		c2.3,0,4.8-3.9,6.3-9.8c1.6-7.1,1.1-14.8-1.2-17.4C755.8,516.7,755.2,516.4,754.6,516.4"/>
	<path class="st0" d="M759.1,482.5c-1.7,0-3.3,3-4,8.1c-1,7.2,0.2,15.4,2.7,18.3c0.5,0.6,1.1,0.9,1.6,0.9c1.8,0,3.4-3.2,4.1-8.5
		c0.8-6.7-0.3-14.5-2.5-17.5C760.4,482.9,759.7,482.5,759.1,482.5"/>
	<path class="st0" d="M759.8,451.5c-1.2,0-2.1,2.3-2.1,6.6c-0.1,6.5,1.6,14.6,3.9,17.9c0.6,0.9,1.2,1.3,1.7,1.3c1.3,0,2.1-2.6,2.2-7
		c0-6-1.6-13.6-3.7-17.1C761.1,452.1,760.4,451.5,759.8,451.5"/>
	<path class="st0" d="M756.5,425c-0.2,0.8-0.3,2.3-0.1,4.3c0.6,5.6,2.9,13.4,5,17c0.4,0.7,0.7,1.1,1.1,1.5
		C760.8,440.1,758.8,432.6,756.5,425"/>
	<path class="st0" d="M702.3,666.5c-0.2,0-0.4,0-0.6,0.1c-2.7,0.8-8.6,5.7-13,10.9c-3.6,4.3-4.9,7.3-3.5,7.5
		c6.2-5.7,12.1-11.7,17.8-18C702.9,666.7,702.7,666.5,702.3,666.5"/>
	<path class="st0" d="M720.9,639.2c0,0-0.1,0-0.1,0c-2.4,0.2-7.7,5.3-11.8,11.4c-3.8,5.6-5,9.8-2.9,9.8c0.1,0,0.3,0,0.5-0.1
		c1.4-0.3,3.5-2,5.8-4.3c2.4-3,4.8-6.1,7.1-9.3C722,642.3,722.7,639.2,720.9,639.2"/>
	<path class="st0" d="M737.2,608.7c-2.2,0-6.5,4.9-9.9,11.3c-3.5,6.7-4.5,12-2.2,12h0c2.1,0,6.6-5,9.9-11.2
		c3.3-6.2,4.4-11.6,2.5-12.1C737.4,608.7,737.3,608.7,737.2,608.7"/>
	<path class="st0" d="M750.5,576.2c-2,0-5.2,4.5-7.8,10.8c-2.9,7.1-3.6,13.3-1.6,14c0.1,0,0.2,0.1,0.3,0.1c1.9,0,5.3-4.6,7.8-10.8
		c2.6-6.5,3.4-12.7,1.8-13.8C750.9,576.2,750.7,576.2,750.5,576.2"/>
	<path class="st0" d="M760.1,543.1c-1.6,0-3.9,3.9-5.6,9.9c-2.1,7.2-2.4,14.1-0.7,15.5c0.2,0.1,0.4,0.2,0.6,0.2
		c1.6,0,4.1-4.1,5.7-10c1.9-6.6,2.2-13.3,0.8-15.1C760.7,543.2,760.4,543.1,760.1,543.1"/>
	<path class="st0" d="M766,510.7c-1.3,0-2.7,3.3-3.6,8.6c-1.2,6.9-1,14.3,0.4,16.3c0.2,0.3,0.5,0.5,0.8,0.5c0.6,0,1.3-0.8,1.9-2.1
		c1-7,1.7-14,2.1-20.9c-0.1-0.6-0.3-1.2-0.5-1.6C766.7,510.9,766.3,510.7,766,510.7"/>
	<path class="st0" d="M767.2,481.1c-0.5,1.1-0.9,3.3-1.1,6.3c-0.4,6.5,0.4,13.9,1.7,16.6l0,0.1C768,496.3,767.8,488.7,767.2,481.1"
		/>
	<path class="st0" d="M744.9,603.3c-0.4,0.9-0.9,1.8-1.4,2.8c-0.3,0.6-0.5,1.1-0.7,1.7C743.5,606.3,744.2,604.8,744.9,603.3"/>
	<path class="st1" d="M314.4,559.4c-0.3,1.1-0.8,2-1.5,2.7c-0.7,0.7-1.6,1.2-2.8,1.5c-1.2,0.4-2.6,0.6-4.3,0.8
		c-1.7,0.2-3.8,0.2-6.3,0.2c-2.6,0-4.8-0.1-6.6-0.2c-1.8-0.2-3.3-0.4-4.5-0.8c-1.2-0.4-2.1-0.9-2.6-1.5c-0.6-0.7-1-1.6-1.4-2.7
		l-34-116.3h-0.3l-31.4,116.3c-0.2,1.1-0.7,2-1.3,2.7c-0.6,0.7-1.4,1.2-2.5,1.5c-1.1,0.4-2.5,0.6-4.2,0.8c-1.7,0.2-3.9,0.2-6.6,0.2
		c-2.8,0-5.1-0.1-6.9-0.2c-1.8-0.2-3.3-0.4-4.5-0.8c-1.2-0.4-2.1-0.9-2.7-1.5c-0.6-0.7-1.1-1.6-1.3-2.7l-42.9-142.2
		c-0.5-1.8-0.8-3.3-0.8-4.3c0-1,0.3-1.8,1-2.4c0.7-0.5,1.9-0.9,3.5-1.1c1.6-0.2,3.7-0.2,6.4-0.2c2.6,0,4.6,0.1,6.1,0.2
		c1.5,0.1,2.7,0.3,3.5,0.7c0.8,0.3,1.3,0.8,1.6,1.3c0.3,0.6,0.5,1.3,0.7,2.1l36.5,129h0.1l34.6-128.8c0.3-0.9,0.6-1.6,0.9-2.2
		c0.4-0.6,1-1,1.8-1.4c0.8-0.3,2-0.5,3.6-0.7c1.6-0.2,3.6-0.2,6.1-0.2c2.3,0,4.2,0.1,5.6,0.2c1.4,0.2,2.5,0.4,3.3,0.7
		c0.8,0.3,1.4,0.8,1.8,1.4c0.4,0.6,0.7,1.3,0.9,2.2l37.3,128.8h0.2l35.8-128.9c0.2-0.8,0.5-1.5,0.8-2.1c0.2-0.6,0.8-1,1.6-1.4
		c0.8-0.3,1.9-0.5,3.4-0.7c1.5-0.2,3.4-0.2,5.8-0.2c2.5,0,4.5,0.1,6,0.3c1.5,0.2,2.5,0.6,3.2,1.1c0.7,0.6,1,1.3,0.9,2.4
		c0,1-0.3,2.5-0.7,4.3L314.4,559.4z"/>
	<path class="st1" d="M425.7,497c0.2-10.3-2.2-18.4-7.3-24.3c-5.1-5.9-12.7-8.8-22.7-8.8c-5.1,0-9.6,0.9-13.5,2.7
		c-3.9,1.8-7.1,4.2-9.7,7.3c-2.6,3-4.6,6.5-6.1,10.5c-1.4,4-2.2,8.2-2.4,12.6H425.7z M446.5,502.8c0,3.1-0.8,5.3-2.5,6.6
		s-3.5,2-5.6,2H364c0,6,0.6,11.3,1.9,16.1c1.3,4.8,3.4,8.8,6.3,12.3c2.9,3.4,6.8,6,11.5,7.9c4.7,1.8,10.5,2.7,17.3,2.7
		c5.4,0,10.2-0.4,14.4-1.3c4.2-0.8,7.8-1.8,10.9-2.8c3.1-1,5.6-2,7.6-2.8c2-0.8,3.5-1.3,4.5-1.3c0.6,0,1.1,0.1,1.6,0.4
		c0.5,0.3,0.8,0.7,1.1,1.2c0.2,0.6,0.4,1.3,0.6,2.3c0.1,1,0.2,2.2,0.2,3.6c0,1,0,1.9-0.1,2.7c-0.1,0.8-0.2,1.4-0.3,2
		c-0.1,0.6-0.3,1.1-0.6,1.6c-0.3,0.5-0.7,0.9-1.1,1.4c-0.5,0.4-1.8,1.2-4.1,2.1c-2.3,1-5.2,2-8.8,2.9c-3.6,1-7.8,1.8-12.5,2.6
		c-4.7,0.8-9.8,1.1-15.1,1.1c-9.3,0-17.4-1.2-24.4-3.7c-7-2.5-12.9-6.1-17.6-11c-4.8-4.8-8.4-10.9-10.8-18.2
		c-2.4-7.3-3.6-15.8-3.6-25.5c0-9.2,1.3-17.5,3.8-24.8c2.5-7.3,6.1-13.6,10.9-18.7c4.7-5.1,10.4-9,17.1-11.8
		c6.7-2.7,14.2-4.1,22.5-4.1c8.9,0,16.4,1.4,22.7,4.1c6.2,2.7,11.4,6.3,15.4,10.9s7,9.9,8.9,16.1c1.9,6.1,2.8,12.7,2.8,19.7V502.8z"
		/>
	<path class="st1" d="M534.8,508.3c0-5.5-0.4-10.8-1.3-15.9c-0.9-5.2-2.4-9.7-4.6-13.7c-2.2-4-5.1-7.2-8.7-9.6
		c-3.6-2.4-8.1-3.6-13.5-3.6c-2.7,0-5.4,0.4-8,1.1c-2.6,0.7-5.3,1.9-8,3.6c-2.7,1.7-5.5,3.8-8.4,6.4c-2.9,2.6-6,5.9-9.3,9.9v42.7
		c5.7,6.6,11.2,11.6,16.4,15.1c5.2,3.5,10.7,5.2,16.3,5.2c5.2,0,9.7-1.2,13.4-3.6c3.7-2.4,6.7-5.5,9-9.5c2.3-3.9,4-8.3,5.1-13.2
		C534.3,518.2,534.8,513.3,534.8,508.3 M556.3,506c0,9.3-1.1,17.6-3.2,25c-2.1,7.4-5.3,13.7-9.4,19c-4.1,5.2-9.2,9.2-15.3,12
		c-6,2.8-12.9,4.2-20.7,4.2c-3.6,0-6.9-0.3-10-1c-3.1-0.7-6-1.8-9-3.3c-2.9-1.5-5.9-3.4-8.8-5.7c-2.9-2.3-6-5.1-9.3-8.3V561
		c0,0.6-0.2,1.2-0.5,1.7c-0.3,0.5-0.9,0.9-1.6,1.1c-0.8,0.3-1.7,0.5-2.8,0.7c-1.1,0.2-2.6,0.2-4.3,0.2c-1.7,0-3.1-0.1-4.3-0.2
		c-1.2-0.2-2.1-0.4-2.9-0.7c-0.8-0.3-1.3-0.7-1.5-1.1c-0.2-0.5-0.4-1-0.4-1.7V402c0-0.6,0.1-1.2,0.4-1.7c0.3-0.5,0.8-0.9,1.6-1.2
		c0.8-0.3,1.9-0.6,3.2-0.7c1.3-0.2,3-0.2,5-0.2c2.1,0,3.8,0.1,5.1,0.2s2.4,0.4,3.1,0.7s1.3,0.7,1.6,1.2c0.3,0.5,0.5,1,0.5,1.7v64.2
		c3.3-3.3,6.6-6,9.7-8.2c3.1-2.2,6.2-4,9.2-5.4c3-1.4,6-2.4,9-3c3-0.6,6.2-1,9.5-1c8.2,0,15.2,1.6,21,4.6s10.5,7.2,14.2,12.4
		c3.6,5.2,6.3,11.3,8,18.3C555.4,490.8,556.3,498.2,556.3,506"/>
	<path class="st1" d="M647.7,590.6c0,1.6-0.1,2.9-0.3,4c-0.2,1.1-0.4,2-0.8,2.7c-0.4,0.8-0.8,1.3-1.4,1.7c-0.5,0.4-1.2,0.5-2,0.5
		h-72.1c-1.9,0-3.8-0.6-5.5-1.8c-1.7-1.2-2.6-3.4-2.6-6.5V448c0-0.6,0.2-1.2,0.5-1.7c0.3-0.5,0.9-0.9,1.8-1.1c0.8-0.3,2-0.5,3.4-0.7
		c1.4-0.2,3.2-0.3,5.2-0.3c2.1,0,3.8,0.1,5.2,0.3c1.4,0.2,2.5,0.4,3.3,0.7c0.8,0.3,1.4,0.7,1.8,1.1c0.3,0.5,0.5,1,0.5,1.7v133.7
		h58.5c0.8,0,1.4,0.2,2,0.5c0.5,0.4,1,0.9,1.4,1.6c0.4,0.7,0.6,1.6,0.8,2.7C647.6,587.6,647.7,589,647.7,590.6"/>
	<path class="st1" d="M732.3,532.3c0.2-10.4-2.2-18.5-7.3-24.4s-12.7-8.8-22.8-8.8c-5.2,0-9.7,0.9-13.6,2.7
		c-3.9,1.8-7.1,4.3-9.8,7.3c-2.6,3-4.7,6.6-6.1,10.6c-1.4,4-2.2,8.2-2.4,12.6H732.3z M753.2,538.1c0,3.1-0.8,5.3-2.5,6.6
		c-1.6,1.3-3.5,2-5.6,2h-74.7c0,6,0.6,11.4,1.9,16.1c1.3,4.8,3.4,8.9,6.3,12.3c3,3.4,6.8,6.1,11.5,7.9c4.7,1.8,10.5,2.7,17.4,2.7
		c5.4,0,10.2-0.4,14.4-1.3c4.2-0.8,7.9-1.8,11-2.8c3.1-1,5.6-2,7.6-2.8c2-0.8,3.5-1.3,4.5-1.3c0.6,0,1.1,0.1,1.6,0.4
		c0.5,0.3,0.8,0.7,1.1,1.3c0.2,0.6,0.4,1.3,0.6,2.3c0.1,1,0.2,2.2,0.2,3.6c0,1,0,1.9-0.1,2.7c-0.1,0.8-0.2,1.4-0.3,2
		c-0.1,0.6-0.3,1.1-0.6,1.6c-0.3,0.5-0.7,0.9-1.1,1.4c-0.5,0.4-1.8,1.2-4.1,2.1c-2.3,1-5.2,2-8.8,2.9c-3.6,1-7.8,1.8-12.5,2.6
		c-4.7,0.8-9.8,1.1-15.2,1.1c-9.3,0-17.5-1.2-24.5-3.7c-7-2.5-12.9-6.1-17.7-11c-4.8-4.9-8.4-11-10.8-18.3
		c-2.4-7.3-3.7-15.9-3.7-25.6c0-9.2,1.3-17.5,3.8-24.9c2.5-7.4,6.2-13.6,10.9-18.8c4.7-5.1,10.5-9.1,17.2-11.8
		c6.7-2.7,14.2-4.1,22.6-4.1c8.9,0,16.5,1.4,22.8,4.1c6.3,2.7,11.4,6.4,15.4,10.9c4,4.6,7,10,8.9,16.1c1.9,6.2,2.8,12.8,2.8,19.8
		V538.1z"/>
	<path class="st1" d="M854,594.3c0.7,1.1,1,2.1,1,2.8c0,0.8-0.4,1.4-1.2,1.8c-0.8,0.5-2,0.8-3.7,1c-1.6,0.2-3.8,0.3-6.4,0.3
		c-2.5,0-4.5-0.1-6-0.2c-1.5-0.1-2.6-0.3-3.5-0.6c-0.9-0.3-1.6-0.6-2-1.1c-0.5-0.4-0.9-0.9-1.2-1.5l-27.2-42.7l-27.1,42.7
		c-0.3,0.6-0.7,1.1-1.2,1.5c-0.5,0.4-1.1,0.8-2,1.1c-0.9,0.3-2,0.5-3.5,0.6c-1.4,0.1-3.3,0.2-5.7,0.2c-2.4,0-4.4-0.1-6-0.3
		c-1.6-0.2-2.7-0.5-3.4-1c-0.7-0.5-1.1-1.1-1-1.8c0-0.8,0.4-1.7,1.2-2.8l35.3-52.5L757,491.3c-0.7-1.1-1-2.1-1.1-2.8
		c0-0.8,0.3-1.4,1.1-1.9c0.8-0.5,2-0.9,3.7-1c1.6-0.2,3.8-0.2,6.5-0.2c2.4,0,4.4,0.1,5.9,0.2c1.5,0.1,2.6,0.3,3.5,0.5
		c0.8,0.2,1.5,0.6,1.9,1c0.4,0.4,0.8,0.9,1.1,1.4l25.8,40l26.2-40c0.3-0.5,0.7-0.9,1.1-1.3c0.4-0.4,1-0.7,1.7-1
		c0.7-0.3,1.7-0.5,3-0.6c1.3-0.1,3.1-0.2,5.4-0.2c2.4,0,4.4,0.1,6,0.2c1.6,0.2,2.7,0.5,3.5,0.9c0.8,0.4,1.1,1.1,1,1.8
		c-0.1,0.8-0.5,1.8-1.3,3l-33.2,50L854,594.3z"/>
</g>
</svg>
