<?xml version="1.0" encoding="utf-8"?>
<!-- Generator: Adobe Illustrator 22.1.0, SVG Export Plug-In . SVG Version: 6.00 Build 0)  -->
<svg version="1.1" id="Calque_1" xmlns="http://www.w3.org/2000/svg" xmlns:xlink="http://www.w3.org/1999/xlink" x="0px" y="0px"
	 viewBox="0 0 1000 993.9" style="enable-background:new 0 0 1000 993.9;" xml:space="preserve">
<style type="text/css">
	.st0{fill:#33386B;}
	.st1{fill:#FFFFFF;}
</style>
<g>
	<g>
		<path class="st0" d="M242.1,424.8c-1.9,6.6-3.4,13.2-4.8,19.8c0.8-1.7,1.7-4.5,2.6-7.9C241.2,432.1,242,427.5,242.1,424.8"/>
		<path class="st0" d="M253.6,392.1c-0.3,0.8-0.7,1.6-1,2.4c-2.7,6.6-5.2,13.2-7.3,19.9c1.3-1.3,3.3-5.2,5.2-10.3
			C252.5,398.8,253.7,394.1,253.6,392.1"/>
		<path class="st0" d="M268.2,362.7c-3.8,6.6-7.3,13.4-10.6,20.4c1.6-1.5,4.3-5.7,6.8-10.7C266.5,368.1,267.9,364.5,268.2,362.7"/>
		<path class="st0" d="M283.4,339c-2.8,3.9-5.5,7.9-8.1,11.9c1.8-2.1,3.9-5,5.8-8C282,341.5,282.8,340.2,283.4,339"/>
		<path class="st0" d="M232.4,510.4c0.4,7.7,1.1,15.4,2.1,23.1c0.3-1.1,0.5-3,0.4-5.6c0-6.4-1.1-14.2-2.4-17.2
			C232.5,510.6,232.4,510.5,232.4,510.4"/>
		<path class="st0" d="M234.6,478c-0.7,0-1.4,1.4-2,3.9c-0.4,6.1-0.5,12.2-0.5,18.3c0.2,1.2,0.5,2.2,0.8,2.9c0.3,0.7,0.7,1.1,1,1.1
			c1,0,2.1-3,2.7-8.2c0.8-7,0.2-14.8-1.2-17.3C235.1,478.2,234.9,478,234.6,478"/>
		<path class="st0" d="M241.5,444.4c-1.4,0-3.4,4-4.6,9.8c-1.4,6.8-1.5,14.1-0.2,16.3c0.3,0.5,0.6,0.7,0.9,0.7
			c1.4,0,3.2-3.7,4.5-9.6c1.6-7.4,1.6-14.9,0-16.8C242,444.5,241.7,444.4,241.5,444.4"/>
		<path class="st0" d="M252.3,410.2c-1.8,0-4.6,4.6-6.7,10.9c-2.2,6.9-2.8,13.8-1.3,15.3c0.2,0.2,0.5,0.3,0.8,0.3
			c1.8,0,4.5-4.4,6.6-10.8c2.4-7.5,3-14.5,1.1-15.6C252.7,410.2,252.5,410.2,252.3,410.2"/>
		<path class="st0" d="M266.9,376.6c-2,0-5.9,5.1-8.8,11.6c-2.9,6.7-3.9,12.9-2.1,13.8c0.2,0.1,0.3,0.1,0.5,0.1
			c2.1,0,5.8-4.9,8.7-11.6c3.2-7.3,4.1-13.5,1.9-13.8C267,376.6,267,376.6,266.9,376.6"/>
		<path class="st0" d="M284.6,345.2c-0.1,0-0.1,0-0.2,0c-2.3,0.3-7.1,5.6-10.6,11.8c-3.5,6.3-4.7,11.6-2.7,11.7c0,0,0.1,0,0.1,0
			c2.3,0,7.1-5.3,10.8-12C285.7,350.2,286.8,345.2,284.6,345.2"/>
		<path class="st0" d="M304.4,317c-0.2,0-0.4,0-0.7,0.1c-2.6,0.8-7.9,5.9-11.9,11.5c-3.8,5.3-5.2,9.4-3.3,9.4c0.1,0,0.2,0,0.3,0
			c2.6-0.5,8.1-5.8,12.4-11.8C305.1,320.8,306.3,317,304.4,317"/>
		<path class="st0" d="M325.6,293L325.6,293c-6.4,5.5-12.4,11.2-18.3,17.3c-0.1,0.5,0.1,0.8,0.6,0.8c0.2,0,0.5-0.1,0.8-0.2
			c2.9-1,8.9-6,13.4-11.1C325.8,295.7,327.1,293,325.6,293"/>
		<path class="st0" d="M241.9,569.7c1.6,5.9,3.5,11.8,5.5,17.5c0-0.3-0.1-0.5-0.1-0.8C246.3,581.2,243.9,573.8,241.9,569.7"/>
		<path class="st0" d="M237.8,538.8c-1,0-1.5,2.3-1.3,6.4c0.1,0.9,0.2,1.8,0.3,2.8c0.6,2.9,1.1,5.8,1.8,8.7c0.7,2.3,1.4,4.4,2.2,5.9
			c0.8,1.5,1.5,2.2,2,2.2c1,0,1.5-2.1,1.3-6c-0.3-6.3-2.4-14.6-4.6-18.3C238.9,539.4,238.3,538.8,237.8,538.8"/>
		<path class="st0" d="M239.4,506.7c-1.5,0-2.7,3-2.9,8c-0.3,6.7,1,14.7,3.2,18.2c0.7,1.1,1.4,1.6,2,1.6c1.4,0,2.6-2.7,2.9-7.6
			c0.5-7.2-1.1-15.8-3.4-19.1C240.5,507,239.9,506.7,239.4,506.7"/>
		<path class="st0" d="M245.1,471.5c-2,0-4,3.7-5,9.6c-1.2,7.2-0.3,15.4,1.9,18.4c0.6,0.8,1.2,1.2,1.9,1.2c1.9,0,3.9-3.5,4.9-9.2
			c1.4-7.8,0.4-16.4-2.2-19.1C246.1,471.7,245.6,471.5,245.1,471.5"/>
		<path class="st0" d="M255.1,434.5c-2.5,0-5.5,4.4-7.3,10.9c-2,7.5-1.7,15.5,0.7,17.9c0.5,0.5,1,0.7,1.6,0.7
			c2.4,0,5.3-4.2,7.1-10.7c2.3-8.1,1.8-16.4-1-18.4C255.9,434.6,255.5,434.5,255.1,434.5"/>
		<path class="st0" d="M269.2,397.3c-2.9,0-7,4.9-9.6,11.8c-2.9,7.5-3,15-0.3,16.6c0.4,0.2,0.8,0.4,1.3,0.4c2.9,0,6.9-4.8,9.5-11.7
			c3.1-8.1,3.1-15.6-0.1-16.9C269.8,397.3,269.5,397.3,269.2,397.3"/>
		<path class="st0" d="M286.9,361.6c-3.2,0-8.5,5.3-11.9,12.2c-3.6,7.2-4,13.8-1.1,14.7c0.3,0.1,0.5,0.1,0.8,0.1
			c3.3,0,8.4-5.2,11.9-12.3c3.8-7.7,4.1-14.3,0.6-14.7C287.1,361.6,287,361.6,286.9,361.6"/>
		<path class="st0" d="M307.3,329c-0.1,0-0.1,0-0.2,0c-3.5,0.2-9.6,5.6-13.7,12c-4.1,6.5-4.8,12.1-1.5,12.3c0.1,0,0.2,0,0.3,0
			c3.6,0,9.8-5.4,14-12.3C310.3,334.3,310.8,329,307.3,329"/>
		<path class="st0" d="M329.4,300.7c-0.3,0-0.6,0-0.9,0.1c-3.8,0.7-10.3,5.7-14.7,11.3c-4.3,5.4-5.1,9.7-2,9.7c0.1,0,0.2,0,0.4,0
			c3.8-0.4,10.8-5.6,15.4-11.7C331.8,304.6,332.4,300.7,329.4,300.7"/>
		<path class="st0" d="M352,277.3c-0.4,0-1,0.1-1.6,0.2c-4,1.1-10.8,5.6-15.2,10.1c-4.1,4.1-5,7.1-2.5,7.1c0.3,0,0.7,0,1.1-0.1
			c4.1-0.9,11.3-5.6,16-10.6C353.8,280,354.5,277.3,352,277.3"/>
		<path class="st0" d="M374.8,259.2c-7.4,4-14.7,8.3-21.7,12.9c-0.2,0.6,0.1,0.9,0.8,0.9c0.4,0,1-0.1,1.8-0.3
			c4.2-1.2,11.6-5.3,16.2-9.1C375,261.1,375.9,259.5,374.8,259.2"/>
		<path class="st0" d="M251.7,597.2c-0.2,0-0.4,0.1-0.5,0.3c3.1,7.8,6.6,15.6,10.5,23.1c0.1,0,0.1,0,0.2,0c0.7,0,0.8-1.2,0.3-3.6
			c-1.1-4.9-4.5-12.6-7.6-17.1C253.3,598.1,252.3,597.2,251.7,597.2"/>
		<path class="st0" d="M248.5,570.3c-1.2,0-1.8,2-1.4,5.7c0.6,5.7,3.5,13.6,6.4,17.9c1.3,1.9,2.4,2.8,3.2,2.8c1.2,0,1.8-1.7,1.5-5.1
			c-0.5-6-3.6-14.5-6.8-18.8C250.3,571,249.3,570.3,248.5,570.3"/>
		<path class="st0" d="M248.9,538.6c-1.8,0-3.1,2.7-3.2,7.4c-0.1,6.6,2.3,15.2,5.5,19.2c1.2,1.5,2.3,2.2,3.2,2.2
			c1.7,0,3-2.4,3.1-6.8c0.2-7.1-2.4-16.2-5.8-20.2C250.7,539.1,249.8,538.6,248.9,538.6"/>
		<path class="st0" d="M253.5,502.6c-2.5,0-4.6,3.4-5.3,9.1c-0.9,7.4,1,16.4,4.3,20.1c1,1.2,2.1,1.7,3.1,1.7c2.4,0,4.5-3.1,5.2-8.7
			c1.1-8-1-17.4-4.6-21C255.2,503,254.3,502.6,253.5,502.6"/>
		<path class="st0" d="M262.5,463.6c-3.1,0-6.3,4.1-7.8,10.6c-1.8,8-0.4,17,3.1,20.2c0.9,0.8,1.8,1.2,2.8,1.2c3,0,6.1-3.9,7.7-10.3
			c2-8.6,0.5-18-3.5-20.9C264,463.9,263.2,463.6,262.5,463.6"/>
		<path class="st0" d="M276,423.2c-3.7,0-8,4.8-10.4,11.8c-2.7,8.2-1.8,17,1.9,19.5c0.8,0.5,1.6,0.8,2.4,0.8
			c3.7,0,7.8-4.6,10.2-11.7c3-8.8,1.9-17.8-2.4-19.9C277.2,423.4,276.6,423.2,276,423.2"/>
		<path class="st0" d="M293.4,383.4c-4.2,0-9.7,5.2-12.9,12.4c-3.5,8.1-3.1,16.1,1,17.9c0.6,0.3,1.3,0.4,1.9,0.4
			c4.2,0,9.5-5.1,12.8-12.5c3.8-8.6,3-16.7-1.6-18.1C294.3,383.5,293.9,383.4,293.4,383.4"/>
		<path class="st0" d="M314,346.1c-4.6,0-11.1,5.4-15.1,12.4c-4.1,7.5-4,14.5,0.4,15.6c0.4,0.1,0.9,0.2,1.3,0.2
			c4.7,0,11.1-5.3,15.1-12.7c4.3-8,3.8-14.9-1.1-15.5C314.5,346.1,314.2,346.1,314,346.1"/>
		<path class="st0" d="M336.6,313L336.6,313c-4.9,0-12.4,5.3-16.8,11.8c-4.6,6.6-4.5,12.4,0.1,12.8c0.2,0,0.4,0,0.6,0
			c5,0,12.5-5.3,17.1-12.1C342.2,318.6,341.7,313,336.6,313"/>
		<path class="st0" d="M360.1,285.2c-0.3,0-0.5,0-0.8,0c-5,0.5-12.7,5.2-17.3,10.6c-4.7,5.5-4.7,9.9-0.1,9.9c0.1,0,0.2,0,0.2,0
			c5.2-0.2,13.4-5.1,18.2-11C364.8,289.2,364.6,285.2,360.1,285.2"/>
		<path class="st0" d="M383.3,263.2c-0.5,0-1,0-1.7,0.1c-5.1,0.8-12.8,4.8-17.3,9.1c-4.3,4-4.5,7-0.6,7c0.3,0,0.7,0,1.1-0.1
			c5.3-0.6,13.5-4.9,18.3-9.5C387.1,265.9,387,263.2,383.3,263.2"/>
		<path class="st0" d="M405.4,246.9c-0.7,0-1.5,0.1-2.6,0.3c-5.1,1-12.5,4.2-16.9,7.3c-3.8,2.7-4.1,4.5-1.1,4.5
			c0.6,0,1.3-0.1,2.1-0.2c5.3-0.9,13.3-4.4,17.8-7.8C408.2,248.5,408.3,246.9,405.4,246.9"/>
		<path class="st0" d="M421.9,239.5c-4.2,1.3-8.4,2.7-12.5,4.2C413.3,242.8,418.2,241.1,421.9,239.5"/>
		<path class="st0" d="M267.7,627.9c-0.8,0-1,1.1-0.3,3.3l0,0c3.4,6,7.1,11.9,11,17.7c1,1,1.9,1.5,2.4,1.5c0.7,0,0.9-0.9,0.4-2.7
			c-1.1-4.2-5.3-11.6-9.3-16.3C269.9,629,268.5,627.9,267.7,627.9"/>
		<path class="st0" d="M263.9,603.4c-1.4,0-2,1.6-1.6,4.7c0.8,5.3,4.5,13,8.4,17.6c1.9,2.2,3.5,3.3,4.7,3.3c1.3,0,2-1.4,1.7-4.2
			c-0.6-5.5-4.6-13.9-8.8-18.5C266.4,604.4,265,603.4,263.9,603.4"/>
		<path class="st0" d="M263.5,573.3c-2.1,0-3.4,2.3-3.4,6.5c0.1,6.4,3.5,15,7.7,19.5c1.7,1.9,3.4,2.8,4.7,2.8c2,0,3.3-2,3.4-5.9
			c0.1-6.7-3.6-16-8.1-20.6C266.1,574.1,264.7,573.3,263.5,573.3"/>
		<path class="st0" d="M267,537.9c-2.9,0-5.1,3.1-5.6,8.4c-0.7,7.4,2.3,16.8,6.8,21.1c1.6,1.5,3.1,2.3,4.5,2.3
			c2.8,0,4.9-2.8,5.5-7.8c1-7.9-2.3-17.9-7.2-22.1C269.6,538.4,268.3,537.9,267,537.9"/>
		<path class="st0" d="M275.1,498c-3.7,0-7,3.9-8.2,10.2c-1.6,8.3,0.9,18.1,5.7,22c1.4,1.2,2.9,1.7,4.3,1.7c3.5,0,6.8-3.6,8.1-9.8
			c1.9-8.8-0.9-19.1-6.1-22.9C277.5,498.4,276.3,498,275.1,498"/>
		<path class="st0" d="M287.8,455.2c-4.4,0-8.9,4.5-11,11.7c-2.5,8.8-0.5,18.6,4.5,22.1c1.2,0.8,2.6,1.2,3.9,1.2
			c4.3,0,8.7-4.3,10.8-11.4c2.8-9.4,0.6-19.6-5-22.7C289.9,455.5,288.8,455.2,287.8,455.2"/>
		<path class="st0" d="M304.7,411.7c-5.1,0-10.8,5.1-13.7,12.6c-3.4,8.9-1.8,18.3,3.5,21.1c1.1,0.6,2.2,0.8,3.4,0.8
			c5,0,10.6-4.9,13.5-12.6c3.7-9.4,1.8-19.1-4.1-21.4C306.5,411.8,305.7,411.7,304.7,411.7"/>
		<path class="st0" d="M325.2,369.7c-5.6,0-12.3,5.3-16,12.8c-4.1,8.5-2.9,17.1,2.7,19.1c0.9,0.3,1.8,0.5,2.8,0.5
			c5.6,0,12.3-5.2,16-13c4.3-9,2.7-17.6-3.5-19.2C326.6,369.8,325.9,369.7,325.2,369.7"/>
		<path class="st0" d="M348,331.5c-5.9,0-13.6,5.2-17.9,12.3c-4.6,7.7-3.6,15.1,2.3,16.5c0.7,0.2,1.4,0.2,2.1,0.2
			c6,0,13.7-5.2,17.9-12.6c4.7-8.1,3.3-15.4-3.1-16.3C348.9,331.5,348.4,331.5,348,331.5"/>
		<path class="st0" d="M371.8,298.6c-6.1,0-14.5,4.8-19,11.1c-4.8,6.6-3.9,12.6,2.2,13.4c0.4,0,0.8,0.1,1.3,0.1
			c6.3,0,14.7-4.9,19.3-11.5c4.8-6.8,3.4-12.6-3.1-13C372.2,298.6,372,298.6,371.8,298.6"/>
		<path class="st0" d="M395.4,272c-0.1,0-0.1,0-0.2,0c-6.2,0.1-14.8,4.3-19.5,9.4c-4.8,5.3-3.9,9.9,2.3,10.1c0.2,0,0.3,0,0.5,0
			c6.4,0,15.3-4.4,20-9.9C403.1,276.2,401.6,272,395.4,272"/>
		<path class="st0" d="M417.9,251.8c-0.3,0-0.7,0-1,0c-6.1,0.3-14.4,3.7-18.9,7.6c-4.5,3.9-3.6,7.1,2.2,7.1c0.1,0,0.3,0,0.4,0
			c6.4-0.2,15.4-3.8,19.9-8C424.6,254.6,423.3,251.8,417.9,251.8"/>
		<path class="st0" d="M438.6,237.7c-0.6,0-1.2,0-1.9,0.1c-5.9,0.5-13.8,3-17.8,5.7c-3.9,2.6-3.1,4.4,1.7,4.4c0.4,0,0.9,0,1.4,0
			c6.2-0.4,14.7-3.1,18.8-6C444.1,239.4,443,237.7,438.6,237.7"/>
		<path class="st0" d="M459,230.8c-7.4,1.2-14.7,2.7-22,4.5c0.4,0,0.8,0.1,1.4,0.1c0.8,0,1.7,0,2.7-0.1c6-0.5,13.9-2.4,17.4-4.2
			C458.8,231,458.9,230.9,459,230.8"/>
		<path class="st0" d="M287.4,657.5c-0.8,0-1,0.8-0.4,2.4c0.2,0.7,0.7,1.6,1.2,2.5c3.6,4.7,7.4,9.3,11.3,13.8c1.6,1.3,2.9,2,3.7,2
			c0.7,0,1-0.6,0.6-2c-1-3.5-5.8-10.2-10.6-14.9C290.4,658.8,288.4,657.5,287.4,657.5"/>
		<path class="st0" d="M283.6,636.3c-1.5,0-2.2,1.3-1.7,3.8c0.8,4.6,5.3,12,10,16.5c2.6,2.4,4.8,3.7,6.2,3.7c1.4,0,2.1-1.1,1.8-3.2
			c-0.5-4.7-5.3-12.6-10.5-17.4C287.1,637.4,285,636.3,283.6,636.3"/>
		<path class="st0" d="M282.9,608.9c-2.3,0-3.7,1.9-3.6,5.5c0.2,5.8,4.5,14.3,9.7,19c2.4,2.1,4.6,3.2,6.3,3.2c2.1,0,3.5-1.6,3.6-4.9
			c0.1-6.1-4.5-15.1-10.1-20C286.6,609.8,284.5,608.9,282.9,608.9"/>
		<path class="st0" d="M286,575.3c-3.2,0-5.5,2.7-5.9,7.5c-0.6,7.1,3.5,16.5,9,21.2c2.2,1.8,4.3,2.7,6.2,2.7c3,0,5.3-2.4,5.8-6.9
			c0.9-7.5-3.4-17.5-9.5-22.3C289.7,576,287.7,575.3,286,575.3"/>
		<path class="st0" d="M293.5,535.9c-4.1,0-7.6,3.5-8.6,9.5c-1.4,8.2,2.2,18.5,8.2,23c2,1.5,4,2.2,5.9,2.2c4,0,7.3-3.2,8.5-8.9
			c1.8-8.7-2.1-19.5-8.6-24C297,536.4,295.2,535.9,293.5,535.9"/>
		<path class="st0" d="M305.5,492c-5,0-9.7,4.3-11.5,11.3c-2.4,9.1,0.8,19.8,7.2,23.9c1.8,1.2,3.7,1.7,5.5,1.7
			c4.9,0,9.4-4,11.3-10.9c2.7-9.6-0.7-20.8-7.7-24.7C308.7,492.4,307.1,492,305.5,492"/>
		<path class="st0" d="M322,445.7c-5.8,0-11.7,4.9-14.3,12.6c-3.3,9.5-0.5,20.2,6.2,23.8c1.6,0.9,3.3,1.3,5,1.3
			c5.7,0,11.4-4.7,14.2-12.4c3.6-10.1,0.5-21-6.8-24.3C324.8,446,323.4,445.7,322,445.7"/>
		<path class="st0" d="M342.1,399.7c-6.4,0-13.3,5.2-16.7,13.1c-4,9.4-1.7,19.5,5.3,22.5c1.4,0.6,2.9,0.9,4.4,0.9
			c6.4,0,13.2-5.1,16.7-13.1c4.3-9.9,1.5-20.1-6-22.8C344.5,399.8,343.3,399.7,342.1,399.7"/>
		<path class="st0" d="M364.7,356.4c-6.8,0-14.6,5.2-18.6,12.7c-4.6,8.8-2.5,17.9,4.8,20.2c1.2,0.4,2.5,0.6,3.8,0.6
			c6.9,0,14.6-5.2,18.6-13c4.7-9.2,2.1-18.2-5.6-20.2C366.7,356.5,365.7,356.4,364.7,356.4"/>
		<path class="st0" d="M388.4,318.1c-7,0-15.3,4.8-19.6,11.6c-4.9,7.7-2.9,15.4,4.5,17.2c1,0.2,2.1,0.3,3.2,0.3
			c7.2,0,15.5-4.9,19.8-12c4.8-8,2.3-15.6-5.4-16.9C390,318.1,389.2,318.1,388.4,318.1"/>
		<path class="st0" d="M411.9,286.2c-7,0-15.6,4.1-19.9,9.8c-4.9,6.4-2.9,12.6,4.5,13.8c0.8,0.1,1.7,0.2,2.6,0.2
			c7.3,0,15.9-4.3,20.2-10.3c4.6-6.6,2.1-12.5-5.5-13.4C413.2,286.3,412.6,286.2,411.9,286.2"/>
		<path class="st0" d="M434.1,261.5c-6.9,0-15.4,3.3-19.6,7.8c-4.7,5-2.6,9.6,4.7,10.4c0.7,0.1,1.3,0.1,2,0.1
			c7.2,0,15.8-3.5,19.9-8.3c4.3-5,1.7-9.4-5.7-9.9C435,261.5,434.6,261.5,434.1,261.5"/>
		<path class="st0" d="M454.2,243.5c-6.7,0-14.8,2.5-18.7,5.7c-4.3,3.6-2.1,6.8,4.9,7.2c0.5,0,1,0,1.4,0c7,0,15.4-2.6,19.2-6.1
			c3.8-3.6,1.1-6.6-5.9-6.9C454.8,243.5,454.5,243.5,454.2,243.5"/>
		<path class="st0" d="M472,231.8c-6.4,0-14.1,1.6-17.6,3.8c-3.8,2.3-1.5,4.4,5.2,4.6c0.3,0,0.7,0,1,0c6.7,0,14.6-1.8,18-4.1
			c3.3-2.3,0.5-4.2-6.1-4.3C472.3,231.8,472.1,231.8,472,231.8"/>
		<path class="st0" d="M493.3,227.6c-7.6,0.2-15.2,0.8-22.6,1.6c1.2,0.3,3,0.5,5.6,0.6c0.2,0,0.4,0,0.7,0
			C483.2,229.8,490.4,228.8,493.3,227.6"/>
		<path class="st0" d="M310.2,685.2c-0.7,0-1,0.5-0.5,1.6c0.1,0.2,0.2,0.4,0.3,0.6c5.4,5.4,11,10.6,16.9,15.6c0.5,0.2,1,0.3,1.3,0.3
			c0.6,0,0.9-0.4,0.7-1.2c-0.8-2.7-5.9-8.4-11.4-12.8C314,686.6,311.4,685.2,310.2,685.2"/>
		<path class="st0" d="M307.1,667.8c-1.5,0-2.2,0.9-1.8,2.8c0.7,3.8,5.7,10.4,11.2,14.8c3.2,2.5,6,3.8,7.7,3.8
			c1.3,0,2.1-0.8,1.9-2.3c-0.3-3.9-5.5-10.9-11.6-15.5C311.4,669.1,308.8,667.8,307.1,667.8"/>
		<path class="st0" d="M306.8,644.2c-2.4,0-3.8,1.5-3.7,4.5c0.2,5.1,5.1,13,11.2,17.5c3,2.3,5.8,3.4,7.8,3.4c2.2,0,3.6-1.3,3.8-3.8
			c0.2-5.3-4.9-13.6-11.5-18.4C311.4,645.2,308.8,644.2,306.8,644.2"/>
		<path class="st0" d="M310.1,613.7c-3.4,0-5.8,2.3-6.2,6.5c-0.5,6.5,4.3,15.5,10.8,20.3c2.8,2,5.5,3,7.7,3c3.2,0,5.6-2,6.1-5.8
			c0.9-6.8-4.1-16.4-11.2-21.3C314.7,614.6,312.2,613.7,310.1,613.7"/>
		<path class="st0" d="M317.3,576.4c-4.5,0-8,3.1-9,8.6c-1.3,7.9,3.3,18,10.3,22.8c2.6,1.7,5.1,2.6,7.4,2.6c4.3,0,7.7-2.8,8.9-7.9
			c1.8-8.2-3-19-10.7-23.8C321.9,577.1,319.5,576.4,317.3,576.4"/>
		<path class="st0" d="M329,533.1c-5.5,0-10.3,4-12,10.7c-2.3,9,2,20.1,9.6,24.7c2.4,1.5,4.8,2.1,7.1,2.1c5.3,0,10-3.7,11.8-10.1
			c2.7-9.5-1.8-21-10-25.6C333.3,533.7,331.1,533.1,329,533.1"/>
		<path class="st0" d="M345,485.6c-6.4,0-12.4,4.7-14.8,12.3c-3.2,9.8,0.7,21.3,8.7,25.6c2.2,1.2,4.4,1.7,6.6,1.7
			c6.2,0,12.1-4.4,14.7-12c3.5-10.3-0.6-22.1-9.2-26.3C349,486,347,485.6,345,485.6"/>
		<path class="st0" d="M364.7,436.4c-7.1,0-14.1,5.1-17.3,13.2c-4,10.1-0.4,21.5,8,25.4c2,0.9,4.1,1.4,6.2,1.4c7,0,13.9-5,17.2-13.1
			c4.2-10.6,0.3-22.1-8.6-25.7C368.3,436.8,366.5,436.4,364.7,436.4"/>
		<path class="st0" d="M386.9,388.6c-7.5,0-15.3,5.1-19,13.1c-4.5,9.8-1.3,20.5,7.3,23.8c1.8,0.7,3.7,1,5.7,1
			c7.5,0,15.3-5.2,19-13.3c4.6-10.2,0.9-20.8-8.1-23.8C390.2,388.9,388.5,388.6,386.9,388.6"/>
		<path class="st0" d="M410.3,344.9c-7.7,0-16,4.8-19.9,12.1c-4.9,8.9-1.8,18.4,6.9,21.2c1.7,0.5,3.4,0.8,5.2,0.8
			c7.8,0,16.1-4.9,20-12.6c4.7-9.2,1.2-18.5-7.8-21C413.2,345.1,411.8,344.9,410.3,344.9"/>
		<path class="st0" d="M433.4,307.5c-7.6,0-15.9,4.1-19.9,10.4c-4.9,7.6-1.9,15.6,6.8,17.8c1.5,0.4,3.1,0.6,4.8,0.6
			c7.8,0,16.2-4.4,20.1-11c4.6-7.7,1-15.5-7.8-17.4C436.1,307.6,434.7,307.5,433.4,307.5"/>
		<path class="st0" d="M454.9,277.3c-7.3,0-15.2,3.3-19,8.3c-4.6,6.1-1.6,12.5,6.8,14.2c1.5,0.3,3,0.4,4.5,0.4
			c7.6,0,15.7-3.5,19.3-8.9c4.2-6.1,0.6-12.3-7.8-13.8C457.5,277.4,456.2,277.3,454.9,277.3"/>
		<path class="st0" d="M474.1,254.7c-6.8,0-14.1,2.4-17.4,6c-4.2,4.5-1.2,9.4,7,10.7c1.5,0.2,3,0.4,4.5,0.4c7.2,0,14.5-2.6,17.7-6.5
			c3.7-4.5,0.1-9.1-7.9-10.3C476.7,254.8,475.4,254.7,474.1,254.7"/>
		<path class="st0" d="M490.3,239c-6.2,0-12.4,1.5-15.2,3.9c-3.7,3.1-0.6,6.5,7.1,7.6c1.6,0.2,3.2,0.3,4.8,0.3
			c6.5,0,12.9-1.7,15.5-4.3c3.1-3.1-0.5-6.3-7.9-7.2C493.2,239.1,491.7,239,490.3,239"/>
		<path class="st0" d="M503.3,229.4c-5.2,0-10.1,0.8-12.3,2.1c-3.1,1.9,0,4.1,7.2,4.9c1.9,0.2,3.8,0.3,5.7,0.3
			c5.5,0,10.5-0.9,12.5-2.3c2.5-1.8-1-4-7.9-4.7C506.8,229.5,505,229.4,503.3,229.4"/>
		<path class="st0" d="M507.5,227.6c1.1,0.2,2.5,0.4,4,0.6c2.9,0.3,5.8,0.5,8.4,0.5c1.5,0,2.8,0,4-0.1
			C518.5,228,513,227.7,507.5,227.6"/>
		<path class="st0" d="M335,709.3c-0.1,0-0.3,0-0.4,0.1c6.6,5.2,13.4,10,20.5,14.6v-0.1c-0.4-1.8-5.6-6.5-11.6-10.4
			C339.5,710.8,336.3,709.3,335,709.3"/>
		<path class="st0" d="M333.2,696.2c-1.4,0-2.1,0.6-1.9,2c0.4,3,5.7,8.6,11.7,12.5c3.8,2.5,7.2,3.8,9.2,3.8c1.2,0,1.9-0.5,1.9-1.5
			c0-3-5.4-8.8-12-13.1C338.4,697.4,335.2,696.2,333.2,696.2"/>
		<path class="st0" d="M334.1,676.8c-2.4,0-3.9,1.2-3.9,3.5c0,4.2,5.3,11.1,12,15.4c3.5,2.2,6.8,3.4,9.2,3.4c2.2,0,3.7-0.9,3.9-2.9
			c0.5-4.3-5-11.5-12.2-16.1C339.6,677.9,336.4,676.8,334.1,676.8"/>
		<path class="st0" d="M338.2,650.5c-3.6,0-6,1.9-6.4,5.4c-0.6,5.7,4.7,13.9,12,18.4c3.3,2,6.4,3,9.1,3c3.3,0,5.8-1.6,6.4-4.7
			c1.2-5.9-4.3-14.5-12.2-19.3C343.8,651.4,340.7,650.5,338.2,650.5"/>
		<path class="st0" d="M346,616.6c-4.7,0-8.4,2.7-9.4,7.6c-1.4,7.2,3.9,16.8,11.8,21.5c3,1.8,6,2.7,8.7,2.7c4.5,0,8.1-2.4,9.3-6.8
			c1.9-7.5-3.5-17.6-12-22.4C351.5,617.4,348.6,616.6,346,616.6"/>
		<path class="st0" d="M357.9,575.6c-5.9,0-10.8,3.6-12.4,9.8c-2.2,8.6,2.8,19.5,11.4,24.2c2.8,1.6,5.7,2.3,8.4,2.3
			c5.6,0,10.4-3.3,12.2-9.2c2.8-9-2.4-20.3-11.6-25.1C363.2,576.3,360.5,575.6,357.9,575.6"/>
		<path class="st0" d="M373.9,528.6c-6.8,0-13,4.4-15.3,11.8c-3.1,9.8,1.7,21.5,10.8,26.2c2.6,1.4,5.3,2,7.9,2
			c6.6,0,12.7-4.1,15.2-11.3c3.5-10.2-1.4-22.3-11.1-27C378.8,529.2,376.3,528.6,373.9,528.6"/>
		<path class="st0" d="M393.2,478.1c-7.6,0-14.7,5-17.7,13.1c-3.9,10.5,0.6,22.6,10.2,27.1c2.5,1.2,5,1.7,7.5,1.7
			c7.4,0,14.5-4.8,17.6-12.8c4.2-10.8-0.6-23.2-10.6-27.5C397.9,478.6,395.6,478.1,393.2,478.1"/>
		<path class="st0" d="M415,427.1c-8,0-15.9,5.1-19.4,13.4c-4.5,10.5-0.2,22.4,9.6,26.6c2.3,1,4.8,1.5,7.2,1.5
			c8,0,15.8-5.1,19.3-13.5c4.5-10.8,0-22.8-10.2-26.7C419.5,427.5,417.2,427.1,415,427.1"/>
		<path class="st0" d="M437.9,378.7c-8.1,0-16.3,4.9-20.1,12.7c-4.8,9.9-0.7,21,9.2,24.7c2.2,0.8,4.5,1.2,6.9,1.2
			c8.2,0,16.4-5,20.1-13.1c4.6-10.1,0.2-21.1-9.9-24.6C442.1,379,440,378.7,437.9,378.7"/>
		<path class="st0" d="M460.2,335.7c-8,0-16,4.3-19.7,11.1c-4.8,8.8-0.8,18.6,9,21.8c2.2,0.7,4.4,1.1,6.7,1.1
			c8.2,0,16.3-4.5,19.8-11.7c4.5-8.9,0-18.5-9.8-21.4C464.3,335.9,462.3,335.7,460.2,335.7"/>
		<path class="st0" d="M480.9,299.8c-7.5,0-15,3.4-18.5,8.9c-4.5,7.3-0.5,15.5,9,18.3c2.2,0.6,4.4,0.9,6.6,0.9
			c7.8,0,15.4-3.7,18.6-9.6c4-7.3-0.4-15.3-9.8-17.8C485,300.1,482.9,299.8,480.9,299.8"/>
		<path class="st0" d="M499,271.9c-6.8,0-13.4,2.5-16.4,6.6c-4.1,5.6-0.1,12.2,9,14.6c2.2,0.6,4.5,0.9,6.8,0.9
			c7.1,0,13.8-2.7,16.6-7.2c3.4-5.6-1-11.9-9.8-14.1C503.2,272.1,501.1,271.9,499,271.9"/>
		<path class="st0" d="M513.9,251.6c-5.9,0-11.3,1.6-13.7,4.4c-3.5,4,0.5,9,9,11c2.5,0.6,5,0.9,7.4,0.9c6.2,0,11.7-1.8,13.8-4.9
			c2.8-4-1.6-8.8-9.8-10.6C518.5,251.8,516.2,251.6,513.9,251.6"/>
		<path class="st0" d="M525.4,238.1c-4.6,0-8.5,0.9-10.3,2.4c-2.9,2.6,1.1,6.2,9,8c2.9,0.6,5.8,0.9,8.5,0.9c4.8,0,8.9-1,10.4-2.8
			c2.2-2.6-2.1-6.1-9.6-7.7C530.8,238.4,528,238.1,525.4,238.1"/>
		<path class="st0" d="M533.4,230.3c-2.8,0-5,0.3-6.1,1c-2.4,1.4,1.6,3.9,8.8,5.4c3.7,0.8,7.4,1.2,10.4,1.2c3,0,5.4-0.4,6.3-1.2
			c1.7-1.5-2.5-3.8-9.4-5.3C540,230.6,536.4,230.3,533.4,230.3"/>
		<path class="st0" d="M360.7,720.5c-1.2,0-1.9,0.4-1.8,1.2c0.1,2.1,5.3,6.6,11.6,9.9c4.3,2.3,8.2,3.5,10.4,3.5c1,0,1.7-0.3,1.8-0.9
			c0.4-2.1-4.9-6.6-11.7-10.3C366.6,721.7,362.8,720.5,360.7,720.5"/>
		<path class="st0" d="M363.3,705.7c-2.3,0-3.8,0.8-4,2.5c-0.3,3.3,5.1,8.9,12.1,12.6c3.9,2.1,7.7,3.1,10.3,3.1c2.1,0,3.6-0.7,4-2
			c0.9-3.3-4.6-9.2-12.1-13.1C369.5,706.8,365.9,705.7,363.3,705.7"/>
		<path class="st0" d="M368.9,684.2c-3.6,0-6.2,1.5-6.7,4.3c-0.9,4.7,4.6,11.7,12.3,15.7c3.6,1.9,7.1,2.8,10,2.8
			c3.4,0,5.9-1.2,6.6-3.6c1.5-4.8-4.1-12.2-12.4-16.4C375.2,685.1,371.7,684.2,368.9,684.2"/>
		<path class="st0" d="M377.9,654.9c-4.9,0-8.7,2.3-9.7,6.5c-1.6,6.3,4,14.8,12.4,19.1c3.3,1.7,6.6,2.5,9.6,2.5c4.6,0,8.4-2,9.6-5.7
			c2.2-6.5-3.4-15.3-12.4-19.8C384.1,655.7,380.8,654.9,377.9,654.9"/>
		<path class="st0" d="M390.6,617.7c-6.1,0-11.2,3.2-12.9,8.8c-2.3,7.9,3.1,17.9,12.3,22.4c3.1,1.5,6.2,2.2,9.1,2.2
			c5.8,0,10.8-2.9,12.7-8.1c2.9-8.1-2.6-18.5-12.3-23.2C396.5,618.4,393.4,617.7,390.6,617.7"/>
		<path class="st0" d="M406.9,573.3c-7.1,0-13.4,4.1-15.8,11c-3.1,9.4,2.2,20.7,12,25.3c2.9,1.4,5.9,2,8.7,2
			c6.9,0,13.1-3.8,15.6-10.4c3.7-9.6-1.7-21.3-12-26C412.5,573.9,409.7,573.3,406.9,573.3"/>
		<path class="st0" d="M426.3,523.5c-7.9,0-15.2,4.8-18.1,12.7c-3.9,10.4,1.3,22.6,11.6,27.3c2.7,1.2,5.6,1.8,8.4,1.8
			c7.7,0,14.9-4.6,18-12.3c4.2-10.7-1-23.2-11.7-27.8C431.7,524,429,523.5,426.3,523.5"/>
		<path class="st0" d="M447.8,471c-8.3,0-16.3,5.1-19.6,13.5c-4.4,10.9,0.6,23.5,11.2,28c2.7,1.1,5.4,1.7,8.1,1.7
			c8.3,0,16.1-5,19.5-13.4c4.5-11.1-0.6-23.8-11.5-28.3C453,471.4,450.4,471,447.8,471"/>
		<path class="st0" d="M470.1,419.2c-8.4,0-16.5,5-20.1,13.2c-4.7,10.7,0.2,23,10.9,27.3c2.6,1,5.3,1.6,7.9,1.6
			c8.5,0,16.6-5.1,20.1-13.4c4.6-10.8-0.5-23-11.3-27.2C475.2,419.6,472.6,419.2,470.1,419.2"/>
		<path class="st0" d="M491.7,371.3c-8.2,0-16,4.5-19.5,11.8c-4.6,9.9,0.2,21.2,10.8,25.3c2.6,1,5.3,1.5,7.9,1.5
			c8.3,0,16.3-4.7,19.6-12.4c4.3-9.9-0.8-21-11.3-24.9C496.8,371.7,494.3,371.3,491.7,371.3"/>
		<path class="st0" d="M511.4,329.9c-7.6,0-14.8,3.7-17.9,9.8c-4.3,8.5,0.5,18.4,10.8,22.2c2.6,1,5.4,1.4,8,1.4
			c7.8,0,15.1-3.9,18.1-10.5c3.8-8.5-1.3-18.1-11.3-21.6C516.6,330.3,514,329.9,511.4,329.9"/>
		<path class="st0" d="M528.3,296.2c-6.7,0-12.9,2.7-15.5,7.4c-3.8,6.8,1,15.2,10.8,18.5c2.8,1,5.6,1.4,8.4,1.4c7,0,13.3-3,15.7-8.1
			c3.2-6.8-1.9-14.8-11.4-18C533.6,296.7,530.9,296.2,528.3,296.2"/>
		<path class="st0" d="M541.9,270.7c-5.6,0-10.6,1.8-12.6,5.1c-3.2,5.1,1.6,11.8,10.7,14.9c3,1,6.1,1.5,8.9,1.5
			c5.9,0,11-2.1,12.8-5.7c2.5-5.1-2.5-11.5-11.3-14.3C547.6,271.1,544.6,270.7,541.9,270.7"/>
		<path class="st0" d="M552,252.6c-4.3,0-7.8,1-9.3,3c-2.6,3.6,2.1,8.7,10.6,11.4c3.4,1.1,6.8,1.6,9.8,1.6c4.6,0,8.2-1.2,9.4-3.5
			c1.9-3.5-3.1-8.5-11.1-11C558.3,253.1,555,252.6,552,252.6"/>
		<path class="st0" d="M559.2,240.9c-2.7,0-4.8,0.5-5.7,1.4c-2,2.2,2.6,6,10.4,8.4c4,1.2,7.9,1.9,11,1.9c3,0,5.2-0.6,5.9-1.8
			c1.3-2.2-3.5-5.9-10.8-8.1C566.1,241.5,562.2,240.9,559.2,240.9"/>
		<path class="st0" d="M561.9,234.6c-0.2,0.1-0.3,0.1-0.4,0.2c-1.5,1.1,3,3.8,10,6c4.7,1.5,9.2,2.3,12,2.3c1.4,0,2.3-0.2,2.7-0.6
			c0.2-0.2,0.1-0.5-0.1-0.9C578.1,238.8,570,236.5,561.9,234.6"/>
		<path class="st0" d="M388.2,739.8c-1,0-1.6,0.2-1.6,0.7c0,0.2,0.1,0.6,0.4,0.9c3.4,1.6,6.9,3.1,10.4,4.6c4.1,1.7,8.2,3.3,12.3,4.7
			c0.4-0.1,0.7-0.2,0.8-0.4c0.8-1.3-4.1-4.6-11-7.4C394.8,741,390.5,739.8,388.2,739.8"/>
		<path class="st0" d="M392.9,729.4c-2.2,0-3.7,0.6-4,1.7c-0.7,2.4,4.5,6.7,11.6,9.7c4.2,1.7,8.2,2.6,11.1,2.6c2,0,3.4-0.4,3.9-1.3
			c1.3-2.4-3.8-6.9-11.4-10C399.8,730.4,395.8,729.4,392.9,729.4"/>
		<path class="st0" d="M400.6,712.7c-3.6,0-6.3,1.1-7,3.3c-1.2,3.7,4.1,9.4,11.9,12.6c3.7,1.5,7.4,2.3,10.4,2.3c3.4,0,6-0.9,6.9-2.8
			c1.9-3.8-3.3-9.6-11.7-13.1C407.3,713.5,403.6,712.7,400.6,712.7"/>
		<path class="st0" d="M411.4,688.5c-5,0-9,1.9-10.2,5.4c-1.8,5.2,3.6,12.4,12.2,15.9c3.3,1.4,6.7,2,9.7,2c4.8,0,8.7-1.6,10.1-4.7
			c2.6-5.3-2.8-12.7-11.9-16.5C417.8,689.2,414.4,688.5,411.4,688.5"/>
		<path class="st0" d="M425.4,656.2c-6.3,0-11.6,2.8-13.4,7.8c-2.6,6.9,2.9,15.6,12.2,19.5c3.1,1.3,6.2,1.9,9.1,1.9
			c6,0,11.2-2.5,13.3-7c3.2-7.1-2.1-16.1-11.9-20.2C431.5,656.8,428.3,656.2,425.4,656.2"/>
		<path class="st0" d="M442.5,615.8c-7.3,0-13.8,3.7-16.3,10.1c-3.3,8.6,2.2,18.8,12.1,22.9c2.9,1.2,5.8,1.7,8.7,1.7
			c7.1,0,13.4-3.5,16.1-9.4c3.8-8.7-1.5-19.3-11.9-23.6C448.4,616.4,445.4,615.8,442.5,615.8"/>
		<path class="st0" d="M462.3,568.6c-8.1,0-15.5,4.5-18.5,12.1c-3.9,10,1.4,21.6,12,25.9c2.7,1.1,5.6,1.7,8.4,1.7
			c7.9,0,15.2-4.3,18.3-11.6c4.3-10.1-0.9-21.9-11.7-26.4C468,569.2,465.1,568.6,462.3,568.6"/>
		<path class="st0" d="M483.9,516.9c-8.5,0-16.5,5-19.8,13.3c-4.4,10.9,0.9,23.4,11.8,27.9c2.7,1.1,5.5,1.6,8.2,1.6
			c8.4,0,16.3-4.9,19.7-13c4.6-10.9-0.6-23.6-11.7-28.1C489.4,517.4,486.6,516.9,483.9,516.9"/>
		<path class="st0" d="M505.8,463.6c-8.5,0-16.6,5.1-20.1,13.4c-4.6,11.1,0.6,23.9,11.7,28.5c2.7,1.1,5.5,1.6,8.2,1.6
			c8.5,0,16.6-5.1,20.1-13.5c4.5-11.1-0.7-23.8-11.7-28.4C511.4,464.2,508.6,463.6,505.8,463.6"/>
		<path class="st0" d="M526.9,412.4c-8.2,0-15.9,4.7-19.3,12.5c-4.5,10.6,0.7,23,11.7,27.5c2.7,1.1,5.6,1.7,8.3,1.7
			c8.3,0,16.1-4.8,19.3-12.9c4.2-10.6-1.1-22.7-11.9-27.2C532.4,413,529.6,412.4,526.9,412.4"/>
		<path class="st0" d="M545.6,366.3c-7.5,0-14.5,4-17.4,10.7c-4.1,9.5,1.1,20.9,11.8,25.3c2.8,1.2,5.8,1.7,8.6,1.7
			c7.8,0,14.8-4.2,17.6-11.3c3.6-9.4-1.7-20.4-12.1-24.7C551.3,366.9,548.4,366.3,545.6,366.3"/>
		<path class="st0" d="M561.3,327.3c-6.6,0-12.5,3-14.9,8.4c-3.6,8,1.7,17.9,11.9,22.2c3,1.2,6.1,1.8,9,1.8c6.9,0,12.9-3.3,15.1-9.1
			c2.9-7.9-2.5-17.5-12.2-21.5C567.2,327.9,564.2,327.3,561.3,327.3"/>
		<path class="st0" d="M573.5,296.2c-5.5,0-10.1,2.1-11.9,6c-2.9,6.3,2.4,14.6,11.9,18.6c3.2,1.3,6.5,2,9.5,2c5.8,0,10.5-2.4,12-6.7
			c2.2-6.2-3.3-14.2-12.2-17.9C579.7,296.9,576.5,296.2,573.5,296.2"/>
		<path class="st0" d="M582.3,273.1c-4.2,0-7.5,1.3-8.7,3.8c-2.3,4.6,3,11.3,11.8,15c3.6,1.5,7.1,2.2,10.1,2.2
			c4.4,0,7.8-1.5,8.8-4.4c1.5-4.5-3.9-11-12.1-14.4C588.8,273.8,585.3,273.1,582.3,273.1"/>
		<path class="st0" d="M588,257c-2.8,0-4.8,0.7-5.5,2.1c-1.6,3.1,3.6,8.4,11.6,11.7c4,1.7,7.8,2.5,10.8,2.5c3,0,5.1-0.8,5.6-2.6
			c0.9-3.1-4.3-8.2-11.8-11.3C594.9,257.8,591,257,588,257"/>
		<path class="st0" d="M591.5,246.9c-1.4,0-2.4,0.3-2.8,0.9c-1.1,1.9,3.9,5.8,11.2,8.8c4.5,1.9,8.7,2.9,11.3,2.9
			c1.6,0,2.7-0.4,2.9-1.2c0.5-1.9-4.6-5.8-11.4-8.5C598.4,247.9,594.2,246.9,591.5,246.9"/>
		<path class="st0" d="M421.6,747.7c-2,0-3.5,0.3-4,1.1c-1.1,1.6,3.6,4.6,10.5,6.8c4.2,1.3,8.5,2,11.5,2c1.8,0,3.2-0.3,3.8-0.8
			c1.7-1.6-2.8-4.6-10.2-6.9C428.8,748.4,424.6,747.7,421.6,747.7"/>
		<path class="st0" d="M431.6,735.5c-3.7,0-6.5,0.8-7.4,2.5c-1.6,2.7,3.3,6.9,10.9,9.3c3.5,1.1,7.1,1.6,10.2,1.6
			c3.4,0,6.2-0.7,7.3-2c2.3-2.8-2.4-7.1-10.5-9.6C438.4,736,434.7,735.5,431.6,735.5"/>
		<path class="st0" d="M444.4,716.4c-5.2,0-9.4,1.5-10.9,4.4c-2.2,4.2,2.8,9.7,11.2,12.4c3,1,6.2,1.4,9.1,1.4
			c4.9,0,9.1-1.4,10.8-3.9c2.9-4.2-1.9-10-10.7-12.8C450.6,716.9,447.4,716.4,444.4,716.4"/>
		<path class="st0" d="M460,689.5c-6.4,0-12,2.5-14.1,6.7c-2.8,5.8,2.3,12.9,11.3,15.9c2.7,0.9,5.6,1.3,8.3,1.3
			c6.2,0,11.6-2.2,14-6.1c3.5-5.9-1.3-13.2-10.7-16.4C465.7,689.9,462.8,689.5,460,689.5"/>
		<path class="st0" d="M478.2,654.4c-7.4,0-14.2,3.4-16.9,9.2c-3.5,7.5,1.6,16.3,11.3,19.6c2.6,0.9,5.2,1.3,7.8,1.3
			c7.1,0,13.8-3.1,16.7-8.5c4.1-7.6-0.7-16.6-10.8-20.2C483.6,654.8,480.9,654.4,478.2,654.4"/>
		<path class="st0" d="M498.6,611.5c-8.1,0-15.7,4.3-18.9,11.4c-4,9.1,1,19.4,11.3,23.1c2.5,0.9,5,1.3,7.5,1.3
			c7.9,0,15.4-4.1,18.7-10.8c4.5-9.1-0.3-19.7-10.8-23.6C504,612,501.3,611.5,498.6,611.5"/>
		<path class="st0" d="M520.5,562.6c-8.4,0-16.5,4.9-20,12.9c-4.4,10.4,0.6,22,11.3,26c2.5,0.9,5,1.4,7.5,1.4
			c8.3,0,16.4-4.7,19.9-12.5c4.7-10.3-0.1-22.1-10.8-26.3C525.8,563.1,523.1,562.6,520.5,562.6"/>
		<path class="st0" d="M542.4,510.1c-8.4,0-16.5,5.1-20,13.5c-4.6,11.1,0.5,23.5,11.4,27.9c2.5,1,5.1,1.5,7.7,1.5
			c8.4,0,16.5-5.1,20-13.4c4.6-10.9-0.3-23.4-11-27.8C547.8,510.7,545.1,510.1,542.4,510.1"/>
		<path class="st0" d="M563.1,457.6c-8.1,0-15.7,4.9-19,13c-4.4,11,0.8,23.7,11.5,28.3c2.6,1.1,5.3,1.6,7.9,1.6
			c8.2,0,15.9-5,19.1-13.3c4.2-10.8-0.9-23.3-11.3-27.9C568.6,458.1,565.8,457.6,563.1,457.6"/>
		<path class="st0" d="M581.2,408.2c-7.4,0-14.2,4.3-17,11.6c-4,10.3,1.3,22.5,11.8,27.2c2.7,1.2,5.6,1.8,8.3,1.8
			c7.6,0,14.5-4.5,17.1-12.1c3.6-10-1.7-21.9-11.7-26.6C586.9,408.8,584,408.2,581.2,408.2"/>
		<path class="st0" d="M596,364.6c-6.5,0-12.1,3.4-14.4,9.4c-3.4,9,2.1,20.2,12.1,24.9c2.9,1.4,5.9,2,8.7,2
			c6.7,0,12.5-3.7,14.5-10.1c2.8-8.8-2.6-19.5-12.1-24.1C601.9,365.3,598.9,364.6,596,364.6"/>
		<path class="st0" d="M607,328.4c-5.3,0-9.8,2.5-11.4,7c-2.6,7.4,2.9,17.2,12.3,21.8c3.2,1.5,6.3,2.3,9.2,2.3
			c5.6,0,10.1-2.8,11.5-7.8c2-7.2-3.5-16.6-12.4-21C613.1,329.1,609.9,328.4,607,328.4"/>
		<path class="st0" d="M614.4,300c-4.1,0-7.3,1.6-8.3,4.8c-1.9,5.7,3.7,14,12.4,18.4c3.4,1.7,6.8,2.6,9.6,2.6c4.3,0,7.6-1.9,8.4-5.5
			c1.3-5.6-4.3-13.5-12.4-17.6C620.8,300.9,617.4,300,614.4,300"/>
		<path class="st0" d="M618.7,279.1c-2.8,0-4.8,1-5.4,2.9c-1.2,4.2,4.3,10.8,12.3,15c3.8,1.9,7.3,2.9,10.1,2.9c3,0,5.1-1.2,5.5-3.5
			c0.6-4.1-4.9-10.5-12.3-14.4C625.2,280.1,621.6,279.1,618.7,279.1"/>
		<path class="st0" d="M620.6,264.7c-1.6,0-2.7,0.5-2.9,1.5c-0.7,2.8,4.7,8,12,11.9c4.2,2.2,7.9,3.3,10.3,3.3c1.8,0,2.9-0.6,2.9-1.9
			c0.1-2.8-5.2-7.9-11.9-11.4C626.9,265.8,623.1,264.7,620.6,264.7"/>
		<path class="st0" d="M620.1,255.8c-0.3,0.1-0.5,0.2-0.5,0.5c-0.2,1.6,5,5.7,11.5,9.2c4.5,2.4,8.3,3.7,10.1,3.7
			c0.8,0,1.2-0.3,1.2-0.8l0,0C635.3,263.8,627.8,259.6,620.1,255.8"/>
		<path class="st0" d="M448.4,760.3c-1.6,0-2.9,0.1-3.6,0.4c8,1.7,16,3,24,3.9c-1.1-0.9-4.3-2-8.8-3
			C455.7,760.7,451.4,760.3,448.4,760.3"/>
		<path class="st0" d="M461.1,751.9c-3.9,0-7,0.6-8.2,1.8c-1.9,1.9,2.3,4.7,9.5,6.2c3.1,0.6,6.3,0.9,9.1,0.9c3.7,0,6.7-0.5,8-1.5
			c2.6-1.9-1.3-4.8-8.9-6.4C467.3,752.3,464,751.9,461.1,751.9"/>
		<path class="st0" d="M476,737.4c-5.5,0-10.2,1.3-12.1,3.7c-2.5,3.2,1.9,7.2,9.7,8.9c2.5,0.5,5,0.8,7.4,0.8c5.2,0,9.8-1.2,11.8-3.2
			c3.2-3.2-0.8-7.4-9-9.2C481.2,737.7,478.5,737.4,476,737.4"/>
		<path class="st0" d="M492.9,715.8c-6.6,0-12.7,2.2-15.2,5.9c-3.1,4.7,1.3,10.1,9.8,12.1c2.1,0.5,4.3,0.7,6.5,0.7
			c6.3,0,12.3-2,14.9-5.3c3.8-4.7-0.2-10.3-9-12.5C497.7,716,495.3,715.8,492.9,715.8"/>
		<path class="st0" d="M512.1,686.2c-7.5,0-14.6,3.1-17.6,8.3c-3.7,6.4,0.7,13.4,9.8,15.7c2,0.5,4,0.7,6.1,0.7
			c7.2,0,14.2-2.9,17.4-7.7c4.3-6.4,0.3-13.6-9-16.2C516.6,686.5,514.4,686.2,512.1,686.2"/>
		<path class="st0" d="M533.3,648.7c-8,0-15.9,4.1-19.3,10.6c-4.2,8,0.2,16.7,9.8,19.4c1.9,0.5,3.9,0.8,5.9,0.8
			c7.8,0,15.6-3.8,19.2-9.9c4.6-8,0.7-16.9-9-19.9C537.7,649,535.5,648.7,533.3,648.7"/>
		<path class="st0" d="M555.5,604.1c-8.2,0-16.4,4.8-20.1,12.4c-4.6,9.5-0.1,19.7,9.8,22.9c2,0.6,4,0.9,6.1,0.9
			c8.1,0,16.2-4.6,20-11.9c4.8-9.4,0.8-19.8-9.1-23.2C560.1,604.5,557.8,604.1,555.5,604.1"/>
		<path class="st0" d="M577.7,554.6c-8.2,0-16.3,5.1-19.9,13.4c-4.6,10.5-0.1,22,10,25.7c2.1,0.7,4.2,1.1,6.3,1.1
			c8.1,0,16.2-5,19.9-13.1c4.7-10.3,0.5-21.8-9.3-25.7C582.4,555,580,554.6,577.7,554.6"/>
		<path class="st0" d="M598.3,502.9c-7.8,0-15.3,5-18.7,13.3c-4.4,10.9,0.2,23.2,10.3,27.2c2.2,0.9,4.5,1.3,6.7,1.3
			c7.8,0,15.4-5.1,18.7-13.4c4.3-10.6-0.1-22.7-9.8-27C603.2,503.4,600.7,502.9,598.3,502.9"/>
		<path class="st0" d="M616.1,452.3c-7.1,0-13.7,4.5-16.6,12.2c-3.9,10.6,0.9,23,10.8,27.5c2.4,1.1,4.8,1.6,7.2,1.6
			c7.3,0,14-4.7,16.7-12.6c3.6-10.3-1.1-22.3-10.4-26.8C621.3,452.9,618.7,452.3,616.1,452.3"/>
		<path class="st0" d="M630.4,405.7c-6.2,0-11.7,3.8-13.9,10.4c-3.2,9.7,1.9,21.5,11.3,26.3c2.6,1.3,5.2,1.9,7.7,1.9
			c6.4,0,12-4.1,14-11c2.7-9.3-2.2-20.7-11-25.4C635.8,406.4,633,405.7,630.4,405.7"/>
		<path class="st0" d="M640.6,365.3c-5.1,0-9.4,2.9-10.9,8.1c-2.4,8.4,2.9,19.1,11.8,24c2.8,1.5,5.6,2.3,8.2,2.3
			c5.4,0,9.7-3.2,11-8.9c1.8-8-3.3-18.3-11.6-23.1C646.2,366.1,643.3,365.3,640.6,365.3"/>
		<path class="st0" d="M646.9,332.2c-4,0-7,2-7.9,5.9c-1.6,6.8,3.9,16.3,12.1,21.1c3.1,1.8,6,2.6,8.6,2.6c4.2,0,7.4-2.3,8-6.6
			c1-6.5-4.3-15.5-11.9-20.2C652.7,333.1,649.6,332.2,646.9,332.2"/>
		<path class="st0" d="M649.9,306.5c-2.8,0-4.8,1.3-5.2,3.8c-0.9,5.2,4.6,13.2,12.2,17.9c3.3,2.1,6.4,3.1,8.9,3.1c3,0,5-1.5,5.2-4.5
			c0.3-5-5-12.7-12-17.1C655.7,307.5,652.4,306.5,649.9,306.5"/>
		<path class="st0" d="M650.2,287.6c-1.7,0-2.8,0.7-3,2.2c-0.3,3.7,5.2,10.3,12.1,14.7c3.6,2.3,6.8,3.5,9,3.5c1.9,0,3-0.9,2.9-2.8
			c-0.2-3.7-5.5-10-11.9-14.1C655.8,288.8,652.4,287.6,650.2,287.6"/>
		<path class="st0" d="M648.6,274.7c-0.9,0-1.4,0.4-1.3,1.1c0.2,2.5,5.5,7.8,11.8,11.9c3.9,2.5,7.1,3.9,8.8,3.9c1,0,1.5-0.5,1.2-1.5
			c-0.6-2.5-5.8-7.6-11.6-11.4C653.8,276.1,650.4,274.7,648.6,274.7"/>
		<path class="st0" d="M488.7,762.6c-4.6,0-8.5,0.5-10.2,1.4c-0.8,0.5-0.9,1-0.2,1.5c6.8,0.5,13.6,0.8,20.4,0.8c1.6,0,3.2,0,4.7,0
			c1.6-1.2-1.6-2.6-7.8-3.3C493.3,762.7,491,762.6,488.7,762.6"/>
		<path class="st0" d="M505,752c-6,0-11.6,1.2-13.9,3.2c-2.8,2.3,0.8,4.9,7.9,5.7c1.5,0.2,3,0.2,4.6,0.2c5.7,0,11.2-1.1,13.8-2.8
			c3.4-2.4,0.2-5.1-7.1-6C508.4,752.1,506.7,752,505,752"/>
		<path class="st0" d="M522.7,735.1c-6.8,0-13.7,2-16.5,5.3c-3.4,3.7,0.2,7.4,7.9,8.5c1.3,0.2,2.6,0.2,3.9,0.2
			c6.5,0,13.2-1.9,16.3-4.8c3.9-3.7,0.8-7.7-7-8.8C525.8,735.2,524.3,735.1,522.7,735.1"/>
		<path class="st0" d="M542.6,711c-7.4,0-15.1,3-18.5,7.6c-3.9,5.2-0.3,10.4,7.8,11.7c1.2,0.2,2.5,0.3,3.8,0.3
			c7.1,0,14.6-2.8,18.2-7c4.4-5.2,1.4-10.7-6.9-12.2C545.5,711.1,544,711,542.6,711"/>
		<path class="st0" d="M564.1,679.2c-7.7,0-16,3.9-19.8,9.8c-4.4,6.9-0.8,13.7,7.8,15.3c1.2,0.2,2.5,0.3,3.9,0.3
			c7.5,0,15.6-3.7,19.5-9.2c4.7-6.8,1.8-13.8-6.8-15.8C567.2,679.4,565.6,679.2,564.1,679.2"/>
		<path class="st0" d="M586.6,640.1c-7.9,0-16.2,4.6-20.2,11.7c-4.7,8.4-1.1,16.9,7.8,19c1.3,0.3,2.7,0.5,4.2,0.5
			c7.7,0,16-4.5,20-11.2c4.9-8.2,1.9-16.9-6.8-19.3C589.9,640.3,588.2,640.1,586.6,640.1"/>
		<path class="st0" d="M608.9,595c-7.7,0-15.8,5.1-19.7,13c-4.7,9.6-1.2,19.6,7.9,22.3c1.5,0.4,3,0.6,4.6,0.6
			c7.6,0,15.8-5,19.7-12.7c4.8-9.3,1.6-19.4-7.1-22.4C612.5,595.3,610.7,595,608.9,595"/>
		<path class="st0" d="M629.7,546.2c-7.3,0-14.8,5.1-18.3,13.4c-4.5,10.4-0.7,21.5,8.3,24.8c1.6,0.6,3.4,0.9,5.1,0.9
			c7.3,0,14.9-5.2,18.4-13.2c4.3-10,1-21-7.5-24.6C633.7,546.6,631.7,546.2,629.7,546.2"/>
		<path class="st0" d="M647.7,496.5c-6.7,0-13.2,4.8-16.1,12.7c-3.9,10.6,0.1,22.3,8.8,26.1c1.8,0.8,3.7,1.2,5.6,1.2
			c6.8,0,13.4-4.9,16.3-12.9c3.6-10.1,0-21.5-8.3-25.6C652,497,649.8,496.5,647.7,496.5"/>
		<path class="st0" d="M661.9,448.8c-5.9,0-11.2,4.1-13.4,11.2c-3.2,10,1.1,21.8,9.5,26.2c2.1,1.1,4.2,1.6,6.2,1.6
			c6,0,11.5-4.4,13.6-11.7c2.8-9.6-1.3-20.9-9.1-25.4C666.5,449.4,664.1,448.8,661.9,448.8"/>
		<path class="st0" d="M671.8,405.7c-4.9,0-9,3.3-10.5,9.2c-2.3,9,2.3,20.2,10.3,24.9c2.3,1.3,4.6,2,6.7,2c5.1,0,9.3-3.6,10.6-9.8
			c1.9-8.6-2.6-19.3-9.9-24C676.6,406.4,674.1,405.7,671.8,405.7"/>
		<path class="st0" d="M677.6,368.7c-3.8,0-6.8,2.4-7.6,7c-1.4,7.6,3.5,17.9,10.9,22.8c2.5,1.7,5,2.4,7.1,2.4c4,0,7-2.7,7.7-7.7
			c1-7.3-3.7-17-10.5-21.8C682.6,369.6,679.9,368.7,677.6,368.7"/>
		<path class="st0" d="M679.8,338.6c-2.8,0-4.7,1.7-5,4.9c-0.6,6.1,4.5,15.2,11.4,20.1c2.8,2,5.3,2.9,7.4,2.9c3,0,4.9-1.9,5.1-5.6
			c0.2-5.9-4.7-14.4-11-19.1C684.7,339.7,682,338.6,679.8,338.6"/>
		<path class="st0" d="M679,315.3c-1.8,0-2.9,1-2.9,3.1c0.1,4.7,5.2,12.4,11.6,17.2c3,2.3,5.6,3.4,7.5,3.4c2,0,3.1-1.3,2.9-3.7
			c-0.4-4.5-5.4-11.8-11.2-16.4C683.7,316.5,680.9,315.3,679,315.3"/>
		<path class="st0" d="M676,298.2c-1,0-1.5,0.6-1.3,1.8c0.5,3.3,5.7,9.8,11.5,14.3c3.2,2.5,5.9,3.9,7.3,3.9c1.1,0,1.6-0.7,1.2-2.3
			c-0.9-3.3-5.8-9.4-11.1-13.7C680.3,299.6,677.5,298.2,676,298.2"/>
		<path class="st0" d="M531.7,760.4c-6.5,0-14.1,1.3-17.2,3c-1.8,1-1.5,1.9,0.4,2.5c7.9-0.5,15.7-1.3,23.4-2.5
			c2.7-1.6,0.3-2.9-5.9-3C532.2,760.4,532,760.4,531.7,760.4"/>
		<path class="st0" d="M549.1,747.5c-6.9,0-15,2.1-18.6,5c-3.5,2.8-0.8,5.2,6,5.4c0.2,0,0.4,0,0.6,0c6.5,0,14.5-2,18.2-4.6
			c4-2.8,1.8-5.4-5.1-5.7C549.9,747.5,549.5,747.5,549.1,747.5"/>
		<path class="st0" d="M568.8,728.2c-7.1,0-15.6,3-19.5,7.1c-4,4.2-1.4,7.8,5.8,8.2c0.3,0,0.7,0,1,0c6.8,0,15.1-2.9,19.2-6.6
			c4.5-4.2,2.4-8-4.8-8.6C569.9,728.2,569.3,728.2,568.8,728.2"/>
		<path class="st0" d="M590.2,701.9c-7.3,0-15.9,3.9-20.1,9.2c-4.5,5.7-1.9,10.8,5.6,11.4c0.5,0,1,0.1,1.5,0.1
			c7,0,15.5-3.7,19.8-8.7c4.8-5.6,2.8-11-4.5-11.8C591.7,701.9,591,701.9,590.2,701.9"/>
		<path class="st0" d="M612.7,668.5c-7.3,0-15.8,4.6-20.1,11.2c-4.7,7.2-2.3,13.9,5.4,14.9c0.7,0.1,1.4,0.1,2.1,0.1
			c7.1,0,15.5-4.4,19.9-10.6c4.9-7.1,3-13.9-4.4-15.3C614.6,668.5,613.7,668.5,612.7,668.5"/>
		<path class="st0" d="M635.1,628.7c-7.1,0-15.2,5.1-19.3,12.5c-4.8,8.6-2.3,16.8,5.5,18.4c0.9,0.2,1.8,0.3,2.7,0.3
			c6.9,0,15-5,19.2-12.2c4.8-8.2,2.8-16.6-4.6-18.6C637.4,628.9,636.3,628.7,635.1,628.7"/>
		<path class="st0" d="M656,584.2c-6.7,0-14,5.2-17.8,13.2c-4.5,9.6-1.9,19.1,5.7,21.4c1.1,0.3,2.2,0.5,3.3,0.5
			c6.7,0,14.1-5.2,17.8-13c4.4-9.1,2.2-18.7-4.9-21.3C658.8,584.4,657.4,584.2,656,584.2"/>
		<path class="st0" d="M674.3,537.2c-6.1,0-12.5,5-15.6,12.9c-4,10-1.1,20.6,6.3,23.6c1.3,0.5,2.6,0.7,3.9,0.7
			c6.2,0,12.6-5.1,15.7-12.9c3.8-9.5,1.2-19.9-5.7-23.2C677.5,537.5,675.9,537.2,674.3,537.2"/>
		<path class="st0" d="M688.8,490.4c-5.3,0-10.5,4.4-12.9,11.8c-3.2,9.9,0,21,7.1,24.6c1.5,0.8,3,1.1,4.5,1.1
			c5.5,0,10.8-4.6,13.1-12.1c2.9-9.4-0.1-20.1-6.6-24C692.3,490.8,690.6,490.4,688.8,490.4"/>
		<path class="st0" d="M699,446.3c-4.5,0-8.5,3.7-10.1,10.1c-2.3,9.3,1.3,20.3,8.1,24.5c1.7,1,3.4,1.5,5,1.5c4.6,0,8.7-4,10.2-10.6
			c1.9-8.7-1.5-19.3-7.6-23.6C702.8,446.9,700.9,446.3,699,446.3"/>
		<path class="st0" d="M704.9,407c-3.5,0-6.4,2.8-7.3,8c-1.4,8.2,2.7,18.7,9,23.3c1.9,1.4,3.8,2,5.5,2c3.7,0,6.6-3.1,7.4-8.6
			c1-7.8-2.8-17.7-8.5-22.3C708.8,407.8,706.7,407,704.9,407"/>
		<path class="st0" d="M706.8,373.5c-2.6,0-4.5,2-4.8,6c-0.5,6.9,3.9,16.5,9.8,21.3c2.1,1.7,4.1,2.6,5.7,2.6c2.8,0,4.7-2.3,4.8-6.6
			c0.2-6.6-3.9-15.6-9.3-20.3C710.7,374.5,708.6,373.5,706.8,373.5"/>
		<path class="st0" d="M705.4,346.4c-1.8,0-2.8,1.4-2.7,4.1c0.2,5.5,4.8,14,10.3,18.9c2.3,2.1,4.4,3.1,5.9,3.1c1.9,0,3-1.6,2.7-4.7
			c-0.5-5.3-4.9-13.3-9.8-18C709.2,347.5,707,346.4,705.4,346.4"/>
		<path class="st0" d="M701.5,325.4c-1,0-1.5,0.9-1.2,2.6c0.8,4.2,5.5,11.5,10.6,16.3c2.5,2.4,4.5,3.6,5.8,3.6c1.2,0,1.6-1,1.1-3.1
			c-1-4.1-5.5-11-10.1-15.5C705,326.7,702.8,325.4,701.5,325.4"/>
		<path class="st0" d="M696.9,313.6c2,3.3,5.7,7.9,9.4,11.5c0.8,0.8,1.5,1.4,2.2,2C704.8,322.5,700.9,318,696.9,313.6"/>
		<path class="st0" d="M570.8,753.9c-0.6,0-1.3,0-2.1,0.1c-6.1,0.5-14.3,2.7-18,5c-2,1.1-2.3,2-1.2,2.5c8.3-1.6,16.5-3.6,24.6-6
			C574.7,754.6,573.5,753.9,570.8,753.9"/>
		<path class="st0" d="M589.8,738.9c-0.3,0-0.6,0-1,0c-6.3,0.3-15,3.4-19.3,6.9c-3.7,3-2.6,5.2,2.3,5.2c0.5,0,1,0,1.5-0.1
			c5.9-0.5,14.1-3.3,18.3-6.5C595.8,741.2,595,738.9,589.8,738.9"/>
		<path class="st0" d="M610.8,717.5L610.8,717.5c-6.4,0-15.6,4-20.2,8.8c-4.3,4.5-3,7.9,2.8,7.9c0.2,0,0.5,0,0.7,0
			c6.1-0.2,14.6-4,19.2-8.4C617.9,721.3,616.9,717.5,610.8,717.5"/>
		<path class="st0" d="M632.9,689.7c-6.4,0-15.1,4.6-19.8,10.6c-4.7,6.1-3.2,11,3.2,11.1c0,0,0.1,0,0.1,0c6.2,0,14.8-4.5,19.5-10.2
			c4.9-5.9,3.9-11.1-2.2-11.5C633.4,689.7,633.2,689.7,632.9,689.7"/>
		<path class="st0" d="M655.1,655.5c-6.2,0-14.3,5.1-18.8,12c-4.8,7.4-3.4,13.8,3.1,14.4c0.3,0,0.6,0,0.9,0c6,0,14.1-5,18.6-11.7
			c4.8-7.1,3.9-13.7-2.1-14.7C656.2,655.6,655.6,655.5,655.1,655.5"/>
		<path class="st0" d="M676.1,616.1c-5.9,0-13.1,5.3-17.1,12.9c-4.5,8.5-3.1,16.4,3.2,17.6c0.5,0.1,1.1,0.1,1.6,0.1
			c5.8,0,13.1-5.2,17.1-12.5c4.4-8.1,3.4-16.1-2.4-17.7C677.7,616.2,676.9,616.1,676.1,616.1"/>
		<path class="st0" d="M694.7,573.1c-5.4,0-11.5,5.1-14.9,12.9c-4.1,9.3-2.4,18.3,3.7,20.2c0.7,0.2,1.5,0.3,2.3,0.3
			c5.4,0,11.7-5.2,15-12.8c3.8-8.7,2.5-17.7-3-20.1C696.7,573.3,695.7,573.1,694.7,573.1"/>
		<path class="st0" d="M709.8,528.9c-4.7,0-9.7,4.7-12.4,12.1c-3.3,9.5-1.3,19.4,4.4,22.1c0.9,0.4,1.9,0.6,2.9,0.6
			c4.8,0,10-4.9,12.5-12.3c3-8.9,1.3-18.5-3.9-21.6C712.2,529.2,711,528.9,709.8,528.9"/>
		<path class="st0" d="M720.7,485.6c-4,0-7.8,4-9.6,10.8c-2.4,9.2,0,19.5,5.5,22.9c1.1,0.7,2.3,1,3.4,1c4.1,0,8.1-4.3,9.7-11.1
			c2.1-8.6-0.1-18.5-5-22.1C723.4,486.1,722,485.6,720.7,485.6"/>
		<path class="st0" d="M727.2,445.4c-3.2,0-5.9,3.2-6.9,8.9c-1.5,8.5,1.5,18.7,6.5,22.6c1.3,1,2.6,1.5,3.8,1.5
			c3.3,0,6.2-3.5,7.1-9.4c1.2-7.9-1.5-17.6-6.1-21.7C730.1,446.1,728.6,445.4,727.2,445.4"/>
		<path class="st0" d="M729.5,409.9c-2.4,0-4.2,2.4-4.5,7c-0.6,7.4,2.9,17.1,7.6,21.5c1.5,1.4,2.9,2,4.1,2c2.5,0,4.4-2.7,4.6-7.6
			c0.3-7-2.9-16.1-7.2-20.5C732.5,410.7,730.9,409.9,729.5,409.9"/>
		<path class="st0" d="M728.2,379.8c-1.7,0-2.7,1.7-2.6,5.1c0.2,6.2,4,15.1,8.4,19.7c1.7,1.7,3.1,2.6,4.3,2.6c1.8,0,2.8-2,2.5-5.7
			c-0.4-5.9-4-14.2-8-18.7C731.1,380.8,729.5,379.8,728.2,379.8"/>
		<path class="st0" d="M724.1,355.3c-1,0-1.5,1.2-1.1,3.5c0.9,4.9,4.9,12.9,9.1,17.6c1.8,2.1,3.3,3.1,4.3,3.1c1.1,0,1.5-1.4,1-4.1
			c-1-4.8-4.8-12.1-8.6-16.7C726.8,356.5,725.2,355.3,724.1,355.3"/>
		<path class="st0" d="M719.2,341.4c1.9,3.8,5.2,8.9,8.2,12.5l0.1,0.1C724.8,349.7,722.1,345.5,719.2,341.4"/>
		<path class="st0" d="M605.4,743.8c-0.6,0-1.5,0.1-2.5,0.3c-5.3,1-13.1,4.1-17.4,6.7c-1.1,0.7-1.8,1.3-2.2,1.8
			c7.8-2.6,15.4-5.5,22.8-8.8C605.9,743.8,605.7,743.8,605.4,743.8"/>
		<path class="st0" d="M626,726.7c-0.5,0-1,0-1.7,0.1c-5.3,0.8-13.5,4.6-18.1,8.6c-3.7,3.2-3.7,5.2-0.5,5.2c0.6,0,1.3-0.1,2.2-0.2
			c5.1-0.9,12.7-4.5,17.1-8.1C629.1,729,629.4,726.7,626,726.7"/>
		<path class="st0" d="M647.6,703.7c-0.2,0-0.5,0-0.7,0c-5.2,0.4-13.5,5-18.3,10.2c-4.3,4.6-4.1,7.8-0.1,7.8c0.4,0,0.8,0,1.3-0.1
			c5-0.7,12.8-5,17.4-9.8C651.7,707.3,651.8,703.7,647.6,703.7"/>
		<path class="st0" d="M669.3,674.9c-5.1,0-13.1,5.2-17.9,11.6c-4.6,6.1-4.3,10.8,0.5,10.8c0.2,0,0.3,0,0.5,0
			c4.9-0.3,12.6-5.3,17.2-11.2c4.7-6.1,4.7-11.1-0.1-11.2C669.4,674.9,669.4,674.9,669.3,674.9"/>
		<path class="st0" d="M690.2,640.8c-4.9,0-11.9,5.3-16.2,12.4c-4.5,7.4-4.1,13.6,0.9,13.8c0.1,0,0.2,0,0.3,0
			c4.7,0,11.8-5.3,16.1-12.1c4.4-7.1,4.3-13.4-0.2-14.1C690.8,640.8,690.5,640.8,690.2,640.8"/>
		<path class="st0" d="M708.9,602.5c-4.5,0-10.4,5.2-14.1,12.7c-4.1,8.3-3.6,15.8,1.2,16.7c0.3,0.1,0.6,0.1,1,0.1
			c4.4,0,10.5-5.3,14.1-12.5c3.9-7.8,3.6-15.3-0.6-16.7C710,602.6,709.5,602.5,708.9,602.5"/>
		<path class="st0" d="M724.6,561.9c-4,0-8.8,4.9-11.6,12.2c-3.4,8.8-2.6,17.2,1.9,19c0.5,0.2,1,0.3,1.5,0.3c4,0,8.9-5,11.8-12.2
			c3.2-8.2,2.6-16.6-1.4-18.7C726,562.1,725.3,561.9,724.6,561.9"/>
		<path class="st0" d="M736.3,520.9c-3.4,0-7.1,4.3-9.1,11.2c-2.5,8.8-1.3,18,2.8,20.4c0.7,0.4,1.3,0.6,2,0.6
			c3.4,0,7.3-4.5,9.2-11.4c2.3-8.2,1.2-17.1-2.4-19.9C738.1,521.2,737.2,520.9,736.3,520.9"/>
		<path class="st0" d="M743.8,481.4c-2.7,0-5.4,3.6-6.5,9.6c-1.6,8.4,0.1,17.8,3.9,21c0.8,0.7,1.6,1,2.4,1c2.8,0,5.5-3.8,6.6-10
			c1.4-7.8-0.2-16.8-3.6-20.2C745.8,481.9,744.8,481.4,743.8,481.4"/>
		<path class="st0" d="M747,445.2c-2.1,0-3.8,2.8-4.2,7.8c-0.7,7.6,1.6,17,5.1,20.7c0.9,1,1.9,1.5,2.7,1.5c2.2,0,3.9-3.1,4.3-8.3
			c0.5-7.1-1.6-15.9-4.8-19.8C749.1,445.9,748,445.2,747,445.2"/>
		<path class="st0" d="M746.5,413.4c-1.5,0-2.4,2.1-2.4,6.1c0.1,6.6,3,15.5,6.2,19.7c1.1,1.4,2.1,2,2.9,2c1.6,0,2.5-2.4,2.3-6.6
			c-0.2-6.2-2.9-14.5-5.9-18.7C748.5,414.2,747.4,413.4,746.5,413.4"/>
		<path class="st0" d="M742.8,386.4c-0.9,0-1.3,1.5-0.9,4.4c0.8,5.5,4.1,13.7,7.2,18.1c1.2,1.7,2.2,2.5,2.9,2.5c0.9,0,1.2-1.3,1-3.8
			c-2.2-6.3-4.6-12.6-7.3-18.7C744.5,387.3,743.5,386.4,742.8,386.4"/>
		<path class="st0" d="M656.8,712.2c-0.4,0-0.9,0.1-1.5,0.2c-4.2,1.1-11.4,5.5-16.1,9.8c-3.7,3.3-4.4,5.4-2.3,5.4
			c0.2,0,0.5,0,0.8-0.1c6.8-4.1,13.4-8.5,19.8-13.2C658.3,713,658.1,712.2,656.8,712.2"/>
		<path class="st0" d="M678,688.2c-0.2,0-0.5,0-0.8,0.1c-4,0.7-11.1,5.7-15.8,11.1c-4.1,4.7-4.8,7.8-2,7.8c0.4,0,0.8-0.1,1.3-0.2
			c3.9-1,10.6-5.7,15-10.7C679.9,691.7,680.8,688.2,678,688.2"/>
		<path class="st0" d="M698.5,659.2c0,0-0.1,0-0.1,0c-3.7,0.1-10.4,5.5-15,12c-4.2,6-4.8,10.5-1.5,10.5c0.2,0,0.4,0,0.6,0
			c3.7-0.5,10-5.7,14.3-11.7C701.1,664,701.8,659.2,698.5,659.2"/>
		<path class="st0" d="M717.3,625.8c-3.5,0-9.2,5.3-13.1,12.3c-4.1,7.3-4.5,13.2-0.8,13.2h0c3.4,0,9.2-5.4,13-12.1
			c3.9-6.9,4.5-12.8,1.4-13.4C717.7,625.8,717.5,625.8,717.3,625.8"/>
		<path class="st0" d="M733.4,589.4c-3.1,0-7.7,5-10.9,12.1c-3.5,7.9-3.7,14.9-0.4,15.7c0.2,0,0.4,0.1,0.6,0.1
			c3.1,0,7.8-5.1,10.9-12.1c3.3-7.3,3.6-14.4,0.8-15.6C734.1,589.5,733.8,589.4,733.4,589.4"/>
		<path class="st0" d="M746,551.7c-2.7,0-6.2,4.5-8.4,11.3c-2.7,8.2-2.6,16.1,0.4,17.6c0.3,0.2,0.6,0.2,1,0.2
			c2.7,0,6.3-4.7,8.6-11.4c2.5-7.6,2.4-15.3-0.1-17.2C747,551.8,746.5,551.7,746,551.7"/>
		<path class="st0" d="M754.6,514.1c-2.2,0-4.7,3.9-6.1,10.1c-1.8,8-1.2,16.5,1.5,18.8c0.4,0.4,0.9,0.5,1.3,0.5
			c2.3,0,4.8-4.1,6.3-10.3c1.6-7.4,1.1-15.6-1.2-18.2C755.8,514.4,755.2,514.1,754.6,514.1"/>
		<path class="st0" d="M759.1,478.5c-1.7,0-3.3,3.1-4,8.5c-1,7.6,0.2,16.2,2.7,19.2c0.5,0.6,1.1,0.9,1.6,0.9c1.8,0,3.4-3.4,4.1-8.9
			c0.8-7-0.3-15.2-2.5-18.4C760.4,479,759.7,478.5,759.1,478.5"/>
		<path class="st0" d="M759.8,446.1c-1.2,0-2.1,2.4-2.1,6.9c-0.1,6.8,1.6,15.3,3.9,18.8c0.6,1,1.2,1.4,1.7,1.4
			c1.3,0,2.1-2.7,2.2-7.3c0-6.3-1.6-14.3-3.7-17.9C761.1,446.7,760.4,446.1,759.8,446.1"/>
		<path class="st0" d="M756.5,418.4c-0.2,0.8-0.3,2.4-0.1,4.5c0.6,5.9,2.9,14,5,17.9c0.4,0.7,0.7,1.2,1.1,1.5
			C760.8,434.2,758.8,426.2,756.5,418.4"/>
		<path class="st0" d="M702.3,671.5c-0.2,0-0.3,0-0.6,0.1c-2.7,0.8-8.6,6-13,11.5c-3.6,4.5-4.9,7.6-3.5,7.8
			c6.2-6,12.1-12.3,17.8-18.9C702.9,671.7,702.7,671.5,702.3,671.5"/>
		<path class="st0" d="M720.9,642.9c0,0-0.1,0-0.1,0c-2.4,0.2-7.7,5.6-11.8,11.9c-3.8,5.9-5,10.3-2.9,10.3c0.1,0,0.3,0,0.5-0.1
			c1.4-0.3,3.5-2.1,5.8-4.5c2.4-3.2,4.8-6.4,7.1-9.7C722,646.2,722.7,642.9,720.9,642.9"/>
		<path class="st0" d="M737.2,610.9c-2.2,0-6.5,5.1-9.9,11.9c-3.5,7-4.5,12.6-2.2,12.6h0c2.1,0,6.6-5.3,9.9-11.8
			c3.3-6.5,4.4-12.2,2.5-12.7C737.4,610.9,737.3,610.9,737.2,610.9"/>
		<path class="st0" d="M750.5,576.8c-2,0-5.2,4.7-7.8,11.3c-2.9,7.4-3.6,14-1.6,14.7c0.1,0,0.2,0.1,0.3,0.1c1.9,0,5.3-4.9,7.8-11.3
			c2.6-6.8,3.4-13.3,1.8-14.5C750.9,576.9,750.7,576.8,750.5,576.8"/>
		<path class="st0" d="M760.1,542.1c-1.6,0-3.9,4.1-5.6,10.3c-2.1,7.5-2.4,14.7-0.7,16.2c0.2,0.1,0.4,0.2,0.6,0.2
			c1.6,0,4.1-4.3,5.7-10.5c1.9-6.9,2.2-14,0.8-15.8C760.7,542.2,760.4,542.1,760.1,542.1"/>
		<path class="st0" d="M766,508.1c-1.2,0-2.7,3.4-3.6,9c-1.2,7.3-1,15,0.4,17.1c0.2,0.3,0.5,0.5,0.8,0.5c0.6,0,1.3-0.8,1.9-2.2
			c1-7.3,1.7-14.6,2.1-22c-0.1-0.7-0.3-1.2-0.5-1.7C766.7,508.4,766.3,508.1,766,508.1"/>
		<path class="st0" d="M767.2,477.1c-0.5,1.2-0.9,3.4-1.1,6.6c-0.4,6.8,0.4,14.6,1.7,17.4l0,0.1C768,493.1,767.8,485.1,767.2,477.1"
			/>
		<path class="st0" d="M744.9,605.3c-0.4,0.9-0.9,1.9-1.4,2.9c-0.2,0.6-0.5,1.2-0.7,1.8C743.5,608.4,744.2,606.9,744.9,605.3"/>
		<path class="st1" d="M279.7,560.1v-72.2c0-15.6-4.6-34.1-26.5-34.1c-14.6,0-24.6,10.7-28.1,21.4c-0.9,2.5-1.4,6-1.4,9.7v75.2
			h-26.1v-90.8c0-3.9,0-7.5-0.1-11l0-0.8l22.5-24.3l1.1,17.9c7.1-9.7,20.6-19.3,39.5-19.3c7.6,0,45.3,2.6,45.3,53.8v74.5H279.7z"/>
		<path class="st1" d="M382.5,562.8c-35.8,0-60.7-26.6-60.7-64.6c0-39.1,25.8-66.4,62.8-66.4c35.9,0,61,26.5,61,64.4
			C445.5,542,412.8,562.8,382.5,562.8 M384,452.3c-24.6,0-35.6,22.7-35.6,45.2c0,26,14.8,44.9,35.1,44.9c20.5,0,35.3-19.1,35.3-45.5
			C418.8,475.4,407.9,452.3,384,452.3"/>
		<path class="st1" d="M490.7,560.1l-48.1-125.7h28l24.5,69.5c3.8,10.5,6.4,18.7,8.5,26.3c2.5-8.3,5.4-16.6,8.9-26.3l24.3-69.5h27.5
			l-49.7,125.7H490.7z"/>
		<path class="st1" d="M620.5,562.8c-37.8,0-62.2-25-62.2-63.6c0-39.7,24.5-67.4,59.5-67.4c38.8,0,52.6,31.8,52.6,59.1
			c0,4.6-0.2,8-0.8,10.7l-0.3,1.5h-85.8c1.5,34.7,28.4,38.5,40.1,38.5c16.8,0,26.2-3.1,33.2-6.1l2.1-0.9l5,19.6l-1.5,0.7
			C654.2,558.5,640.4,562.8,620.5,562.8 M644.9,483.5c-0.2-5.3-1.4-16.7-9.1-24.5c-4.9-5-11.6-7.5-19.9-7.5c-20,0-29.6,16.7-32,31.9
			H644.9z"/>
		<path class="st1" d="M686.5,560.1v-85.8c0-15.8-0.3-27.5-1-37.9l-0.1-2h23.4l0.8,19.1c6.8-13.3,19.3-21.6,33.3-21.6
			c2.2,0,3.9,0.2,5.8,0.5l2.2,0.3v25l-2.3-0.5c-2.1-0.5-4.2-0.5-7.2-0.5c-14.3,0-25,10.2-28,26.7c-0.5,2.8-0.7,6.4-0.7,10v66.9
			H686.5z"/>
		<path class="st1" d="M769.3,555.7c-9.4-6.7-15-17.8-15-29.8c0-30.3,26.2-47.1,73.8-47.3v-0.6c0-17.3-8.6-26.1-25.5-26.1h-0.5
			c-11.4,0-23,3.3-31.1,8.7l-2.1,1.4l-6.4-18.7l1.3-0.8c11-6.8,26.5-10.9,41.6-10.9c25.3,0,41.5,11.7,46.7,34l0.2,1l-28.2,31.1
			l-0.8,0c-28.4,0.7-42.8,9.3-42.8,25.5c0,6,1.7,10.8,5.1,14.2l1.3,1.3l-16.2,17.8L769.3,555.7z"/>
		<path class="st1" d="M172.6,444.9c0,7.6-5.3,13.6-14.2,13.6c-8.1,0-13.4-6-13.4-13.6c0-7.6,5.6-13.8,13.9-13.8
			C167.1,431,172.6,437.1,172.6,444.9"/>
	</g>
	<polygon class="st1" points="816.1,562.5 855,562.5 855,518.7 	"/>
	<polygon class="st1" points="149.2,560.1 149.2,507.8 175.4,479.6 175.4,560.1 	"/>
</g>
</svg>
